<?xml version="1.0" standalone="no"?>
<!DOCTYPE svg PUBLIC "-//W3C//DTD SVG 1.1//EN" "http://www.w3.org/Graphics/SVG/1.1/DTD/svg11.dtd" >
<svg>
<metadata>
Created by FontForge 20090622 at Wed Oct 14 14:56:19 2015
 By deploy user
Digitised data (c) 2004 Monotype Imaging. All Rights Reserved. Neo Sans is designed by Sebastian Lester.
</metadata>
<defs>
<font id="NeoSansPro-Light" horiz-adv-x="580" >
  <font-face 
    font-family="Neo Sans Pro Light"
    font-weight="300"
    font-stretch="normal"
    units-per-em="1000"
    panose-1="2 11 3 4 3 5 4 4 2 4"
    ascent="765"
    descent="-235"
    x-height="537"
    cap-height="743"
    bbox="-87 -216 1285 980"
    underline-thickness="42"
    underline-position="-35"
    unicode-range="U+001D-U+FB04"
  />
    <missing-glyph />
    <glyph glyph-name="uniFB01" unicode="fi" horiz-adv-x="571" 
d="M342 722q0 -13 -21 -13h-50q-69 0 -69 -79v-93h270q19 0 19 -19v-499q0 -19 -19 -19h-6q-19 0 -19 19v477h-245v-477q0 -19 -18 -19h-7q-19 0 -19 19v477h-99q-19 0 -19 16v9q0 16 19 16h99v93q0 118 113 118q33 0 52 -3t19 -16v-7zM491 655q0 -19 -19 -19h-6
q-19 0 -19 19v74q0 19 19 19h6q19 0 19 -19v-74z" />
    <glyph glyph-name="uniFB02" unicode="fl" horiz-adv-x="571" 
d="M491 19q0 -19 -17 -19h-10q-17 0 -17 19v690h-144q-61 0 -80 -14q-21 -15 -21 -65v-93h119q19 0 19 -16v-9q0 -16 -19 -16h-119v-477q0 -19 -18 -19h-7q-19 0 -19 19v477h-99q-19 0 -19 16v9q0 16 19 16h99v93q0 68 34 94q31 24 109 24q116 0 173 -3q17 0 17 -19v-707z
" />
    <glyph glyph-name="uniFB00" unicode="ff" horiz-adv-x="666" 
d="M631 722q0 -13 -21 -13h-50q-69 0 -69 -79v-93h119q19 0 19 -16v-9q0 -16 -19 -16h-119v-477q0 -19 -18 -19h-7q-19 0 -19 19v477h-245v-477q0 -19 -18 -19h-7q-19 0 -19 19v477h-99q-19 0 -19 16v9q0 16 19 16h99v93q0 118 113 118q33 0 52 -3t19 -16v-7q0 -13 -21 -13
h-50q-69 0 -69 -79v-93h245v93q0 118 113 118q33 0 52 -3t19 -16v-7z" />
    <glyph glyph-name="uniFB03" unicode="ffi" horiz-adv-x="870" 
d="M790 19q0 -19 -19 -19h-6q-19 0 -19 19v477h-255v-477q0 -19 -18 -19h-7q-19 0 -19 19v477h-245v-477q0 -19 -18 -19h-7q-19 0 -19 19v477h-99q-19 0 -19 16v9q0 16 19 16h99v93q0 118 113 118q33 0 52 -3t19 -16v-7q0 -13 -21 -13h-50q-69 0 -69 -79v-93h245v93
q0 118 113 118q33 0 52 -3t19 -16v-7q0 -13 -21 -13h-50q-69 0 -69 -79v-93h280q19 0 19 -19v-499zM790 655q0 -19 -19 -19h-6q-19 0 -19 19v74q0 19 19 19h6q19 0 19 -19v-74z" />
    <glyph glyph-name="uniFB04" unicode="ffl" horiz-adv-x="860" 
d="M342 722q0 -13 -21 -13h-50q-69 0 -69 -79v-93h245v93q0 68 34 94q31 24 109 24q116 0 173 -3q17 0 17 -19v-707q0 -19 -17 -19h-10q-17 0 -17 19v690h-144q-61 0 -80 -14q-21 -15 -21 -65v-93h119q19 0 19 -16v-9q0 -16 -19 -16h-119v-477q0 -19 -18 -19h-7
q-19 0 -19 19v477h-245v-477q0 -19 -18 -19h-7q-19 0 -19 19v477h-99q-19 0 -19 16v9q0 16 19 16h99v93q0 118 113 118q33 0 52 -3t19 -16v-7z" />
    <glyph glyph-name="f_b" unicode="fb" horiz-adv-x="881" 
d="M303 709q-61 0 -80 -14q-21 -15 -21 -65v-93h119q19 0 19 -16v-9q0 -16 -19 -16h-119v-477q0 -19 -18 -19h-7q-19 0 -19 19v477h-99q-19 0 -19 16v9q0 16 19 16h99v93q0 68 34 94q31 24 109 24q116 0 173 -3q17 0 17 -19v-199q67 15 139 15q196 0 196 -239v-66
q0 -243 -196 -243q-75 0 -168 19q-15 4 -15 19v677h-144zM782 303q0 101 -35 150q-36 50 -117 50q-77 0 -139 -13v-444q78 -13 139 -13q152 0 152 204v66z" />
    <glyph glyph-name="f_f_b" unicode="ffb" horiz-adv-x="1170" 
d="M202 496v-477q0 -19 -18 -19h-7q-19 0 -19 19v477h-99q-19 0 -19 16v9q0 16 19 16h99v93q0 118 113 118q33 0 52 -3t19 -16v-7q0 -13 -21 -13h-50q-69 0 -69 -79v-93h245v93q0 68 34 94q31 24 109 24q116 0 173 -3q17 0 17 -19v-199q67 15 139 15q196 0 196 -239v-66
q0 -243 -196 -243q-75 0 -168 19q-15 4 -15 19v677h-144q-61 0 -80 -14q-21 -15 -21 -65v-93h119q19 0 19 -16v-9q0 -16 -19 -16h-119v-477q0 -19 -18 -19h-7q-19 0 -19 19v477h-245zM1071 303q0 101 -35 150q-36 50 -117 50q-77 0 -139 -13v-444q78 -13 139 -13
q152 0 152 204v66z" />
    <glyph glyph-name="f_f_h" unicode="ffh" horiz-adv-x="1171" 
d="M202 496v-477q0 -19 -18 -19h-7q-19 0 -19 19v477h-99q-19 0 -19 16v9q0 16 19 16h99v93q0 118 113 118q33 0 52 -3t19 -16v-7q0 -13 -21 -13h-50q-69 0 -69 -79v-93h245v93q0 68 34 94q31 24 109 24q135 0 173 -3q17 -1 17 -19v-202q70 18 135 18q191 0 191 -192v-337
q0 -19 -17 -19h-10q-16 0 -16 19v337q0 153 -148 153q-73 0 -135 -18v-472q0 -19 -17 -19h-10q-17 0 -17 19v696h-144q-61 0 -80 -14q-21 -15 -21 -65v-93h119q19 0 19 -16v-9q0 -16 -19 -16h-119v-477q0 -19 -18 -19h-7q-19 0 -19 19v477h-245z" />
    <glyph glyph-name="f_f_k" unicode="ffk" horiz-adv-x="1111" 
d="M202 496v-477q0 -19 -18 -19h-7q-19 0 -19 19v477h-99q-19 0 -19 16v9q0 16 19 16h99v93q0 118 113 118q33 0 52 -3t19 -16v-7q0 -13 -21 -13h-50q-69 0 -69 -79v-93h245v93q0 68 34 94q31 24 109 24q135 0 173 -3q17 -1 17 -19v-423l246 230q11 9 24 9q17 0 21 -12
q3 -11 -8 -21l-245 -224l246 -260q9 -10 5 -20q-4 -11 -17 -11q-18 0 -30 12l-242 259v-252q0 -19 -19 -19h-6q-19 0 -19 19v696h-144q-61 0 -80 -14q-21 -15 -21 -65v-93h119q19 0 19 -16v-9q0 -16 -19 -16h-119v-477q0 -19 -18 -19h-7q-19 0 -19 19v477h-245z" />
    <glyph glyph-name="f_h" unicode="fh" horiz-adv-x="882" 
d="M491 524q70 18 135 18q191 0 191 -192v-337q0 -19 -17 -19h-10q-16 0 -16 19v337q0 153 -148 153q-73 0 -135 -18v-472q0 -19 -17 -19h-10q-17 0 -17 19v696h-144q-61 0 -80 -14q-21 -15 -21 -65v-93h119q19 0 19 -16v-9q0 -16 -19 -16h-119v-477q0 -19 -18 -19h-7
q-19 0 -19 19v477h-99q-19 0 -19 16v9q0 16 19 16h99v93q0 68 34 94q31 24 109 24q135 0 173 -3q17 -1 17 -19v-202z" />
    <glyph glyph-name="f_j" unicode="fj" horiz-adv-x="581" 
d="M501 -86q0 -62 -26 -87q-24 -22 -77 -22q-19 0 -42 3q-17 2 -17 14v9q0 12 21 12h38q34 0 46 13q13 14 13 58v582h-255v-477q0 -19 -18 -19h-7q-19 0 -19 19v477h-99q-19 0 -19 16v9q0 16 19 16h99v93q0 118 113 118q33 0 52 -3t19 -16v-7q0 -13 -21 -13h-50
q-69 0 -69 -79v-93h282q17 0 17 -19v-604zM501 655q0 -19 -19 -19h-6q-19 0 -19 19v74q0 19 19 19h6q19 0 19 -19v-74z" />
    <glyph glyph-name="f_f_j" unicode="ffj" horiz-adv-x="870" 
d="M790 -86q0 -62 -26 -87q-24 -22 -77 -22q-19 0 -42 3q-17 2 -17 14v9q0 12 21 12h38q34 0 46 13q13 14 13 58v582h-255v-477q0 -19 -18 -19h-7q-19 0 -19 19v477h-245v-477q0 -19 -18 -19h-7q-19 0 -19 19v477h-99q-19 0 -19 16v9q0 16 19 16h99v93q0 118 113 118
q33 0 52 -3t19 -16v-7q0 -13 -21 -13h-50q-69 0 -69 -79v-93h245v93q0 118 113 118q33 0 52 -3t19 -16v-7q0 -13 -21 -13h-50q-69 0 -69 -79v-93h282q17 0 17 -19v-604zM790 655q0 -19 -19 -19h-6q-19 0 -19 19v74q0 19 19 19h6q19 0 19 -19v-74z" />
    <glyph glyph-name="f_k" unicode="fk" horiz-adv-x="822" 
d="M303 709q-61 0 -80 -14q-21 -15 -21 -65v-93h119q19 0 19 -16v-9q0 -16 -19 -16h-119v-477q0 -19 -18 -19h-7q-19 0 -19 19v477h-99q-19 0 -19 16v9q0 16 19 16h99v93q0 68 34 94q31 24 109 24q135 0 173 -3q17 -1 17 -19v-423l246 230q11 9 24 9q17 0 21 -12
q3 -11 -8 -21l-245 -224l246 -260q9 -10 5 -20q-4 -11 -17 -11q-18 0 -30 12l-242 259v-252q0 -19 -19 -19h-6q-19 0 -19 19v696h-144z" />
    <glyph glyph-name="uni001D" horiz-adv-x="500" 
d="M12 665h475v-665h-475v665zM250 375l161 243h-323zM60 91q0 -1 161 242l-161 242v-484zM278 333l162 -243v485zM250 290l-162 -242h323z" />
    <glyph glyph-name="nonmarkingreturn" unicode=" " horiz-adv-x="215" 
 />
    <glyph glyph-name="exclam" unicode="!" horiz-adv-x="204" 
d="M124 192q0 -19 -19 -19h-6q-19 0 -19 19v532q0 19 19 19h6q19 0 19 -19v-532zM124 13q0 -19 -19 -19h-6q-19 0 -19 19v74q0 19 19 19h6q19 0 19 -19v-74z" />
    <glyph glyph-name="quotedbl" unicode="&#x22;" horiz-adv-x="295" 
d="M255 724l-48 -172q-5 -19 -19 -19h-15q-9 0 -9 10q0 6 1 9l41 172q4 19 20 19h19q11 0 11 -11q0 -5 -1 -8zM130 724l-48 -172q-5 -19 -19 -19h-15q-9 0 -9 10q0 6 1 9l41 172q4 19 20 19h19q11 0 11 -11q0 -5 -1 -8z" />
    <glyph glyph-name="numbersign" unicode="#" horiz-adv-x="636" 
d="M586 497q0 -17 -20 -17h-104l-20 -226h104q17 0 17 -17v-3q0 -17 -20 -17h-105l-17 -198q-2 -19 -18 -19h-9q-16 0 -16 17l17 200h-180l-17 -198q-2 -19 -18 -19h-10q-16 0 -16 17l17 200h-103q-18 0 -18 17v3q0 17 21 17h104l20 226h-104q-18 0 -18 17v4q0 17 21 17h104
l18 206q2 19 19 19h10q15 0 15 -17l-18 -208h180l18 206q2 19 19 19h9q15 0 15 -17l-18 -208h104q17 0 17 -17v-4zM239 480l-20 -226h180l20 226h-180z" />
    <glyph glyph-name="dollar" unicode="$" 
d="M312 -4v-105q0 -19 -16 -19h-10q-16 0 -16 19v103h-2q-45 0 -155 11q-18 2 -18 16v13q0 13 19 13l154 -11q186 0 186 148q0 49 -27 80q-24 27 -108 79l-100 62q-81 50 -110 90q-29 38 -29 91q0 145 190 160v87q0 19 16 19h10q16 0 16 -19v-85h2q42 0 149 -10
q17 -2 17 -15v-13q0 -14 -19 -14q-7 0 -63 5t-85 5q-98 0 -143 -29q-44 -28 -44 -91q0 -43 25 -72q24 -29 96 -73l98 -60q93 -56 126 -100q29 -40 29 -97q0 -171 -188 -188z" />
    <glyph glyph-name="percent" unicode="%" horiz-adv-x="757" 
d="M697 150q0 -156 -126 -156q-127 0 -127 156v104q0 155 127 155q126 0 126 -155v-104zM611 724l-420 -711q-11 -19 -21 -19h-27q-7 0 -7 5t6 14l420 711q11 19 21 19h26q8 0 8 -5t-6 -14zM313 489q0 -156 -126 -156q-127 0 -127 156v104q0 155 127 155q126 0 126 -155
v-104zM658 254q0 117 -87 117q-88 0 -88 -117v-104q0 -117 88 -117q87 0 87 117v104zM274 593q0 117 -87 117q-88 0 -88 -117v-104q0 -117 88 -117q87 0 87 117v104z" />
    <glyph glyph-name="ampersand" unicode="&#x26;" horiz-adv-x="637" 
d="M591 0h-32q-10 0 -16 7l-63 67q-77 -80 -204 -80q-91 0 -150 36q-76 45 -76 137v6q0 61 33 106q33 44 119 99q-120 140 -120 211v6q0 153 191 153q77 0 126 -34q57 -40 57 -119v-6q0 -105 -157 -200l-33 -20l213 -229q51 79 51 208v11q0 19 15 19h14q16 0 16 -19v-11
q0 -146 -66 -240l88 -95q2 -4 2 -6q0 -7 -8 -7zM410 595q0 113 -137 113q-70 0 -104 -22q-41 -27 -41 -91v-6q0 -61 111 -188l37 22q79 47 108 84q26 34 26 82v6zM328 238q-80 86 -99 108q-78 -50 -104 -82q-28 -36 -28 -91v-6q0 -68 56 -103q48 -30 123 -30q110 0 176 71z
" />
    <glyph glyph-name="quoteright" unicode="&#x2019;" horiz-adv-x="170" 
d="M130 724l-48 -172q-5 -19 -19 -19h-15q-9 0 -9 10q0 6 1 9l41 172q4 19 20 19h19q11 0 11 -11q0 -5 -1 -8z" />
    <glyph glyph-name="parenleft" unicode="(" horiz-adv-x="265" 
d="M237 -195h-30q-11 0 -17 7q-130 158 -130 435v54q0 277 130 435q6 7 17 7h30q8 0 8 -5q0 -4 -5 -9q-64 -69 -102 -203q-33 -116 -33 -225v-54q0 -109 33 -225q38 -134 102 -203q5 -5 5 -9q0 -5 -8 -5z" />
    <glyph glyph-name="parenright" unicode=")" horiz-adv-x="265" 
d="M205 247q0 -277 -130 -435q-6 -7 -17 -7h-30q-8 0 -8 5q0 4 5 9q64 69 102 203q33 116 33 225v54q0 109 -33 225q-38 134 -102 203q-5 5 -5 9q0 5 8 5h30q11 0 17 -7q130 -158 130 -435v-54z" />
    <glyph glyph-name="asterisk" unicode="*" horiz-adv-x="417" 
d="M369 599l-130 -42l80 -111q5 -7 5 -12q0 -6 -6 -11l-7 -5q-4 -3 -8 -3q-7 0 -14 9l-81 111l-80 -111q-6 -8 -14 -8q-5 0 -8 2l-8 5q-6 3 -6 10q0 6 5 13l81 111l-130 42q-14 4 -14 16q0 3 1 4l3 8q3 9 14 9q4 0 7 -1l131 -42v137q0 18 14 18h9q14 0 14 -18v-137l131 42
q3 1 7 1q11 0 14 -9l3 -8q1 -1 1 -4q0 -12 -14 -16z" />
    <glyph glyph-name="plus" unicode="+" 
d="M513 386q0 -16 -20 -16h-182v-181q0 -20 -16 -20h-10q-16 0 -16 20v181h-181q-20 0 -20 16v10q0 16 20 16h181v182q0 20 16 20h10q16 0 16 -20v-182h182q20 0 20 -16v-10z" />
    <glyph glyph-name="comma" unicode="," horiz-adv-x="168" 
d="M128 87l-63 -168q-7 -19 -19 -19h-12q-10 0 -10 10q0 3 2 9l53 168q5 19 20 19h19q12 0 12 -11q0 -2 -2 -8z" />
    <glyph glyph-name="hyphen" unicode="-" horiz-adv-x="344" 
d="M292 273q0 -16 -19 -16h-202q-19 0 -19 16v8q0 18 19 18h202q19 0 19 -18v-8z" />
    <glyph glyph-name="period" unicode="." horiz-adv-x="168" 
d="M106 13q0 -19 -19 -19h-6q-19 0 -19 19v74q0 19 19 19h6q19 0 19 -19v-74z" />
    <glyph glyph-name="slash" unicode="/" horiz-adv-x="312" 
d="M297 729l-235 -716q-6 -19 -16 -19h-22q-10 0 -10 12q0 5 1 7l235 716q6 19 16 19h21q11 0 11 -12q0 -5 -1 -7z" />
    <glyph glyph-name="zero" unicode="0" 
d="M520 273q0 -279 -230 -279t-230 279v197q0 278 230 278t230 -278v-197zM476 470q0 238 -186 238t-186 -238v-197q0 -239 186 -239t186 239v197z" />
    <glyph glyph-name="one" unicode="1" 
d="M256 41v659l-177 -22q-15 0 -15 13v5q0 16 20 20l198 27q18 0 18 -20v-682h171q20 0 20 -15v-11q0 -15 -20 -15h-386q-20 0 -20 15v11q0 15 20 15h171z" />
    <glyph glyph-name="two" unicode="2" 
d="M472 475q-30 -42 -107 -94l-102 -69q-90 -60 -117 -114q-21 -40 -21 -117v-40h346q20 0 20 -15v-11q0 -15 -20 -15h-371q-20 0 -20 20v61q0 83 27 135q34 67 128 130l102 69q68 46 91 78q24 32 24 80q0 69 -42 100q-44 33 -142 33q-76 0 -153 -15l-5 -1q-16 0 -16 16v11
q0 12 19 16q70 15 155 15q232 0 232 -175q0 -57 -28 -98z" />
    <glyph glyph-name="three" unicode="3" 
d="M496 206q0 -212 -248 -212q-75 0 -146 15q-18 4 -18 18v6q0 16 16 16h4q78 -13 144 -13q104 0 152 40q49 40 49 130v20q0 50 -32 91q-39 52 -110 52h-187q-19 0 -19 18v7q0 18 19 18h187q77 0 115 51q27 37 27 90v12q0 81 -50 113q-45 28 -151 28q-54 0 -144 -15h-4
q-16 0 -16 16v8q0 14 18 18q84 15 146 15q124 0 182 -37q66 -43 66 -146v-12q0 -120 -104 -165q104 -47 104 -162v-20z" />
    <glyph glyph-name="four" unicode="4" 
d="M542 233q0 -17 -19 -17h-100v-197q0 -19 -16 -19h-12q-16 0 -16 19v197h-277q-64 0 -64 54q0 21 14 42l280 411q16 25 51 25q40 0 40 -48v-442h100q19 0 19 -16v-9zM379 694q0 8 -6 8q-4 0 -10 -8l-273 -401q-10 -16 -10 -23q0 -12 22 -12h277v436z" />
    <glyph glyph-name="five" unicode="5" 
d="M503 215q0 -106 -70 -165q-68 -56 -183 -56q-77 0 -154 18q-19 3 -19 19v11q0 13 13 13q5 0 8 -1q77 -18 152 -18q209 0 209 179v25q0 86 -58 122q-54 33 -183 33h-106q-20 0 -20 20l23 311q2 17 20 17h326q20 0 20 -16v-11q0 -14 -20 -14h-303l-18 -266h78
q158 0 224 -50q61 -46 61 -146v-25z" />
    <glyph glyph-name="six" unicode="6" 
d="M516 251q0 -257 -231 -257q-221 0 -221 259v235q0 137 63 201q59 59 182 59q74 0 159 -19q22 -4 22 -18v-10q0 -14 -16 -14q-5 0 -8 1q-87 18 -157 18q-105 0 -151 -48q-50 -51 -50 -170v-62q102 26 185 26q95 0 152 -41q71 -51 71 -155v-5zM472 256q0 155 -179 155
q-93 0 -185 -24v-134q0 -118 43 -169q42 -50 134 -50q187 0 187 217v5z" />
    <glyph glyph-name="seven" unicode="7" 
d="M512 686l-320 -676q-4 -10 -18 -10h-15q-15 0 -15 15q0 6 3 12l316 659q1 2 1 6q0 8 -8 8h-374q-20 0 -20 16v8q0 19 20 19h396q39 0 39 -35q0 -12 -5 -22z" />
    <glyph glyph-name="eight" unicode="8" 
d="M524 197q0 -100 -66 -153q-62 -50 -168 -50t-168 50q-66 53 -66 153v30q0 46 25 90q29 50 79 72q-48 17 -76 60q-28 42 -28 95v22q0 91 65 138q61 44 169 44t169 -44q65 -47 65 -138v-22q0 -53 -28 -95q-28 -43 -76 -60q50 -22 79 -72q25 -44 25 -90v-30zM477 566
q0 140 -187 140t-187 -140v-22q0 -52 30 -87q39 -45 116 -45h82q77 0 116 45q30 35 30 87v22zM477 227q0 48 -30 88q-40 54 -116 54h-82q-76 0 -116 -54q-30 -40 -30 -88v-30q0 -161 187 -161t187 161v30z" />
    <glyph glyph-name="nine" unicode="9" 
d="M516 254q0 -137 -63 -200q-59 -60 -182 -60q-74 0 -159 19q-22 4 -22 18v10q0 14 16 14q5 0 8 -1q87 -18 157 -18q105 0 152 48q49 51 49 170v62q-102 -26 -185 -26q-95 0 -152 41q-71 51 -71 155v5q0 257 231 257q221 0 221 -259v-235zM472 489q0 118 -43 170
q-42 49 -134 49q-187 0 -187 -217v-5q0 -155 179 -155q93 0 185 24v134z" />
    <glyph glyph-name="colon" unicode=":" horiz-adv-x="178" 
d="M111 449q0 -19 -19 -19h-6q-19 0 -19 19v74q0 19 19 19h6q19 0 19 -19v-74zM111 13q0 -19 -19 -19h-6q-19 0 -19 19v74q0 19 19 19h6q19 0 19 -19v-74z" />
    <glyph glyph-name="semicolon" unicode=";" horiz-adv-x="178" 
d="M111 449q0 -19 -19 -19h-6q-19 0 -19 19v74q0 19 19 19h6q19 0 19 -19v-74zM116 87l-63 -168q-7 -19 -19 -19h-12q-10 0 -10 10q0 3 2 9l53 168q5 19 20 19h19q12 0 12 -11q0 -2 -2 -8z" />
    <glyph glyph-name="less" unicode="&#x3c;" 
d="M426 148l-7 -7q-4 -4 -10 -4q-7 0 -16 7l-266 218q-15 12 -15 29t15 29l266 218q9 7 16 7q6 0 10 -4l7 -7q5 -5 5 -11q0 -9 -8 -15l-265 -217l265 -217q8 -6 8 -15q0 -6 -5 -11z" />
    <glyph glyph-name="equal" unicode="=" 
d="M493 486q0 -16 -20 -16h-365q-20 0 -20 16v10q0 16 20 16h365q20 0 20 -16v-10zM493 286q0 -16 -20 -16h-365q-20 0 -20 16v10q0 16 20 16h365q20 0 20 -16v-10z" />
    <glyph glyph-name="greater" unicode="&#x3e;" 
d="M467 362l-266 -218q-9 -7 -16 -7q-6 0 -10 4l-7 7q-5 5 -5 11q0 9 8 15l265 217l-265 217q-8 6 -8 15q0 6 5 11l7 7q4 4 10 4q7 0 16 -7l266 -218q15 -12 15 -29t-15 -29z" />
    <glyph glyph-name="question" unicode="?" horiz-adv-x="424" 
d="M364 595q0 -79 -110 -189l-30 -30q-60 -60 -60 -124v-60q0 -19 -19 -19h-6q-19 0 -19 19v60q0 82 74 156l28 28q94 94 94 159v8q0 106 -145 106q-39 0 -121 -7h-2q-13 0 -13 12v8q0 17 17 19q57 7 119 7q83 0 133 -31q60 -38 60 -114v-8zM163 13q0 -19 -19 -19h-6
q-19 0 -19 19v74q0 19 19 19h6q19 0 19 -19v-74z" />
    <glyph glyph-name="at" unicode="@" horiz-adv-x="758" 
d="M627 122q-78 -57 -272 -57q-70 0 -107 37q-34 35 -34 94q0 12 1 18l11 118q14 147 161 147q59 0 123 -14q14 -3 14 -13l-31 -341q113 14 149 86q23 49 23 176q0 103 -66 168q-70 68 -189 68q-127 0 -211 -77q-80 -74 -91 -187l-14 -142q-1 -10 -1 -29q0 -101 62 -165
q68 -70 193 -70q56 0 126 5h4q15 0 15 -12q0 -4 -1 -7q-3 -13 -20 -16q-62 -8 -128 -8q-138 0 -219 83q-75 75 -75 190q0 19 1 29l14 143q12 131 103 214q96 88 245 88q138 0 220 -85q75 -77 75 -190q0 -191 -81 -251zM479 431q-61 9 -94 9q-107 0 -117 -109l-11 -117
q-1 -6 -1 -17q0 -92 99 -92h34q42 0 61 3z" />
    <glyph glyph-name="A" unicode="A" horiz-adv-x="619" 
d="M579 22q7 -25 -14 -25h-12q-12 0 -16 13l-84 271h-288l-82 -271q-4 -13 -16 -13h-13q-21 0 -14 25l205 677q15 49 65 49t64 -48zM333 688q-6 20 -23 20q-18 0 -23 -19l-110 -364h265z" />
    <glyph glyph-name="B" unicode="B" 
d="M528 203q0 -210 -279 -210q-78 0 -150 8q-19 1 -19 19v703q0 17 19 19q82 6 150 6q275 0 275 -181v-11q0 -124 -119 -166q123 -37 123 -170v-17zM480 567q0 83 -72 117q-53 25 -159 25l-125 -4v-293h181q175 0 175 144v11zM484 220q0 149 -179 149h-181v-330
q86 -6 125 -6q108 0 163 31q72 40 72 139v17z" />
    <glyph glyph-name="C" unicode="C" horiz-adv-x="537" 
d="M497 21q0 -15 -19 -17q-87 -10 -173 -10q-107 0 -169 66q-76 79 -76 245v132q0 166 76 245q62 66 169 66q86 0 173 -10q19 -2 19 -17v-12q0 -14 -19 -12q-81 9 -173 9q-91 0 -142 -61q-59 -68 -59 -208v-132q0 -140 59 -208q51 -61 142 -61q92 0 173 9q19 2 19 -12v-12z
" />
    <glyph glyph-name="D" unicode="D" horiz-adv-x="613" 
d="M553 309q0 -315 -292 -315q-118 0 -164 8q-17 4 -17 19v700q0 15 17 19q46 8 164 8q292 0 292 -315v-124zM509 433q0 276 -248 276q-49 0 -137 -6v-666q59 -4 137 -4q248 0 248 276v124z" />
    <glyph glyph-name="E" unicode="E" horiz-adv-x="533" 
d="M478 17q0 -17 -19 -17h-258q-121 0 -121 112v519q0 112 121 112h258q19 0 19 -17v-8q0 -16 -19 -16h-258q-40 0 -56 -12q-21 -16 -21 -59v-220h335q19 0 19 -16v-10q0 -17 -19 -17h-335v-256q0 -43 21 -59q16 -12 56 -12h258q19 0 19 -16v-8z" />
    <glyph glyph-name="F" unicode="F" horiz-adv-x="518" 
d="M478 385q0 -17 -19 -17h-335v-349q0 -19 -17 -19h-10q-17 0 -17 19v612q0 112 121 112h258q19 0 19 -17v-8q0 -16 -19 -16h-258q-40 0 -56 -12q-21 -16 -21 -59v-220h335q19 0 19 -16v-10z" />
    <glyph glyph-name="G" unicode="G" horiz-adv-x="588" 
d="M508 712q0 -18 -21 -15q-101 10 -176 10q-207 0 -207 -274v-124q0 -273 207 -273q80 0 152 9v318q0 19 17 19h10q17 0 17 -19v-337q0 -17 -17 -19q-104 -13 -179 -13q-113 0 -179 75q-72 82 -72 240v124q0 171 82 251q64 64 169 64q94 0 180 -10q17 -2 17 -16v-10z" />
    <glyph glyph-name="H" unicode="H" horiz-adv-x="647" 
d="M567 19q0 -19 -17 -19h-9q-17 0 -17 19v358h-400v-358q0 -19 -17 -19h-10q-17 0 -17 19v705q0 19 17 19h10q17 0 17 -19v-306h400v306q0 19 17 19h9q17 0 17 -19v-705z" />
    <glyph glyph-name="I" unicode="I" horiz-adv-x="224" 
d="M134 19q0 -19 -17 -19h-10q-17 0 -17 19v705q0 19 17 19h10q17 0 17 -19v-705z" />
    <glyph glyph-name="J" unicode="J" horiz-adv-x="224" 
d="M134 -60q0 -72 -31 -102q-33 -33 -113 -33h-14q-20 0 -20 14v10q0 15 20 15h14q62 0 81 18q19 19 19 78v784q0 19 17 19h10q17 0 17 -19v-784z" />
    <glyph glyph-name="K" unicode="K" horiz-adv-x="542" 
d="M498 712l-336 -326l343 -356q10 -11 6 -22q-4 -10 -18 -10q-15 0 -23 8l-346 360v-347q0 -19 -17 -19h-10q-17 0 -17 19v705q0 19 19 19h6q19 0 19 -19v-320l340 332q12 11 23 11q19 0 19 -17q0 -10 -8 -18z" />
    <glyph glyph-name="L" unicode="L" horiz-adv-x="483" 
d="M448 17q0 -17 -19 -17h-228q-121 0 -121 112v612q0 19 17 19h10q17 0 17 -19v-612q0 -43 21 -59q16 -12 56 -12h228q19 0 19 -16v-8z" />
    <glyph glyph-name="M" unicode="M" horiz-adv-x="730" 
d="M650 19q0 -19 -17 -19h-10q-17 0 -17 19v680q0 7 -7 7q-5 0 -10 -9l-173 -365q-17 -36 -51 -36t-51 36l-173 365q-5 9 -10 9q-7 0 -7 -7v-680q0 -19 -17 -19h-10q-17 0 -17 19v680q0 49 51 49q31 0 46 -31l175 -367q6 -13 13 -13t13 13l175 367q15 31 46 31q51 0 51 -49
v-680z" />
    <glyph glyph-name="N" unicode="N" horiz-adv-x="651" 
d="M571 45q0 -51 -45 -51q-25 0 -34 7q-11 9 -18 23l-337 675q-3 7 -8 7t-5 -7v-680q0 -19 -17 -19h-10q-17 0 -17 19v680q0 49 49 49q33 0 48 -31l336 -674q4 -7 8 -7q5 0 5 9v679q0 19 16 19h12q17 0 17 -19v-679z" />
    <glyph glyph-name="O" unicode="O" horiz-adv-x="632" 
d="M572 309q0 -160 -72 -241q-66 -74 -184 -74t-184 74q-72 81 -72 241v124q0 160 72 241q66 74 184 74t184 -74q72 -81 72 -241v-124zM528 433q0 273 -212 273t-212 -273v-124q0 -273 212 -273t212 273v124z" />
    <glyph glyph-name="P" unicode="P" horiz-adv-x="540" 
d="M505 528q0 -214 -272 -214q-53 0 -109 4v-299q0 -19 -17 -19h-10q-17 0 -17 19v705q0 17 17 19q88 5 136 5q272 0 272 -203v-17zM461 545q0 90 -58 129q-54 35 -170 35q-65 0 -109 -3v-349q62 -4 109 -4q118 0 172 40q56 41 56 135v17z" />
    <glyph glyph-name="Q" unicode="Q" horiz-adv-x="632" 
d="M572 309q0 -153 -66 -233q-60 -75 -169 -81v-67q0 -56 15 -69q15 -15 78 -15h21q20 0 20 -16v-7q0 -16 -20 -16h-21q-75 0 -102 20q-35 26 -35 103v67q-108 7 -168 81q-65 81 -65 233v124q0 160 72 241q66 74 184 74t184 -74q72 -81 72 -241v-124zM528 433
q0 273 -212 273t-212 -273v-124q0 -273 212 -273t212 273v124z" />
    <glyph glyph-name="R" unicode="R" horiz-adv-x="598" 
d="M548 29q6 -10 4 -19q-3 -10 -15 -10h-13q-8 0 -15 9l-213 326l-172 1v-317q0 -19 -17 -19h-10q-17 0 -17 19v706q0 17 17 19q70 4 156 4q140 0 204 -45q68 -48 68 -159v-5q0 -169 -179 -199zM481 544q0 90 -58 128q-53 34 -170 34q-89 0 -129 -4v-324l129 -1
q121 0 172 33q56 36 56 129v5z" />
    <glyph glyph-name="S" unicode="S" horiz-adv-x="530" 
d="M243 -6q-84 0 -146 10q-27 5 -27 21v4q0 19 23 17q80 -10 150 -10q186 0 186 149q0 51 -35 86q-25 24 -119 83l-63 39q-82 50 -113 85q-44 49 -44 115q0 155 234 155q74 0 139 -9q27 -3 27 -20v-5q0 -19 -31 -16q-72 8 -136 8q-188 0 -188 -113q0 -50 34 -87
q27 -29 101 -74l64 -39q98 -59 132 -96q44 -47 44 -112q0 -191 -232 -191z" />
    <glyph glyph-name="T" unicode="T" horiz-adv-x="571" 
d="M541 717q0 -15 -19 -15h-214v-683q0 -19 -17 -19h-10q-17 0 -17 19v683h-215q-19 0 -19 15v9q0 17 19 17h473q19 0 19 -17v-9z" />
    <glyph glyph-name="U" unicode="U" horiz-adv-x="633" 
d="M553 264q0 -270 -236 -270q-237 0 -237 270v460q0 19 17 19h10q17 0 17 -19v-460q0 -229 193 -229q192 0 192 229v460q0 19 17 19h10q17 0 17 -19v-460z" />
    <glyph glyph-name="V" unicode="V" horiz-adv-x="630" 
d="M380 43q-14 -49 -65 -49t-65 49l-205 675q-8 25 16 25h11q13 0 16 -14l204 -673q6 -20 23 -20t23 20l204 673q4 14 16 14h11q24 0 16 -25z" />
    <glyph glyph-name="W" unicode="W" horiz-adv-x="788" 
d="M620 41q-9 -47 -48 -47q-35 0 -48 45l-122 387q-4 12 -8 12t-8 -12l-122 -387q-13 -45 -48 -45q-39 0 -48 47l-123 679q-4 23 16 23h10q15 0 18 -16l121 -677q3 -15 6 -15q4 0 8 15l125 389q12 39 45 39t45 -39l125 -389q5 -15 8 -15t6 15l121 677q3 16 18 16h10
q20 0 16 -23z" />
    <glyph glyph-name="X" unicode="X" horiz-adv-x="602" 
d="M557 29q7 -10 3 -19q-3 -10 -15 -10h-8q-9 0 -16 9l-220 333l-220 -333q-7 -9 -16 -9h-9q-12 0 -15 10q-4 9 3 19l231 351l-220 333q-6 10 -4 20q3 10 14 10h11q9 0 16 -9l208 -316l209 316q7 9 16 9h9q12 0 15 -10q4 -10 -3 -20l-220 -334z" />
    <glyph glyph-name="Y" unicode="Y" horiz-adv-x="551" 
d="M344 367q-22 -48 -47 -58v-290q0 -19 -17 -19h-10q-17 0 -17 19v290q-25 10 -47 58l-158 349q-12 27 14 27h10q10 0 16 -12l157 -350q16 -35 30 -35t30 35l157 350q6 12 16 12h10q26 0 14 -27z" />
    <glyph glyph-name="Z" unicode="Z" horiz-adv-x="595" 
d="M535 16q0 -16 -21 -16h-392q-54 0 -54 43q0 20 11 36l379 610q2 3 2 7q0 6 -8 6h-362q-21 0 -21 15v10q0 16 21 16h362q29 0 41 -8q17 -10 17 -32q0 -15 -11 -34l-382 -617q-2 -4 -2 -7q0 -4 7 -4h392q21 0 21 -15v-10z" />
    <glyph glyph-name="bracketleft" unicode="[" horiz-adv-x="298" 
d="M278 -179q0 -16 -19 -16h-152q-17 0 -17 19v900q0 19 17 19h152q19 0 19 -17v-8q0 -16 -19 -16h-125v-856h125q19 0 19 -17v-8z" />
    <glyph glyph-name="backslash" unicode="\" horiz-adv-x="325" 
d="M295 -6h-22q-10 0 -16 19l-235 716q-1 2 -1 7q0 12 11 12h21q10 0 16 -19l235 -716q1 -2 1 -7q0 -12 -10 -12z" />
    <glyph glyph-name="bracketright" unicode="]" horiz-adv-x="298" 
d="M208 -176q0 -19 -17 -19h-152q-19 0 -19 16v8q0 17 19 17h125v856h-125q-19 0 -19 16v8q0 17 19 17h152q17 0 17 -19v-900z" />
    <glyph glyph-name="asciicircum" unicode="^" 
d="M451 560h-18q-9 0 -26 20l-117 139l-117 -139q-17 -20 -26 -20h-18q-11 0 -11 9q0 4 5 11l117 150q14 18 27 18h46q13 0 27 -18l117 -150q5 -7 5 -11q0 -9 -11 -9z" />
    <glyph glyph-name="underscore" unicode="_" horiz-adv-x="465" 
d="M495 -82q0 -16 -20 -16h-485q-20 0 -20 16v10q0 16 20 16h485q20 0 20 -16v-10z" />
    <glyph glyph-name="quoteleft" unicode="&#x2018;" horiz-adv-x="170" 
d="M130 723l-41 -172q-4 -19 -20 -19h-19q-11 0 -11 11q0 5 1 8l48 172q5 19 19 19h15q9 0 9 -10q0 -6 -1 -9z" />
    <glyph glyph-name="a" unicode="a" horiz-adv-x="488" 
d="M418 20q0 -20 -20 -20h-5q-20 0 -20 20v25q-93 -51 -170 -51q-153 0 -153 161v13q0 79 55 116q59 38 192 38h77v36q0 80 -27 112q-28 33 -99 33q-57 0 -142 -9q-23 -2 -23 15v6q0 15 23 18q76 9 142 9q95 0 136 -51q34 -44 34 -133v-338zM374 283h-77q-113 0 -158 -26
q-45 -25 -45 -89v-13q0 -122 109 -122q76 0 171 51v199z" />
    <glyph glyph-name="b" unicode="b" horiz-adv-x="504" 
d="M449 237q0 -243 -196 -243q-75 0 -168 19q-15 4 -15 19v692q0 19 17 19h10q17 0 17 -19v-197q67 15 139 15q196 0 196 -239v-66zM405 303q0 101 -35 150q-36 50 -117 50q-77 0 -139 -13v-444q78 -13 139 -13q152 0 152 204v66z" />
    <glyph glyph-name="c" unicode="c" horiz-adv-x="437" 
d="M393 21q0 -15 -19 -18q-76 -9 -121 -9q-101 0 -153 72q-45 63 -45 170v67q0 108 45 169q51 70 153 70q45 0 121 -9q19 -3 19 -18v-7q0 -17 -21 -14q-70 9 -119 9q-154 0 -154 -200v-67q0 -203 154 -203q49 0 119 9q21 4 21 -14v-7z" />
    <glyph glyph-name="d" unicode="d" horiz-adv-x="504" 
d="M434 32q0 -15 -15 -19q-93 -19 -168 -19q-196 0 -196 243v66q0 239 196 239q72 0 139 -15v197q0 19 17 19h10q17 0 17 -19v-692zM390 490q-62 13 -139 13q-81 0 -117 -50q-35 -49 -35 -150v-66q0 -204 152 -204q61 0 139 13v444z" />
    <glyph glyph-name="e" unicode="e" horiz-adv-x="511" 
d="M456 277q0 -19 -19 -19h-338v-21q0 -116 53 -165q43 -39 128 -39q65 0 148 17q21 4 21 -13v-7q0 -15 -19 -19q-82 -17 -150 -17q-225 0 -225 243v66q0 107 52 171q54 68 150 68q100 0 151 -66q48 -61 48 -172v-27zM412 304q0 199 -155 199q-158 0 -158 -200v-5h313v6z
" />
    <glyph glyph-name="f" unicode="f" horiz-adv-x="377" 
d="M342 722q0 -13 -21 -13h-50q-69 0 -69 -79v-93h119q19 0 19 -16v-9q0 -16 -19 -16h-119v-477q0 -19 -18 -19h-7q-19 0 -19 19v477h-99q-19 0 -19 16v9q0 16 19 16h99v93q0 118 113 118q33 0 52 -3t19 -16v-7z" />
    <glyph glyph-name="g" unicode="g" horiz-adv-x="534" 
d="M489 510q0 -16 -19 -16h-52q55 -44 55 -124v-8q0 -163 -207 -163q-65 0 -122 23q-34 -15 -34 -43q0 -23 29 -31l180 -47q87 -23 119 -46q41 -31 41 -91v-7q0 -155 -212 -155t-212 155v9q0 99 75 144l-7 2q-53 16 -53 67q0 45 42 64q-52 43 -52 119v8q0 167 206 167h204
q19 0 19 -16v-11zM430 370q0 129 -164 129q-162 0 -162 -129v-8q0 -125 162 -125q164 0 164 125v8zM435 -36q0 41 -25 61q-25 18 -101 38l-138 36q-73 -48 -73 -133v-9q0 -118 169 -118q95 0 134 31q34 27 34 87v7z" />
    <glyph glyph-name="h" unicode="h" horiz-adv-x="505" 
d="M440 13q0 -19 -17 -19h-10q-16 0 -16 19v337q0 153 -148 153q-73 0 -135 -18v-472q0 -19 -17 -19h-10q-17 0 -17 19v711q0 19 17 19h10q17 0 17 -19v-200q70 18 135 18q191 0 191 -192v-337z" />
    <glyph glyph-name="i" unicode="i" horiz-adv-x="204" 
d="M124 655q0 -19 -19 -19h-6q-19 0 -19 19v74q0 19 19 19h6q19 0 19 -19v-74zM124 13q0 -19 -19 -19h-6q-19 0 -19 19v505q0 19 19 19h6q19 0 19 -19v-505z" />
    <glyph glyph-name="j" unicode="j" horiz-adv-x="204" 
d="M124 655q0 -19 -19 -19h-6q-19 0 -19 19v74q0 19 19 19h6q19 0 19 -19v-74zM124 -86q0 -62 -26 -87q-24 -22 -77 -22q-19 0 -42 3q-17 2 -17 14v9q0 12 21 12h38q34 0 46 13q13 14 13 58v604q0 19 16 19h11q17 0 17 -19v-604z" />
    <glyph glyph-name="k" unicode="k" horiz-adv-x="444" 
d="M398 25q9 -10 6 -20q-4 -11 -18 -11q-18 0 -30 12l-242 259v-252q0 -19 -19 -19h-6q-19 0 -19 19v711q0 19 19 19h6q19 0 19 -19v-421l246 230q11 9 24 9q14 0 19 -12t-6 -21l-245 -224z" />
    <glyph glyph-name="l" unicode="l" horiz-adv-x="204" 
d="M124 13q0 -19 -17 -19h-10q-17 0 -17 19v711q0 19 17 19h10q17 0 17 -19v-711z" />
    <glyph glyph-name="m" unicode="m" horiz-adv-x="746" 
d="M676 19q0 -19 -17 -19h-10q-17 0 -17 19v358q0 126 -117 126q-65 0 -135 -34q15 -38 15 -88v-362q0 -19 -15 -19h-15q-14 0 -14 19v362q0 122 -94 122q-55 0 -143 -42v-442q0 -19 -15 -19h-14q-15 0 -15 19v498q0 20 18 20h8q18 0 18 -20v-18q88 43 152 43q61 0 95 -41
q85 41 161 41q68 0 109 -38q45 -43 45 -127v-358z" />
    <glyph glyph-name="n" unicode="n" horiz-adv-x="521" 
d="M451 19q0 -19 -19 -19h-7q-18 0 -18 19v332q0 152 -135 152q-73 0 -158 -41v-443q0 -19 -19 -19h-6q-19 0 -19 19v498q0 20 18 20h8q18 0 18 -20v-16q85 41 161 41q78 0 124 -43q52 -50 52 -148v-332z" />
    <glyph glyph-name="o" unicode="o" horiz-adv-x="522" 
d="M467 233q0 -239 -206 -239t-206 239v70q0 239 206 239t206 -239v-70zM423 303q0 200 -162 200t-162 -200v-70q0 -200 162 -200t162 200v70z" />
    <glyph glyph-name="p" unicode="p" horiz-adv-x="504" 
d="M449 233q0 -239 -196 -239q-72 0 -139 15v-185q0 -19 -17 -19h-10q-17 0 -17 19v680q0 15 15 19q93 19 168 19q196 0 196 -243v-66zM405 299q0 204 -152 204q-61 0 -139 -13v-444q62 -13 139 -13q81 0 117 51q35 48 35 149v66z" />
    <glyph glyph-name="q" unicode="q" horiz-adv-x="504" 
d="M434 -176q0 -19 -17 -19h-10q-17 0 -17 19v185q-67 -15 -139 -15q-196 0 -196 239v66q0 243 196 243q75 0 168 -19q15 -4 15 -19v-680zM390 490q-78 13 -139 13q-152 0 -152 -204v-66q0 -101 35 -149q36 -51 117 -51q77 0 139 13v444z" />
    <glyph glyph-name="r" unicode="r" horiz-adv-x="309" 
d="M280 519q0 -16 -27 -16q-66 0 -139 -46v-438q0 -19 -19 -19h-6q-19 0 -19 19v498q0 20 18 20h8q18 0 18 -20v-21q71 46 139 46q27 0 27 -15v-8z" />
    <glyph glyph-name="s" unicode="s" horiz-adv-x="440" 
d="M217 -6q-73 0 -145 14q-22 5 -22 16v11q0 18 22 14q96 -16 147 -16q127 0 127 100q0 31 -21 53q-22 21 -85 56l-64 35q-64 35 -89 61q-32 34 -32 81q0 123 153 123q67 0 143 -9q21 -3 21 -17v-8q0 -19 -21 -16q-95 11 -139 11q-55 0 -80 -15q-33 -20 -33 -69
q0 -50 97 -104l67 -37q69 -38 95 -65q32 -34 32 -80q0 -139 -173 -139z" />
    <glyph glyph-name="t" unicode="t" horiz-adv-x="380" 
d="M340 13q0 -14 -17 -16q-22 -3 -52 -3q-57 0 -83 22q-30 25 -30 86v394h-99q-19 0 -19 16v10q0 15 19 15h99v103q0 19 17 19h11q16 0 16 -19v-103h119q19 0 19 -15v-10q0 -16 -19 -16h-119v-394q0 -42 18 -57q14 -12 51 -12h48q21 0 21 -14v-6z" />
    <glyph glyph-name="u" unicode="u" horiz-adv-x="521" 
d="M70 518q0 19 19 19h7q18 0 18 -19v-332q0 -152 135 -152q69 0 158 41v443q0 19 19 19h6q19 0 19 -19v-498q0 -20 -18 -20h-8q-18 0 -18 20v16q-85 -41 -161 -41q-78 0 -124 44q-52 49 -52 147v332z" />
    <glyph glyph-name="v" unicode="v" horiz-adv-x="480" 
d="M309 57q-18 -63 -68 -63q-52 0 -70 63l-131 455q-7 25 15 25h10q13 0 18 -18l128 -451q11 -36 30 -36q17 0 28 36l128 451q5 18 18 18h12q20 0 13 -25z" />
    <glyph glyph-name="w" unicode="w" horiz-adv-x="752" 
d="M592 48q-13 -54 -52 -54q-36 0 -51 57l-106 380q-3 9 -7 9t-7 -9l-106 -380q-15 -57 -51 -57q-39 0 -52 54l-110 465q-6 24 18 24h6q12 0 16 -14l108 -465q6 -25 14 -25q6 0 13 24l108 386q10 36 43 36t43 -36l108 -386q7 -24 13 -24q8 0 14 25l108 465q4 14 16 14h6
q24 0 18 -24z" />
    <glyph glyph-name="x" unicode="x" horiz-adv-x="493" 
d="M441 0h-8q-13 0 -19 8l-166 232l-163 -232q-6 -8 -11 -8h-17q-14 0 -14 12q0 7 5 14l176 249l-170 238q-4 6 -4 11q0 13 18 13h6q14 0 19 -8l158 -220l153 218q7 10 19 10h9q15 0 15 -12q0 -6 -7 -17l-165 -235l177 -248q3 -4 3 -11q0 -14 -14 -14z" />
    <glyph glyph-name="y" unicode="y" horiz-adv-x="486" 
d="M282 -56q-23 -80 -58 -110q-34 -29 -104 -29q-26 0 -62 6q-20 3 -20 14v11q0 17 21 14q45 -6 65 -6q54 0 78 22q23 21 41 87l13 47h-14q-45 0 -61 56l-135 457q-7 24 16 24h9q12 0 16 -14l135 -460q6 -22 23 -22h23l137 483q4 13 18 13h9q22 0 14 -25z" />
    <glyph glyph-name="z" unicode="z" horiz-adv-x="446" 
d="M406 16q0 -16 -20 -16h-286q-60 0 -60 41q0 22 18 45l293 391q4 5 4 10q0 9 -14 9h-263q-20 0 -20 15v10q0 16 20 16h262q58 0 58 -43q0 -23 -16 -45l-290 -389q-5 -7 -5 -12q0 -7 9 -7h290q20 0 20 -15v-10z" />
    <glyph glyph-name="braceleft" unicode="{" horiz-adv-x="300" 
d="M280 -178q0 -17 -19 -17h-46q-70 0 -96 24q-27 23 -27 86v204q0 55 -11 81q-12 28 -51 56v36q39 28 51 56q11 26 11 81v204q0 62 27 87q27 23 96 23h46q19 0 19 -17v-8q0 -16 -19 -16h-46q-50 0 -65 -13q-14 -12 -14 -56v-204q0 -105 -64 -156q64 -51 64 -154v-204
q0 -44 14 -56q15 -13 65 -13h46q19 0 19 -16v-8z" />
    <glyph glyph-name="bar" unicode="|" horiz-adv-x="224" 
d="M134 -176q0 -19 -17 -19h-10q-17 0 -17 19v900q0 19 17 19h10q17 0 17 -19v-900z" />
    <glyph glyph-name="braceright" unicode="}" horiz-adv-x="300" 
d="M270 256q-39 -28 -51 -56q-11 -26 -11 -81v-204q0 -63 -27 -86q-26 -24 -96 -24h-46q-19 0 -19 17v8q0 16 19 16h46q50 0 65 13q14 12 14 56v204q0 103 64 154q-64 51 -64 156v204q0 44 -14 56q-15 13 -65 13h-46q-19 0 -19 16v8q0 17 19 17h46q69 0 96 -23
q27 -25 27 -87v-204q0 -55 11 -81q12 -28 51 -56v-36z" />
    <glyph glyph-name="asciitilde" unicode="~" 
d="M476 459q0 -104 -90 -104q-43 0 -77 32l-57 55q-37 35 -59 35q-50 0 -50 -68v-30q0 -19 -11 -19h-15q-13 0 -13 19v30q0 106 89 106q44 0 80 -34l57 -55q33 -31 55 -31q52 0 52 64v31q0 18 11 18h15q13 0 13 -18v-31z" />
    <glyph glyph-name="exclamdown" unicode="&#xa1;" horiz-adv-x="204" 
d="M124 449q0 -19 -19 -19h-6q-19 0 -19 19v74q0 19 19 19h6q19 0 19 -19v-74zM124 -188q0 -19 -19 -19h-6q-19 0 -19 19v532q0 19 19 19h6q19 0 19 -19v-532z" />
    <glyph glyph-name="cent" unicode="&#xa2;" 
d="M432 21q0 -15 -19 -18q-67 -8 -100 -9v-101q0 -19 -16 -19h-10q-16 0 -16 19v102q-90 7 -136 78q-41 62 -41 163v67q0 224 177 238v102q0 19 16 19h10q16 0 16 -19v-101q33 -1 100 -9q19 -3 19 -18v-7q0 -14 -16 -14h-5q-70 9 -119 9q-154 0 -154 -200v-67
q0 -203 154 -203q49 0 119 9h5q16 0 16 -14v-7z" />
    <glyph glyph-name="sterling" unicode="&#xa3;" 
d="M510 16q0 -16 -20 -16h-372q-20 0 -20 20q0 7 3 11q41 69 41 138v200h-53q-18 0 -18 17v9q0 17 20 17h51v74q0 130 42 192q48 70 157 70q74 0 148 -9q19 -3 19 -16v-8q0 -15 -15 -15h-6q-70 8 -146 8q-90 0 -125 -60q-28 -49 -28 -162v-74h245q18 0 18 -17v-9
q0 -17 -20 -17h-243v-200q0 -72 -32 -128h334q20 0 20 -14v-11z" />
    <glyph glyph-name="fraction" unicode="&#x2044;" horiz-adv-x="304" 
d="M387 724l-418 -711q-11 -19 -21 -19h-27q-8 0 -8 6t5 13l418 711q11 19 21 19h28q8 0 8 -5t-6 -14z" />
    <glyph glyph-name="yen" unicode="&#xa5;" 
d="M535 254q0 -16 -20 -16h-203v-219q0 -19 -17 -19h-10q-17 0 -17 19v219h-205q-18 0 -18 16v9q0 16 20 16h203v30l-61 121h-144q-18 0 -18 16v9q0 16 20 16h121l-123 245q-13 27 14 27h12q10 0 16 -12l186 -370l185 370q6 12 16 12h11q28 0 14 -27l-123 -245h123
q18 0 18 -16v-9q0 -16 -20 -16h-142l-61 -121v-30h205q18 0 18 -16v-9z" />
    <glyph glyph-name="florin" unicode="&#x192;" 
d="M508 722q-1 -13 -23 -13h-50q-68 0 -79 -79l-30 -218h149q16 0 16 -15l-1 -11q-2 -17 -21 -17h-149l-52 -375q-16 -118 -129 -118q-31 0 -51 3q-17 3 -17 13l1 10q1 13 23 13h50q68 0 79 79l52 375h-129q-17 0 -17 15l1 11q2 17 22 17h129l30 218q16 118 129 118
q32 0 51 -3q17 -3 17 -13z" />
    <glyph glyph-name="section" unicode="&#xa7;" horiz-adv-x="521" 
d="M237 -216q-89 0 -153 8q-18 2 -18 19v6q0 17 19 17h2q104 -8 150 -8q107 0 151 40q37 33 37 105q0 50 -27 82q-26 31 -108 81l-100 61q-82 50 -110 87t-28 94q0 69 35 107q-35 39 -35 103q0 84 54 123t176 39q96 0 152 -7q17 -1 17 -21v-3q0 -20 -21 -19l-63 4
q-54 4 -85 4q-98 0 -142 -29q-44 -28 -44 -91q0 -43 25 -72t97 -73l98 -60q92 -56 125 -102q28 -40 28 -98q0 -69 -29 -111q29 -39 29 -99q0 -187 -232 -187zM398 263q-26 31 -108 81l-100 61q-39 24 -69 47q-25 -28 -25 -76q0 -43 25 -72t97 -73l98 -60q63 -39 93 -67
q16 32 16 77q0 50 -27 82z" />
    <glyph glyph-name="currency" unicode="&#xa4;" 
d="M520 149l-7 -7q-5 -5 -11 -5q-8 0 -15 7l-81 82q-52 -41 -117 -41q-66 0 -116 40l-80 -80q-7 -7 -15 -7q-6 0 -11 5l-7 7q-5 5 -5 11q0 8 7 15l79 79q-42 53 -42 119q0 65 41 117l-78 78q-7 7 -7 15q0 7 5 12l7 7q4 4 10 4q9 0 16 -7l78 -78q52 41 117 41q67 0 119 -42
l80 80q7 7 15 7q6 0 11 -5l7 -7q5 -5 5 -11q0 -8 -7 -15l-80 -80q40 -50 40 -116q0 -65 -41 -117l81 -81q7 -7 7 -15q0 -7 -5 -12zM393 478q-43 43 -104 43q-62 0 -105 -43t-43 -104t43 -105q44 -43 105 -43q62 0 105 43q43 44 43 105t-44 104z" />
    <glyph glyph-name="quotesingle" unicode="'" horiz-adv-x="170" 
d="M130 724l-48 -172q-5 -19 -19 -19h-15q-9 0 -9 10q0 6 1 9l41 172q4 19 20 19h19q11 0 11 -11q0 -5 -1 -8z" />
    <glyph glyph-name="quotedblleft" unicode="&#x201c;" horiz-adv-x="295" 
d="M255 724l-41 -172q-4 -19 -20 -19h-19q-11 0 -11 11q0 5 1 8l48 172q5 19 19 19h15q9 0 9 -10q0 -6 -1 -9zM130 724l-41 -172q-4 -19 -20 -19h-19q-11 0 -11 11q0 5 1 8l48 172q5 19 19 19h15q9 0 9 -10q0 -6 -1 -9z" />
    <glyph glyph-name="guillemotleft" unicode="&#xab;" horiz-adv-x="535" 
d="M477 81l-7 -7q-4 -4 -10 -4q-7 0 -16 7l-178 163q-14 12 -14 29q0 15 14 29l178 163q9 7 16 7q6 0 10 -4l7 -7q5 -5 5 -11q0 -9 -8 -15l-177 -162l177 -162q8 -6 8 -15q0 -6 -5 -11zM247 81l-7 -7q-4 -4 -10 -4q-7 0 -16 7l-178 163q-14 12 -14 29q0 15 14 29l178 163
q9 7 16 7q6 0 10 -4l7 -7q5 -5 5 -11q0 -9 -8 -15l-177 -162l177 -162q8 -6 8 -15q0 -6 -5 -11z" />
    <glyph glyph-name="guilsinglleft" unicode="&#x2039;" horiz-adv-x="305" 
d="M247 81l-7 -7q-4 -4 -10 -4q-7 0 -16 7l-178 163q-14 12 -14 29q0 15 14 29l178 163q9 7 16 7q6 0 10 -4l7 -7q5 -5 5 -11q0 -9 -8 -15l-177 -162l177 -162q8 -6 8 -15q0 -6 -5 -11z" />
    <glyph glyph-name="guilsinglright" unicode="&#x203a;" horiz-adv-x="305" 
d="M269 240l-178 -163q-9 -7 -16 -7q-6 0 -10 4l-7 7q-5 5 -5 11q0 9 8 15l177 162l-177 162q-8 6 -8 15q0 6 5 11l7 7q4 4 10 4q7 0 16 -7l178 -163q14 -14 14 -29q0 -17 -14 -29z" />
    <glyph glyph-name="endash" unicode="&#x2013;" horiz-adv-x="360" 
d="M375 273q0 -16 -19 -16h-352q-19 0 -19 16v8q0 18 19 18h352q19 0 19 -18v-8z" />
    <glyph glyph-name="dagger" unicode="&#x2020;" horiz-adv-x="380" 
d="M340 512q0 -16 -19 -16h-119v-482q0 -20 -16 -20h-12q-16 0 -16 20v482h-99q-19 0 -19 16v10q0 15 19 15h99v187q0 19 17 19h11q16 0 16 -19v-187h119q19 0 19 -15v-10z" />
    <glyph glyph-name="daggerdbl" unicode="&#x2021;" horiz-adv-x="380" 
d="M340 302q0 -16 -19 -16h-119v-272q0 -20 -16 -20h-12q-16 0 -16 20v272h-99q-19 0 -19 16v10q0 15 19 15h99v169h-99q-19 0 -19 16v10q0 15 19 15h99v205q0 19 17 19h11q16 0 16 -19v-205h119q19 0 19 -15v-10q0 -16 -19 -16h-119v-169h119q19 0 19 -15v-10z" />
    <glyph glyph-name="periodcentered" unicode="&#xb7;" horiz-adv-x="168" 
d="M106 360q0 -19 -19 -19h-6q-19 0 -19 19v74q0 19 19 19h6q19 0 19 -19v-74z" />
    <glyph glyph-name="paragraph" unicode="&#xb6;" horiz-adv-x="599" 
d="M529 -176q0 -19 -17 -19h-10q-17 0 -17 19v878h-56v-878q0 -19 -17 -19h-10q-17 0 -17 19v451h-109q-106 0 -167 58q-64 59 -64 165v22q0 106 64 166q61 57 167 57h237q16 0 16 -19v-900z" />
    <glyph glyph-name="bullet" unicode="&#x2022;" horiz-adv-x="418" 
d="M318 258q-45 -45 -109 -45t-109 45t-45 109t45 109t109 45t109 -45t45 -109t-45 -109z" />
    <glyph glyph-name="quotesinglbase" unicode="&#x201a;" horiz-adv-x="170" 
d="M130 87l-48 -172q-5 -19 -19 -19h-15q-9 0 -9 10q0 6 1 9l41 172q4 19 20 19h19q11 0 11 -11q0 -5 -1 -8z" />
    <glyph glyph-name="quotedblbase" unicode="&#x201e;" horiz-adv-x="295" 
d="M255 87l-48 -172q-5 -19 -19 -19h-15q-9 0 -9 10q0 6 1 9l41 172q4 19 20 19h19q11 0 11 -11q0 -5 -1 -8zM130 87l-48 -172q-5 -19 -19 -19h-15q-9 0 -9 10q0 6 1 9l41 172q4 19 20 19h19q11 0 11 -11q0 -5 -1 -8z" />
    <glyph glyph-name="quotedblright" unicode="&#x201d;" horiz-adv-x="295" 
d="M255 724l-48 -172q-5 -19 -19 -19h-15q-9 0 -9 10q0 6 1 9l41 172q4 19 20 19h19q11 0 11 -11q0 -5 -1 -8zM130 724l-48 -172q-5 -19 -19 -19h-15q-9 0 -9 10q0 6 1 9l41 172q4 19 20 19h19q11 0 11 -11q0 -5 -1 -8z" />
    <glyph glyph-name="guillemotright" unicode="&#xbb;" horiz-adv-x="535" 
d="M499 240l-178 -163q-9 -7 -16 -7q-6 0 -10 4l-7 7q-5 5 -5 11q0 9 8 15l177 162l-177 162q-8 6 -8 15q0 6 5 11l7 7q4 4 10 4q7 0 16 -7l178 -163q14 -14 14 -29q0 -17 -14 -29zM269 240l-178 -163q-9 -7 -16 -7q-6 0 -10 4l-7 7q-5 5 -5 11q0 9 8 15l177 162l-177 162
q-8 6 -8 15q0 6 5 11l7 7q4 4 10 4q7 0 16 -7l178 -163q14 -14 14 -29q0 -17 -14 -29z" />
    <glyph glyph-name="ellipsis" unicode="&#x2026;" horiz-adv-x="508" 
d="M446 13q0 -19 -19 -19h-6q-19 0 -19 19v74q0 19 19 19h6q19 0 19 -19v-74zM276 13q0 -19 -19 -19h-6q-19 0 -19 19v74q0 19 19 19h6q19 0 19 -19v-74zM106 13q0 -19 -19 -19h-6q-19 0 -19 19v74q0 19 19 19h6q19 0 19 -19v-74z" />
    <glyph glyph-name="perthousand" unicode="&#x2030;" horiz-adv-x="1087" 
d="M1027 150q0 -156 -126 -156q-127 0 -127 156v104q0 155 127 155q126 0 126 -155v-104zM697 150q0 -156 -126 -156q-127 0 -127 156v104q0 155 127 155q126 0 126 -155v-104zM611 724l-420 -711q-11 -19 -21 -19h-27q-7 0 -7 5t6 14l420 711q11 19 21 19h26q8 0 8 -5
t-6 -14zM313 489q0 -156 -126 -156q-127 0 -127 156v104q0 155 127 155q126 0 126 -155v-104zM988 254q0 117 -87 117q-88 0 -88 -117v-104q0 -117 88 -117q87 0 87 117v104zM658 254q0 117 -87 117q-88 0 -88 -117v-104q0 -117 88 -117q87 0 87 117v104zM274 593
q0 117 -87 117q-88 0 -88 -117v-104q0 -117 88 -117q87 0 87 117v104z" />
    <glyph glyph-name="questiondown" unicode="&#xbf;" horiz-adv-x="424" 
d="M305 449q0 -19 -19 -19h-6q-19 0 -19 19v74q0 19 19 19h6q19 0 19 -19v-74zM389 -186q0 -17 -17 -19q-57 -7 -119 -7q-83 0 -133 31q-60 38 -60 114v8q0 79 110 189l30 30q60 60 60 124v60q0 19 19 19h6q19 0 19 -19v-60q0 -82 -74 -156l-28 -28q-94 -94 -94 -159v-8
q0 -106 145 -106q39 0 121 7h2q13 0 13 -12v-8z" />
    <glyph glyph-name="grave" unicode="`" horiz-adv-x="330" 
d="M203 618h-22q-8 0 -22 17l-107 128q-4 4 -4 8q0 7 11 7h26q11 0 23 -15l100 -128q4 -4 4 -10q0 -7 -9 -7z" />
    <glyph glyph-name="acute" unicode="&#xb4;" horiz-adv-x="330" 
d="M278 763l-107 -128q-14 -17 -22 -17h-22q-9 0 -9 7q0 6 4 10l100 128q12 15 23 15h26q11 0 11 -7q0 -4 -4 -8z" />
    <glyph glyph-name="circumflex" unicode="&#x2c6;" horiz-adv-x="330" 
d="M303 618h-22q-8 0 -22 17l-94 113l-94 -113q-14 -17 -22 -17h-22q-9 0 -9 7q0 6 4 10l100 128q12 15 23 15h40q11 0 23 -15l100 -128q4 -4 4 -10q0 -7 -9 -7z" />
    <glyph glyph-name="tilde" unicode="&#x2dc;" horiz-adv-x="491" 
d="M399 719q0 -91 -78 -91q-40 0 -67 26l-48 47q-28 28 -48 28q-41 0 -41 -53v-26q0 -16 -10 -16h-17q-11 0 -11 16v26q0 91 79 91q39 0 66 -26l48 -47q28 -28 49 -28q40 0 40 53v26q0 16 10 16h17q11 0 11 -16v-26z" />
    <glyph glyph-name="macron" unicode="&#xaf;" horiz-adv-x="330" 
d="M318 704q0 -16 -20 -16h-266q-20 0 -20 16v11q0 15 20 15h266q20 0 20 -15v-11z" />
    <glyph glyph-name="breve" unicode="&#x2d8;" horiz-adv-x="330" 
d="M63 657q-40 40 -40 111q0 10 10 10h22q8 0 8 -10q0 -111 102 -111t102 111q0 10 8 10h22q10 0 10 -10q0 -71 -39 -111q-39 -39 -103 -39t-102 39z" />
    <glyph glyph-name="dotaccent" unicode="&#x2d9;" horiz-adv-x="330" 
d="M187 660q0 -19 -19 -19h-6q-19 0 -19 19v74q0 19 19 19h6q19 0 19 -19v-74z" />
    <glyph glyph-name="dieresis" unicode="&#xa8;" horiz-adv-x="330" 
d="M262 661q0 -19 -19 -19h-6q-19 0 -19 19v74q0 19 19 19h6q19 0 19 -19v-74zM112 661q0 -19 -19 -19h-6q-19 0 -19 19v74q0 19 19 19h6q19 0 19 -19v-74z" />
    <glyph glyph-name="ring" unicode="&#x2da;" horiz-adv-x="330" 
d="M231 632q-28 -27 -66 -27t-66 27q-27 28 -27 66t27 66q28 27 66 27t66 -27q27 -28 27 -66t-27 -66zM206 739q-17 17 -41 17t-40 -17q-17 -17 -17 -41t17 -41q16 -17 40 -17t41 17t17 41t-17 41z" />
    <glyph glyph-name="cedilla" unicode="&#xb8;" horiz-adv-x="330" 
d="M191 -70l-91 -108q-14 -17 -22 -17h-22q-9 0 -9 7q0 6 4 10l84 108q12 15 23 15h26q11 0 11 -7q0 -4 -4 -8z" />
    <glyph glyph-name="hungarumlaut" unicode="&#x2dd;" horiz-adv-x="330" 
d="M363 763l-107 -128q-14 -17 -22 -17h-22q-9 0 -9 7q0 6 4 10l100 128q12 15 23 15h26q11 0 11 -7q0 -4 -4 -8zM223 763l-107 -128q-14 -17 -22 -17h-22q-9 0 -9 7q0 6 4 10l100 128q12 15 23 15h26q11 0 11 -7q0 -4 -4 -8z" />
    <glyph glyph-name="ogonek" unicode="&#x2db;" horiz-adv-x="330" 
d="M286 -170q0 -8 -11 -11q-42 -14 -86 -14q-120 0 -120 85q0 51 84 100l67 38q6 3 12 3h39q7 0 7 -5q0 -4 -5 -7l-89 -50q-79 -45 -79 -78q0 -53 84 -53q33 0 84 12q6 2 8 2q5 0 5 -7v-15z" />
    <glyph glyph-name="caron" unicode="&#x2c7;" horiz-adv-x="330" 
d="M308 761l-100 -128q-12 -15 -23 -15h-40q-11 0 -23 15l-100 128q-4 4 -4 10q0 7 9 7h22q8 0 22 -17l94 -113l94 113q14 17 22 17h22q9 0 9 -7q0 -6 -4 -10z" />
    <glyph glyph-name="emdash" unicode="&#x2014;" horiz-adv-x="703" 
d="M718 273q0 -16 -19 -16h-695q-19 0 -19 16v8q0 18 19 18h695q19 0 19 -18v-8z" />
    <glyph glyph-name="AE" unicode="&#xc6;" horiz-adv-x="879" 
d="M822 17q0 -17 -19 -17h-296q-83 0 -83 81v200h-268l-82 -271q-4 -13 -16 -13h-13q-21 0 -14 25l205 672q15 49 65 49h502q19 0 19 -17v-8q0 -16 -19 -16h-335v-291h335q19 0 19 -16v-10q0 -17 -19 -17h-335v-287q0 -22 7 -30q8 -10 32 -10h296q19 0 19 -16v-8zM424 702
h-123q-18 0 -23 -19l-110 -358h256v377z" />
    <glyph glyph-name="ordfeminine" unicode="&#xaa;" horiz-adv-x="268" 
d="M230 469q0 -14 -11 -16q-39 -11 -81 -11q-60 0 -86 22q-24 21 -24 68v7q0 87 132 87h37v14q0 41 -13 57t-48 16q-34 0 -74 -5h-2q-15 0 -15 13v3q0 12 16 14q37 5 75 5q94 0 94 -103v-171zM197 595h-36q-58 0 -80 -13q-21 -12 -21 -43v-7q0 -32 14 -45q17 -15 64 -15
q23 0 59 6v117z" />
    <glyph glyph-name="Lslash" unicode="&#x141;" horiz-adv-x="539" 
d="M489 17q0 -17 -19 -17h-228q-121 0 -121 112v214l-72 -104q-6 -8 -12 -7q-7 1 -7 6v29q0 14 8 25l83 120v329q0 19 17 19h10q17 0 17 -19v-266l72 104q6 8 13 7q6 -1 6 -6v-29q0 -14 -8 -25l-83 -120v-277q0 -43 21 -59q16 -12 56 -12h228q19 0 19 -16v-8z" />
    <glyph glyph-name="Oslash" unicode="&#xd8;" horiz-adv-x="632" 
d="M593 724l-65 -90q44 -77 44 -201v-124q0 -160 -72 -241q-66 -74 -184 -74q-122 0 -189 80l-44 -61q-14 -19 -26 -19h-10q-11 0 -11 11q0 4 3 8l66 92q-45 76 -45 204v124q0 160 72 241q66 74 184 74q125 0 191 -82l42 58q14 19 26 19h10q11 0 11 -11q0 -3 -3 -8zM481 629
q-53 77 -165 77q-212 0 -212 -273v-124q0 -101 29 -164zM528 433q0 99 -28 161l-347 -483q54 -75 163 -75q212 0 212 273v124z" />
    <glyph glyph-name="OE" unicode="&#x152;" horiz-adv-x="982" 
d="M927 17q0 -17 -19 -17h-296q-83 0 -83 81v19q-71 -106 -213 -106q-111 0 -182 69q-74 73 -74 196v224q0 124 74 196q71 69 182 69q143 0 213 -105v18q0 82 83 82h296q19 0 19 -17v-8q0 -16 -19 -16h-296q-24 0 -32 -10q-7 -8 -7 -31v-250h335q19 0 19 -16v-10
q0 -17 -19 -17h-335v-287q0 -22 7 -30q8 -10 32 -10h296q19 0 19 -16v-8zM529 493q-3 100 -66 159q-59 54 -147 54q-90 0 -149 -57q-63 -62 -63 -166v-224q0 -104 63 -166q59 -57 149 -57q88 0 147 54q63 59 66 159v244z" />
    <glyph glyph-name="ordmasculine" unicode="&#xba;" horiz-adv-x="287" 
d="M257 574q0 -132 -113 -132q-114 0 -114 132v37q0 132 114 132q113 0 113 -132v-37zM224 611q0 102 -80 102q-81 0 -81 -102v-37q0 -102 81 -102q80 0 80 102v37z" />
    <glyph glyph-name="ae" unicode="&#xe6;" horiz-adv-x="830" 
d="M775 277q0 -19 -19 -19h-338v-54q0 -103 43 -136q46 -35 138 -35q65 0 148 17l6 1q15 0 15 -14v-7q0 -15 -19 -19q-82 -17 -150 -17q-158 0 -205 90q-65 -90 -191 -90q-153 0 -153 161v13q0 79 55 116q59 38 192 38h77v36q0 80 -27 112q-28 33 -99 33q-57 0 -142 -9h-4
q-19 0 -19 15v6q0 15 23 18q76 9 142 9q129 0 158 -97q53 97 170 97q100 0 151 -66q48 -61 48 -172v-27zM731 304q0 199 -155 199q-158 0 -158 -199v-6h313v6zM374 282h-77q-113 0 -158 -25t-45 -89v-13q0 -122 109 -122q89 0 129 39q42 40 42 132v78z" />
    <glyph glyph-name="dotlessi" unicode="&#x131;" horiz-adv-x="204" 
d="M124 19q0 -19 -19 -19h-6q-19 0 -19 19v499q0 19 19 19h6q19 0 19 -19v-499z" />
    <glyph glyph-name="lslash" unicode="&#x142;" horiz-adv-x="286" 
d="M256 530q0 -7 -7 -18l-84 -123v-376q0 -19 -17 -19h-10q-17 0 -17 19v313l-72 -104q-6 -8 -12 -9q-7 -1 -7 8v35q0 8 6 16l85 123v329q0 19 17 19h10q17 0 17 -19v-266l72 104q9 12 14 11q5 -2 5 -8v-35z" />
    <glyph glyph-name="oslash" unicode="&#xf8;" horiz-adv-x="522" 
d="M493 549l-65 -87q39 -60 39 -159v-70q0 -239 -206 -239q-90 0 -142 49l-50 -68q-8 -10 -16 -10h-20q-8 0 -8 8q0 6 4 11l66 89q-40 62 -40 160v70q0 239 206 239q90 0 143 -51l49 67q8 10 16 10h20q8 0 8 -8q0 -7 -4 -11zM379 458q-40 45 -118 45q-162 0 -162 -200v-70
q0 -77 23 -123zM423 303q0 74 -22 121l-257 -347q41 -44 117 -44q162 0 162 200v70z" />
    <glyph glyph-name="oe" unicode="&#x153;" horiz-adv-x="890" 
d="M823 277q0 -19 -19 -19h-327v-71q0 -154 176 -154q58 0 142 10h4q17 0 17 -14v-6q0 -16 -19 -19q-84 -10 -147 -10q-155 0 -199 99q-53 -99 -179 -99q-97 0 -154 63q-51 56 -51 141v140q0 85 51 141q57 63 154 63q128 0 181 -101q46 101 177 101q98 0 148 -58
q45 -51 45 -136v-71zM779 348q0 66 -33 107q-39 48 -116 48q-78 0 -118 -48q-35 -42 -35 -107v-50h302v50zM434 338q0 68 -40 114q-45 51 -122 51t-122 -51q-40 -46 -40 -114v-140q0 -68 40 -114q45 -51 122 -51t122 51q40 46 40 114v140z" />
    <glyph glyph-name="germandbls" unicode="&#xdf;" horiz-adv-x="543" 
d="M488 209q0 -111 -70 -166q-60 -49 -163 -49q-7 0 -17 1q-14 2 -23 2q-20 0 -20 18v8q0 12 17 12l43 -2q189 0 189 176v8q0 67 -48 109q-50 44 -135 44h-41q-20 0 -20 16v9q0 16 20 16h41q82 0 126 45q39 39 39 101v7q0 145 -151 145q-156 0 -156 -195v-494q0 -20 -17 -20
h-12q-15 0 -15 20v493q0 116 57 178q52 57 143 57q88 0 140 -47q55 -49 55 -137v-7q0 -58 -37 -105q-32 -42 -81 -61q60 -18 97 -63q39 -48 39 -111v-8z" />
    <glyph glyph-name="logicalnot" unicode="&#xac;" 
d="M493 290q0 -20 -16 -20h-10q-16 0 -16 20v180h-343q-20 0 -20 16v10q0 16 20 16h369q16 0 16 -18v-204z" />
    <glyph glyph-name="mu" unicode="&#xb5;" horiz-adv-x="521" 
d="M451 38q0 -14 -13 -18q-80 -26 -171 -26q-101 0 -153 58v-228q0 -19 -17 -19h-10q-17 0 -17 19v694q0 19 19 19h7q18 0 18 -19v-333q0 -152 153 -152q74 0 140 19v466q0 19 19 19h6q19 0 19 -19v-480z" />
    <glyph glyph-name="trademark" unicode="&#x2122;" horiz-adv-x="766" 
d="M721 344q0 -10 -10 -10h-18q-9 0 -9 10v255q0 69 -20 88q-24 22 -108 22v-365q0 -10 -9 -10h-19q-10 0 -10 10v365q-64 0 -128 -8v-357q0 -10 -9 -10h-18q-10 0 -10 10v380q0 8 8 10q88 11 177 11q105 0 140 -24q43 -29 43 -122v-255zM314 721q0 -15 -18 -15h-107v-355
q0 -17 -17 -17h-5q-16 0 -16 17v355h-109q-17 0 -17 15v5q0 16 17 16h254q18 0 18 -16v-5z" />
    <glyph glyph-name="Eth" unicode="&#xd0;" horiz-adv-x="613" 
d="M553 309q0 -315 -292 -315q-118 0 -164 8q-17 4 -17 19v347h-71q-19 0 -19 17v10q0 16 19 16h71v310q0 15 17 19q46 8 164 8q292 0 292 -315v-124zM509 433q0 276 -248 276q-49 0 -137 -6v-292h85q19 0 19 -16v-10q0 -17 -19 -17h-85v-331q59 -4 137 -4q248 0 248 276
v124z" />
    <glyph glyph-name="onehalf" unicode="&#xbd;" horiz-adv-x="663" 
d="M512 724l-412 -705q-11 -19 -21 -19h-27q-8 0 -8 6t5 13l412 705q11 19 21 19h28q8 0 8 -5t-6 -14zM105 707l-55 -8q-20 -2 -20 19q0 15 18 19l76 11q21 3 21 -19v-379q0 -18 -16 -18h-8q-16 0 -16 18v357zM400 389v3q0 17 19 19q39 6 81 6q133 0 133 -93q0 -67 -76 -118
l-55 -37q-70 -47 -70 -117v-14h178q18 0 18 -16v-6q0 -16 -18 -16h-200q-18 0 -18 19v33q0 88 87 148l55 38q58 40 58 86q0 58 -92 58q-33 0 -80 -5q-20 -2 -20 12z" />
    <glyph glyph-name="plusminus" unicode="&#xb1;" 
d="M513 386q0 -16 -20 -16h-182v-181q0 -20 -16 -20h-10q-16 0 -16 20v181h-181q-20 0 -20 16v10q0 16 20 16h181v182q0 20 16 20h10q16 0 16 -20v-182h182q20 0 20 -16v-10zM513 16q0 -16 -20 -16h-405q-20 0 -20 16v10q0 16 20 16h405q20 0 20 -16v-10z" />
    <glyph glyph-name="Thorn" unicode="&#xde;" horiz-adv-x="540" 
d="M505 432q0 -214 -272 -214q-53 0 -109 4v-203q0 -19 -17 -19h-10q-17 0 -17 19v705q0 19 17 19h10q17 0 17 -19v-75q51 3 109 3q272 0 272 -203v-17zM461 449q0 90 -58 129q-54 35 -170 35q-65 0 -109 -3v-349q62 -4 109 -4q118 0 172 40q56 41 56 135v17z" />
    <glyph glyph-name="onequarter" unicode="&#xbc;" horiz-adv-x="632" 
d="M512 724l-412 -705q-11 -19 -21 -19h-27q-8 0 -8 6t5 13l412 705q11 19 21 19h28q8 0 8 -5t-6 -14zM105 707l-55 -8q-20 -2 -20 19q0 15 18 19l76 11q21 3 21 -19v-379q0 -18 -16 -18h-8q-16 0 -16 18v357zM498 154v207q0 8 -5 1l-134 -201q-4 -7 4 -7h135zM514 0
q-16 0 -16 18v99h-141q-42 0 -42 36q0 14 11 30l147 215q12 19 36 19q29 0 29 -33v-230h46q18 0 18 -16v-4q0 -17 -18 -17h-46v-99q0 -18 -16 -18h-8z" />
    <glyph glyph-name="divide" unicode="&#xf7;" 
d="M312 511q0 -19 -19 -19h-6q-19 0 -19 19v74q0 19 19 19h6q19 0 19 -19v-74zM493 386q0 -16 -20 -16h-365q-20 0 -20 16v10q0 16 20 16h365q20 0 20 -16v-10zM312 197q0 -19 -19 -19h-6q-19 0 -19 19v74q0 19 19 19h6q19 0 19 -19v-74z" />
    <glyph glyph-name="brokenbar" unicode="&#xa6;" horiz-adv-x="224" 
d="M134 361q0 -19 -17 -19h-10q-17 0 -17 19v348q0 19 17 19h10q17 0 17 -19v-348zM134 -192q0 -19 -17 -19h-10q-17 0 -17 19v348q0 19 17 19h10q17 0 17 -19v-348z" />
    <glyph glyph-name="degree" unicode="&#xb0;" horiz-adv-x="331" 
d="M261 518q-39 -40 -95 -40t-96 40t-40 95t40 95t96 40t95 -40q40 -39 40 -95q0 -55 -40 -95zM234 682q-28 29 -68 29t-69 -29q-28 -29 -28 -69t29 -68q28 -29 68 -29t68 29q29 28 29 68t-29 69z" />
    <glyph glyph-name="thorn" unicode="&#xfe;" horiz-adv-x="504" 
d="M449 233q0 -239 -196 -239q-72 0 -139 15v-185q0 -19 -17 -19h-10q-17 0 -17 19v900q0 19 17 19h10q17 0 17 -19v-195q78 13 139 13q196 0 196 -243v-66zM405 299q0 204 -152 204q-61 0 -139 -13v-444q62 -13 139 -13q81 0 117 51q35 48 35 149v66z" />
    <glyph glyph-name="threequarters" unicode="&#xbe;" horiz-adv-x="713" 
d="M593 724l-412 -705q-11 -19 -21 -19h-27q-8 0 -8 6t5 13l412 705q11 19 21 19h28q8 0 8 -5t-6 -14zM579 154v207q0 8 -5 1l-134 -201q-4 -7 4 -7h135zM595 0q-16 0 -16 18v99h-141q-42 0 -42 36q0 14 11 30l147 215q12 19 36 19q29 0 29 -33v-230h46q18 0 18 -16v-4
q0 -17 -18 -17h-46v-99q0 -18 -16 -18h-8zM226 461q0 70 -68 70h-101q-18 0 -18 17v4q0 17 18 17h101q68 0 68 68v7q0 40 -25 56q-22 14 -75 14q-23 0 -77 -6q-19 -2 -19 12v4q0 16 16 18q39 7 80 7q71 0 104 -21q37 -24 37 -84v-7q0 -59 -47 -89q47 -26 47 -87v-11
q0 -121 -141 -121q-41 0 -80 7q-16 2 -16 18v4q0 14 19 12q54 -6 77 -6q100 0 100 86v11z" />
    <glyph glyph-name="registered" unicode="&#xae;" horiz-adv-x="616" 
d="M494 299q-77 -77 -186 -77t-186 77q-77 76 -77 185t77 186t186 77t186 -77t77 -186t-77 -185zM469 645q-66 67 -161 67q-94 0 -161 -67q-66 -66 -66 -161q0 -94 66 -161q67 -66 161 -66q95 0 161 66q67 67 67 161q0 95 -67 161zM413 317h-5q-8 0 -13 7l-91 139q-3 0 -7 1
h-57v-131q0 -16 -15 -16h-4q-15 0 -15 16v308q0 14 14 16q30 2 69 2q126 0 126 -97v-2q0 -75 -73 -92l82 -127q3 -4 3 -11q0 -13 -14 -13zM381 562q0 35 -22 50q-21 14 -70 14q-35 0 -49 -1v-128l49 -1q51 0 71 14q21 14 21 50v2z" />
    <glyph glyph-name="minus" unicode="&#x2212;" 
d="M513 386q0 -16 -20 -16h-405q-20 0 -20 16v10q0 16 20 16h405q20 0 20 -16v-10z" />
    <glyph glyph-name="eth" unicode="&#xf0;" horiz-adv-x="522" 
d="M467 233q0 -239 -206 -239t-206 239v70q0 239 206 239q98 0 150 -58q-32 117 -167 177l-97 -73q-15 -12 -24 0l-5 6q-9 12 7 24l77 60q-49 17 -107 29q-20 4 -15 20l3 10q4 14 22 10q80 -18 136 -40l102 78q14 10 25 -1l6 -6q10 -10 -6 -22l-87 -66q129 -65 166 -180
q20 -60 20 -207v-70zM423 303q0 200 -162 200t-162 -200v-70q0 -200 162 -200t162 200v70z" />
    <glyph glyph-name="multiply" unicode="&#xd7;" 
d="M462 533l-143 -142l143 -143q8 -8 8 -15q0 -6 -5 -11l-7 -7q-5 -5 -11 -5q-7 0 -15 8l-142 143l-142 -142q-8 -8 -15 -8q-6 0 -11 5l-7 7q-5 5 -5 11q0 7 8 15l142 142l-142 142q-8 8 -8 15q0 5 5 10l7 7q5 5 11 5q7 0 15 -8l142 -142l142 143q8 8 15 8q6 0 11 -5l7 -7
q5 -5 5 -11q0 -7 -8 -15z" />
    <glyph glyph-name="copyright" unicode="&#xa9;" horiz-adv-x="730" 
d="M591 148q-94 -93 -227 -93t-226 93t-93 226t93 227q94 95 226 95q133 0 227 -95q94 -94 94 -227t-94 -226zM564 574q-83 83 -200 83t-199 -83q-83 -83 -83 -200t83 -199q82 -82 199 -82t200 82q82 82 82 199t-82 200zM465 183q0 -13 -16 -16q-45 -6 -97 -6q-62 0 -99 39
q-44 46 -44 141v72q0 95 44 141q37 39 99 39q52 0 97 -6q16 -3 16 -15v-8q0 -12 -14 -12h-4q-50 5 -95 5q-105 0 -105 -144v-72q0 -144 105 -144q45 0 95 5h2q16 0 16 -14v-5z" />
    <glyph glyph-name="Aacute" unicode="&#xc1;" horiz-adv-x="619" 
d="M579 22q7 -25 -14 -25h-12q-12 0 -16 13l-84 271h-288l-82 -271q-4 -13 -16 -13h-13q-21 0 -14 25l205 677q15 49 65 49t64 -48zM333 688q-6 20 -23 20q-18 0 -23 -19l-110 -364h265zM411 938l-107 -128q-14 -17 -22 -17h-22q-9 0 -9 7q0 6 4 10l100 128q12 15 23 15h26
q11 0 11 -7q0 -4 -4 -8z" />
    <glyph glyph-name="Acircumflex" unicode="&#xc2;" horiz-adv-x="619" 
d="M579 22q7 -25 -14 -25h-12q-12 0 -16 13l-84 271h-288l-82 -271q-4 -13 -16 -13h-13q-21 0 -14 25l205 677q15 49 65 49t64 -48zM333 688q-6 20 -23 20q-18 0 -23 -19l-110 -364h265zM447 794h-22q-8 0 -22 17l-94 113l-94 -113q-14 -17 -22 -17h-22q-9 0 -9 7q0 6 4 10
l100 128q12 15 23 15h40q11 0 23 -15l100 -128q4 -4 4 -10q0 -7 -9 -7z" />
    <glyph glyph-name="Adieresis" unicode="&#xc4;" horiz-adv-x="619" 
d="M579 22q7 -25 -14 -25h-12q-12 0 -16 13l-84 271h-288l-82 -271q-4 -13 -16 -13h-13q-21 0 -14 25l205 677q15 49 65 49t64 -48zM333 688q-6 20 -23 20q-18 0 -23 -19l-110 -364h265zM406 833q0 -19 -19 -19h-6q-19 0 -19 19v74q0 19 19 19h6q19 0 19 -19v-74zM256 833
q0 -19 -19 -19h-6q-19 0 -19 19v74q0 19 19 19h6q19 0 19 -19v-74z" />
    <glyph glyph-name="Agrave" unicode="&#xc0;" horiz-adv-x="619" 
d="M579 22q7 -25 -14 -25h-12q-12 0 -16 13l-84 271h-288l-82 -271q-4 -13 -16 -13h-13q-21 0 -14 25l205 677q15 49 65 49t64 -48zM333 688q-6 20 -23 20q-18 0 -23 -19l-110 -364h265zM358 794h-22q-8 0 -22 17l-107 128q-4 4 -4 8q0 7 11 7h26q11 0 23 -15l100 -128
q4 -4 4 -10q0 -7 -9 -7z" />
    <glyph glyph-name="Aring" unicode="&#xc5;" horiz-adv-x="619" 
d="M579 22q7 -25 -14 -25h-12q-12 0 -16 13l-84 271h-288l-82 -271q-4 -13 -16 -13h-13q-21 0 -14 25l205 677q15 49 65 49t64 -48zM333 688q-6 20 -23 20q-18 0 -23 -19l-110 -364h265zM375 821q-28 -27 -66 -27t-66 27q-27 28 -27 66t27 66q28 27 66 27t66 -27
q27 -28 27 -66t-27 -66zM350 928q-17 17 -41 17t-40 -17q-17 -17 -17 -41t17 -41q16 -17 40 -17t41 17t17 41t-17 41z" />
    <glyph glyph-name="Atilde" unicode="&#xc3;" horiz-adv-x="619" 
d="M579 22q7 -25 -14 -25h-12q-12 0 -16 13l-84 271h-288l-82 -271q-4 -13 -16 -13h-13q-21 0 -14 25l205 677q15 49 65 49t64 -48zM333 688q-6 20 -23 20q-18 0 -23 -19l-110 -364h265zM469 879q0 -91 -78 -91q-40 0 -67 26l-48 47q-28 28 -48 28q-41 0 -41 -53v-26
q0 -16 -10 -16h-17q-11 0 -11 16v26q0 91 79 91q39 0 66 -26l48 -47q28 -28 49 -28q40 0 40 53v26q0 16 10 16h17q11 0 11 -16v-26z" />
    <glyph glyph-name="Ccedilla" unicode="&#xc7;" horiz-adv-x="537" 
d="M497 21q0 -15 -19 -17q-87 -10 -173 -10q-107 0 -169 66q-76 79 -76 245v132q0 166 76 245q62 66 169 66q86 0 173 -10q19 -2 19 -17v-12q0 -14 -19 -12q-81 9 -173 9q-91 0 -142 -61q-59 -68 -59 -208v-132q0 -140 59 -208q51 -61 142 -61q92 0 173 9q19 2 19 -12v-12z
M338 -70l-91 -108q-14 -17 -22 -17h-22q-9 0 -9 7q0 6 4 10l84 108q12 15 23 15h26q11 0 11 -7q0 -4 -4 -8z" />
    <glyph glyph-name="Eacute" unicode="&#xc9;" horiz-adv-x="533" 
d="M478 17q0 -17 -19 -17h-258q-121 0 -121 112v519q0 112 121 112h258q19 0 19 -17v-8q0 -16 -19 -16h-258q-40 0 -56 -12q-21 -16 -21 -59v-220h335q19 0 19 -16v-10q0 -17 -19 -17h-335v-256q0 -43 21 -59q16 -12 56 -12h258q19 0 19 -16v-8zM401 939l-107 -128
q-14 -17 -22 -17h-22q-9 0 -9 7q0 6 4 10l100 128q12 15 23 15h26q11 0 11 -7q0 -4 -4 -8z" />
    <glyph glyph-name="Ecircumflex" unicode="&#xca;" horiz-adv-x="533" 
d="M478 17q0 -17 -19 -17h-258q-121 0 -121 112v519q0 112 121 112h258q19 0 19 -17v-8q0 -16 -19 -16h-258q-40 0 -56 -12q-21 -16 -21 -59v-220h335q19 0 19 -16v-10q0 -17 -19 -17h-335v-256q0 -43 21 -59q16 -12 56 -12h258q19 0 19 -16v-8zM416 794h-22q-8 0 -22 17
l-94 113l-94 -113q-14 -17 -22 -17h-22q-9 0 -9 7q0 6 4 10l100 128q12 15 23 15h40q11 0 23 -15l100 -128q4 -4 4 -10q0 -7 -9 -7z" />
    <glyph glyph-name="Edieresis" unicode="&#xcb;" horiz-adv-x="533" 
d="M478 17q0 -17 -19 -17h-258q-121 0 -121 112v519q0 112 121 112h258q19 0 19 -17v-8q0 -16 -19 -16h-258q-40 0 -56 -12q-21 -16 -21 -59v-220h335q19 0 19 -16v-10q0 -17 -19 -17h-335v-256q0 -43 21 -59q16 -12 56 -12h258q19 0 19 -16v-8zM381 833q0 -19 -19 -19h-6
q-19 0 -19 19v74q0 19 19 19h6q19 0 19 -19v-74zM231 833q0 -19 -19 -19h-6q-19 0 -19 19v74q0 19 19 19h6q19 0 19 -19v-74z" />
    <glyph glyph-name="Egrave" unicode="&#xc8;" horiz-adv-x="533" 
d="M478 17q0 -17 -19 -17h-258q-121 0 -121 112v519q0 112 121 112h258q19 0 19 -17v-8q0 -16 -19 -16h-258q-40 0 -56 -12q-21 -16 -21 -59v-220h335q19 0 19 -16v-10q0 -17 -19 -17h-335v-256q0 -43 21 -59q16 -12 56 -12h258q19 0 19 -16v-8zM326 794h-22q-8 0 -22 17
l-107 128q-4 4 -4 8q0 7 11 7h26q11 0 23 -15l100 -128q4 -4 4 -10q0 -7 -9 -7z" />
    <glyph glyph-name="Iacute" unicode="&#xcd;" horiz-adv-x="224" 
d="M134 19q0 -19 -17 -19h-10q-17 0 -17 19v705q0 19 17 19h10q17 0 17 -19v-705zM210 939l-107 -128q-14 -17 -22 -17h-22q-9 0 -9 7q0 6 4 10l100 128q12 15 23 15h26q11 0 11 -7q0 -4 -4 -8z" />
    <glyph glyph-name="Icircumflex" unicode="&#xce;" horiz-adv-x="224" 
d="M134 19q0 -19 -17 -19h-10q-17 0 -17 19v705q0 19 17 19h10q17 0 17 -19v-705zM250 794h-22q-8 0 -22 17l-94 113l-94 -113q-14 -17 -22 -17h-22q-9 0 -9 7q0 6 4 10l100 128q12 15 23 15h40q11 0 23 -15l100 -128q4 -4 4 -10q0 -7 -9 -7z" />
    <glyph glyph-name="Idieresis" unicode="&#xcf;" horiz-adv-x="224" 
d="M134 19q0 -19 -17 -19h-10q-17 0 -17 19v705q0 19 17 19h10q17 0 17 -19v-705zM209 833q0 -19 -19 -19h-6q-19 0 -19 19v74q0 19 19 19h6q19 0 19 -19v-74zM59 833q0 -19 -19 -19h-6q-19 0 -19 19v74q0 19 19 19h6q19 0 19 -19v-74z" />
    <glyph glyph-name="Igrave" unicode="&#xcc;" horiz-adv-x="224" 
d="M134 19q0 -19 -17 -19h-10q-17 0 -17 19v705q0 19 17 19h10q17 0 17 -19v-705zM167 794h-22q-8 0 -22 17l-107 128q-4 4 -4 8q0 7 11 7h26q11 0 23 -15l100 -128q4 -4 4 -10q0 -7 -9 -7z" />
    <glyph glyph-name="Ntilde" unicode="&#xd1;" horiz-adv-x="651" 
d="M571 45q0 -51 -45 -51q-25 0 -34 7q-11 9 -18 23l-337 675q-3 7 -8 7t-5 -7v-680q0 -19 -17 -19h-10q-17 0 -17 19v680q0 49 49 49q33 0 48 -31l336 -674q4 -7 8 -7q5 0 5 9v679q0 19 16 19h12q17 0 17 -19v-679zM485 879q0 -91 -78 -91q-40 0 -67 26l-48 47
q-28 28 -48 28q-41 0 -41 -53v-26q0 -16 -10 -16h-17q-11 0 -11 16v26q0 91 79 91q39 0 66 -26l48 -47q28 -28 49 -28q40 0 40 53v26q0 16 10 16h17q11 0 11 -16v-26z" />
    <glyph glyph-name="Oacute" unicode="&#xd3;" horiz-adv-x="632" 
d="M572 309q0 -160 -72 -241q-66 -74 -184 -74t-184 74q-72 81 -72 241v124q0 160 72 241q66 74 184 74t184 -74q72 -81 72 -241v-124zM528 433q0 273 -212 273t-212 -273v-124q0 -273 212 -273t212 273v124zM413 939l-107 -128q-14 -17 -22 -17h-22q-9 0 -9 7q0 6 4 10
l100 128q12 15 23 15h26q11 0 11 -7q0 -4 -4 -8z" />
    <glyph glyph-name="Ocircumflex" unicode="&#xd4;" horiz-adv-x="632" 
d="M572 309q0 -160 -72 -241q-66 -74 -184 -74t-184 74q-72 81 -72 241v124q0 160 72 241q66 74 184 74t184 -74q72 -81 72 -241v-124zM528 433q0 273 -212 273t-212 -273v-124q0 -273 212 -273t212 273v124zM454 794h-22q-8 0 -22 17l-94 113l-94 -113q-14 -17 -22 -17h-22
q-9 0 -9 7q0 6 4 10l100 128q12 15 23 15h40q11 0 23 -15l100 -128q4 -4 4 -10q0 -7 -9 -7z" />
    <glyph glyph-name="Odieresis" unicode="&#xd6;" horiz-adv-x="632" 
d="M572 309q0 -160 -72 -241q-66 -74 -184 -74t-184 74q-72 81 -72 241v124q0 160 72 241q66 74 184 74t184 -74q72 -81 72 -241v-124zM528 433q0 273 -212 273t-212 -273v-124q0 -273 212 -273t212 273v124zM413 833q0 -19 -19 -19h-6q-19 0 -19 19v74q0 19 19 19h6
q19 0 19 -19v-74zM263 833q0 -19 -19 -19h-6q-19 0 -19 19v74q0 19 19 19h6q19 0 19 -19v-74z" />
    <glyph glyph-name="Ograve" unicode="&#xd2;" horiz-adv-x="632" 
d="M572 309q0 -160 -72 -241q-66 -74 -184 -74t-184 74q-72 81 -72 241v124q0 160 72 241q66 74 184 74t184 -74q72 -81 72 -241v-124zM528 433q0 273 -212 273t-212 -273v-124q0 -273 212 -273t212 273v124zM361 794h-22q-8 0 -22 17l-107 128q-4 4 -4 8q0 7 11 7h26
q11 0 23 -15l100 -128q4 -4 4 -10q0 -7 -9 -7z" />
    <glyph glyph-name="Otilde" unicode="&#xd5;" horiz-adv-x="632" 
d="M572 309q0 -160 -72 -241q-66 -74 -184 -74t-184 74q-72 81 -72 241v124q0 160 72 241q66 74 184 74t184 -74q72 -81 72 -241v-124zM528 433q0 273 -212 273t-212 -273v-124q0 -273 212 -273t212 273v124zM476 879q0 -91 -78 -91q-40 0 -67 26l-48 47q-28 28 -48 28
q-41 0 -41 -53v-26q0 -16 -10 -16h-17q-11 0 -11 16v26q0 91 79 91q39 0 66 -26l48 -47q28 -28 49 -28q40 0 40 53v26q0 16 10 16h17q11 0 11 -16v-26z" />
    <glyph glyph-name="Scaron" unicode="&#x160;" horiz-adv-x="530" 
d="M243 -6q-84 0 -146 10q-27 5 -27 21v4q0 19 23 17q80 -10 150 -10q186 0 186 149q0 51 -35 86q-25 24 -119 83l-63 39q-82 50 -113 85q-44 49 -44 115q0 155 234 155q74 0 139 -9q27 -3 27 -20v-5q0 -19 -31 -16q-72 8 -136 8q-188 0 -188 -113q0 -50 34 -87
q27 -29 101 -74l64 -39q98 -59 132 -96q44 -47 44 -112q0 -191 -232 -191zM408 937l-100 -128q-12 -15 -23 -15h-40q-11 0 -23 15l-100 128q-4 4 -4 10q0 7 9 7h22q8 0 22 -17l94 -113l94 113q14 17 22 17h22q9 0 9 -7q0 -6 -4 -10z" />
    <glyph glyph-name="Uacute" unicode="&#xda;" horiz-adv-x="633" 
d="M553 264q0 -270 -236 -270q-237 0 -237 270v460q0 19 17 19h10q17 0 17 -19v-460q0 -229 193 -229q192 0 192 229v460q0 19 17 19h10q17 0 17 -19v-460zM424 939l-107 -128q-14 -17 -22 -17h-22q-9 0 -9 7q0 6 4 10l100 128q12 15 23 15h26q11 0 11 -7q0 -4 -4 -8z" />
    <glyph glyph-name="Ucircumflex" unicode="&#xdb;" horiz-adv-x="633" 
d="M553 264q0 -270 -236 -270q-237 0 -237 270v460q0 19 17 19h10q17 0 17 -19v-460q0 -229 193 -229q192 0 192 229v460q0 19 17 19h10q17 0 17 -19v-460zM454 794h-22q-8 0 -22 17l-94 113l-94 -113q-14 -17 -22 -17h-22q-9 0 -9 7q0 6 4 10l100 128q12 15 23 15h40
q11 0 23 -15l100 -128q4 -4 4 -10q0 -7 -9 -7z" />
    <glyph glyph-name="Udieresis" unicode="&#xdc;" horiz-adv-x="633" 
d="M553 264q0 -270 -236 -270q-237 0 -237 270v460q0 19 17 19h10q17 0 17 -19v-460q0 -229 193 -229q192 0 192 229v460q0 19 17 19h10q17 0 17 -19v-460zM413 833q0 -19 -19 -19h-6q-19 0 -19 19v74q0 19 19 19h6q19 0 19 -19v-74zM263 833q0 -19 -19 -19h-6q-19 0 -19 19
v74q0 19 19 19h6q19 0 19 -19v-74z" />
    <glyph glyph-name="Ugrave" unicode="&#xd9;" horiz-adv-x="633" 
d="M553 264q0 -270 -236 -270q-237 0 -237 270v460q0 19 17 19h10q17 0 17 -19v-460q0 -229 193 -229q192 0 192 229v460q0 19 17 19h10q17 0 17 -19v-460zM359 794h-22q-8 0 -22 17l-107 128q-4 4 -4 8q0 7 11 7h26q11 0 23 -15l100 -128q4 -4 4 -10q0 -7 -9 -7z" />
    <glyph glyph-name="Yacute" unicode="&#xdd;" horiz-adv-x="551" 
d="M344 367q-22 -48 -47 -58v-290q0 -19 -17 -19h-10q-17 0 -17 19v290q-25 10 -47 58l-158 349q-12 27 14 27h10q10 0 16 -12l157 -350q16 -35 30 -35t30 35l157 350q6 12 16 12h10q26 0 14 -27zM387 939l-107 -128q-14 -17 -22 -17h-22q-9 0 -9 7q0 6 4 10l100 128
q12 15 23 15h26q11 0 11 -7q0 -4 -4 -8z" />
    <glyph glyph-name="Ydieresis" unicode="&#x178;" horiz-adv-x="551" 
d="M344 367q-22 -48 -47 -58v-290q0 -19 -17 -19h-10q-17 0 -17 19v290q-25 10 -47 58l-158 349q-12 27 14 27h10q10 0 16 -12l157 -350q16 -35 30 -35t30 35l157 350q6 12 16 12h10q26 0 14 -27zM372 833q0 -19 -19 -19h-6q-19 0 -19 19v74q0 19 19 19h6q19 0 19 -19v-74z
M222 833q0 -19 -19 -19h-6q-19 0 -19 19v74q0 19 19 19h6q19 0 19 -19v-74z" />
    <glyph glyph-name="Zcaron" unicode="&#x17d;" horiz-adv-x="595" 
d="M535 16q0 -16 -21 -16h-392q-54 0 -54 43q0 20 11 36l379 610q2 3 2 7q0 6 -8 6h-362q-21 0 -21 15v10q0 16 21 16h362q29 0 41 -8q17 -10 17 -32q0 -15 -11 -34l-382 -617q-2 -4 -2 -7q0 -4 7 -4h392q21 0 21 -15v-10zM440 937l-100 -128q-12 -15 -23 -15h-40
q-11 0 -23 15l-100 128q-4 4 -4 10q0 7 9 7h22q8 0 22 -17l94 -113l94 113q14 17 22 17h22q9 0 9 -7q0 -6 -4 -10z" />
    <glyph glyph-name="aacute" unicode="&#xe1;" horiz-adv-x="488" 
d="M418 20q0 -20 -20 -20h-5q-20 0 -20 20v25q-93 -51 -170 -51q-153 0 -153 161v13q0 79 55 116q59 38 192 38h77v36q0 80 -27 112q-28 33 -99 33q-57 0 -142 -9q-23 -2 -23 15v6q0 15 23 18q76 9 142 9q95 0 136 -51q34 -44 34 -133v-338zM374 283h-77q-113 0 -158 -26
q-45 -25 -45 -89v-13q0 -122 109 -122q76 0 171 51v199zM358 763l-107 -128q-14 -17 -22 -17h-22q-9 0 -9 7q0 6 4 10l100 128q12 15 23 15h26q11 0 11 -7q0 -4 -4 -8z" />
    <glyph glyph-name="acircumflex" unicode="&#xe2;" horiz-adv-x="488" 
d="M418 20q0 -20 -20 -20h-5q-20 0 -20 20v25q-93 -51 -170 -51q-153 0 -153 161v13q0 79 55 116q59 38 192 38h77v36q0 80 -27 112q-28 33 -99 33q-57 0 -142 -9q-23 -2 -23 15v6q0 15 23 18q76 9 142 9q95 0 136 -51q34 -44 34 -133v-338zM374 283h-77q-113 0 -158 -26
q-45 -25 -45 -89v-13q0 -122 109 -122q76 0 171 51v199zM382 618h-22q-8 0 -22 17l-94 113l-94 -113q-14 -17 -22 -17h-22q-9 0 -9 7q0 6 4 10l100 128q12 15 23 15h40q11 0 23 -15l100 -128q4 -4 4 -10q0 -7 -9 -7z" />
    <glyph glyph-name="adieresis" unicode="&#xe4;" horiz-adv-x="488" 
d="M418 20q0 -20 -20 -20h-5q-20 0 -20 20v25q-93 -51 -170 -51q-153 0 -153 161v13q0 79 55 116q59 38 192 38h77v36q0 80 -27 112q-28 33 -99 33q-57 0 -142 -9q-23 -2 -23 15v6q0 15 23 18q76 9 142 9q95 0 136 -51q34 -44 34 -133v-338zM374 283h-77q-113 0 -158 -26
q-45 -25 -45 -89v-13q0 -122 109 -122q76 0 171 51v199zM341 661q0 -19 -19 -19h-6q-19 0 -19 19v74q0 19 19 19h6q19 0 19 -19v-74zM191 661q0 -19 -19 -19h-6q-19 0 -19 19v74q0 19 19 19h6q19 0 19 -19v-74z" />
    <glyph glyph-name="agrave" unicode="&#xe0;" horiz-adv-x="488" 
d="M418 20q0 -20 -20 -20h-5q-20 0 -20 20v25q-93 -51 -170 -51q-153 0 -153 161v13q0 79 55 116q59 38 192 38h77v36q0 80 -27 112q-28 33 -99 33q-57 0 -142 -9q-23 -2 -23 15v6q0 15 23 18q76 9 142 9q95 0 136 -51q34 -44 34 -133v-338zM374 283h-77q-113 0 -158 -26
q-45 -25 -45 -89v-13q0 -122 109 -122q76 0 171 51v199zM283 618h-22q-8 0 -22 17l-107 128q-4 4 -4 8q0 7 11 7h26q11 0 23 -15l100 -128q4 -4 4 -10q0 -7 -9 -7z" />
    <glyph glyph-name="aring" unicode="&#xe5;" horiz-adv-x="488" 
d="M418 20q0 -20 -20 -20h-5q-20 0 -20 20v25q-93 -51 -170 -51q-153 0 -153 161v13q0 79 55 116q59 38 192 38h77v36q0 80 -27 112q-28 33 -99 33q-57 0 -142 -9q-23 -2 -23 15v6q0 15 23 18q76 9 142 9q95 0 136 -51q34 -44 34 -133v-338zM374 283h-77q-113 0 -158 -26
q-45 -25 -45 -89v-13q0 -122 109 -122q76 0 171 51v199zM310 632q-28 -27 -66 -27t-66 27q-27 28 -27 66t27 66q28 27 66 27t66 -27q27 -28 27 -66t-27 -66zM285 739q-17 17 -41 17t-40 -17q-17 -17 -17 -41t17 -41q16 -17 40 -17t41 17t17 41t-17 41z" />
    <glyph glyph-name="atilde" unicode="&#xe3;" horiz-adv-x="488" 
d="M418 20q0 -20 -20 -20h-5q-20 0 -20 20v25q-93 -51 -170 -51q-153 0 -153 161v13q0 79 55 116q59 38 192 38h77v36q0 80 -27 112q-28 33 -99 33q-57 0 -142 -9q-23 -2 -23 15v6q0 15 23 18q76 9 142 9q95 0 136 -51q34 -44 34 -133v-338zM374 283h-77q-113 0 -158 -26
q-45 -25 -45 -89v-13q0 -122 109 -122q76 0 171 51v199zM404 719q0 -91 -78 -91q-40 0 -67 26l-48 47q-28 28 -48 28q-41 0 -41 -53v-26q0 -16 -10 -16h-17q-11 0 -11 16v26q0 91 79 91q39 0 66 -26l48 -47q28 -28 49 -28q40 0 40 53v26q0 16 10 16h17q11 0 11 -16v-26z" />
    <glyph glyph-name="ccedilla" unicode="&#xe7;" horiz-adv-x="437" 
d="M393 21q0 -15 -19 -18q-76 -9 -121 -9q-101 0 -153 72q-45 63 -45 170v67q0 108 45 169q51 70 153 70q45 0 121 -9q19 -3 19 -18v-7q0 -17 -21 -14q-70 9 -119 9q-154 0 -154 -200v-67q0 -203 154 -203q49 0 119 9q21 4 21 -14v-7zM288 -70l-91 -108q-14 -17 -22 -17h-22
q-9 0 -9 7q0 6 4 10l84 108q12 15 23 15h26q11 0 11 -7q0 -4 -4 -8z" />
    <glyph glyph-name="eacute" unicode="&#xe9;" horiz-adv-x="511" 
d="M456 277q0 -19 -19 -19h-338v-21q0 -116 53 -165q43 -39 128 -39q65 0 148 17q21 4 21 -13v-7q0 -15 -19 -19q-82 -17 -150 -17q-225 0 -225 243v66q0 107 52 171q54 68 150 68q100 0 151 -66q48 -61 48 -172v-27zM412 304q0 199 -155 199q-158 0 -158 -200v-5h313v6z
M369 763l-107 -128q-14 -17 -22 -17h-22q-9 0 -9 7q0 6 4 10l100 128q12 15 23 15h26q11 0 11 -7q0 -4 -4 -8z" />
    <glyph glyph-name="ecircumflex" unicode="&#xea;" horiz-adv-x="511" 
d="M456 277q0 -19 -19 -19h-338v-21q0 -116 53 -165q43 -39 128 -39q65 0 148 17q21 4 21 -13v-7q0 -15 -19 -19q-82 -17 -150 -17q-225 0 -225 243v66q0 107 52 171q54 68 150 68q100 0 151 -66q48 -61 48 -172v-27zM412 304q0 199 -155 199q-158 0 -158 -200v-5h313v6z
M393 618h-22q-8 0 -22 17l-94 113l-94 -113q-14 -17 -22 -17h-22q-9 0 -9 7q0 6 4 10l100 128q12 15 23 15h40q11 0 23 -15l100 -128q4 -4 4 -10q0 -7 -9 -7z" />
    <glyph glyph-name="edieresis" unicode="&#xeb;" horiz-adv-x="511" 
d="M456 277q0 -19 -19 -19h-338v-21q0 -116 53 -165q43 -39 128 -39q65 0 148 17q21 4 21 -13v-7q0 -15 -19 -19q-82 -17 -150 -17q-225 0 -225 243v66q0 107 52 171q54 68 150 68q100 0 151 -66q48 -61 48 -172v-27zM412 304q0 199 -155 199q-158 0 -158 -200v-5h313v6z
M352 661q0 -19 -19 -19h-6q-19 0 -19 19v74q0 19 19 19h6q19 0 19 -19v-74zM202 661q0 -19 -19 -19h-6q-19 0 -19 19v74q0 19 19 19h6q19 0 19 -19v-74z" />
    <glyph glyph-name="egrave" unicode="&#xe8;" horiz-adv-x="511" 
d="M456 277q0 -19 -19 -19h-338v-21q0 -116 53 -165q43 -39 128 -39q65 0 148 17q21 4 21 -13v-7q0 -15 -19 -19q-82 -17 -150 -17q-225 0 -225 243v66q0 107 52 171q54 68 150 68q100 0 151 -66q48 -61 48 -172v-27zM412 304q0 199 -155 199q-158 0 -158 -200v-5h313v6z
M293 618h-22q-8 0 -22 17l-107 128q-4 4 -4 8q0 7 11 7h26q11 0 23 -15l100 -128q4 -4 4 -10q0 -7 -9 -7z" />
    <glyph glyph-name="iacute" unicode="&#xed;" horiz-adv-x="204" 
d="M124 19q0 -19 -19 -19h-6q-19 0 -19 19v499q0 19 19 19h6q19 0 19 -19v-499zM203 763l-107 -128q-14 -17 -22 -17h-22q-9 0 -9 7q0 6 4 10l100 128q12 15 23 15h26q11 0 11 -7q0 -4 -4 -8z" />
    <glyph glyph-name="icircumflex" unicode="&#xee;" horiz-adv-x="204" 
d="M124 19q0 -19 -19 -19h-6q-19 0 -19 19v499q0 19 19 19h6q19 0 19 -19v-499zM240 618h-22q-8 0 -22 17l-94 113l-94 -113q-14 -17 -22 -17h-22q-9 0 -9 7q0 6 4 10l100 128q12 15 23 15h40q11 0 23 -15l100 -128q4 -4 4 -10q0 -7 -9 -7z" />
    <glyph glyph-name="idieresis" unicode="&#xef;" horiz-adv-x="204" 
d="M124 19q0 -19 -19 -19h-6q-19 0 -19 19v499q0 19 19 19h6q19 0 19 -19v-499zM199 661q0 -19 -19 -19h-6q-19 0 -19 19v74q0 19 19 19h6q19 0 19 -19v-74zM49 661q0 -19 -19 -19h-6q-19 0 -19 19v74q0 19 19 19h6q19 0 19 -19v-74z" />
    <glyph glyph-name="igrave" unicode="&#xec;" horiz-adv-x="204" 
d="M124 19q0 -19 -19 -19h-6q-19 0 -19 19v499q0 19 19 19h6q19 0 19 -19v-499zM152 618h-22q-8 0 -22 17l-107 128q-4 4 -4 8q0 7 11 7h26q11 0 23 -15l100 -128q4 -4 4 -10q0 -7 -9 -7z" />
    <glyph glyph-name="ntilde" unicode="&#xf1;" horiz-adv-x="521" 
d="M451 19q0 -19 -19 -19h-7q-18 0 -18 19v332q0 152 -135 152q-73 0 -158 -41v-443q0 -19 -19 -19h-6q-19 0 -19 19v498q0 20 18 20h8q18 0 18 -20v-16q85 41 161 41q78 0 124 -43q52 -50 52 -148v-332zM420 704q0 -91 -78 -91q-40 0 -67 26l-48 47q-28 28 -48 28
q-41 0 -41 -53v-26q0 -16 -10 -16h-17q-11 0 -11 16v26q0 91 79 91q39 0 66 -26l48 -47q28 -28 49 -28q40 0 40 53v26q0 16 10 16h17q11 0 11 -16v-26z" />
    <glyph glyph-name="oacute" unicode="&#xf3;" horiz-adv-x="522" 
d="M467 233q0 -239 -206 -239t-206 239v70q0 239 206 239t206 -239v-70zM423 303q0 200 -162 200t-162 -200v-70q0 -200 162 -200t162 200v70zM374 763l-107 -128q-14 -17 -22 -17h-22q-9 0 -9 7q0 6 4 10l100 128q12 15 23 15h26q11 0 11 -7q0 -4 -4 -8z" />
    <glyph glyph-name="ocircumflex" unicode="&#xf4;" horiz-adv-x="522" 
d="M467 233q0 -239 -206 -239t-206 239v70q0 239 206 239t206 -239v-70zM423 303q0 200 -162 200t-162 -200v-70q0 -200 162 -200t162 200v70zM399 618h-22q-8 0 -22 17l-94 113l-94 -113q-14 -17 -22 -17h-22q-9 0 -9 7q0 6 4 10l100 128q12 15 23 15h40q11 0 23 -15
l100 -128q4 -4 4 -10q0 -7 -9 -7z" />
    <glyph glyph-name="odieresis" unicode="&#xf6;" horiz-adv-x="522" 
d="M467 233q0 -239 -206 -239t-206 239v70q0 239 206 239t206 -239v-70zM423 303q0 200 -162 200t-162 -200v-70q0 -200 162 -200t162 200v70zM358 661q0 -19 -19 -19h-6q-19 0 -19 19v74q0 19 19 19h6q19 0 19 -19v-74zM208 661q0 -19 -19 -19h-6q-19 0 -19 19v74
q0 19 19 19h6q19 0 19 -19v-74z" />
    <glyph glyph-name="ograve" unicode="&#xf2;" horiz-adv-x="522" 
d="M467 233q0 -239 -206 -239t-206 239v70q0 239 206 239t206 -239v-70zM423 303q0 200 -162 200t-162 -200v-70q0 -200 162 -200t162 200v70zM312 618h-22q-8 0 -22 17l-107 128q-4 4 -4 8q0 7 11 7h26q11 0 23 -15l100 -128q4 -4 4 -10q0 -7 -9 -7z" />
    <glyph glyph-name="otilde" unicode="&#xf5;" horiz-adv-x="522" 
d="M467 233q0 -239 -206 -239t-206 239v70q0 239 206 239t206 -239v-70zM423 303q0 200 -162 200t-162 -200v-70q0 -200 162 -200t162 200v70zM421 703q0 -91 -78 -91q-40 0 -67 26l-48 47q-28 28 -48 28q-41 0 -41 -53v-26q0 -16 -10 -16h-17q-11 0 -11 16v26q0 91 79 91
q39 0 66 -26l48 -47q28 -28 49 -28q40 0 40 53v26q0 16 10 16h17q11 0 11 -16v-26z" />
    <glyph glyph-name="scaron" unicode="&#x161;" horiz-adv-x="440" 
d="M217 -6q-73 0 -145 14q-22 5 -22 16v11q0 18 22 14q96 -16 147 -16q127 0 127 100q0 31 -21 53q-22 21 -85 56l-64 35q-64 35 -89 61q-32 34 -32 81q0 123 153 123q67 0 143 -9q21 -3 21 -17v-8q0 -19 -21 -16q-95 11 -139 11q-55 0 -80 -15q-33 -20 -33 -69
q0 -50 97 -104l67 -37q69 -38 95 -65q32 -34 32 -80q0 -139 -173 -139zM363 761l-100 -128q-12 -15 -23 -15h-40q-11 0 -23 15l-100 128q-4 4 -4 10q0 7 9 7h22q8 0 22 -17l94 -113l94 113q14 17 22 17h22q9 0 9 -7q0 -6 -4 -10z" />
    <glyph glyph-name="uacute" unicode="&#xfa;" horiz-adv-x="521" 
d="M70 518q0 19 19 19h7q18 0 18 -19v-332q0 -152 135 -152q69 0 158 41v443q0 19 19 19h6q19 0 19 -19v-498q0 -20 -18 -20h-8q-18 0 -18 20v16q-85 -41 -161 -41q-78 0 -124 44q-52 49 -52 147v332zM381 763l-107 -128q-14 -17 -22 -17h-22q-9 0 -9 7q0 6 4 10l100 128
q12 15 23 15h26q11 0 11 -7q0 -4 -4 -8z" />
    <glyph glyph-name="ucircumflex" unicode="&#xfb;" horiz-adv-x="521" 
d="M70 518q0 19 19 19h7q18 0 18 -19v-332q0 -152 135 -152q69 0 158 41v443q0 19 19 19h6q19 0 19 -19v-498q0 -20 -18 -20h-8q-18 0 -18 20v16q-85 -41 -161 -41q-78 0 -124 44q-52 49 -52 147v332zM398 618h-22q-8 0 -22 17l-94 113l-94 -113q-14 -17 -22 -17h-22
q-9 0 -9 7q0 6 4 10l100 128q12 15 23 15h40q11 0 23 -15l100 -128q4 -4 4 -10q0 -7 -9 -7z" />
    <glyph glyph-name="udieresis" unicode="&#xfc;" horiz-adv-x="521" 
d="M70 518q0 19 19 19h7q18 0 18 -19v-332q0 -152 135 -152q69 0 158 41v443q0 19 19 19h6q19 0 19 -19v-498q0 -20 -18 -20h-8q-18 0 -18 20v16q-85 -41 -161 -41q-78 0 -124 44q-52 49 -52 147v332zM357 661q0 -19 -19 -19h-6q-19 0 -19 19v74q0 19 19 19h6q19 0 19 -19
v-74zM207 661q0 -19 -19 -19h-6q-19 0 -19 19v74q0 19 19 19h6q19 0 19 -19v-74z" />
    <glyph glyph-name="ugrave" unicode="&#xf9;" horiz-adv-x="521" 
d="M70 518q0 19 19 19h7q18 0 18 -19v-332q0 -152 135 -152q69 0 158 41v443q0 19 19 19h6q19 0 19 -19v-498q0 -20 -18 -20h-8q-18 0 -18 20v16q-85 -41 -161 -41q-78 0 -124 44q-52 49 -52 147v332zM296 618h-22q-8 0 -22 17l-107 128q-4 4 -4 8q0 7 11 7h26q11 0 23 -15
l100 -128q4 -4 4 -10q0 -7 -9 -7z" />
    <glyph glyph-name="yacute" unicode="&#xfd;" horiz-adv-x="486" 
d="M282 -56q-23 -80 -58 -110q-34 -29 -104 -29q-26 0 -62 6q-20 3 -20 14v11q0 17 21 14q45 -6 65 -6q54 0 78 22q23 21 41 87l13 47h-14q-45 0 -61 56l-135 457q-7 24 16 24h9q12 0 16 -14l135 -460q6 -22 23 -22h23l137 483q4 13 18 13h9q22 0 14 -25zM365 763l-107 -128
q-14 -17 -22 -17h-22q-9 0 -9 7q0 6 4 10l100 128q12 15 23 15h26q11 0 11 -7q0 -4 -4 -8z" />
    <glyph glyph-name="ydieresis" unicode="&#xff;" horiz-adv-x="486" 
d="M282 -56q-23 -80 -58 -110q-34 -29 -104 -29q-26 0 -62 6q-20 3 -20 14v11q0 17 21 14q45 -6 65 -6q54 0 78 22q23 21 41 87l13 47h-14q-45 0 -61 56l-135 457q-7 24 16 24h9q12 0 16 -14l135 -460q6 -22 23 -22h23l137 483q4 13 18 13h9q22 0 14 -25zM340 668
q0 -19 -19 -19h-6q-19 0 -19 19v74q0 19 19 19h6q19 0 19 -19v-74zM190 668q0 -19 -19 -19h-6q-19 0 -19 19v74q0 19 19 19h6q19 0 19 -19v-74z" />
    <glyph glyph-name="zcaron" unicode="&#x17e;" horiz-adv-x="446" 
d="M406 16q0 -16 -20 -16h-286q-60 0 -60 41q0 22 18 45l293 391q4 5 4 10q0 9 -14 9h-263q-20 0 -20 15v10q0 16 20 16h262q58 0 58 -43q0 -23 -16 -45l-290 -389q-5 -7 -5 -12q0 -7 9 -7h290q20 0 20 -15v-10zM366 761l-100 -128q-12 -15 -23 -15h-40q-11 0 -23 15
l-100 128q-4 4 -4 10q0 7 9 7h22q8 0 22 -17l94 -113l94 113q14 17 22 17h22q9 0 9 -7q0 -6 -4 -10z" />
    <glyph glyph-name="oneeighth" unicode="&#x215b;" horiz-adv-x="668" 
d="M512 724l-412 -705q-11 -19 -21 -19h-27q-8 0 -8 6t5 13l412 705q11 19 21 19h28q8 0 8 -5t-6 -14zM105 707l-55 -8q-20 -2 -20 19q0 15 18 19l76 11q21 3 21 -19v-379q0 -18 -16 -18h-8q-16 0 -16 18v357zM638 113q0 -57 -38 -88q-35 -28 -95 -28q-134 0 -134 116v17
q0 57 49 86q-49 27 -49 84v12q0 105 134 105q133 0 133 -105v-12q0 -57 -49 -84q49 -29 49 -86v-17zM597 130q0 23 -14 42q-20 26 -57 26h-44q-36 0 -56 -26q-14 -19 -14 -42v-17q0 -78 93 -78q92 0 92 78v17zM597 312q0 67 -92 67q-93 0 -93 -67v-12q0 -62 70 -62h44
q71 0 71 62v12z" />
    <glyph glyph-name="threeeighths" unicode="&#x215c;" horiz-adv-x="744" 
d="M588 724l-412 -705q-11 -19 -21 -19h-27q-8 0 -8 6t5 13l412 705q11 19 21 19h28q8 0 8 -5t-6 -14zM714 113q0 -57 -38 -88q-35 -28 -95 -28q-134 0 -134 116v17q0 57 49 86q-49 27 -49 84v12q0 105 134 105q133 0 133 -105v-12q0 -57 -49 -84q49 -29 49 -86v-17z
M673 130q0 23 -14 42q-20 26 -57 26h-44q-36 0 -56 -26q-14 -19 -14 -42v-17q0 -78 93 -78q92 0 92 78v17zM673 312q0 67 -92 67q-93 0 -93 -67v-12q0 -62 70 -62h44q71 0 71 62v12zM226 461q0 70 -68 70h-101q-18 0 -18 17v4q0 17 18 17h101q68 0 68 68v7q0 40 -25 56
q-22 14 -75 14q-23 0 -77 -6q-19 -2 -19 12v4q0 16 16 18q39 7 80 7q71 0 104 -21q37 -24 37 -84v-7q0 -59 -47 -89q47 -26 47 -87v-11q0 -121 -141 -121q-41 0 -80 7q-16 2 -16 18v4q0 14 19 12q54 -6 77 -6q100 0 100 86v11z" />
    <glyph glyph-name="fiveeighths" unicode="&#x215d;" horiz-adv-x="753" 
d="M597 724l-412 -705q-11 -19 -21 -19h-27q-8 0 -8 6t5 13l412 705q11 19 21 19h28q8 0 8 -5t-6 -14zM723 113q0 -57 -38 -88q-35 -28 -95 -28q-134 0 -134 116v17q0 57 49 86q-49 27 -49 84v12q0 105 134 105q133 0 133 -105v-12q0 -57 -49 -84q49 -29 49 -86v-17z
M682 130q0 23 -14 42q-20 26 -57 26h-44q-36 0 -56 -26q-14 -19 -14 -42v-17q0 -78 93 -78q92 0 92 78v17zM682 312q0 67 -92 67q-93 0 -93 -67v-12q0 -62 70 -62h44q71 0 71 62v12zM236 459v4q0 47 -31 65q-28 16 -100 16h-47q-19 0 -18 21l11 166q2 17 19 17h176
q18 0 18 -17v-6q0 -16 -18 -16h-156l-8 -127h30q85 0 123 -25q41 -28 41 -94v-4q0 -63 -41 -97q-39 -33 -106 -33q-44 0 -83 7q-16 2 -16 18v4q0 14 19 12q54 -6 80 -6q107 0 107 95z" />
    <glyph glyph-name="seveneighths" unicode="&#x215e;" horiz-adv-x="689" 
d="M533 724l-412 -705q-11 -19 -21 -19h-27q-8 0 -8 6t5 13l412 705q11 19 21 19h28q8 0 8 -5t-6 -14zM659 113q0 -57 -38 -88q-35 -28 -95 -28q-134 0 -134 116v17q0 57 49 86q-49 27 -49 84v12q0 105 134 105q133 0 133 -105v-12q0 -57 -49 -84q49 -29 49 -86v-17z
M618 130q0 23 -14 42q-20 26 -57 26h-44q-36 0 -56 -26q-14 -19 -14 -42v-17q0 -78 93 -78q92 0 92 78v17zM618 312q0 67 -92 67q-93 0 -93 -67v-12q0 -62 70 -62h44q71 0 71 62v12zM242 703q3 5 -4 5h-189q-19 0 -19 17v4q0 19 19 19h213q17 0 25 -13q7 -13 -1 -31
l-169 -355q-8 -17 -19 -17h-14q-21 0 -8 26z" />
    <glyph glyph-name="onethird" unicode="&#x2153;" horiz-adv-x="669" 
d="M512 724l-412 -705q-11 -19 -21 -19h-27q-8 0 -8 6t5 13l412 705q11 19 21 19h28q8 0 8 -5t-6 -14zM105 707l-55 -8q-20 -2 -20 19q0 15 18 19l76 11q21 3 21 -19v-379q0 -18 -16 -18h-8q-16 0 -16 18v357zM598 129q0 70 -68 70h-101q-18 0 -18 17v4q0 17 18 17h101
q68 0 68 68v7q0 40 -25 56q-22 14 -75 14q-23 0 -77 -6q-19 -2 -19 12v4q0 16 16 18q39 7 80 7q71 0 104 -21q37 -24 37 -84v-7q0 -59 -47 -89q47 -26 47 -87v-11q0 -121 -141 -121q-41 0 -80 7q-16 2 -16 18v4q0 14 19 12q54 -6 77 -6q100 0 100 86v11z" />
    <glyph glyph-name="twothirds" unicode="&#x2154;" horiz-adv-x="753" 
d="M596 724l-412 -705q-11 -19 -21 -19h-27q-8 0 -8 6t5 13l412 705q11 19 21 19h28q8 0 8 -5t-6 -14zM682 118q0 -86 -100 -86q-23 0 -77 6q-19 2 -19 -12v-4q0 -16 16 -18q39 -7 80 -7q141 0 141 121v11q0 61 -47 87q47 30 47 89v7q0 60 -37 84q-33 21 -104 21
q-41 0 -80 -7q-16 -2 -16 -18v-4q0 -14 19 -12q54 6 77 6q53 0 75 -14q25 -16 25 -56v-7q0 -68 -68 -68h-101q-18 0 -18 -17v-4q0 -17 18 -17h101q68 0 68 -70v-11zM38 721v3q0 17 19 19q39 6 81 6q133 0 133 -93q0 -67 -76 -118l-55 -37q-70 -47 -70 -117v-14h178
q18 0 18 -16v-6q0 -16 -18 -16h-200q-18 0 -18 19v33q0 88 87 148l55 38q58 40 58 86q0 58 -92 58q-33 0 -80 -5q-20 -2 -20 12z" />
    <glyph glyph-name="zero.oldstyle" unicode="&#xf730;" 
d="M520 273q0 -279 -230 -279t-230 279v66q0 278 230 278t230 -278v-66zM476 339q0 238 -186 238t-186 -238v-66q0 -239 186 -239t186 239v66z" />
    <glyph glyph-name="one.oldstyle" unicode="&#xf731;" horiz-adv-x="407" 
d="M253 20q0 -20 -20 -20h-4q-20 0 -20 20v554l-123 -15q-15 0 -15 13v5q0 16 20 20l144 20q18 0 18 -20v-577z" />
    <glyph glyph-name="two.oldstyle" unicode="&#xf732;" 
d="M448 358q-31 -30 -143 -97q-102 -61 -133 -93q-47 -48 -47 -117v-10h346q20 0 20 -15v-11q0 -15 -20 -15h-371q-20 0 -20 20v31q0 85 61 148q38 39 143 100q97 57 126 84q42 41 42 98q0 95 -184 95q-76 0 -153 -15l-5 -1q-16 0 -16 16v11q0 12 19 16q70 15 168 15
q219 0 219 -137q0 -73 -52 -123z" />
    <glyph glyph-name="three.oldstyle" unicode="&#xf733;" 
d="M496 76q0 -212 -248 -212q-75 0 -146 15q-18 4 -18 18v6q0 16 16 16h4q78 -13 144 -13q104 0 152 40q49 40 49 130v20q0 50 -32 91q-39 52 -110 52h-187q-19 0 -19 18v7q0 18 19 18h187q77 0 115 51q27 37 27 90v12q0 81 -50 113q-45 28 -151 28q-54 0 -144 -15h-4
q-16 0 -16 16v8q0 14 18 18q84 15 146 15q124 0 182 -37q66 -43 66 -146v-12q0 -120 -104 -165q104 -47 104 -162v-20z" />
    <glyph glyph-name="four.oldstyle" unicode="&#xf734;" 
d="M542 103q0 -17 -19 -17h-100v-197q0 -19 -16 -19h-12q-16 0 -16 19v197h-277q-64 0 -64 54q0 21 14 42l280 411q16 25 51 25q40 0 40 -48v-442h100q19 0 19 -16v-9zM379 564q0 8 -6 8q-4 0 -10 -8l-273 -401q-10 -16 -10 -23q0 -12 22 -12h277v436z" />
    <glyph glyph-name="five.oldstyle" unicode="&#xf735;" 
d="M503 79q0 -106 -70 -165q-68 -56 -183 -56q-77 0 -154 18q-19 3 -19 19v11q0 13 13 13q5 0 8 -1q77 -18 152 -18q209 0 209 179v25q0 86 -58 122q-54 33 -183 33h-106q-20 0 -20 20l23 311q2 17 20 17h326q20 0 20 -16v-11q0 -14 -20 -14h-303l-18 -266h78q158 0 224 -50
q61 -46 61 -146v-25z" />
    <glyph glyph-name="six.oldstyle" unicode="&#xf736;" 
d="M516 251q0 -257 -231 -257q-221 0 -221 259v235q0 137 63 201q59 59 182 59q74 0 159 -19q22 -4 22 -18v-10q0 -14 -16 -14q-5 0 -8 1q-87 18 -157 18q-105 0 -151 -48q-50 -51 -50 -170v-62q102 26 185 26q95 0 152 -41q71 -51 71 -155v-5zM472 256q0 155 -179 155
q-93 0 -185 -24v-134q0 -118 43 -169q42 -50 134 -50q187 0 187 217v5z" />
    <glyph glyph-name="seven.oldstyle" unicode="&#xf737;" horiz-adv-x="560" 
d="M491 560l-320 -676q-4 -10 -18 -10h-15q-15 0 -15 15q0 6 3 12l316 659q1 2 1 6q0 8 -8 8h-374q-20 0 -20 16v8q0 19 20 19h396q39 0 39 -35q0 -12 -5 -22z" />
    <glyph glyph-name="eight.oldstyle" unicode="&#xf738;" 
d="M524 197q0 -100 -66 -153q-62 -50 -168 -50t-168 50q-66 53 -66 153v30q0 46 25 90q29 50 79 72q-48 17 -76 60q-28 42 -28 95v22q0 91 65 138q61 44 169 44t169 -44q65 -47 65 -138v-22q0 -53 -28 -95q-28 -43 -76 -60q50 -22 79 -72q25 -44 25 -90v-30zM477 566
q0 140 -187 140t-187 -140v-22q0 -52 30 -87q39 -45 116 -45h82q77 0 116 45q30 35 30 87v22zM477 227q0 48 -30 88q-40 54 -116 54h-82q-76 0 -116 -54q-30 -40 -30 -88v-30q0 -161 187 -161t187 161v30z" />
    <glyph glyph-name="nine.oldstyle" unicode="&#xf739;" 
d="M516 123q0 -137 -63 -200q-59 -60 -182 -60q-74 0 -159 19q-22 4 -22 18v10q0 14 16 14q5 0 8 -1q87 -18 157 -18q105 0 152 48q49 51 49 170v62q-102 -26 -185 -26q-95 0 -152 41q-71 51 -71 155v5q0 257 231 257q221 0 221 -259v-235zM472 358q0 118 -43 170
q-42 49 -134 49q-187 0 -187 -217v-5q0 -155 179 -155q93 0 185 24v134z" />
    <glyph glyph-name="uni2014.alt" unicode="&#xe009;" horiz-adv-x="703" 
d="M643 273q0 -16 -19 -16h-545q-19 0 -19 16v8q0 18 19 18h545q19 0 19 -18v-8z" />
    <glyph glyph-name="a.superior" unicode="&#xf6e9;" horiz-adv-x="268" 
d="M234 345q0 -15 -14 -15h-6q-14 0 -14 15v7q-48 -25 -84 -25q-92 0 -92 92v7q0 45 31 66q33 22 108 22h37v15q0 40 -14 57t-50 17q-35 0 -76 -4q-18 -2 -18 14q0 14 16 16q37 5 78 5q98 0 98 -105v-184zM200 484h-37q-58 0 -82 -13q-23 -13 -23 -45v-7q0 -61 58 -61
q35 0 84 23v103z" />
    <glyph glyph-name="b.superior" unicode="&#xf6ea;" horiz-adv-x="277" 
d="M250 463q0 -136 -111 -136q-44 0 -92 10q-11 3 -11 16v374q0 16 13 16h5q15 0 15 -16v-99q33 6 70 6q111 0 111 -134v-37zM217 500q0 104 -78 104q-44 0 -70 -5v-237q33 -5 70 -5q78 0 78 106v37z" />
    <glyph glyph-name="d.superior" unicode="&#xf6eb;" horiz-adv-x="277" 
d="M242 353q0 -12 -12 -16q-48 -10 -92 -10q-111 0 -111 136v37q0 134 111 134q38 0 71 -6v99q0 16 14 16h5q14 0 14 -16v-374zM209 598q-35 5 -71 5q-78 0 -78 -103v-37q0 -106 78 -106q31 0 71 6v235z" />
    <glyph glyph-name="e.superior" unicode="&#xf6ec;" horiz-adv-x="281" 
d="M254 485q0 -15 -15 -15h-179v-7q0 -62 25 -85q20 -20 69 -20q20 0 79 7q17 2 17 -13q0 -13 -13 -16q-49 -9 -83 -9q-63 0 -93 28q-34 33 -34 108v37q0 60 29 96q31 38 85 38q113 0 113 -134v-15zM60 502h157q-2 101 -76 101q-79 0 -81 -101z" />
    <glyph glyph-name="i.superior" unicode="&#xf6ed;" horiz-adv-x="112" 
d="M70 345q0 -15 -15 -15h-4q-15 0 -15 15v271q0 15 15 15h4q15 0 15 -15v-271zM70 690q0 -15 -15 -15h-4q-15 0 -15 15v40q0 15 15 15h4q15 0 15 -15v-40z" />
    <glyph glyph-name="l.superior" unicode="&#xf6ee;" horiz-adv-x="112" 
d="M70 345q0 -15 -14 -15h-6q-14 0 -14 15v382q0 16 14 16h6q14 0 14 -16v-382z" />
    <glyph glyph-name="m.superior" unicode="&#xf6ef;" horiz-adv-x="410" 
d="M69 345q0 -15 -14 -15h-6q-13 0 -13 15v270q0 16 14 16h6q13 0 13 -16v-6q40 23 78 23q37 0 56 -22q41 22 83 22q89 0 89 -93v-194q0 -15 -15 -15h-5q-14 0 -14 15v194q0 64 -59 64q-29 0 -66 -16q6 -18 6 -45v-197q0 -15 -13 -15h-8q-13 0 -13 15v197q0 61 -46 61
q-31 0 -73 -21v-237z" />
    <glyph glyph-name="uni207F" unicode="&#x207f;" horiz-adv-x="287" 
d="M69 345q0 -15 -14 -15h-6q-13 0 -13 15v270q0 16 14 16h5q14 0 14 -16v-5q41 22 82 22q100 0 100 -107v-180q0 -15 -14 -15h-4q-15 0 -15 15v180q0 45 -18 63q-15 15 -50 15q-37 0 -81 -21v-237z" />
    <glyph glyph-name="o.superior" unicode="&#xf6f0;" horiz-adv-x="287" 
d="M260 461q0 -134 -116 -134q-117 0 -117 134v39q0 134 117 134q116 0 116 -134v-39zM227 500q0 103 -83 103q-84 0 -84 -103v-39q0 -103 84 -103q83 0 83 103v39z" />
    <glyph glyph-name="r.superior" unicode="&#xf6f1;" horiz-adv-x="170" 
d="M35 615q0 16 14 16h5q14 0 14 -16v-7q34 26 74 26q20 0 20 -13v-4q0 -13 -20 -13q-37 0 -74 -24v-235q0 -15 -14 -15h-6q-13 0 -13 15v270z" />
    <glyph glyph-name="s.superior" unicode="&#xf6f2;" horiz-adv-x="242" 
d="M119 327q-46 0 -79 7q-16 3 -16 14v4q0 15 18 12q52 -6 77 -6q65 0 65 49q0 26 -54 55l-35 19q-68 36 -68 84q0 69 87 69q37 0 79 -6q16 -3 16 -13v-4q0 -15 -18 -13q-57 5 -74 5q-57 0 -57 -38q0 -30 50 -56l37 -19q71 -36 71 -83q0 -80 -99 -80z" />
    <glyph glyph-name="t.superior" unicode="&#xf6f3;" horiz-adv-x="209" 
d="M191 342q0 -11 -13 -14q-9 -1 -30 -1q-66 0 -66 63v209h-49q-15 0 -15 14v5q0 13 15 13h49v51q0 15 14 15h6q14 0 14 -15v-51h60q15 0 15 -13v-5q0 -14 -15 -14h-60v-209q0 -32 32 -32h26q17 0 17 -13v-3z" />
    <glyph glyph-name="uni00B9" unicode="&#xb9;" horiz-adv-x="210" 
d="M92 707l-55 -8q-20 -2 -20 19q0 15 18 19l76 11q21 3 21 -19v-379q0 -18 -16 -18h-8q-16 0 -16 18v357z" />
    <glyph glyph-name="uni00B2" unicode="&#xb2;" horiz-adv-x="319" 
d="M47 721v3q0 17 19 19q39 6 81 6q133 0 133 -93q0 -67 -76 -118l-55 -37q-70 -47 -70 -117v-14h178q18 0 18 -16v-6q0 -16 -18 -16h-200q-18 0 -18 19v33q0 88 87 148l55 38q58 40 58 86q0 58 -92 58q-33 0 -80 -5q-20 -2 -20 12z" />
    <glyph glyph-name="uni00B3" unicode="&#xb3;" horiz-adv-x="319" 
d="M237 461q0 70 -68 70h-101q-18 0 -18 17v4q0 17 18 17h101q68 0 68 68v7q0 40 -25 56q-22 14 -75 14q-23 0 -77 -6q-19 -2 -19 12v4q0 16 16 18q39 7 80 7q71 0 104 -21q37 -24 37 -84v-7q0 -59 -47 -89q47 -26 47 -87v-11q0 -121 -141 -121q-41 0 -80 7q-16 2 -16 18v4
q0 14 19 12q54 -6 77 -6q100 0 100 86v11z" />
    <glyph glyph-name="commaaccent" unicode="&#xf6c3;" horiz-adv-x="330" 
d="M202 -55q12 0 12 -10q0 -6 -2 -9l-56 -102q-9 -19 -24 -19h-9q-9 0 -9 9q0 5 1 7l43 105q7 19 20 19h24z" />
    <glyph glyph-name="Abreve" unicode="&#x102;" horiz-adv-x="619" 
d="M579 22q7 -25 -14 -25h-12q-12 0 -16 13l-84 271h-288l-82 -271q-4 -13 -16 -13h-13q-21 0 -14 25l205 677q15 49 65 49t64 -48zM333 688q-6 20 -23 20q-18 0 -23 -19l-110 -364h265zM205 832q-40 40 -40 111q0 10 10 10h22q8 0 8 -10q0 -111 102 -111t102 111q0 10 8 10
h22q10 0 10 -10q0 -71 -39 -111q-39 -39 -103 -39t-102 39z" />
    <glyph glyph-name="Amacron" unicode="&#x100;" horiz-adv-x="619" 
d="M579 22q7 -25 -14 -25h-12q-12 0 -16 13l-84 271h-288l-82 -271q-4 -13 -16 -13h-13q-21 0 -14 25l205 677q15 49 65 49t64 -48zM333 688q-6 20 -23 20q-18 0 -23 -19l-110 -364h265zM460 856q0 -16 -20 -16h-266q-20 0 -20 16v11q0 15 20 15h266q20 0 20 -15v-11z" />
    <glyph glyph-name="Aogonek" unicode="&#x104;" horiz-adv-x="619" 
d="M522 -24q-94 -47 -94 -86q0 -45 66 -45q31 0 75 12q2 1 7 1q7 0 7 -6v-19q0 -8 -11 -11q-42 -14 -79 -14q-106 0 -106 82q0 59 100 107l48 23l-82 264h-288l-82 -271q-4 -13 -16 -13h-13q-15 0 -15 16q0 6 1 9l205 677q15 49 65 49t64 -48l205 -678q2 -8 2 -11
q0 -8 -7 -12zM333 691q-6 20 -23 20q-18 0 -23 -19l-110 -364h265z" />
    <glyph glyph-name="AEacute" unicode="&#x1fc;" horiz-adv-x="879" 
d="M822 17q0 -17 -19 -17h-296q-83 0 -83 81v200h-268l-82 -271q-4 -13 -16 -13h-13q-21 0 -14 25l205 672q15 49 65 49h502q19 0 19 -17v-8q0 -16 -19 -16h-335v-291h335q19 0 19 -16v-10q0 -17 -19 -17h-335v-287q0 -22 7 -30q8 -10 32 -10h296q19 0 19 -16v-8zM424 702
h-123q-18 0 -23 -19l-110 -358h256v377zM655 939l-107 -128q-14 -17 -22 -17h-22q-9 0 -9 7q0 6 4 10l100 128q12 15 23 15h26q11 0 11 -7q0 -4 -4 -8z" />
    <glyph glyph-name="Cacute" unicode="&#x106;" horiz-adv-x="537" 
d="M497 21q0 -15 -19 -17q-87 -10 -173 -10q-107 0 -169 66q-76 79 -76 245v132q0 166 76 245q62 66 169 66q86 0 173 -10q19 -2 19 -17v-12q0 -14 -19 -12q-81 9 -173 9q-91 0 -142 -61q-59 -68 -59 -208v-132q0 -140 59 -208q51 -61 142 -61q92 0 173 9q19 2 19 -12v-12z
M416 938l-107 -128q-14 -17 -22 -17h-22q-9 0 -9 7q0 6 4 10l100 128q12 15 23 15h26q11 0 11 -7q0 -4 -4 -8z" />
    <glyph glyph-name="Ccaron" unicode="&#x10c;" horiz-adv-x="537" 
d="M497 21q0 -15 -19 -17q-87 -10 -173 -10q-107 0 -169 66q-76 79 -76 245v132q0 166 76 245q62 66 169 66q86 0 173 -10q19 -2 19 -17v-12q0 -14 -19 -12q-81 9 -173 9q-91 0 -142 -61q-59 -68 -59 -208v-132q0 -140 59 -208q51 -61 142 -61q92 0 173 9q19 2 19 -12v-12z
M446 936l-100 -128q-12 -15 -23 -15h-40q-11 0 -23 15l-100 128q-4 4 -4 10q0 7 9 7h22q8 0 22 -17l94 -113l94 113q14 17 22 17h22q9 0 9 -7q0 -6 -4 -10z" />
    <glyph glyph-name="Ccircumflex" unicode="&#x108;" horiz-adv-x="537" 
d="M497 21q0 -15 -19 -17q-87 -10 -173 -10q-107 0 -169 66q-76 79 -76 245v132q0 166 76 245q62 66 169 66q86 0 173 -10q19 -2 19 -17v-12q0 -14 -19 -12q-81 9 -173 9q-91 0 -142 -61q-59 -68 -59 -208v-132q0 -140 59 -208q51 -61 142 -61q92 0 173 9q19 2 19 -12v-12z
M427 794h-22q-8 0 -22 17l-94 113l-94 -113q-14 -17 -22 -17h-22q-9 0 -9 7q0 6 4 10l100 128q12 15 23 15h40q11 0 23 -15l100 -128q4 -4 4 -10q0 -7 -9 -7z" />
    <glyph glyph-name="Cdotaccent" unicode="&#x10a;" horiz-adv-x="537" 
d="M497 21q0 -15 -19 -17q-87 -10 -173 -10q-107 0 -169 66q-76 79 -76 245v132q0 166 76 245q62 66 169 66q86 0 173 -10q19 -2 19 -17v-12q0 -14 -19 -12q-81 9 -173 9q-91 0 -142 -61q-59 -68 -59 -208v-132q0 -140 59 -208q51 -61 142 -61q92 0 173 9q19 2 19 -12v-12z
M327 833q0 -19 -19 -19h-6q-19 0 -19 19v74q0 19 19 19h6q19 0 19 -19v-74z" />
    <glyph glyph-name="Dcaron" unicode="&#x10e;" horiz-adv-x="613" 
d="M553 309q0 -315 -292 -315q-118 0 -164 8q-17 4 -17 19v700q0 15 17 19q46 8 164 8q292 0 292 -315v-124zM509 433q0 276 -248 276q-49 0 -137 -6v-666q59 -4 137 -4q248 0 248 276v124zM450 936l-100 -128q-12 -15 -23 -15h-40q-11 0 -23 15l-100 128q-4 4 -4 10
q0 7 9 7h22q8 0 22 -17l94 -113l94 113q14 17 22 17h22q9 0 9 -7q0 -6 -4 -10z" />
    <glyph glyph-name="Dcroat" unicode="&#x110;" horiz-adv-x="613" 
d="M553 309q0 -315 -292 -315q-118 0 -164 8q-17 4 -17 19v347h-71q-19 0 -19 17v10q0 16 19 16h71v310q0 15 17 19q46 8 164 8q292 0 292 -315v-124zM509 433q0 276 -248 276q-49 0 -137 -6v-292h85q19 0 19 -16v-10q0 -17 -19 -17h-85v-331q59 -4 137 -4q248 0 248 276
v124z" />
    <glyph glyph-name="Ebreve" unicode="&#x114;" horiz-adv-x="533" 
d="M478 17q0 -17 -19 -17h-258q-121 0 -121 112v519q0 112 121 112h258q19 0 19 -17v-8q0 -16 -19 -16h-258q-40 0 -56 -12q-21 -16 -21 -59v-220h335q19 0 19 -16v-10q0 -17 -19 -17h-335v-256q0 -43 21 -59q16 -12 56 -12h258q19 0 19 -16v-8zM194 834q-40 40 -40 111
q0 10 10 10h22q8 0 8 -10q0 -111 102 -111t102 111q0 10 8 10h22q10 0 10 -10q0 -71 -39 -111q-39 -39 -103 -39t-102 39z" />
    <glyph glyph-name="Ecaron" unicode="&#x11a;" horiz-adv-x="533" 
d="M478 17q0 -17 -19 -17h-258q-121 0 -121 112v519q0 112 121 112h258q19 0 19 -17v-8q0 -16 -19 -16h-258q-40 0 -56 -12q-21 -16 -21 -59v-220h335q19 0 19 -16v-10q0 -17 -19 -17h-335v-256q0 -43 21 -59q16 -12 56 -12h258q19 0 19 -16v-8zM434 937l-100 -128
q-12 -15 -23 -15h-40q-11 0 -23 15l-100 128q-4 4 -4 10q0 7 9 7h22q8 0 22 -17l94 -113l94 113q14 17 22 17h22q9 0 9 -7q0 -6 -4 -10z" />
    <glyph glyph-name="Edotaccent" unicode="&#x116;" horiz-adv-x="533" 
d="M478 17q0 -17 -19 -17h-258q-121 0 -121 112v519q0 112 121 112h258q19 0 19 -17v-8q0 -16 -19 -16h-258q-40 0 -56 -12q-21 -16 -21 -59v-220h335q19 0 19 -16v-10q0 -17 -19 -17h-335v-256q0 -43 21 -59q16 -12 56 -12h258q19 0 19 -16v-8zM302 833q0 -19 -19 -19h-6
q-19 0 -19 19v74q0 19 19 19h6q19 0 19 -19v-74z" />
    <glyph glyph-name="Emacron" unicode="&#x112;" horiz-adv-x="533" 
d="M478 17q0 -17 -19 -17h-258q-121 0 -121 112v519q0 112 121 112h258q19 0 19 -17v-8q0 -16 -19 -16h-258q-40 0 -56 -12q-21 -16 -21 -59v-220h335q19 0 19 -16v-10q0 -17 -19 -17h-335v-256q0 -43 21 -59q16 -12 56 -12h258q19 0 19 -16v-8zM437 856q0 -16 -20 -16h-266
q-20 0 -20 16v11q0 15 20 15h266q20 0 20 -15v-11z" />
    <glyph glyph-name="Eng" unicode="&#x14a;" horiz-adv-x="651" 
d="M571 -61q0 -72 -31 -102q-33 -33 -113 -33h-14q-20 0 -20 14v10q0 15 20 15h14q62 0 81 18q19 19 19 78v55q-5 -1 -13 -1q-25 0 -40 31l-337 675q-3 7 -8 7t-5 -7v-680q0 -19 -17 -19h-10q-17 0 -17 19v680q0 49 49 49q33 0 48 -31l336 -674q4 -7 8 -7q5 0 5 9v679
q0 19 16 19h12q17 0 17 -19v-785z" />
    <glyph glyph-name="Eogonek" unicode="&#x118;" horiz-adv-x="533" 
d="M478 17q0 -17 -19 -17h-23l-55 -31q-49 -28 -62 -40q-16 -14 -16 -35q0 -52 87 -52q25 0 76 12q6 2 8 2q5 0 5 -7v-19q0 -8 -11 -11q-42 -14 -79 -14q-127 0 -127 88q0 34 22 56q13 13 62 41l17 10h-162q-121 0 -121 112v519q0 112 121 112h258q19 0 19 -17v-8
q0 -16 -19 -16h-258q-40 0 -56 -12q-21 -16 -21 -59v-220h335q19 0 19 -16v-10q0 -17 -19 -17h-335v-256q0 -43 21 -59q16 -12 56 -12h258q19 0 19 -16v-8z" />
    <glyph glyph-name="Gbreve" unicode="&#x11e;" horiz-adv-x="588" 
d="M508 712q0 -18 -21 -15q-101 10 -176 10q-207 0 -207 -274v-124q0 -273 207 -273q80 0 152 9v318q0 19 17 19h10q17 0 17 -19v-337q0 -17 -17 -19q-104 -13 -179 -13q-113 0 -179 75q-72 82 -72 240v124q0 171 82 251q64 64 169 64q94 0 180 -10q17 -2 17 -16v-10z
M216 833q-40 40 -40 111q0 10 10 10h22q8 0 8 -10q0 -111 102 -111t102 111q0 10 8 10h22q10 0 10 -10q0 -71 -39 -111q-39 -39 -103 -39t-102 39z" />
    <glyph glyph-name="Gcircumflex" unicode="&#x11c;" horiz-adv-x="588" 
d="M508 712q0 -18 -21 -15q-101 10 -176 10q-207 0 -207 -274v-124q0 -273 207 -273q80 0 152 9v318q0 19 17 19h10q17 0 17 -19v-337q0 -17 -17 -19q-104 -13 -179 -13q-113 0 -179 75q-72 82 -72 240v124q0 171 82 251q64 64 169 64q94 0 180 -10q17 -2 17 -16v-10z
M447 794h-22q-8 0 -22 17l-94 113l-94 -113q-14 -17 -22 -17h-22q-9 0 -9 7q0 6 4 10l100 128q12 15 23 15h40q11 0 23 -15l100 -128q4 -4 4 -10q0 -7 -9 -7z" />
    <glyph glyph-name="uni0122" unicode="&#x122;" horiz-adv-x="588" 
d="M508 712q0 -18 -21 -15q-101 10 -176 10q-207 0 -207 -274v-124q0 -273 207 -273q80 0 152 9v318q0 19 17 19h10q17 0 17 -19v-337q0 -17 -17 -19q-104 -13 -179 -13q-113 0 -179 75q-72 82 -72 240v124q0 171 82 251q64 64 169 64q94 0 180 -10q17 -2 17 -16v-10z
M332 -55q12 0 12 -10q0 -6 -2 -9l-56 -102q-9 -19 -24 -19h-9q-9 0 -9 9q0 5 1 7l43 105q7 19 20 19h24z" />
    <glyph glyph-name="Gdotaccent" unicode="&#x120;" horiz-adv-x="588" 
d="M508 712q0 -18 -21 -15q-101 10 -176 10q-207 0 -207 -274v-124q0 -273 207 -273q80 0 152 9v318q0 19 17 19h10q17 0 17 -19v-337q0 -17 -17 -19q-104 -13 -179 -13q-113 0 -179 75q-72 82 -72 240v124q0 171 82 251q64 64 169 64q94 0 180 -10q17 -2 17 -16v-10z
M337 833q0 -19 -19 -19h-6q-19 0 -19 19v74q0 19 19 19h6q19 0 19 -19v-74z" />
    <glyph glyph-name="Hbar" unicode="&#x126;" horiz-adv-x="647" 
d="M80 599v125q0 19 17 19h10q17 0 17 -19v-125h400v125q0 19 17 19h9q17 0 17 -19v-125h60q19 0 19 -16v-10q0 -17 -19 -17h-60v-537q0 -19 -17 -19h-9q-17 0 -17 19v358h-400v-358q0 -19 -17 -19h-10q-17 0 -17 19v537h-61q-19 0 -19 17v10q0 16 19 16h61zM524 418v138
h-400v-138h400z" />
    <glyph glyph-name="Hcircumflex" unicode="&#x124;" horiz-adv-x="647" 
d="M567 19q0 -19 -17 -19h-9q-17 0 -17 19v358h-400v-358q0 -19 -17 -19h-10q-17 0 -17 19v705q0 19 17 19h10q17 0 17 -19v-306h400v306q0 19 17 19h9q17 0 17 -19v-705zM458 794h-22q-8 0 -22 17l-94 113l-94 -113q-14 -17 -22 -17h-22q-9 0 -9 7q0 6 4 10l100 128
q12 15 23 15h40q11 0 23 -15l100 -128q4 -4 4 -10q0 -7 -9 -7z" />
    <glyph glyph-name="Ibreve" unicode="&#x12c;" horiz-adv-x="224" 
d="M134 19q0 -19 -17 -19h-10q-17 0 -17 19v705q0 19 17 19h10q17 0 17 -19v-705zM10 833q-40 40 -40 111q0 10 10 10h22q8 0 8 -10q0 -111 102 -111t102 111q0 10 8 10h22q10 0 10 -10q0 -71 -39 -111q-39 -39 -103 -39t-102 39z" />
    <glyph glyph-name="IJ" unicode="&#x132;" horiz-adv-x="448" 
d="M134 19q0 -19 -17 -19h-10q-17 0 -17 19v705q0 19 17 19h10q17 0 17 -19v-705zM358 -60q0 -72 -31 -102q-33 -33 -113 -33h-14q-20 0 -20 14v10q0 15 20 15h14q62 0 81 18q19 19 19 78v784q0 19 17 19h10q17 0 17 -19v-784z" />
    <glyph glyph-name="Imacron" unicode="&#x12a;" horiz-adv-x="224" 
d="M134 19q0 -19 -17 -19h-10q-17 0 -17 19v705q0 19 17 19h10q17 0 17 -19v-705zM265 856q0 -16 -20 -16h-266q-20 0 -20 16v11q0 15 20 15h266q20 0 20 -15v-11z" />
    <glyph glyph-name="Iogonek" unicode="&#x12e;" horiz-adv-x="224" 
d="M90 724q0 19 17 19h10q17 0 17 -19v-708q0 -11 -8 -16l-21 -12q-76 -43 -76 -86q0 -62 81 -62q40 0 84 13q6 2 8 2q5 0 5 -7v-18q0 -8 -11 -11q-42 -14 -86 -14q-120 0 -120 96q0 60 84 109l16 10v704z" />
    <glyph glyph-name="Itilde" unicode="&#x128;" horiz-adv-x="224" 
d="M134 19q0 -19 -17 -19h-10q-17 0 -17 19v705q0 19 17 19h10q17 0 17 -19v-705zM271 879q0 -91 -78 -91q-40 0 -67 26l-48 47q-28 28 -48 28q-41 0 -41 -53v-26q0 -16 -10 -16h-17q-11 0 -11 16v26q0 91 79 91q39 0 66 -26l48 -47q28 -28 49 -28q40 0 40 53v26q0 16 10 16
h17q11 0 11 -16v-26z" />
    <glyph glyph-name="Jcircumflex" unicode="&#x134;" horiz-adv-x="224" 
d="M134 -60q0 -72 -31 -102q-33 -33 -113 -33h-14q-20 0 -20 14v10q0 15 20 15h14q62 0 81 18q19 19 19 78v784q0 19 17 19h10q17 0 17 -19v-784zM250 794h-22q-8 0 -22 17l-94 113l-94 -113q-14 -17 -22 -17h-22q-9 0 -9 7q0 6 4 10l100 128q12 15 23 15h40q11 0 23 -15
l100 -128q4 -4 4 -10q0 -7 -9 -7z" />
    <glyph glyph-name="uni0136" unicode="&#x136;" horiz-adv-x="542" 
d="M498 712l-336 -326l343 -356q10 -11 6 -22q-4 -10 -18 -10q-15 0 -23 8l-346 360v-347q0 -19 -17 -19h-10q-17 0 -17 19v705q0 19 19 19h6q19 0 19 -19v-320l340 332q12 11 23 11q19 0 19 -17q0 -10 -8 -18zM309 -55q12 0 12 -10q0 -6 -2 -9l-56 -102q-9 -19 -24 -19h-9
q-9 0 -9 9q0 5 1 7l43 105q7 19 20 19h24z" />
    <glyph glyph-name="Lacute" unicode="&#x139;" horiz-adv-x="483" 
d="M448 17q0 -17 -19 -17h-228q-121 0 -121 112v612q0 19 17 19h10q17 0 17 -19v-612q0 -43 21 -59q16 -12 56 -12h228q19 0 19 -16v-8zM355 938l-107 -128q-14 -17 -22 -17h-22q-9 0 -9 7q0 6 4 10l100 128q12 15 23 15h26q11 0 11 -7q0 -4 -4 -8z" />
    <glyph glyph-name="Lcaron" unicode="&#x13d;" horiz-adv-x="483" 
d="M448 17q0 -17 -19 -17h-228q-121 0 -121 112v612q0 19 17 19h10q17 0 17 -19v-612q0 -43 21 -59q16 -12 56 -12h228q19 0 19 -16v-8zM232 533q-10 0 -10 10q0 3 2 9l61 172q7 19 20 19h19q18 0 10 -19l-68 -172q-7 -19 -19 -19h-15z" />
    <glyph glyph-name="uni013B" unicode="&#x13b;" horiz-adv-x="483" 
d="M448 17q0 -17 -19 -17h-228q-121 0 -121 112v612q0 19 17 19h10q17 0 17 -19v-612q0 -43 21 -59q16 -12 56 -12h228q19 0 19 -16v-8zM279 -55q12 0 12 -10q0 -6 -2 -9l-56 -102q-9 -19 -24 -19h-9q-9 0 -9 9q0 5 1 7l43 105q7 19 20 19h24z" />
    <glyph glyph-name="Ldot" unicode="&#x13f;" horiz-adv-x="483" 
d="M448 17q0 -17 -19 -17h-228q-121 0 -121 112v612q0 19 17 19h10q17 0 17 -19v-612q0 -43 21 -59q16 -12 56 -12h228q19 0 19 -16v-8zM316 371q0 -19 -19 -19h-6q-19 0 -19 19v74q0 19 19 19h6q19 0 19 -19v-74z" />
    <glyph glyph-name="Nacute" unicode="&#x143;" horiz-adv-x="651" 
d="M571 45q0 -51 -45 -51q-25 0 -34 7q-11 9 -18 23l-337 675q-3 7 -8 7t-5 -7v-680q0 -19 -17 -19h-10q-17 0 -17 19v680q0 49 49 49q33 0 48 -31l336 -674q4 -7 8 -7q5 0 5 9v679q0 19 16 19h12q17 0 17 -19v-679zM439 938l-107 -128q-14 -17 -22 -17h-22q-9 0 -9 7
q0 6 4 10l100 128q12 15 23 15h26q11 0 11 -7q0 -4 -4 -8z" />
    <glyph glyph-name="Ncaron" unicode="&#x147;" horiz-adv-x="651" 
d="M571 45q0 -51 -45 -51q-25 0 -34 7q-11 9 -18 23l-337 675q-3 7 -8 7t-5 -7v-680q0 -19 -17 -19h-10q-17 0 -17 19v680q0 49 49 49q33 0 48 -31l336 -674q4 -7 8 -7q5 0 5 9v679q0 19 16 19h12q17 0 17 -19v-679zM469 936l-100 -128q-12 -15 -23 -15h-40q-11 0 -23 15
l-100 128q-4 4 -4 10q0 7 9 7h22q8 0 22 -17l94 -113l94 113q14 17 22 17h22q9 0 9 -7q0 -6 -4 -10z" />
    <glyph glyph-name="uni0145" unicode="&#x145;" horiz-adv-x="651" 
d="M571 45q0 -51 -45 -51q-25 0 -34 7q-11 9 -18 23l-337 675q-3 7 -8 7t-5 -7v-680q0 -19 -17 -19h-10q-17 0 -17 19v680q0 49 49 49q33 0 48 -31l336 -674q4 -7 8 -7q5 0 5 9v679q0 19 16 19h12q17 0 17 -19v-679zM347 -55q12 0 12 -10q0 -6 -2 -9l-56 -102
q-9 -19 -24 -19h-9q-9 0 -9 9q0 5 1 7l43 105q7 19 20 19h24z" />
    <glyph glyph-name="Obreve" unicode="&#x14e;" horiz-adv-x="632" 
d="M572 309q0 -160 -72 -241q-66 -74 -184 -74t-184 74q-72 81 -72 241v124q0 160 72 241q66 74 184 74t184 -74q72 -81 72 -241v-124zM528 433q0 273 -212 273t-212 -273v-124q0 -273 212 -273t212 273v124zM215 833q-40 40 -40 111q0 10 10 10h22q8 0 8 -10
q0 -111 102 -111t102 111q0 10 8 10h22q10 0 10 -10q0 -71 -39 -111q-39 -39 -103 -39t-102 39z" />
    <glyph glyph-name="Ohungarumlaut" unicode="&#x150;" horiz-adv-x="632" 
d="M572 309q0 -160 -72 -241q-66 -74 -184 -74t-184 74q-72 81 -72 241v124q0 160 72 241q66 74 184 74t184 -74q72 -81 72 -241v-124zM528 433q0 273 -212 273t-212 -273v-124q0 -273 212 -273t212 273v124zM499 939l-107 -128q-14 -17 -22 -17h-22q-9 0 -9 7q0 6 4 10
l100 128q12 15 23 15h26q11 0 11 -7q0 -4 -4 -8zM359 939l-107 -128q-14 -17 -22 -17h-22q-9 0 -9 7q0 6 4 10l100 128q12 15 23 15h26q11 0 11 -7q0 -4 -4 -8z" />
    <glyph glyph-name="Omacron" unicode="&#x14c;" horiz-adv-x="632" 
d="M572 309q0 -160 -72 -241q-66 -74 -184 -74t-184 74q-72 81 -72 241v124q0 160 72 241q66 74 184 74t184 -74q72 -81 72 -241v-124zM528 433q0 273 -212 273t-212 -273v-124q0 -273 212 -273t212 273v124zM469 856q0 -16 -20 -16h-266q-20 0 -20 16v11q0 15 20 15h266
q20 0 20 -15v-11z" />
    <glyph glyph-name="Oslashacute" unicode="&#x1fe;" horiz-adv-x="632" 
d="M593 724l-65 -90q44 -77 44 -201v-124q0 -160 -72 -241q-66 -74 -184 -74q-122 0 -189 80l-44 -61q-14 -19 -26 -19h-10q-11 0 -11 11q0 4 3 8l66 92q-45 76 -45 204v124q0 160 72 241q66 74 184 74q125 0 191 -82l42 58q14 19 26 19h10q11 0 11 -11q0 -3 -3 -8zM481 629
q-53 77 -165 77q-212 0 -212 -273v-124q0 -101 29 -164zM528 433q0 99 -28 161l-347 -483q54 -75 163 -75q212 0 212 273v124zM445 939l-107 -128q-14 -17 -22 -17h-22q-9 0 -9 7q0 6 4 10l100 128q12 15 23 15h26q11 0 11 -7q0 -4 -4 -8z" />
    <glyph glyph-name="Racute" unicode="&#x154;" horiz-adv-x="598" 
d="M548 29q6 -10 4 -19q-3 -10 -15 -10h-13q-8 0 -15 9l-213 326l-172 1v-317q0 -19 -17 -19h-10q-17 0 -17 19v706q0 17 17 19q70 4 156 4q140 0 204 -45q68 -48 68 -159v-5q0 -169 -179 -199zM481 544q0 90 -58 128q-53 34 -170 34q-89 0 -129 -4v-324l129 -1
q121 0 172 33q56 36 56 129v5zM412 939l-107 -128q-14 -17 -22 -17h-22q-9 0 -9 7q0 6 4 10l100 128q12 15 23 15h26q11 0 11 -7q0 -4 -4 -8z" />
    <glyph glyph-name="Rcaron" unicode="&#x158;" horiz-adv-x="598" 
d="M548 29q6 -10 4 -19q-3 -10 -15 -10h-13q-8 0 -15 9l-213 326l-172 1v-317q0 -19 -17 -19h-10q-17 0 -17 19v706q0 17 17 19q70 4 156 4q140 0 204 -45q68 -48 68 -159v-5q0 -169 -179 -199zM481 544q0 90 -58 128q-53 34 -170 34q-89 0 -129 -4v-324l129 -1
q121 0 172 33q56 36 56 129v5zM429 937l-100 -128q-12 -15 -23 -15h-40q-11 0 -23 15l-100 128q-4 4 -4 10q0 7 9 7h22q8 0 22 -17l94 -113l94 113q14 17 22 17h22q9 0 9 -7q0 -6 -4 -10z" />
    <glyph glyph-name="uni0156" unicode="&#x156;" horiz-adv-x="598" 
d="M548 29q6 -10 4 -19q-3 -10 -15 -10h-13q-8 0 -15 9l-213 326l-172 1v-317q0 -19 -17 -19h-10q-17 0 -17 19v706q0 17 17 19q70 4 156 4q140 0 204 -45q68 -48 68 -159v-5q0 -169 -179 -199zM481 544q0 90 -58 128q-53 34 -170 34q-89 0 -129 -4v-324l129 -1
q121 0 172 33q56 36 56 129v5zM318 -55q12 0 12 -10q0 -6 -2 -9l-56 -102q-9 -19 -24 -19h-9q-9 0 -9 9q0 5 1 7l43 105q7 19 20 19h24z" />
    <glyph glyph-name="Sacute" unicode="&#x15a;" horiz-adv-x="530" 
d="M378 939l-107 -128q-14 -17 -22 -17h-22q-9 0 -9 7q0 6 4 10l100 128q12 15 23 15h26q11 0 11 -7q0 -4 -4 -8zM243 -6q-84 0 -146 10q-27 5 -27 21v4q0 19 23 17q80 -10 150 -10q186 0 186 149q0 51 -35 86q-25 24 -119 83l-63 39q-82 50 -113 85q-44 49 -44 115
q0 155 234 155q74 0 139 -9q27 -3 27 -20v-5q0 -19 -31 -16q-72 8 -136 8q-188 0 -188 -113q0 -50 34 -87q27 -29 101 -74l64 -39q98 -59 132 -96q44 -47 44 -112q0 -191 -232 -191z" />
    <glyph glyph-name="Scedilla" unicode="&#x15e;" horiz-adv-x="530" 
d="M280 -70l-91 -108q-14 -17 -22 -17h-22q-9 0 -9 7q0 6 4 10l84 108q12 15 23 15h26q11 0 11 -7q0 -4 -4 -8zM243 -6q-84 0 -146 10q-27 5 -27 21v4q0 19 23 17q80 -10 150 -10q186 0 186 149q0 51 -35 86q-25 24 -119 83l-63 39q-82 50 -113 85q-44 49 -44 115
q0 155 234 155q74 0 139 -9q27 -3 27 -20v-5q0 -19 -31 -16q-72 8 -136 8q-188 0 -188 -113q0 -50 34 -87q27 -29 101 -74l64 -39q98 -59 132 -96q44 -47 44 -112q0 -191 -232 -191z" />
    <glyph glyph-name="Scircumflex" unicode="&#x15c;" horiz-adv-x="530" 
d="M399 794h-22q-8 0 -22 17l-94 113l-94 -113q-14 -17 -22 -17h-22q-9 0 -9 7q0 6 4 10l100 128q12 15 23 15h40q11 0 23 -15l100 -128q4 -4 4 -10q0 -7 -9 -7zM243 -6q-84 0 -146 10q-27 5 -27 21v4q0 19 23 17q80 -10 150 -10q186 0 186 149q0 51 -35 86q-25 24 -119 83
l-63 39q-82 50 -113 85q-44 49 -44 115q0 155 234 155q74 0 139 -9q27 -3 27 -20v-5q0 -19 -31 -16q-72 8 -136 8q-188 0 -188 -113q0 -50 34 -87q27 -29 101 -74l64 -39q98 -59 132 -96q44 -47 44 -112q0 -191 -232 -191z" />
    <glyph glyph-name="uni0218" unicode="&#x218;" horiz-adv-x="530" 
d="M280 -55q12 0 12 -10q0 -6 -2 -9l-56 -102q-9 -19 -24 -19h-9q-9 0 -9 9q0 5 1 7l43 105q7 19 20 19h24zM243 -6q-84 0 -146 10q-27 5 -27 21v4q0 19 23 17q80 -10 150 -10q186 0 186 149q0 51 -35 86q-25 24 -119 83l-63 39q-82 50 -113 85q-44 49 -44 115
q0 155 234 155q74 0 139 -9q27 -3 27 -20v-5q0 -19 -31 -16q-72 8 -136 8q-188 0 -188 -113q0 -50 34 -87q27 -29 101 -74l64 -39q98 -59 132 -96q44 -47 44 -112q0 -191 -232 -191z" />
    <glyph glyph-name="Tbar" unicode="&#x166;" horiz-adv-x="571" 
d="M308 497v-478q0 -19 -17 -19h-10q-17 0 -17 19v478h-215q-19 0 -19 15v9q0 17 19 17h215v164h-215q-19 0 -19 15v9q0 17 19 17h473q19 0 19 -17v-9q0 -15 -19 -15h-214v-164h214q19 0 19 -17v-9q0 -15 -19 -15h-214z" />
    <glyph glyph-name="Tcaron" unicode="&#x164;" horiz-adv-x="571" 
d="M541 717q0 -15 -19 -15h-214v-683q0 -19 -17 -19h-10q-17 0 -17 19v683h-215q-19 0 -19 15v9q0 17 19 17h473q19 0 19 -17v-9zM429 937l-100 -128q-12 -15 -23 -15h-40q-11 0 -23 15l-100 128q-4 4 -4 10q0 7 9 7h22q8 0 22 -17l94 -113l94 113q14 17 22 17h22q9 0 9 -7
q0 -6 -4 -10z" />
    <glyph glyph-name="uni0162" unicode="&#x162;" horiz-adv-x="571" 
d="M541 717q0 -15 -19 -15h-214v-683q0 -19 -17 -19h-10q-17 0 -17 19v683h-215q-19 0 -19 15v9q0 17 19 17h473q19 0 19 -17v-9zM303 -55q12 0 12 -10q0 -6 -2 -9l-56 -102q-9 -19 -24 -19h-9q-9 0 -9 9q0 5 1 7l43 105q7 19 20 19h24z" />
    <glyph glyph-name="Ubreve" unicode="&#x16c;" horiz-adv-x="633" 
d="M553 264q0 -270 -236 -270q-237 0 -237 270v460q0 19 17 19h10q17 0 17 -19v-460q0 -229 193 -229q192 0 192 229v460q0 19 17 19h10q17 0 17 -19v-460zM215 832q-40 40 -40 111q0 10 10 10h22q8 0 8 -10q0 -111 102 -111t102 111q0 10 8 10h22q10 0 10 -10
q0 -71 -39 -111q-39 -39 -103 -39t-102 39z" />
    <glyph glyph-name="Uhungarumlaut" unicode="&#x170;" horiz-adv-x="633" 
d="M553 264q0 -270 -236 -270q-237 0 -237 270v460q0 19 17 19h10q17 0 17 -19v-460q0 -229 193 -229q192 0 192 229v460q0 19 17 19h10q17 0 17 -19v-460zM500 938l-107 -128q-14 -17 -22 -17h-22q-9 0 -9 7q0 6 4 10l100 128q12 15 23 15h26q11 0 11 -7q0 -4 -4 -8z
M360 938l-107 -128q-14 -17 -22 -17h-22q-9 0 -9 7q0 6 4 10l100 128q12 15 23 15h26q11 0 11 -7q0 -4 -4 -8z" />
    <glyph glyph-name="Umacron" unicode="&#x16a;" horiz-adv-x="633" 
d="M553 264q0 -270 -236 -270q-237 0 -237 270v460q0 19 17 19h10q17 0 17 -19v-460q0 -229 193 -229q192 0 192 229v460q0 19 17 19h10q17 0 17 -19v-460zM470 857q0 -16 -20 -16h-266q-20 0 -20 16v11q0 15 20 15h266q20 0 20 -15v-11z" />
    <glyph glyph-name="Uogonek" unicode="&#x172;" horiz-adv-x="633" 
d="M553 264q-2 -182 -114 -245l-89 -50q-79 -45 -79 -78q0 -53 84 -53q33 0 84 12q13 3 13 -7v-10q0 -10 -11 -14q-42 -14 -86 -14q-120 0 -120 85q0 51 84 100l7 4h-9q-237 0 -237 270v460q0 19 17 19h10q17 0 17 -19v-460q0 -229 193 -229q192 0 192 229v460q0 19 17 19
h10q17 0 17 -19v-460z" />
    <glyph glyph-name="Uring" unicode="&#x16e;" horiz-adv-x="633" 
d="M553 264q0 -270 -236 -270q-237 0 -237 270v460q0 19 17 19h10q17 0 17 -19v-460q0 -229 193 -229q192 0 192 229v460q0 19 17 19h10q17 0 17 -19v-460zM383 812q-28 -27 -66 -27t-66 27q-27 28 -27 66t27 66q28 27 66 27t66 -27q27 -28 27 -66t-27 -66zM358 919
q-17 17 -41 17t-40 -17q-17 -17 -17 -41t17 -41q16 -17 40 -17t41 17t17 41t-17 41z" />
    <glyph glyph-name="Utilde" unicode="&#x168;" horiz-adv-x="633" 
d="M553 264q0 -270 -236 -270q-237 0 -237 270v460q0 19 17 19h10q17 0 17 -19v-460q0 -229 193 -229q192 0 192 229v460q0 19 17 19h10q17 0 17 -19v-460zM477 879q0 -91 -78 -91q-40 0 -67 26l-48 47q-28 28 -48 28q-41 0 -41 -53v-26q0 -16 -10 -16h-17q-11 0 -11 16v26
q0 91 79 91q39 0 66 -26l48 -47q28 -28 49 -28q40 0 40 53v26q0 16 10 16h17q11 0 11 -16v-26z" />
    <glyph glyph-name="Wacute" unicode="&#x1e82;" horiz-adv-x="788" 
d="M620 41q-9 -47 -48 -47q-35 0 -48 45l-122 387q-4 12 -8 12t-8 -12l-122 -387q-13 -45 -48 -45q-39 0 -48 47l-123 679q-4 23 16 23h10q15 0 18 -16l121 -677q3 -15 6 -15q4 0 8 15l125 389q12 39 45 39t45 -39l125 -389q5 -15 8 -15t6 15l121 677q3 16 18 16h10
q20 0 16 -23zM499 939l-107 -128q-14 -17 -22 -17h-22q-9 0 -9 7q0 6 4 10l100 128q12 15 23 15h26q11 0 11 -7q0 -4 -4 -8z" />
    <glyph glyph-name="Wcircumflex" unicode="&#x174;" horiz-adv-x="788" 
d="M620 41q-9 -47 -48 -47q-35 0 -48 45l-122 387q-4 12 -8 12t-8 -12l-122 -387q-13 -45 -48 -45q-39 0 -48 47l-123 679q-4 23 16 23h10q15 0 18 -16l121 -677q3 -15 6 -15q4 0 8 15l125 389q12 39 45 39t45 -39l125 -389q5 -15 8 -15t6 15l121 677q3 16 18 16h10
q20 0 16 -23zM532 794h-22q-8 0 -22 17l-94 113l-94 -113q-14 -17 -22 -17h-22q-9 0 -9 7q0 6 4 10l100 128q12 15 23 15h40q11 0 23 -15l100 -128q4 -4 4 -10q0 -7 -9 -7z" />
    <glyph glyph-name="Wdieresis" unicode="&#x1e84;" horiz-adv-x="788" 
d="M620 41q-9 -47 -48 -47q-35 0 -48 45l-122 387q-4 12 -8 12t-8 -12l-122 -387q-13 -45 -48 -45q-39 0 -48 47l-123 679q-4 23 16 23h10q15 0 18 -16l121 -677q3 -15 6 -15q4 0 8 15l125 389q12 39 45 39t45 -39l125 -389q5 -15 8 -15t6 15l121 677q3 16 18 16h10
q20 0 16 -23zM491 833q0 -19 -19 -19h-6q-19 0 -19 19v74q0 19 19 19h6q19 0 19 -19v-74zM341 833q0 -19 -19 -19h-6q-19 0 -19 19v74q0 19 19 19h6q19 0 19 -19v-74z" />
    <glyph glyph-name="Wgrave" unicode="&#x1e80;" horiz-adv-x="788" 
d="M620 41q-9 -47 -48 -47q-35 0 -48 45l-122 387q-4 12 -8 12t-8 -12l-122 -387q-13 -45 -48 -45q-39 0 -48 47l-123 679q-4 23 16 23h10q15 0 18 -16l121 -677q3 -15 6 -15q4 0 8 15l125 389q12 39 45 39t45 -39l125 -389q5 -15 8 -15t6 15l121 677q3 16 18 16h10
q20 0 16 -23zM440 794h-22q-8 0 -22 17l-107 128q-4 4 -4 8q0 7 11 7h26q11 0 23 -15l100 -128q4 -4 4 -10q0 -7 -9 -7z" />
    <glyph glyph-name="Ycircumflex" unicode="&#x176;" horiz-adv-x="551" 
d="M344 367q-22 -48 -47 -58v-290q0 -19 -17 -19h-10q-17 0 -17 19v290q-25 10 -47 58l-158 349q-12 27 14 27h10q10 0 16 -12l157 -350q16 -35 30 -35t30 35l157 350q6 12 16 12h10q26 0 14 -27zM413 794h-22q-8 0 -22 17l-94 113l-94 -113q-14 -17 -22 -17h-22q-9 0 -9 7
q0 6 4 10l100 128q12 15 23 15h40q11 0 23 -15l100 -128q4 -4 4 -10q0 -7 -9 -7z" />
    <glyph glyph-name="Ygrave" unicode="&#x1ef2;" horiz-adv-x="551" 
d="M344 367q-22 -48 -47 -58v-290q0 -19 -17 -19h-10q-17 0 -17 19v290q-25 10 -47 58l-158 349q-12 27 14 27h10q10 0 16 -12l157 -350q16 -35 30 -35t30 35l157 350q6 12 16 12h10q26 0 14 -27zM312 794h-22q-8 0 -22 17l-107 128q-4 4 -4 8q0 7 11 7h26q11 0 23 -15
l100 -128q4 -4 4 -10q0 -7 -9 -7z" />
    <glyph glyph-name="Zacute" unicode="&#x179;" horiz-adv-x="595" 
d="M535 16q0 -16 -21 -16h-392q-54 0 -54 43q0 20 11 36l379 610q2 3 2 7q0 6 -8 6h-362q-21 0 -21 15v10q0 16 21 16h362q29 0 41 -8q17 -10 17 -32q0 -15 -11 -34l-382 -617q-2 -4 -2 -7q0 -4 7 -4h392q21 0 21 -15v-10zM411 939l-107 -128q-14 -17 -22 -17h-22q-9 0 -9 7
q0 6 4 10l100 128q12 15 23 15h26q11 0 11 -7q0 -4 -4 -8z" />
    <glyph glyph-name="Zdotaccent" unicode="&#x17b;" horiz-adv-x="595" 
d="M535 16q0 -16 -21 -16h-392q-54 0 -54 43q0 20 11 36l379 610q2 3 2 7q0 6 -8 6h-362q-21 0 -21 15v10q0 16 21 16h362q29 0 41 -8q17 -10 17 -32q0 -15 -11 -34l-382 -617q-2 -4 -2 -7q0 -4 7 -4h392q21 0 21 -15v-10zM320 833q0 -19 -19 -19h-6q-19 0 -19 19v74
q0 19 19 19h6q19 0 19 -19v-74z" />
    <glyph glyph-name="Idotaccent" unicode="&#x130;" horiz-adv-x="224" 
d="M134 19q0 -19 -17 -19h-10q-17 0 -17 19v705q0 19 17 19h10q17 0 17 -19v-705zM134 813q0 -19 -19 -19h-6q-19 0 -19 19v74q0 19 19 19h6q19 0 19 -19v-74z" />
    <glyph glyph-name="abreve" unicode="&#x103;" horiz-adv-x="488" 
d="M418 20q0 -20 -20 -20h-5q-20 0 -20 20v25q-93 -51 -170 -51q-153 0 -153 161v13q0 79 55 116q59 38 192 38h77v36q0 80 -27 112q-28 33 -99 33q-57 0 -142 -9q-23 -2 -23 15v6q0 15 23 18q76 9 142 9q95 0 136 -51q34 -44 34 -133v-338zM374 283h-77q-113 0 -158 -26
q-45 -25 -45 -89v-13q0 -122 109 -122q76 0 171 51v199zM142 657q-40 40 -40 111q0 10 10 10h22q8 0 8 -10q0 -111 102 -111t102 111q0 10 8 10h22q10 0 10 -10q0 -71 -39 -111q-39 -39 -103 -39t-102 39z" />
    <glyph glyph-name="amacron" unicode="&#x101;" horiz-adv-x="488" 
d="M418 20q0 -20 -20 -20h-5q-20 0 -20 20v25q-93 -51 -170 -51q-153 0 -153 161v13q0 79 55 116q59 38 192 38h77v36q0 80 -27 112q-28 33 -99 33q-57 0 -142 -9q-23 -2 -23 15v6q0 15 23 18q76 9 142 9q95 0 136 -51q34 -44 34 -133v-338zM374 283h-77q-113 0 -158 -26
q-45 -25 -45 -89v-13q0 -122 109 -122q76 0 171 51v199zM397 702q0 -16 -20 -16h-266q-20 0 -20 16v11q0 15 20 15h266q20 0 20 -15v-11z" />
    <glyph glyph-name="aogonek" unicode="&#x105;" horiz-adv-x="488" 
d="M373 45q-93 -51 -170 -51q-153 0 -153 161v13q0 79 55 116q59 38 192 38h77v36q0 80 -27 112q-28 33 -99 33q-57 0 -142 -9h-4q-19 0 -19 15v6q0 15 23 18q76 9 142 9q95 0 136 -51q34 -44 34 -133v-332q0 -16 -17 -26l-54 -31q-49 -28 -62 -40q-16 -16 -16 -41
q0 -46 57 -46q25 0 76 12q6 2 9 2q4 0 4 -7v-19q0 -8 -11 -11q-42 -14 -79 -14q-97 0 -97 83q0 37 22 60q13 14 62 42l61 35v20zM374 283h-77q-113 0 -158 -26q-45 -25 -45 -89v-13q0 -122 109 -122q76 0 171 51v199z" />
    <glyph glyph-name="aeacute" unicode="&#x1fd;" horiz-adv-x="830" 
d="M775 277q0 -19 -19 -19h-338v-54q0 -103 43 -136q46 -35 138 -35q65 0 148 17l6 1q15 0 15 -14v-7q0 -15 -19 -19q-82 -17 -150 -17q-158 0 -205 90q-65 -90 -191 -90q-153 0 -153 161v13q0 79 55 116q59 38 192 38h77v36q0 80 -27 112q-28 33 -99 33q-57 0 -142 -9h-4
q-19 0 -19 15v6q0 15 23 18q76 9 142 9q129 0 158 -97q53 97 170 97q100 0 151 -66q48 -61 48 -172v-27zM731 304q0 199 -155 199q-158 0 -158 -199v-6h313v6zM374 282h-77q-113 0 -158 -25t-45 -89v-13q0 -122 109 -122q89 0 129 39q42 40 42 132v78zM542 763l-107 -128
q-14 -17 -22 -17h-22q-9 0 -9 7q0 6 4 10l100 128q12 15 23 15h26q11 0 11 -7q0 -4 -4 -8z" />
    <glyph glyph-name="cacute" unicode="&#x107;" horiz-adv-x="437" 
d="M393 21q0 -15 -19 -18q-76 -9 -121 -9q-101 0 -153 72q-45 63 -45 170v67q0 108 45 169q51 70 153 70q45 0 121 -9q19 -3 19 -18v-7q0 -17 -21 -14q-70 9 -119 9q-154 0 -154 -200v-67q0 -203 154 -203q49 0 119 9q21 4 21 -14v-7zM354 763l-107 -128q-14 -17 -22 -17
h-22q-9 0 -9 7q0 6 4 10l100 128q12 15 23 15h26q11 0 11 -7q0 -4 -4 -8z" />
    <glyph glyph-name="ccaron" unicode="&#x10d;" horiz-adv-x="437" 
d="M393 21q0 -15 -19 -18q-76 -9 -121 -9q-101 0 -153 72q-45 63 -45 170v67q0 108 45 169q51 70 153 70q45 0 121 -9q19 -3 19 -18v-7q0 -17 -21 -14q-70 9 -119 9q-154 0 -154 -200v-67q0 -203 154 -203q49 0 119 9q21 4 21 -14v-7zM384 761l-100 -128q-12 -15 -23 -15
h-40q-11 0 -23 15l-100 128q-4 4 -4 10q0 7 9 7h22q8 0 22 -17l94 -113l94 113q14 17 22 17h22q9 0 9 -7q0 -6 -4 -10z" />
    <glyph glyph-name="ccircumflex" unicode="&#x109;" horiz-adv-x="437" 
d="M393 21q0 -15 -19 -18q-76 -9 -121 -9q-101 0 -153 72q-45 63 -45 170v67q0 108 45 169q51 70 153 70q45 0 121 -9q19 -3 19 -18v-7q0 -17 -21 -14q-70 9 -119 9q-154 0 -154 -200v-67q0 -203 154 -203q49 0 119 9q21 4 21 -14v-7zM375 618h-22q-8 0 -22 17l-94 113
l-94 -113q-14 -17 -22 -17h-22q-9 0 -9 7q0 6 4 10l100 128q12 15 23 15h40q11 0 23 -15l100 -128q4 -4 4 -10q0 -7 -9 -7z" />
    <glyph glyph-name="cdotaccent" unicode="&#x10b;" horiz-adv-x="437" 
d="M393 21q0 -15 -19 -18q-76 -9 -121 -9q-101 0 -153 72q-45 63 -45 170v67q0 108 45 169q51 70 153 70q45 0 121 -9q19 -3 19 -18v-7q0 -17 -21 -14q-70 9 -119 9q-154 0 -154 -200v-67q0 -203 154 -203q49 0 119 9q21 4 21 -14v-7zM274 660q0 -19 -19 -19h-6
q-19 0 -19 19v74q0 19 19 19h6q19 0 19 -19v-74z" />
    <glyph glyph-name="dcaron" unicode="&#x10f;" horiz-adv-x="616" 
d="M434 32q0 -15 -15 -19q-93 -19 -168 -19q-196 0 -196 243v66q0 239 196 239q72 0 139 -15v197q0 19 17 19h10q17 0 17 -19v-692zM390 490q-62 13 -139 13q-81 0 -117 -50q-35 -49 -35 -150v-66q0 -204 152 -204q61 0 139 13v444zM523 533q-10 0 -10 10q0 3 2 9l61 172
q7 19 20 19h19q18 0 10 -19l-68 -172q-7 -19 -19 -19h-15z" />
    <glyph glyph-name="dcroat" unicode="&#x111;" horiz-adv-x="504" 
d="M434 32q0 -15 -15 -19q-93 -19 -168 -19q-196 0 -196 243v66q0 239 196 239q72 0 139 -15v91h-159q-19 0 -19 15v10q0 15 19 15h159v66q0 19 17 19h10q17 0 17 -19v-66h57q19 0 19 -15v-10q0 -15 -19 -15h-57v-586zM390 490q-62 13 -139 13q-81 0 -117 -50
q-35 -49 -35 -150v-66q0 -204 152 -204q61 0 139 13v444z" />
    <glyph glyph-name="ebreve" unicode="&#x115;" horiz-adv-x="511" 
d="M456 277q0 -19 -19 -19h-338v-21q0 -116 53 -165q43 -39 128 -39q65 0 148 17q21 4 21 -13v-7q0 -15 -19 -19q-82 -17 -150 -17q-225 0 -225 243v66q0 107 52 171q54 68 150 68q100 0 151 -66q48 -61 48 -172v-27zM412 304q0 199 -155 199q-158 0 -158 -200v-5h313v6z
M157 657q-40 40 -40 111q0 10 10 10h22q8 0 8 -10q0 -111 102 -111t102 111q0 10 8 10h22q10 0 10 -10q0 -71 -39 -111q-39 -39 -103 -39t-102 39z" />
    <glyph glyph-name="ecaron" unicode="&#x11b;" horiz-adv-x="511" 
d="M456 277q0 -19 -19 -19h-338v-21q0 -116 53 -165q43 -39 128 -39q65 0 148 17q21 4 21 -13v-7q0 -15 -19 -19q-82 -17 -150 -17q-225 0 -225 243v66q0 107 52 171q54 68 150 68q100 0 151 -66q48 -61 48 -172v-27zM412 304q0 199 -155 199q-158 0 -158 -200v-5h313v6z
M399 761l-100 -128q-12 -15 -23 -15h-40q-11 0 -23 15l-100 128q-4 4 -4 10q0 7 9 7h22q8 0 22 -17l94 -113l94 113q14 17 22 17h22q9 0 9 -7q0 -6 -4 -10z" />
    <glyph glyph-name="edotaccent" unicode="&#x117;" horiz-adv-x="511" 
d="M456 277q0 -19 -19 -19h-338v-21q0 -116 53 -165q43 -39 128 -39q65 0 148 17q21 4 21 -13v-7q0 -15 -19 -19q-82 -17 -150 -17q-225 0 -225 243v66q0 107 52 171q54 68 150 68q100 0 151 -66q48 -61 48 -172v-27zM412 304q0 199 -155 199q-158 0 -158 -200v-5h313v6z
M278 660q0 -19 -19 -19h-6q-19 0 -19 19v74q0 19 19 19h6q19 0 19 -19v-74z" />
    <glyph glyph-name="emacron" unicode="&#x113;" horiz-adv-x="511" 
d="M456 277q0 -19 -19 -19h-338v-21q0 -116 53 -165q43 -39 128 -39q65 0 148 17q21 4 21 -13v-7q0 -15 -19 -19q-82 -17 -150 -17q-225 0 -225 243v66q0 107 52 171q54 68 150 68q100 0 151 -66q48 -61 48 -172v-27zM412 304q0 199 -155 199q-158 0 -158 -200v-5h313v6z
M413 701q0 -16 -20 -16h-266q-20 0 -20 16v11q0 15 20 15h266q20 0 20 -15v-11z" />
    <glyph glyph-name="eng" unicode="&#x14b;" horiz-adv-x="521" 
d="M451 -86q0 -62 -26 -87q-24 -22 -77 -22q-19 0 -42 3q-17 2 -17 14v9q0 12 21 12h38q34 0 46 13q13 14 13 58v437q0 152 -135 152q-73 0 -158 -41v-443q0 -19 -19 -19h-6q-19 0 -19 19v498q0 20 18 20h8q18 0 18 -20v-16q85 41 161 41q78 0 124 -43q52 -50 52 -148v-437z
" />
    <glyph glyph-name="eogonek" unicode="&#x119;" horiz-adv-x="511" 
d="M360 -30q-79 -45 -79 -77q0 -52 79 -52q28 0 76 12q13 3 13 -7v-14q0 -9 -11 -13q-45 -14 -79 -14q-117 0 -117 88q0 32 23 55q15 14 63 42l13 7q-31 -3 -61 -3q-225 0 -225 243v66q0 107 52 171q54 68 150 68q100 0 151 -66q48 -61 48 -172v-27q0 -19 -19 -19h-338v-21
q0 -117 52 -165q42 -39 129 -39q65 0 148 17q21 4 21 -15v-3q0 -12 -7 -16zM412 304q0 199 -155 199q-158 0 -158 -200v-5h313v6z" />
    <glyph glyph-name="gbreve" unicode="&#x11f;" horiz-adv-x="534" 
d="M489 510q0 -16 -19 -16h-52q55 -44 55 -124v-8q0 -163 -207 -163q-65 0 -122 23q-34 -15 -34 -43q0 -23 29 -31l180 -47q87 -23 120 -48q40 -30 40 -87v-9q0 -155 -212 -155t-212 155v9q0 99 75 144l-7 2q-53 16 -53 67q0 45 42 64q-52 43 -52 119v8q0 167 206 167h204
q19 0 19 -16v-11zM430 370q0 129 -164 129q-162 0 -162 -129v-8q0 -125 162 -125q164 0 164 125v8zM435 -34q0 42 -24 59q-22 18 -102 38l-138 36q-73 -48 -73 -133v-9q0 -118 169 -118q95 0 134 31q34 27 34 87v9zM165 657q-40 40 -40 111q0 10 10 10h22q8 0 8 -10
q0 -111 102 -111t102 111q0 10 8 10h22q10 0 10 -10q0 -71 -39 -111q-39 -39 -103 -39t-102 39z" />
    <glyph glyph-name="gcircumflex" unicode="&#x11d;" horiz-adv-x="534" 
d="M489 510q0 -16 -19 -16h-52q55 -44 55 -124v-8q0 -163 -207 -163q-65 0 -122 23q-34 -15 -34 -43q0 -23 29 -31l180 -47q87 -23 120 -48q40 -30 40 -87v-9q0 -155 -212 -155t-212 155v9q0 99 75 144l-7 2q-53 16 -53 67q0 45 42 64q-52 43 -52 119v8q0 167 206 167h204
q19 0 19 -16v-11zM430 370q0 129 -164 129q-162 0 -162 -129v-8q0 -125 162 -125q164 0 164 125v8zM435 -34q0 42 -24 59q-22 18 -102 38l-138 36q-73 -48 -73 -133v-9q0 -118 169 -118q95 0 134 31q34 27 34 87v9zM407 618h-22q-8 0 -22 17l-94 113l-94 -113
q-14 -17 -22 -17h-22q-9 0 -9 7q0 6 4 10l100 128q12 15 23 15h40q11 0 23 -15l100 -128q4 -4 4 -10q0 -7 -9 -7z" />
    <glyph glyph-name="uni0123" unicode="&#x123;" horiz-adv-x="534" 
d="M489 510q0 -16 -19 -16h-52q55 -44 55 -124v-8q0 -163 -207 -163q-65 0 -122 23q-34 -15 -34 -43q0 -23 29 -31l180 -47q87 -23 120 -48q40 -30 40 -87v-9q0 -155 -212 -155t-212 155v9q0 99 75 144l-7 2q-53 16 -53 67q0 45 42 64q-52 43 -52 119v8q0 167 206 167h204
q19 0 19 -16v-11zM430 370q0 129 -164 129q-162 0 -162 -129v-8q0 -125 162 -125q164 0 164 125v8zM435 -34q0 42 -24 59q-22 18 -102 38l-138 36q-73 -48 -73 -133v-9q0 -118 169 -118q95 0 134 31q34 27 34 87v9zM239 618q-12 0 -12 10q0 6 2 9l57 109q10 19 24 19h9
q9 0 9 -9q0 -5 -1 -7l-44 -112q-7 -19 -20 -19h-24z" />
    <glyph glyph-name="gdotaccent" unicode="&#x121;" horiz-adv-x="534" 
d="M489 510q0 -16 -19 -16h-52q55 -44 55 -124v-8q0 -163 -207 -163q-65 0 -122 23q-34 -15 -34 -43q0 -23 29 -31l180 -47q87 -23 120 -48q40 -30 40 -87v-9q0 -155 -212 -155t-212 155v9q0 99 75 144l-7 2q-53 16 -53 67q0 45 42 64q-52 43 -52 119v8q0 167 206 167h204
q19 0 19 -16v-11zM430 370q0 129 -164 129q-162 0 -162 -129v-8q0 -125 162 -125q164 0 164 125v8zM435 -34q0 42 -24 59q-22 18 -102 38l-138 36q-73 -48 -73 -133v-9q0 -118 169 -118q95 0 134 31q34 27 34 87v9zM292 660q0 -19 -19 -19h-6q-19 0 -19 19v74q0 19 19 19h6
q19 0 19 -19v-74z" />
    <glyph glyph-name="hbar" unicode="&#x127;" horiz-adv-x="505" 
d="M114 618v-94q70 18 135 18q191 0 191 -192v-331q0 -19 -17 -19h-10q-16 0 -16 19v331q0 153 -148 153q-73 0 -135 -18v-466q0 -19 -17 -19h-10q-17 0 -17 19v599h-57q-19 0 -19 15v10q0 15 19 15h57v66q0 19 17 19h10q17 0 17 -19v-66h159q19 0 19 -15v-10q0 -15 -19 -15
h-159z" />
    <glyph glyph-name="hcircumflex" unicode="&#x125;" horiz-adv-x="505" 
d="M440 13q0 -19 -17 -19h-10q-16 0 -16 19v337q0 153 -148 153q-73 0 -135 -18v-472q0 -19 -17 -19h-10q-17 0 -17 19v711q0 19 17 19h10q17 0 17 -19v-200q70 18 135 18q191 0 191 -192v-337zM405 794h-22q-8 0 -22 17l-94 113l-94 -113q-14 -17 -22 -17h-22q-9 0 -9 7
q0 6 4 10l100 128q12 15 23 15h40q11 0 23 -15l100 -128q4 -4 4 -10q0 -7 -9 -7z" />
    <glyph glyph-name="ibreve" unicode="&#x12d;" horiz-adv-x="204" 
d="M124 19q0 -19 -19 -19h-6q-19 0 -19 19v499q0 19 19 19h6q19 0 19 -19v-499zM0 657q-40 40 -40 111q0 10 10 10h22q8 0 8 -10q0 -111 102 -111t102 111q0 10 8 10h22q10 0 10 -10q0 -71 -39 -111q-39 -39 -103 -39t-102 39z" />
    <glyph glyph-name="ij" unicode="&#x133;" horiz-adv-x="408" 
d="M124 655q0 -19 -19 -19h-6q-19 0 -19 19v74q0 19 19 19h6q19 0 19 -19v-74zM124 19q0 -19 -19 -19h-6q-19 0 -19 19v499q0 19 19 19h6q19 0 19 -19v-499zM328 655q0 -19 -19 -19h-6q-19 0 -19 19v74q0 19 19 19h6q19 0 19 -19v-74zM328 -86q0 -62 -26 -87
q-24 -22 -77 -22q-19 0 -42 3q-17 2 -17 14v9q0 12 21 12h38q34 0 46 13q13 14 13 58v604q0 19 16 19h11q17 0 17 -19v-604z" />
    <glyph glyph-name="imacron" unicode="&#x12b;" horiz-adv-x="204" 
d="M124 19q0 -19 -19 -19h-6q-19 0 -19 19v499q0 19 19 19h6q19 0 19 -19v-499zM255 702q0 -16 -20 -16h-266q-20 0 -20 16v11q0 15 20 15h266q20 0 20 -15v-11z" />
    <glyph glyph-name="iogonek" unicode="&#x12f;" horiz-adv-x="204" 
d="M80 518q0 19 17 19h10q17 0 17 -19v-502q0 -11 -8 -16l-21 -12q-76 -43 -76 -86q0 -62 81 -62q40 0 84 13q6 2 8 2q5 0 5 -7v-18q0 -8 -11 -11q-42 -14 -86 -14q-120 0 -120 96q0 57 84 109l16 10v498zM124 655q0 -19 -19 -19h-6q-19 0 -19 19v74q0 19 19 19h6
q19 0 19 -19v-74z" />
    <glyph glyph-name="itilde" unicode="&#x129;" horiz-adv-x="204" 
d="M124 19q0 -19 -19 -19h-6q-19 0 -19 19v499q0 19 19 19h6q19 0 19 -19v-499zM263 704q0 -91 -78 -91q-40 0 -67 26l-48 47q-28 28 -48 28q-41 0 -41 -53v-26q0 -16 -10 -16h-17q-11 0 -11 16v26q0 91 79 91q39 0 66 -26l48 -47q28 -28 49 -28q40 0 40 53v26q0 16 10 16
h17q11 0 11 -16v-26z" />
    <glyph glyph-name="jcircumflex" unicode="&#x135;" horiz-adv-x="204" 
d="M124 -86q0 -62 -26 -87q-24 -22 -77 -22q-19 0 -42 3q-17 2 -17 14v9q0 12 21 12h38q34 0 46 13q13 14 13 58v604q0 19 16 19h11q17 0 17 -19v-604zM239 618h-22q-8 0 -22 17l-94 113l-94 -113q-14 -17 -22 -17h-22q-9 0 -9 7q0 6 4 10l100 128q12 15 23 15h40
q11 0 23 -15l100 -128q4 -4 4 -10q0 -7 -9 -7z" />
    <glyph glyph-name="uni0137" unicode="&#x137;" horiz-adv-x="444" 
d="M398 25q9 -10 6 -20q-4 -11 -18 -11q-18 0 -30 12l-242 259v-252q0 -19 -19 -19h-6q-19 0 -19 19v711q0 19 19 19h6q19 0 19 -19v-421l246 230q11 9 24 9q14 0 19 -12t-6 -21l-245 -224zM248 -55q12 0 12 -10q0 -6 -2 -9l-56 -102q-9 -19 -24 -19h-9q-9 0 -9 9q0 5 1 7
l43 105q7 19 20 19h24z" />
    <glyph glyph-name="lacute" unicode="&#x13a;" horiz-adv-x="204" 
d="M124 13q0 -19 -17 -19h-10q-17 0 -17 19v711q0 19 17 19h10q17 0 17 -19v-711zM215 938l-107 -128q-14 -17 -22 -17h-22q-9 0 -9 7q0 6 4 10l100 128q12 15 23 15h26q11 0 11 -7q0 -4 -4 -8z" />
    <glyph glyph-name="lcaron" unicode="&#x13e;" horiz-adv-x="307" 
d="M124 19q0 -19 -17 -19h-10q-17 0 -17 19v705q0 19 17 19h10q17 0 17 -19v-705zM214 533q-10 0 -10 10q0 3 2 9l61 172q7 19 20 19h19q18 0 10 -19l-68 -172q-7 -19 -19 -19h-15z" />
    <glyph glyph-name="uni013C" unicode="&#x13c;" horiz-adv-x="204" 
d="M124 13q0 -19 -17 -19h-10q-17 0 -17 19v711q0 19 17 19h10q17 0 17 -19v-711zM119 -55q12 0 12 -10q0 -6 -2 -9l-56 -102q-9 -19 -24 -19h-9q-9 0 -9 9q0 5 1 7l43 105q7 19 20 19h24z" />
    <glyph glyph-name="ldot" unicode="&#x140;" horiz-adv-x="298" 
d="M124 19q0 -19 -17 -19h-10q-17 0 -17 19v705q0 19 17 19h10q17 0 17 -19v-705zM266 346q0 -19 -19 -19h-6q-19 0 -19 19v74q0 19 19 19h6q19 0 19 -19v-74z" />
    <glyph glyph-name="nacute" unicode="&#x144;" horiz-adv-x="521" 
d="M451 19q0 -19 -19 -19h-7q-18 0 -18 19v332q0 152 -135 152q-73 0 -158 -41v-443q0 -19 -19 -19h-6q-19 0 -19 19v498q0 20 18 20h8q18 0 18 -20v-16q85 41 161 41q78 0 124 -43q52 -50 52 -148v-332zM374 763l-107 -128q-14 -17 -22 -17h-22q-9 0 -9 7q0 6 4 10l100 128
q12 15 23 15h26q11 0 11 -7q0 -4 -4 -8z" />
    <glyph glyph-name="ncaron" unicode="&#x148;" horiz-adv-x="521" 
d="M451 19q0 -19 -19 -19h-7q-18 0 -18 19v332q0 152 -135 152q-73 0 -158 -41v-443q0 -19 -19 -19h-6q-19 0 -19 19v498q0 20 18 20h8q18 0 18 -20v-16q85 41 161 41q78 0 124 -43q52 -50 52 -148v-332zM404 761l-100 -128q-12 -15 -23 -15h-40q-11 0 -23 15l-100 128
q-4 4 -4 10q0 7 9 7h22q8 0 22 -17l94 -113l94 113q14 17 22 17h22q9 0 9 -7q0 -6 -4 -10z" />
    <glyph glyph-name="uni0146" unicode="&#x146;" horiz-adv-x="521" 
d="M451 19q0 -19 -19 -19h-7q-18 0 -18 19v332q0 152 -135 152q-73 0 -158 -41v-443q0 -19 -19 -19h-6q-19 0 -19 19v498q0 20 18 20h8q18 0 18 -20v-16q85 41 161 41q78 0 124 -43q52 -50 52 -148v-332zM273 -55q12 0 12 -10q0 -6 -2 -9l-56 -102q-9 -19 -24 -19h-9
q-9 0 -9 9q0 5 1 7l43 105q7 19 20 19h24z" />
    <glyph glyph-name="obreve" unicode="&#x14f;" horiz-adv-x="522" 
d="M467 233q0 -239 -206 -239t-206 239v70q0 239 206 239t206 -239v-70zM423 303q0 200 -162 200t-162 -200v-70q0 -200 162 -200t162 200v70zM161 657q-40 40 -40 111q0 10 10 10h22q8 0 8 -10q0 -111 102 -111t102 111q0 10 8 10h22q10 0 10 -10q0 -71 -39 -111
q-39 -39 -103 -39t-102 39z" />
    <glyph glyph-name="ohungarumlaut" unicode="&#x151;" horiz-adv-x="522" 
d="M467 233q0 -239 -206 -239t-206 239v70q0 239 206 239t206 -239v-70zM423 303q0 200 -162 200t-162 -200v-70q0 -200 162 -200t162 200v70zM444 763l-107 -128q-14 -17 -22 -17h-22q-9 0 -9 7q0 6 4 10l100 128q12 15 23 15h26q11 0 11 -7q0 -4 -4 -8zM304 763l-107 -128
q-14 -17 -22 -17h-22q-9 0 -9 7q0 6 4 10l100 128q12 15 23 15h26q11 0 11 -7q0 -4 -4 -8z" />
    <glyph glyph-name="omacron" unicode="&#x14d;" horiz-adv-x="522" 
d="M467 233q0 -239 -206 -239t-206 239v70q0 239 206 239t206 -239v-70zM423 303q0 200 -162 200t-162 -200v-70q0 -200 162 -200t162 200v70zM414 701q0 -16 -20 -16h-266q-20 0 -20 16v11q0 15 20 15h266q20 0 20 -15v-11z" />
    <glyph glyph-name="oslashacute" unicode="&#x1ff;" horiz-adv-x="522" 
d="M493 549l-65 -87q39 -60 39 -159v-70q0 -239 -206 -239q-90 0 -142 49l-50 -68q-8 -10 -16 -10h-20q-8 0 -8 8q0 6 4 11l66 89q-40 62 -40 160v70q0 239 206 239q90 0 143 -51l49 67q8 10 16 10h20q8 0 8 -8q0 -7 -4 -11zM379 458q-40 45 -118 45q-162 0 -162 -200v-70
q0 -77 23 -123zM423 303q0 74 -22 121l-257 -347q41 -44 117 -44q162 0 162 200v70zM391 763l-107 -128q-14 -17 -22 -17h-22q-9 0 -9 7q0 6 4 10l100 128q12 15 23 15h26q11 0 11 -7q0 -4 -4 -8z" />
    <glyph glyph-name="racute" unicode="&#x155;" horiz-adv-x="309" 
d="M280 519q0 -16 -27 -16q-66 0 -139 -46v-438q0 -19 -19 -19h-6q-19 0 -19 19v498q0 20 18 20h8q18 0 18 -20v-21q71 46 139 46q27 0 27 -15v-8zM267 763l-107 -128q-14 -17 -22 -17h-22q-9 0 -9 7q0 6 4 10l100 128q12 15 23 15h26q11 0 11 -7q0 -4 -4 -8z" />
    <glyph glyph-name="rcaron" unicode="&#x159;" horiz-adv-x="309" 
d="M280 519q0 -16 -27 -16q-66 0 -139 -46v-438q0 -19 -19 -19h-6q-19 0 -19 19v498q0 20 18 20h8q18 0 18 -20v-21q71 46 139 46q27 0 27 -15v-8zM297 761l-100 -128q-12 -15 -23 -15h-40q-11 0 -23 15l-100 128q-4 4 -4 10q0 7 9 7h22q8 0 22 -17l94 -113l94 113
q14 17 22 17h22q9 0 9 -7q0 -6 -4 -10z" />
    <glyph glyph-name="uni0157" unicode="&#x157;" horiz-adv-x="309" 
d="M280 519q0 -16 -27 -16q-66 0 -139 -46v-438q0 -19 -19 -19h-6q-19 0 -19 19v498q0 20 18 20h8q18 0 18 -20v-21q71 46 139 46q27 0 27 -15v-8zM192 -55q12 0 12 -10q0 -6 -2 -9l-56 -102q-9 -19 -24 -19h-9q-9 0 -9 9q0 5 1 7l43 105q7 19 20 19h24z" />
    <glyph glyph-name="sacute" unicode="&#x15b;" horiz-adv-x="440" 
d="M217 -6q-73 0 -145 14q-22 5 -22 16v11q0 18 22 14q96 -16 147 -16q127 0 127 100q0 31 -21 53q-22 21 -85 56l-64 35q-64 35 -89 61q-32 34 -32 81q0 123 153 123q67 0 143 -9q21 -3 21 -17v-8q0 -18 -21 -16q-95 11 -139 11q-55 0 -80 -15q-33 -20 -33 -69
q0 -50 97 -104l67 -37q69 -38 95 -65q32 -34 32 -80q0 -139 -173 -139zM333 763l-107 -128q-14 -17 -22 -17h-22q-9 0 -9 7q0 6 4 10l100 128q12 15 23 15h26q11 0 11 -7q0 -4 -4 -8z" />
    <glyph glyph-name="scedilla" unicode="&#x15f;" horiz-adv-x="440" 
d="M217 -6q-73 0 -145 14q-22 5 -22 16v11q0 18 22 14q96 -16 147 -16q127 0 127 100q0 31 -21 53q-22 21 -85 56l-64 35q-64 35 -89 61q-32 34 -32 81q0 123 153 123q67 0 143 -9q21 -3 21 -17v-8q0 -18 -21 -16q-95 11 -139 11q-55 0 -80 -15q-33 -20 -33 -69
q0 -50 97 -104l67 -37q69 -38 95 -65q32 -34 32 -80q0 -139 -173 -139zM245 -70l-91 -108q-14 -17 -22 -17h-22q-9 0 -9 7q0 6 4 10l84 108q12 15 23 15h26q11 0 11 -7q0 -4 -4 -8z" />
    <glyph glyph-name="scircumflex" unicode="&#x15d;" horiz-adv-x="440" 
d="M217 -6q-73 0 -145 14q-22 5 -22 16v11q0 18 22 14q96 -16 147 -16q127 0 127 100q0 31 -21 53q-22 21 -85 56l-64 35q-64 35 -89 61q-32 34 -32 81q0 123 153 123q67 0 143 -9q21 -3 21 -17v-8q0 -18 -21 -16q-95 11 -139 11q-55 0 -80 -15q-33 -20 -33 -69
q0 -50 97 -104l67 -37q69 -38 95 -65q32 -34 32 -80q0 -139 -173 -139zM348 618h-22q-8 0 -22 17l-94 113l-94 -113q-14 -17 -22 -17h-22q-9 0 -9 7q0 6 4 10l100 128q12 15 23 15h40q11 0 23 -15l100 -128q4 -4 4 -10q0 -7 -9 -7z" />
    <glyph glyph-name="uni0219" unicode="&#x219;" horiz-adv-x="440" 
d="M217 -6q-73 0 -145 14q-22 5 -22 16v11q0 18 22 14q96 -16 147 -16q127 0 127 100q0 31 -21 53q-22 21 -85 56l-64 35q-64 35 -89 61q-32 34 -32 81q0 123 153 123q67 0 143 -9q21 -3 21 -17v-8q0 -18 -21 -16q-95 11 -139 11q-55 0 -80 -15q-33 -20 -33 -69
q0 -50 97 -104l67 -37q69 -38 95 -65q32 -34 32 -80q0 -139 -173 -139zM236 -55q12 0 12 -10q0 -6 -2 -9l-56 -102q-9 -19 -24 -19h-9q-9 0 -9 9q0 5 1 7l43 105q7 19 20 19h24z" />
    <glyph glyph-name="tbar" unicode="&#x167;" horiz-adv-x="380" 
d="M202 356v-254q0 -42 18 -57q14 -12 51 -12h48q21 0 21 -14v-6q0 -14 -17 -16q-22 -3 -52 -3q-57 0 -83 22q-30 25 -30 86v254h-99q-19 0 -19 16v10q0 15 19 15h99v99h-99q-19 0 -19 16v10q0 15 19 15h99v103q0 19 17 19h11q16 0 16 -19v-103h119q19 0 19 -15v-10
q0 -16 -19 -16h-119v-99h119q19 0 19 -15v-10q0 -16 -19 -16h-119z" />
    <glyph glyph-name="tcaron" unicode="&#x165;" horiz-adv-x="502" 
d="M340 13q0 -14 -17 -16q-22 -3 -52 -3q-57 0 -83 22q-30 25 -30 86v394h-99q-19 0 -19 16v10q0 15 19 15h99v103q0 19 17 19h11q16 0 16 -19v-103h119q19 0 19 -15v-10q0 -16 -19 -16h-119v-394q0 -42 18 -57q14 -12 51 -12h48q21 0 21 -14v-6zM410 533q-10 0 -10 10
q0 3 2 9l61 172q7 19 20 19h19q12 0 12 -10q0 -3 -2 -9l-68 -172q-7 -19 -19 -19h-15z" />
    <glyph glyph-name="uni0163" unicode="&#x163;" horiz-adv-x="380" 
d="M340 13q0 -14 -17 -16q-22 -3 -52 -3q-57 0 -83 22q-30 25 -30 86v394h-99q-19 0 -19 16v10q0 15 19 15h99v103q0 19 17 19h11q16 0 16 -19v-103h119q19 0 19 -15v-10q0 -16 -19 -16h-119v-394q0 -42 18 -57q14 -12 51 -12h48q21 0 21 -14v-6zM228 -55q12 0 12 -10
q0 -6 -2 -9l-56 -102q-9 -19 -24 -19h-9q-9 0 -9 9q0 5 1 7l43 105q7 19 20 19h24z" />
    <glyph glyph-name="ubreve" unicode="&#x16d;" horiz-adv-x="521" 
d="M70 518q0 19 19 19h7q18 0 18 -19v-332q0 -152 135 -152q72 1 158 41v443q0 19 19 19h6q19 0 19 -19v-498q0 -20 -18 -20h-8q-18 0 -18 20v16q-85 -41 -161 -41q-78 0 -124 44q-52 49 -52 147v332zM161 657q-40 40 -40 111q0 10 10 10h22q8 0 8 -10q0 -111 102 -111
t102 111q0 10 8 10h22q10 0 10 -10q0 -71 -39 -111q-39 -39 -103 -39t-102 39z" />
    <glyph glyph-name="uhungarumlaut" unicode="&#x171;" horiz-adv-x="521" 
d="M70 518q0 19 19 19h7q18 0 18 -19v-332q0 -152 135 -152q72 1 158 41v443q0 19 19 19h6q19 0 19 -19v-498q0 -20 -18 -20h-8q-18 0 -18 20v16q-85 -41 -161 -41q-78 0 -124 44q-52 49 -52 147v332zM444 763l-107 -128q-14 -17 -22 -17h-22q-9 0 -9 7q0 6 4 10l100 128
q12 15 23 15h26q11 0 11 -7q0 -4 -4 -8zM304 763l-107 -128q-14 -17 -22 -17h-22q-9 0 -9 7q0 6 4 10l100 128q12 15 23 15h26q11 0 11 -7q0 -4 -4 -8z" />
    <glyph glyph-name="umacron" unicode="&#x16b;" horiz-adv-x="521" 
d="M70 518q0 19 19 19h7q18 0 18 -19v-332q0 -152 135 -152q72 1 158 41v443q0 19 19 19h6q19 0 19 -19v-498q0 -20 -18 -20h-8q-18 0 -18 20v16q-85 -41 -161 -41q-78 0 -124 44q-52 49 -52 147v332zM414 702q0 -16 -20 -16h-266q-20 0 -20 16v11q0 15 20 15h266
q20 0 20 -15v-11z" />
    <glyph glyph-name="uogonek" unicode="&#x173;" horiz-adv-x="521" 
d="M407 36q-85 -41 -161 -41q-78 0 -124 44q-52 49 -52 147v332q0 19 19 19h7q18 0 18 -19v-332q0 -152 133 -152h2q69 0 158 41v443q0 19 19 19h6q19 0 19 -19v-498q0 -13 -9 -18l-59 -33q-79 -45 -79 -78q0 -53 69 -53q32 0 68 12q19 5 19 -10v-6q0 -11 -15 -17
q-33 -12 -72 -12q-105 0 -105 85q0 51 84 100l55 31v15z" />
    <glyph glyph-name="uring" unicode="&#x16f;" horiz-adv-x="521" 
d="M70 518q0 19 19 19h7q18 0 18 -19v-332q0 -152 135 -152q72 1 158 41v443q0 19 19 19h6q19 0 19 -19v-498q0 -20 -18 -20h-8q-18 0 -18 20v16q-85 -41 -161 -41q-78 0 -124 44q-52 49 -52 147v332zM327 632q-28 -27 -66 -27t-66 27q-27 28 -27 66t27 66q28 27 66 27
t66 -27q27 -28 27 -66t-27 -66zM302 739q-17 17 -41 17t-40 -17q-17 -17 -17 -41t17 -41q16 -17 40 -17t41 17t17 41t-17 41z" />
    <glyph glyph-name="utilde" unicode="&#x169;" horiz-adv-x="521" 
d="M70 518q0 19 19 19h7q18 0 18 -19v-332q0 -152 135 -152q72 1 158 41v443q0 19 19 19h6q19 0 19 -19v-498q0 -20 -18 -20h-8q-18 0 -18 20v16q-85 -41 -161 -41q-78 0 -124 44q-52 49 -52 147v332zM425 703q0 -91 -78 -91q-40 0 -67 26l-48 47q-28 28 -48 28
q-41 0 -41 -53v-26q0 -16 -10 -16h-17q-11 0 -11 16v26q0 91 79 91q39 0 66 -26l48 -47q28 -28 49 -28q40 0 40 53v26q0 16 10 16h17q11 0 11 -16v-26z" />
    <glyph glyph-name="wacute" unicode="&#x1e83;" horiz-adv-x="752" 
d="M591 48q-13 -54 -52 -54q-36 0 -51 57l-106 380q-3 9 -7 9t-7 -9l-106 -380q-15 -57 -51 -57q-39 0 -52 54l-110 465q-2 9 3 17q5 7 15 7h6q12 0 16 -14l108 -465q6 -25 14 -25q6 0 13 24l108 386q10 36 43 36t43 -36l108 -386q7 -24 13 -24q8 0 14 25l108 465
q4 14 16 14h6q10 0 15 -7q5 -8 3 -17zM489 763l-107 -128q-14 -17 -22 -17h-22q-9 0 -9 7q0 6 4 10l100 128q12 15 23 15h26q11 0 11 -7q0 -4 -4 -8z" />
    <glyph glyph-name="wcircumflex" unicode="&#x175;" horiz-adv-x="752" 
d="M591 48q-13 -54 -52 -54q-36 0 -51 57l-106 380q-3 9 -7 9t-7 -9l-106 -380q-15 -57 -51 -57q-39 0 -52 54l-110 465q-2 9 3 17q5 7 15 7h6q12 0 16 -14l108 -465q6 -25 14 -25q6 0 13 24l108 386q10 36 43 36t43 -36l108 -386q7 -24 13 -24q8 0 14 25l108 465
q4 14 16 14h6q10 0 15 -7q5 -8 3 -17zM512 618h-22q-8 0 -22 17l-94 113l-94 -113q-14 -17 -22 -17h-22q-9 0 -9 7q0 6 4 10l100 128q12 15 23 15h40q11 0 23 -15l100 -128q4 -4 4 -10q0 -7 -9 -7z" />
    <glyph glyph-name="wdieresis" unicode="&#x1e85;" horiz-adv-x="752" 
d="M591 48q-13 -54 -52 -54q-36 0 -51 57l-106 380q-3 9 -7 9t-7 -9l-106 -380q-15 -57 -51 -57q-39 0 -52 54l-110 465q-2 9 3 17q5 7 15 7h6q12 0 16 -14l108 -465q6 -25 14 -25q6 0 13 24l108 386q10 36 43 36t43 -36l108 -386q7 -24 13 -24q8 0 14 25l108 465
q4 14 16 14h6q10 0 15 -7q5 -8 3 -17zM471 661q0 -19 -19 -19h-6q-19 0 -19 19v74q0 19 19 19h6q19 0 19 -19v-74zM321 661q0 -19 -19 -19h-6q-19 0 -19 19v74q0 19 19 19h6q19 0 19 -19v-74z" />
    <glyph glyph-name="wgrave" unicode="&#x1e81;" horiz-adv-x="752" 
d="M591 48q-13 -54 -52 -54q-36 0 -51 57l-106 380q-3 9 -7 9t-7 -9l-106 -380q-15 -57 -51 -57q-39 0 -52 54l-110 465q-2 9 3 17q5 7 15 7h6q12 0 16 -14l108 -465q6 -25 14 -25q6 0 13 24l108 386q10 36 43 36t43 -36l108 -386q7 -24 13 -24q8 0 14 25l108 465
q4 14 16 14h6q10 0 15 -7q5 -8 3 -17zM421 618h-22q-8 0 -22 17l-107 128q-4 4 -4 8q0 7 11 7h26q11 0 23 -15l100 -128q4 -4 4 -10q0 -7 -9 -7z" />
    <glyph glyph-name="ycircumflex" unicode="&#x177;" horiz-adv-x="486" 
d="M282 -56q-23 -80 -58 -110q-34 -29 -104 -29q-26 0 -62 6q-20 3 -20 14v11q0 17 21 14q45 -6 65 -6q54 0 78 22q23 21 41 87l13 47h-14q-45 0 -61 56l-135 457q-7 24 16 24h9q12 0 16 -14l135 -460q6 -22 23 -22h23l137 483q4 13 18 13h9q22 0 14 -25zM384 618h-22
q-8 0 -22 17l-94 113l-94 -113q-14 -17 -22 -17h-22q-9 0 -9 7q0 6 4 10l100 128q12 15 23 15h40q11 0 23 -15l100 -128q4 -4 4 -10q0 -7 -9 -7z" />
    <glyph glyph-name="ygrave" unicode="&#x1ef3;" horiz-adv-x="486" 
d="M282 -56q-23 -80 -58 -110q-34 -29 -104 -29q-26 0 -62 6q-20 3 -20 14v11q0 17 21 14q45 -6 65 -6q54 0 78 22q23 21 41 87l13 47h-14q-45 0 -61 56l-135 457q-7 24 16 24h9q12 0 16 -14l135 -460q6 -22 23 -22h23l137 483q4 13 18 13h9q22 0 14 -25zM272 618h-22
q-8 0 -22 17l-107 128q-4 4 -4 8q0 7 11 7h26q11 0 23 -15l100 -128q4 -4 4 -10q0 -7 -9 -7z" />
    <glyph glyph-name="zacute" unicode="&#x17a;" horiz-adv-x="446" 
d="M406 16q0 -16 -20 -16h-290q-56 0 -56 41q0 22 12 37l299 399q4 6 4 10q0 9 -14 9h-263q-20 0 -20 15v10q0 16 20 16h264q56 0 56 -43q0 -23 -16 -45l-290 -389q-6 -10 -6 -12q0 -7 10 -7h290q20 0 20 -15v-10zM356 763l-107 -128q-14 -17 -22 -17h-22q-9 0 -9 7
q0 6 4 10l100 128q12 15 23 15h26q11 0 11 -7q0 -4 -4 -8z" />
    <glyph glyph-name="zdotaccent" unicode="&#x17c;" horiz-adv-x="446" 
d="M406 16q0 -16 -20 -16h-290q-56 0 -56 41q0 22 12 37l299 399q4 6 4 10q0 9 -14 9h-263q-20 0 -20 15v10q0 16 20 16h264q56 0 56 -43q0 -23 -16 -45l-290 -389q-6 -10 -6 -12q0 -7 10 -7h290q20 0 20 -15v-10zM245 660q0 -19 -19 -19h-6q-19 0 -19 19v74q0 19 19 19h6
q19 0 19 -19v-74z" />
    <glyph glyph-name="kgreenlandic" unicode="&#x138;" horiz-adv-x="444" 
d="M386 -6q-18 0 -30 12l-242 259v-246q0 -19 -19 -19h-6q-19 0 -19 19v499q0 19 19 19h6q19 0 19 -19v-215l246 230q11 9 24 9q20 0 20 -18q0 -9 -7 -15l-245 -224l246 -260q7 -9 7 -15q0 -16 -19 -16z" />
    <glyph glyph-name="napostrophe" unicode="&#x149;" horiz-adv-x="641" 
d="M130 724l-48 -172q-5 -19 -19 -19h-15q-9 0 -9 10q0 6 1 9l41 172q4 19 20 19h19q11 0 11 -11q0 -5 -1 -8zM571 19q0 -19 -19 -19h-7q-18 0 -18 19v332q0 152 -135 152q-73 0 -158 -41v-443q0 -19 -19 -19h-6q-19 0 -19 19v498q0 20 18 20h8q18 0 18 -20v-16
q85 41 161 41q78 0 124 -43q52 -50 52 -148v-332z" />
    <glyph glyph-name="Delta" unicode="&#x2206;" horiz-adv-x="619" 
d="M579 25q7 -25 -14 -25h-511q-21 0 -14 25l205 674q15 49 65 49t64 -48zM333 688q-6 20 -23 20q-18 0 -23 -19l-195 -645h435z" />
    <glyph glyph-name="Omega" unicode="&#x2126;" horiz-adv-x="616" 
d="M492 674q72 -81 72 -241v-24q0 -242 -160 -299v-69h148q19 0 19 -16v-8q0 -17 -19 -17h-169q-24 0 -23 21v105q0 15 14 18q146 38 146 265v24q0 273 -212 273t-212 -273v-24q0 -227 146 -265q14 -3 14 -18v-105q1 -21 -23 -21h-169q-19 0 -19 17v8q0 16 19 16h148v69
q-160 57 -160 299v24q0 160 72 241q66 74 184 74t184 -74z" />
    <glyph glyph-name="uni03BC" unicode="&#x3bc;" horiz-adv-x="521" 
d="M451 38q0 -14 -13 -18q-80 -26 -171 -26q-101 0 -153 58v-228q0 -19 -17 -19h-10q-17 0 -17 19v694q0 19 19 19h7q18 0 18 -19v-333q0 -152 153 -152q74 0 140 19v466q0 19 19 19h6q19 0 19 -19v-480z" />
    <glyph glyph-name="pi" unicode="&#x3c0;" horiz-adv-x="581" 
d="M469 504v-370q0 -63 6 -79q7 -21 39 -21h23q24 0 24 -16v-3q0 -20 -57 -20q-53 0 -69 41q-10 25 -10 98v370h-273v-485q0 -19 -19 -19h-6q-19 0 -19 19v485h-69q-19 0 -19 19v5q0 19 19 19h499q19 0 19 -19v-5q0 -19 -19 -19h-69z" />
    <glyph glyph-name="uni0410" unicode="&#x410;" horiz-adv-x="619" 
d="M565 -3h-12q-12 0 -16 13l-84 271h-288l-82 -271q-4 -13 -16 -13h-13q-15 0 -15 16q0 6 1 9l205 677q15 49 65 49t64 -48l205 -678q2 -6 2 -10q0 -15 -16 -15zM333 688q-6 20 -23 20q-18 0 -23 -19l-110 -364h265z" />
    <glyph glyph-name="uni0411" unicode="&#x411;" 
d="M449 743q19 0 19 -17v-8q0 -16 -19 -16h-325v-280q59 6 125 6q279 0 279 -210v-15q0 -210 -279 -210q-78 0 -150 8q-19 1 -19 19v704q0 19 17 19h352zM124 39q86 -6 125 -6q108 0 163 31q72 40 72 139v15q0 99 -72 139q-55 31 -163 31q-39 0 -125 -6v-343z" />
    <glyph glyph-name="uni0412" unicode="&#x412;" 
d="M528 203q0 -210 -279 -210q-78 0 -150 8q-19 1 -19 19v703q0 17 19 19q82 6 150 6q275 0 275 -181v-11q0 -124 -119 -166q123 -37 123 -170v-17zM480 567q0 83 -72 117q-53 25 -159 25l-125 -4v-293h181q175 0 175 144v11zM484 220q0 149 -179 149h-181v-330
q86 -6 125 -6q108 0 163 31q72 40 72 139v17z" />
    <glyph glyph-name="uni0413" unicode="&#x413;" horiz-adv-x="518" 
d="M124 19q0 -19 -17 -19h-10q-17 0 -17 19v612q0 112 121 112h258q19 0 19 -17v-8q0 -16 -19 -16h-258q-40 0 -56 -12q-21 -16 -21 -59v-612z" />
    <glyph glyph-name="uni0490" unicode="&#x490;" horiz-adv-x="518" 
d="M124 19q0 -19 -17 -19h-10q-17 0 -17 19v612q0 112 121 112h233v77q0 19 17 19h10q17 0 17 -19v-102q0 -16 -19 -16h-258q-40 0 -56 -12q-21 -16 -21 -59v-612z" />
    <glyph glyph-name="uni0414" unicode="&#x414;" horiz-adv-x="685" 
d="M58 23q0 18 16 18h24l199 658q15 49 65 49t64 -48l199 -659h27q17 0 17 -19v-122q0 -19 -17 -19h-10q-17 0 -17 19v100h-523v-100q0 -19 -17 -19h-10q-17 0 -17 19v123zM145 41h434l-194 647q-6 20 -23 20q-18 0 -23 -19z" />
    <glyph glyph-name="uni0415" unicode="&#x415;" horiz-adv-x="533" 
d="M478 17q0 -17 -19 -17h-258q-121 0 -121 112v519q0 112 121 112h258q19 0 19 -17v-8q0 -16 -19 -16h-258q-40 0 -56 -12q-21 -16 -21 -59v-220h335q19 0 19 -16v-10q0 -17 -19 -17h-335v-256q0 -43 21 -59q16 -12 56 -12h258q19 0 19 -16v-8z" />
    <glyph glyph-name="uni0416" unicode="&#x416;" horiz-adv-x="880" 
d="M418 724q0 19 19 19h6q19 0 19 -19v-320l340 332q12 11 23 11q19 0 19 -17q0 -10 -8 -18l-336 -326l343 -356q7 -7 7 -16q0 -16 -19 -16q-15 0 -23 8l-346 360v-347q0 -19 -17 -19h-10q-17 0 -17 19v347l-346 -360q-8 -8 -23 -8q-19 0 -19 16q0 9 7 16l343 356l-336 326
q-8 8 -8 18q0 17 19 17q11 0 23 -11l340 -332v320z" />
    <glyph glyph-name="uni0417" unicode="&#x417;" 
d="M496 206q0 -212 -248 -212q-75 0 -146 15q-18 4 -18 18v6q0 16 16 16h4q78 -13 144 -13q104 0 152 40q49 40 49 130v20q0 50 -32 91q-39 52 -110 52h-187q-19 0 -19 18v7q0 18 19 18h187q77 0 115 51q27 37 27 90v12q0 81 -50 113q-45 28 -151 28q-54 0 -144 -15h-4
q-16 0 -16 16v8q0 14 18 18q84 15 146 15q124 0 182 -37q66 -43 66 -146v-12q0 -120 -104 -165q104 -47 104 -162v-20z" />
    <glyph glyph-name="uni0418" unicode="&#x418;" horiz-adv-x="651" 
d="M80 724q0 19 17 19h12q16 0 16 -19v-679q0 -9 5 -9t8 7l336 674q15 31 48 31q49 0 49 -49v-680q0 -19 -17 -19h-10q-17 0 -17 19v680q0 7 -5 7q-4 0 -8 -7l-337 -675q-7 -14 -18 -23q-9 -7 -33 -7h-1q-45 0 -45 51v679z" />
    <glyph glyph-name="uni0419" unicode="&#x419;" horiz-adv-x="651" 
d="M420 833q-41 -40 -102 -40t-101 40q-42 41 -42 103q0 17 12 17h20q11 0 11 -17q0 -56 37 -83q27 -19 63 -19t63 19q37 27 37 83q0 17 11 17h20q12 0 12 -17q0 -62 -41 -103zM80 45q0 -51 45 -51h1q24 0 33 7q11 9 18 23l337 675q4 7 8 7q5 0 5 -7v-680q0 -19 17 -19h10
q17 0 17 19v680q0 49 -49 49q-33 0 -48 -31l-336 -674q-3 -7 -8 -7t-5 9v679q0 19 -16 19h-12q-17 0 -17 -19v-679z" />
    <glyph glyph-name="uni041A" unicode="&#x41a;" horiz-adv-x="542" 
d="M493 -2q-15 0 -23 8l-346 360v-347q0 -19 -17 -19h-10q-17 0 -17 19v705q0 19 19 19h6q19 0 19 -19v-320l340 332q12 11 23 11q19 0 19 -17q0 -10 -8 -18l-336 -326l343 -356q7 -7 7 -16q0 -16 -19 -16z" />
    <glyph glyph-name="uni041B" unicode="&#x41b;" horiz-adv-x="619" 
d="M333 688q-6 20 -23 20q-18 0 -23 -19l-204 -679q-4 -13 -16 -13h-13q-15 0 -15 16q0 6 1 9l205 677q15 49 65 49t64 -48l205 -678q2 -6 2 -10q0 -15 -16 -15h-12q-12 0 -16 13z" />
    <glyph glyph-name="uni041C" unicode="&#x41c;" horiz-adv-x="730" 
d="M650 19q0 -19 -17 -19h-10q-17 0 -17 19v680q0 7 -7 7q-6 0 -10 -9l-173 -365q-17 -36 -51 -36t-51 36l-173 365q-4 9 -10 9q-7 0 -7 -7v-680q0 -19 -17 -19h-10q-17 0 -17 19v680q0 49 51 49q31 0 46 -31l175 -367q6 -13 13 -13t13 13l175 367q15 31 46 31q51 0 51 -49
v-680z" />
    <glyph glyph-name="uni041D" unicode="&#x41d;" horiz-adv-x="647" 
d="M567 19q0 -19 -17 -19h-9q-17 0 -17 19v358h-400v-358q0 -19 -17 -19h-10q-17 0 -17 19v705q0 19 17 19h10q17 0 17 -19v-306h400v306q0 19 17 19h9q17 0 17 -19v-705z" />
    <glyph glyph-name="uni041E" unicode="&#x41e;" horiz-adv-x="632" 
d="M572 309q0 -160 -72 -241q-66 -74 -184 -74t-184 74q-72 81 -72 241v124q0 160 72 241q66 74 184 74t184 -74q72 -81 72 -241v-124zM528 433q0 273 -212 273t-212 -273v-124q0 -273 212 -273t212 273v124z" />
    <glyph glyph-name="uni041F" unicode="&#x41f;" horiz-adv-x="647" 
d="M524 643q0 59 -61 59h-279q-60 0 -60 -59v-624q0 -19 -17 -19h-10q-17 0 -17 19v624q0 100 104 100h278q106 0 106 -100v-624q0 -19 -17 -19h-10q-17 0 -17 19v624z" />
    <glyph glyph-name="uni0420" unicode="&#x420;" horiz-adv-x="540" 
d="M505 528q0 -214 -272 -214q-53 0 -109 4v-299q0 -19 -17 -19h-10q-17 0 -17 19v705q0 17 17 19q88 5 136 5q272 0 272 -203v-17zM461 545q0 90 -58 129q-54 35 -170 35q-65 0 -109 -3v-349q62 -4 109 -4q118 0 172 40q56 41 56 135v17z" />
    <glyph glyph-name="uni0421" unicode="&#x421;" horiz-adv-x="537" 
d="M497 21q0 -15 -19 -17q-87 -10 -173 -10q-107 0 -169 66q-76 79 -76 245v132q0 166 76 245q62 66 169 66q86 0 173 -10q19 -2 19 -17v-12q0 -12 -13 -12h-6q-81 9 -173 9q-91 0 -142 -61q-59 -68 -59 -208v-132q0 -140 59 -208q51 -61 142 -61q92 0 173 9h6q13 0 13 -12
v-12z" />
    <glyph glyph-name="uni0422" unicode="&#x422;" horiz-adv-x="571" 
d="M541 717q0 -15 -19 -15h-214v-683q0 -19 -17 -19h-10q-17 0 -17 19v683h-215q-19 0 -19 15v9q0 17 19 17h473q19 0 19 -17v-9z" />
    <glyph glyph-name="uni0423" unicode="&#x423;" horiz-adv-x="553" 
d="M498 742q21 0 12 -25l-217 -585q-30 -80 -63 -108q-35 -31 -103 -31q-26 0 -62 6q-20 4 -20 18v6q0 17 21 15q48 -6 62 -6q54 0 79 23q21 20 45 86l41 114h-12q-45 0 -61 56l-160 407q-9 24 16 24h7q12 0 18 -14l160 -410q6 -22 23 -22h25l160 433q4 13 20 13h9z" />
    <glyph glyph-name="uni0424" unicode="&#x424;" horiz-adv-x="816" 
d="M737 435q0 89 -57 129q-52 35 -161 35q-45 0 -89 -3v-349q62 -4 89 -4q111 0 163 40q55 42 55 135v17zM386 208q-56 -4 -89 -4q-262 0 -262 214v17q0 203 262 203l89 -3v90q0 19 17 19h10q17 0 17 -19v-90l89 3q262 0 262 -203v-17q0 -214 -262 -214q-33 0 -89 4v-189
q0 -19 -17 -19h-10q-17 0 -17 19v189zM79 418q0 -93 55 -135q52 -40 163 -40q27 0 89 4v349q-43 3 -89 3q-109 0 -161 -35q-57 -40 -57 -129v-17z" />
    <glyph glyph-name="uni0425" unicode="&#x425;" horiz-adv-x="602" 
d="M545 0h-8q-9 0 -16 9l-220 333l-220 -333q-7 -9 -16 -9h-9q-16 0 -16 16q0 8 4 13l231 351l-220 333q-5 8 -5 15q0 15 15 15h11q9 0 16 -9l208 -316l209 316q7 9 16 9h9q16 0 16 -16q0 -9 -4 -14l-220 -334l231 -350q4 -5 4 -13q0 -16 -16 -16z" />
    <glyph glyph-name="uni0426" unicode="&#x426;" horiz-adv-x="647" 
d="M524 724q0 19 17 19h10q17 0 17 -19v-624q0 -36 -13 -59h58q34 0 34 -30v-125q0 -19 -17 -19h-9q-17 0 -17 19v114h-420q-104 0 -104 100v624q0 19 17 19h10q17 0 17 -19v-624q0 -59 60 -59h279q61 0 61 59v624z" />
    <glyph glyph-name="uni0427" unicode="&#x427;" horiz-adv-x="565" 
d="M60 724q0 19 17 19h10q17 0 17 -19v-196q0 -103 51 -140q48 -35 177 -35q47 0 109 4v367q0 19 17 19h10q17 0 17 -19v-705q0 -19 -17 -19h-10q-17 0 -17 19v299q-56 -4 -109 -4q-144 0 -204 43q-68 47 -68 171v196z" />
    <glyph glyph-name="uni0428" unicode="&#x428;" horiz-adv-x="878" 
d="M798 100q0 -100 -103 -100h-511q-104 0 -104 100v624q0 19 17 19h10q17 0 17 -19v-624q0 -59 60 -59h234v683q0 19 17 19h9q17 0 17 -19v-683h234q60 0 60 59v624q0 19 17 19h9q17 0 17 -19v-624z" />
    <glyph glyph-name="uni0429" unicode="&#x429;" horiz-adv-x="878" 
d="M844 41q34 0 34 -30v-125q0 -19 -17 -19h-9q-17 0 -17 19v114h-651q-104 0 -104 100v624q0 19 17 19h10q17 0 17 -19v-624q0 -59 60 -59h234v683q0 19 17 19h9q17 0 17 -19v-683h233q61 0 61 59v624q0 19 17 19h10q17 0 17 -19v-624q0 -36 -13 -59h58z" />
    <glyph glyph-name="uni042A" unicode="&#x42a;" horiz-adv-x="610" 
d="M558 218v-15q0 -210 -279 -210q-78 0 -150 8q-19 1 -19 19v682h-121q-19 0 -19 15v9q0 17 19 17h148q17 0 17 -19v-302q59 6 125 6q279 0 279 -210zM154 39q86 -6 125 -6q108 0 163 31q72 40 72 139v15q0 99 -72 139q-55 31 -163 31q-39 0 -125 -6v-343z" />
    <glyph glyph-name="uni042B" unicode="&#x42b;" horiz-adv-x="788" 
d="M528 218v-15q0 -210 -279 -210q-78 0 -150 8q-19 1 -19 19v704q0 19 17 19h10q17 0 17 -19v-302q59 6 125 6q279 0 279 -210zM124 39q86 -6 125 -6q108 0 163 31q72 40 72 139v15q0 99 -72 139q-55 31 -163 31q-39 0 -125 -6v-343zM708 19q0 -19 -17 -19h-10
q-17 0 -17 19v705q0 19 17 19h10q17 0 17 -19v-705z" />
    <glyph glyph-name="uni042C" unicode="&#x42c;" 
d="M528 218v-15q0 -210 -279 -210q-78 0 -150 8q-19 1 -19 19v704q0 19 17 19h10q17 0 17 -19v-302q59 6 125 6q279 0 279 -210zM124 39q86 -6 125 -6q108 0 163 31q72 40 72 139v15q0 99 -72 139q-55 31 -163 31q-39 0 -125 -6v-343z" />
    <glyph glyph-name="uni042D" unicode="&#x42d;" horiz-adv-x="544" 
d="M116 364q-19 0 -19 17v10q0 16 19 16h304v11q0 162 -61 229q-50 55 -151 55q-62 0 -136 -12q-19 -3 -19 18v3q0 17 19 20q68 12 136 12q116 0 178 -62q78 -79 78 -263v-98q0 -327 -256 -327q-68 0 -136 12q-19 3 -19 20v3q0 21 19 18q74 -12 136 -12q101 0 151 56
q61 68 61 230v44h-304z" />
    <glyph glyph-name="uni042E" unicode="&#x42e;" horiz-adv-x="871" 
d="M134 19q0 -19 -17 -19h-10q-17 0 -17 19v705q0 19 17 19h10q17 0 17 -19v-332h165v41q0 160 72 241q66 74 184 74t184 -74q72 -81 72 -241v-124q0 -160 -72 -241q-66 -74 -184 -74t-184 74q-72 81 -72 241v42h-165v-332zM767 433q0 273 -212 273t-212 -273v-124
q0 -273 212 -273t212 273v124z" />
    <glyph glyph-name="uni042F" unicode="&#x42f;" horiz-adv-x="613" 
d="M65 29l202 311q-179 30 -179 199v5q0 111 69 159q63 45 203 45q86 0 156 -4q17 -2 17 -19v-706q0 -19 -17 -19h-10q-17 0 -17 19v317l-172 -1l-213 -326q-7 -9 -15 -9h-13q-16 0 -16 15q0 6 5 14zM132 539q0 -93 56 -129q51 -33 172 -33l129 1v324q-40 4 -129 4
q-117 0 -170 -34q-58 -38 -58 -128v-5z" />
    <glyph glyph-name="uni0401" unicode="&#x401;" horiz-adv-x="533" 
d="M478 17q0 -17 -19 -17h-258q-121 0 -121 112v519q0 112 121 112h258q19 0 19 -17v-8q0 -16 -19 -16h-258q-40 0 -56 -12q-21 -16 -21 -59v-220h335q19 0 19 -16v-10q0 -17 -19 -17h-335v-256q0 -43 21 -59q16 -12 56 -12h258q19 0 19 -16v-8zM381 832q0 -19 -19 -19h-6
q-19 0 -19 19v74q0 19 19 19h6q19 0 19 -19v-74zM231 832q0 -19 -19 -19h-6q-19 0 -19 19v74q0 19 19 19h6q19 0 19 -19v-74z" />
    <glyph glyph-name="uni0402" unicode="&#x402;" horiz-adv-x="813" 
d="M522 32q89 0 131 37q49 43 49 147v13q0 162 -189 162q-115 0 -205 -28v-344q0 -19 -17 -19h-10q-17 0 -17 19v683h-215q-19 0 -19 15v9q0 17 19 17h473q19 0 19 -17v-9q0 -15 -19 -15h-214v-299q94 31 206 31q233 0 233 -205v-13q0 -125 -64 -178q-54 -45 -161 -45h-14
q-20 0 -20 14v10q0 15 20 15h14z" />
    <glyph glyph-name="uni0403" unicode="&#x403;" horiz-adv-x="518" 
d="M124 19q0 -19 -17 -19h-10q-17 0 -17 19v612q0 112 121 112h258q19 0 19 -17v-8q0 -16 -19 -16h-258q-40 0 -56 -12q-21 -16 -21 -59v-612zM417 939l-107 -128q-14 -17 -22 -17h-22q-9 0 -9 7q0 6 4 10l100 128q12 15 23 15h26q11 0 11 -7q0 -4 -4 -8z" />
    <glyph glyph-name="uni0404" unicode="&#x404;" horiz-adv-x="544" 
d="M117 364v-44q0 -162 61 -230q50 -56 151 -56q62 0 136 12q19 3 19 -18v-3q0 -17 -19 -20q-68 -12 -136 -12q-256 0 -256 327v98q0 325 256 325q68 0 136 -12q19 -3 19 -20v-3q0 -21 -19 -18q-74 12 -136 12q-101 0 -151 -55q-61 -67 -61 -229v-11h304q19 0 19 -16v-10
q0 -17 -19 -17h-304z" />
    <glyph glyph-name="uni0405" unicode="&#x405;" horiz-adv-x="530" 
d="M243 -6q-45 0 -155 11q-18 2 -18 16v13q0 13 19 13l154 -11q186 0 186 149q0 51 -35 86q-25 24 -119 83l-63 39q-81 50 -113 84q-44 48 -44 109q0 162 234 162q42 0 149 -10q17 -2 17 -15v-13q0 -14 -19 -14q-7 0 -63 5t-85 5q-188 0 -188 -121q0 -44 34 -79
q28 -30 101 -74l64 -39q94 -57 130 -95q46 -49 46 -113q0 -191 -232 -191z" />
    <glyph glyph-name="uni0406" unicode="&#x406;" horiz-adv-x="224" 
d="M134 19q0 -19 -17 -19h-10q-17 0 -17 19v705q0 19 17 19h10q17 0 17 -19v-705z" />
    <glyph glyph-name="uni0407" unicode="&#x407;" horiz-adv-x="224" 
d="M134 19q0 -19 -17 -19h-10q-17 0 -17 19v705q0 19 17 19h10q17 0 17 -19v-705zM208 833q0 -19 -19 -19h-6q-19 0 -19 19v74q0 19 19 19h6q19 0 19 -19v-74zM58 833q0 -19 -19 -19h-6q-19 0 -19 19v74q0 19 19 19h6q19 0 19 -19v-74z" />
    <glyph glyph-name="uni0408" unicode="&#x408;" horiz-adv-x="224" 
d="M134 -60q0 -72 -31 -102q-33 -33 -113 -33h-14q-20 0 -20 14v10q0 15 20 15h14q62 0 81 18q19 19 19 78v784q0 19 17 19h10q17 0 17 -19v-784z" />
    <glyph glyph-name="uni0409" unicode="&#x409;" horiz-adv-x="987" 
d="M310 702q-18 0 -23 -18l-204 -679q-4 -13 -16 -13h-13q-15 0 -15 16q0 6 1 9l205 677q15 49 65 49h178q24 0 24 -22v-299q59 6 125 6q279 0 279 -210v-15q0 -210 -279 -210q-78 0 -150 8q-19 1 -19 19v682h-158zM512 39q86 -6 125 -6q108 0 163 31q72 40 72 139v15
q0 99 -72 139q-55 31 -163 31q-39 0 -125 -6v-343z" />
    <glyph glyph-name="uni040A" unicode="&#x40a;" horiz-adv-x="1023" 
d="M567 422q59 6 125 6q279 0 279 -210v-15q0 -210 -279 -210q-79 0 -151 8q-17 0 -17 19v357h-400v-358q0 -19 -17 -19h-10q-17 0 -17 19v705q0 19 17 19h10q17 0 17 -19v-306h400v306q0 19 17 19h9q17 0 17 -19v-302zM567 39q86 -6 125 -6q108 0 163 31q72 40 72 139v15
q0 99 -72 139q-55 31 -163 31q-39 0 -125 -6v-343z" />
    <glyph glyph-name="uni040B" unicode="&#x40b;" horiz-adv-x="775" 
d="M308 19q0 -19 -17 -19h-10q-17 0 -17 19v683h-215q-19 0 -19 15v9q0 17 19 17h473q19 0 19 -17v-9q0 -15 -19 -15h-214v-261q86 41 191 41q102 0 151 -40q55 -46 55 -151v-272q0 -19 -19 -19h-7q-18 0 -18 19v272q0 88 -40 121q-36 31 -125 31q-103 0 -188 -41v-383z" />
    <glyph glyph-name="uni040C" unicode="&#x40c;" horiz-adv-x="542" 
d="M493 -2q-15 0 -23 8l-346 360v-347q0 -19 -17 -19h-10q-17 0 -17 19v705q0 19 19 19h6q19 0 19 -19v-320l340 332q12 11 23 11q19 0 19 -17q0 -10 -8 -18l-336 -326l343 -356q7 -7 7 -16q0 -16 -19 -16zM407 939l-107 -128q-14 -17 -22 -17h-22q-9 0 -9 7q0 6 4 10
l100 128q12 15 23 15h26q11 0 11 -7q0 -4 -4 -8z" />
    <glyph glyph-name="uni040E" unicode="&#x40e;" horiz-adv-x="588" 
d="M515 742q21 0 12 -25l-217 -585q-30 -80 -63 -108q-35 -31 -103 -31q-26 0 -62 6q-20 4 -20 18v6q0 17 21 15q48 -6 62 -6q54 0 79 23q21 20 45 86l41 114h-12q-45 0 -61 56l-160 407q-9 24 16 24h7q12 0 18 -14l160 -410q6 -22 23 -22h25l160 433q4 13 20 13h9zM405 834
q-41 -40 -102 -40t-101 40q-42 41 -42 103q0 17 12 17h20q11 0 11 -17q0 -56 37 -83q27 -19 63 -19t63 19q37 27 37 83q0 17 11 17h20q12 0 12 -17q0 -62 -41 -103z" />
    <glyph glyph-name="uni040F" unicode="&#x40f;" horiz-adv-x="647" 
d="M567 19q0 -19 -17 -19h-205v-114q0 -19 -17 -19h-9q-17 0 -17 19v114h-205q-17 0 -17 19v705q0 19 17 19h10q17 0 17 -19v-683h400v683q0 19 17 19h9q17 0 17 -19v-705z" />
    <glyph glyph-name="uni0430" unicode="&#x430;" horiz-adv-x="488" 
d="M418 20q0 -20 -20 -20h-5q-20 0 -20 20v25q-93 -51 -170 -51q-153 0 -153 161v13q0 79 55 116q59 38 192 38h77v36q0 80 -27 112q-28 33 -99 33q-57 0 -142 -9h-4q-19 0 -19 15v6q0 15 23 18q76 9 142 9q95 0 136 -51q34 -44 34 -133v-338zM374 283h-77q-113 0 -158 -26
q-45 -25 -45 -89v-13q0 -122 109 -122q76 0 171 51v199z" />
    <glyph glyph-name="uni0431" unicode="&#x431;" horiz-adv-x="545" 
d="M467 233q0 -239 -206 -239t-206 239v161q0 126 50 186q46 54 155 76l65 13q81 17 92 58q4 16 19 16h11q15 0 11 -23q-14 -66 -122 -88l-68 -14q-77 -16 -113 -47q-39 -34 -51 -101q54 66 157 66q206 0 206 -239v-64zM423 297q0 200 -162 200t-162 -191v-73
q0 -200 162 -200t162 200v64z" />
    <glyph glyph-name="uni0432" unicode="&#x432;" horiz-adv-x="517" 
d="M455 401q0 -92 -79 -122q86 -32 86 -123v-7q0 -156 -242 -156q-86 0 -137 6q-13 1 -13 9v519q0 7 11 9q48 6 139 6q109 0 162 -22q73 -32 73 -113v-6zM417 156q0 67 -54 89q-31 13 -107 13h-143v-224q69 -3 107 -3q104 0 151 28q46 27 46 90v7zM412 407q0 58 -54 80
q-41 16 -138 16q-32 0 -107 -3v-202h143q74 0 105 14q51 22 51 89v6z" />
    <glyph glyph-name="uni0433" unicode="&#x433;" horiz-adv-x="371" 
d="M174 496q-60 0 -60 -59v-418q0 -19 -17 -19h-10q-17 0 -17 19v418q0 100 104 100h133q19 0 19 -17v-7q0 -17 -19 -17h-133z" />
    <glyph glyph-name="uni0491" unicode="&#x491;" horiz-adv-x="371" 
d="M326 513q0 -17 -19 -17h-133q-60 0 -60 -59v-418q0 -19 -17 -19h-10q-17 0 -17 19v418q0 100 104 100h108v70q0 19 19 19h6q19 0 19 -19v-94z" />
    <glyph glyph-name="uni0434" unicode="&#x434;" horiz-adv-x="583" 
d="M86 40l140 461q15 49 65 49t64 -48l140 -462h33q20 0 20 -20v-136q0 -20 -20 -20h-4q-20 0 -20 20v116h-425v-116q0 -20 -20 -20h-4q-20 0 -20 20v136q0 20 20 20h31zM133 40h316l-135 450q-6 20 -23 20q-18 0 -23 -19z" />
    <glyph glyph-name="uni0435" unicode="&#x435;" horiz-adv-x="511" 
d="M456 277q0 -19 -19 -19h-338v-21q0 -116 53 -165q43 -39 128 -39q65 0 148 17l6 1q15 0 15 -14v-7q0 -15 -19 -19q-82 -17 -150 -17q-225 0 -225 243v66q0 107 52 171q54 68 150 68q100 0 151 -66q48 -61 48 -172v-27zM412 304q0 199 -155 199q-158 0 -158 -200v-5h313v6
z" />
    <glyph glyph-name="uni0436" unicode="&#x436;" horiz-adv-x="704" 
d="M330 518q0 19 19 19h6q19 0 19 -19v-215l246 230q11 9 24 9q20 0 20 -18q0 -9 -7 -15l-245 -224l246 -260q7 -9 7 -15q0 -16 -19 -16q-18 0 -30 12l-242 259v-246q0 -19 -19 -19h-6q-19 0 -19 19v246l-242 -259q-12 -12 -30 -12q-19 0 -19 16q0 6 7 15l246 260l-245 224
q-7 6 -7 15q0 18 20 18q14 0 24 -9l246 -230v215z" />
    <glyph glyph-name="uni0437" unicode="&#x437;" horiz-adv-x="506" 
d="M274 299q124 0 124 107v7q0 56 -36 78q-34 21 -123 21q-56 0 -136 -10q-18 -2 -18 13v5q0 15 20 18q70 10 135 10q99 0 146 -28q55 -32 55 -107v-7q0 -86 -73 -125q74 -39 74 -126v-8q0 -154 -202 -154q-65 0 -135 10q-20 3 -20 18v5q0 15 18 13q80 -10 136 -10h1
q85 0 121 26q37 27 37 92v8q0 108 -124 108h-165q-19 0 -19 16v3q0 17 19 17h165z" />
    <glyph glyph-name="uni0438" unicode="&#x438;" horiz-adv-x="521" 
d="M361 500q20 37 48 37q42 0 42 -60v-458q0 -19 -19 -19h-6q-19 0 -19 19v458q0 6 -3 6q-3 1 -7 -6l-236 -444q-18 -34 -49 -34q-42 0 -42 57v462q0 19 20 19h4q20 0 20 -19v-462q0 -7 3 -7t7 7z" />
    <glyph glyph-name="uni0439" unicode="&#x439;" horiz-adv-x="521" 
d="M359 658q-41 -40 -102 -40t-101 40q-42 41 -42 103q0 17 12 17h20q11 0 11 -17q0 -56 37 -83q27 -19 63 -19t63 19q37 27 37 83q0 17 11 17h20q12 0 12 -17q0 -62 -41 -103zM124 56q-4 -7 -7 -7t-3 7v462q0 19 -20 19h-4q-20 0 -20 -19v-462q0 -57 42 -57q31 0 49 34
l236 444q4 7 7 6q3 0 3 -6v-458q0 -19 19 -19h6q19 0 19 19v458q0 60 -42 60q-28 0 -48 -37z" />
    <glyph glyph-name="uni043A" unicode="&#x43a;" horiz-adv-x="444" 
d="M386 -6q-18 0 -30 12l-242 259v-246q0 -19 -19 -19h-6q-19 0 -19 19v499q0 19 19 19h6q19 0 19 -19v-215l246 230q11 9 24 9q20 0 20 -18q0 -9 -7 -15l-245 -224l246 -260q7 -9 7 -15q0 -16 -19 -16z" />
    <glyph glyph-name="uni043B" unicode="&#x43b;" horiz-adv-x="500" 
d="M273 490q-6 20 -23 20q-18 0 -23 -19l-144 -478q-4 -13 -16 -13h-13q-15 0 -15 16q0 6 1 9l145 476q15 49 65 49t64 -48l145 -477q2 -6 2 -10q0 -15 -16 -15h-12q-12 0 -16 13z" />
    <glyph glyph-name="uni043C" unicode="&#x43c;" horiz-adv-x="630" 
d="M560 12q0 -19 -19 -19h-6q-19 0 -19 19v478q0 14 -8 14q-7 0 -14 -13l-129 -224q-18 -33 -50 -33t-50 33l-129 224q-7 13 -14 13q-8 0 -8 -14v-478q0 -19 -19 -19h-6q-19 0 -19 19v478q0 54 50 54q32 0 51 -32l128 -222q8 -13 16 -13t16 13l128 222q19 32 51 32
q50 0 50 -54v-478z" />
    <glyph glyph-name="uni043D" unicode="&#x43d;" horiz-adv-x="521" 
d="M114 266v-247q0 -19 -19 -19h-6q-19 0 -19 19v499q0 19 19 19h6q19 0 19 -19v-211h293v211q0 19 19 19h6q19 0 19 -19v-499q0 -19 -19 -19h-6q-19 0 -19 19v247h-293z" />
    <glyph glyph-name="uni043E" unicode="&#x43e;" horiz-adv-x="522" 
d="M467 233q0 -239 -206 -239t-206 239v70q0 239 206 239t206 -239v-70zM423 303q0 200 -162 200t-162 -200v-70q0 -200 162 -200t162 200v70z" />
    <glyph glyph-name="uni043F" unicode="&#x43f;" horiz-adv-x="521" 
d="M407 437q0 59 -61 59h-172q-60 0 -60 -59v-418q0 -19 -17 -19h-10q-17 0 -17 19v418q0 100 104 100h171q106 0 106 -100v-418q0 -19 -17 -19h-10q-17 0 -17 19v418z" />
    <glyph glyph-name="uni0440" unicode="&#x440;" horiz-adv-x="504" 
d="M449 233q0 -239 -196 -239q-72 0 -139 15v-185q0 -19 -17 -19h-10q-17 0 -17 19v680q0 15 15 19q93 19 168 19q196 0 196 -243v-66zM405 299q0 204 -152 204q-61 0 -139 -13v-444q62 -13 139 -13q81 0 117 51q35 48 35 149v66z" />
    <glyph glyph-name="uni0441" unicode="&#x441;" horiz-adv-x="437" 
d="M393 21q0 -15 -19 -18q-76 -9 -121 -9q-101 0 -153 72q-45 63 -45 170v67q0 108 45 169q51 70 153 70q45 0 121 -9q19 -3 19 -18v-7q0 -14 -16 -14h-5q-70 9 -119 9q-154 0 -154 -200v-67q0 -203 154 -203q49 0 119 9h5q16 0 16 -14v-7z" />
    <glyph glyph-name="uni0442" unicode="&#x442;" horiz-adv-x="488" 
d="M429 537q19 0 19 -17v-9q0 -15 -19 -15h-163v-477q0 -19 -19 -19h-6q-19 0 -19 19v477h-163q-19 0 -19 15v9q0 17 19 17h370z" />
    <glyph glyph-name="uni0443" unicode="&#x443;" horiz-adv-x="486" 
d="M446 512l-164 -568q-23 -80 -58 -110q-34 -29 -104 -29q-26 0 -62 6q-20 3 -20 14v11q0 14 15 14h6q45 -6 65 -6q54 0 78 22q23 21 41 87l13 47h-14q-45 0 -61 56l-135 457q-1 2 -1 7q0 17 17 17h9q12 0 16 -14l135 -460q6 -22 23 -22h23l137 483q4 13 18 13h9
q15 0 15 -17q0 -5 -1 -8z" />
    <glyph glyph-name="uni0444" unicode="&#x444;" horiz-adv-x="776" 
d="M55 299q0 117 41 176q47 67 155 67q48 0 115 -13v195q0 19 17 19h10q17 0 17 -19v-195q67 13 115 13q108 0 155 -67q41 -59 41 -176v-66q0 -122 -44 -179q-47 -60 -152 -60q-48 0 -115 15v-185q0 -19 -17 -19h-10q-17 0 -17 19v185q-67 -15 -115 -15q-105 0 -152 60
q-44 57 -44 179v66zM677 299q0 106 -28 150q-34 54 -124 54q-37 0 -115 -13v-444q62 -13 115 -13q86 0 121 51q31 45 31 149v66zM99 233q0 -104 31 -149q35 -51 121 -51q53 0 115 13v444q-78 13 -115 13q-90 0 -124 -54q-28 -44 -28 -150v-66z" />
    <glyph glyph-name="uni0445" unicode="&#x445;" horiz-adv-x="493" 
d="M441 0h-8q-13 0 -19 8l-166 232l-163 -232q-6 -8 -11 -8h-17q-14 0 -14 12q0 7 5 14l176 249l-170 238q-4 6 -4 11q0 13 18 13h6q14 0 19 -8l158 -220l153 218q7 10 19 10h9q15 0 15 -12q0 -6 -7 -17l-165 -235l177 -248q3 -4 3 -11q0 -14 -14 -14z" />
    <glyph glyph-name="uni0446" unicode="&#x446;" horiz-adv-x="521" 
d="M407 518q0 19 17 19h10q17 0 17 -19v-418q0 -36 -13 -59h59q34 0 34 -30v-125q0 -19 -17 -19h-9q-17 0 -17 19v114h-314q-104 0 -104 100v418q0 19 17 19h10q17 0 17 -19v-418q0 -59 60 -59h172q61 0 61 59v418z" />
    <glyph glyph-name="uni0447" unicode="&#x447;" horiz-adv-x="500" 
d="M70 518q0 19 17 19h10q16 0 16 -19v-131q0 -153 148 -153q73 0 135 18v266q0 19 17 19h10q17 0 17 -19v-505q0 -19 -17 -19h-10q-17 0 -17 19v200q-70 -18 -135 -18q-191 0 -191 192v131z" />
    <glyph glyph-name="uni0448" unicode="&#x448;" horiz-adv-x="778" 
d="M664 518q0 19 17 19h10q17 0 17 -19v-418q0 -100 -106 -100h-428q-104 0 -104 100v418q0 19 17 19h10q17 0 17 -19v-418q0 -59 60 -59h193v477q0 19 19 19h6q19 0 19 -19v-477h192q61 0 61 59v418z" />
    <glyph glyph-name="uni0449" unicode="&#x449;" horiz-adv-x="809" 
d="M664 518q0 19 17 19h10q17 0 17 -19v-418q0 -36 -13 -59h59q34 0 34 -30v-125q0 -19 -17 -19h-9q-17 0 -17 19v114h-571q-104 0 -104 100v418q0 19 17 19h10q17 0 17 -19v-418q0 -59 60 -59h193v477q0 19 19 19h6q19 0 19 -19v-477h192q61 0 61 59v418z" />
    <glyph glyph-name="uni044A" unicode="&#x44a;" horiz-adv-x="585" 
d="M148 498h-99q-19 0 -19 15v7q0 17 19 17h125q17 0 17 -19v-184q53 3 107 3q242 0 242 -163v-18q0 -163 -242 -163q-86 0 -137 6q-13 1 -13 9v490zM191 34q69 -3 107 -3q105 0 151 28q46 29 46 97v18q0 68 -46 97q-46 28 -151 28q-38 0 -107 -3v-262z" />
    <glyph glyph-name="uni044B" unicode="&#x44b;" horiz-adv-x="687" 
d="M113 34q69 -3 107 -3q105 0 151 28q46 29 46 97v18q0 68 -46 97q-46 28 -151 28q-38 0 -107 -3v-262zM70 518q0 19 17 19h9q17 0 17 -19v-184q53 3 107 3q242 0 242 -163v-18q0 -163 -242 -163q-86 0 -137 6q-13 1 -13 9v510zM632 19q0 -19 -17 -19h-10q-17 0 -17 19v499
q0 19 17 19h10q17 0 17 -19v-499z" />
    <glyph glyph-name="uni044C" unicode="&#x44c;" horiz-adv-x="517" 
d="M113 34q69 -3 107 -3q105 0 151 28q46 29 46 97v18q0 68 -46 97q-46 28 -151 28q-38 0 -107 -3v-262zM70 518q0 19 17 19h9q17 0 17 -19v-184q53 3 107 3q242 0 242 -163v-18q0 -163 -242 -163q-86 0 -137 6q-13 1 -13 9v510z" />
    <glyph glyph-name="uni044D" unicode="&#x44d;" horiz-adv-x="437" 
d="M105 257q-19 0 -19 16v9q0 16 19 16h233v5q0 200 -154 200q-48 0 -119 -9h-5q-16 0 -16 14v7q0 15 19 18q54 9 121 9q102 0 153 -70q45 -61 45 -169v-67q0 -107 -45 -170q-52 -72 -153 -72q-53 0 -121 9q-19 3 -19 18v7q0 14 16 14h5q71 -9 119 -9q154 0 154 203v21h-233
z" />
    <glyph glyph-name="uni044E" unicode="&#x44e;" horiz-adv-x="769" 
d="M124 19q0 -19 -19 -19h-6q-19 0 -19 19v499q0 19 19 19h6q19 0 19 -19v-219h178v4q0 239 206 239t206 -239v-70q0 -239 -206 -239t-206 239v22h-178v-236zM670 303q0 200 -162 200t-162 -200v-70q0 -200 162 -200t162 200v70z" />
    <glyph glyph-name="uni044F" unicode="&#x44f;" horiz-adv-x="512" 
d="M401 239q-43 -3 -97 -3q-33 0 -66 3l-128 -220q-11 -19 -27 -19h-7q-26 0 -9 30l126 218q-124 30 -124 139v4q0 151 235 151q81 0 129 -6q11 -2 11 -9v-508q0 -19 -17 -19h-10q-17 0 -17 19zM112 387q0 -112 192 -112q22 0 97 3v222q-75 3 -97 3q-192 0 -192 -112v-4z
" />
    <glyph glyph-name="uni0451" unicode="&#x451;" horiz-adv-x="511" 
d="M456 277q0 -19 -19 -19h-338v-21q0 -116 53 -165q43 -39 128 -39q65 0 148 17l6 1q15 0 15 -14v-7q0 -15 -19 -19q-82 -17 -150 -17q-225 0 -225 243v66q0 107 52 171q54 68 150 68q100 0 151 -66q48 -61 48 -172v-27zM412 304q0 199 -155 199q-158 0 -158 -200v-5h313v6
zM363 661q0 -19 -19 -19h-6q-19 0 -19 19v74q0 19 19 19h6q19 0 19 -19v-74zM213 661q0 -19 -19 -19h-6q-19 0 -19 19v74q0 19 19 19h6q19 0 19 -19v-74z" />
    <glyph glyph-name="uni0452" unicode="&#x452;" horiz-adv-x="505" 
d="M440 -86q0 -62 -26 -87q-24 -22 -77 -22q-19 0 -42 3q-17 2 -17 14v9q0 12 21 12h38q34 0 47 13q13 15 13 58v436q0 153 -148 153q-73 0 -135 -18v-466q0 -19 -17 -19h-10q-17 0 -17 19v613h-68q-19 0 -19 17v5q0 17 19 17h68v53q0 19 17 19h10q17 0 17 -19v-53h176
q19 0 19 -17v-5q0 -17 -19 -17h-176v-108q70 18 135 18q191 0 191 -192v-436z" />
    <glyph glyph-name="uni0453" unicode="&#x453;" horiz-adv-x="371" 
d="M328 763l-107 -128q-14 -17 -22 -17h-22q-9 0 -9 7q0 6 4 10l100 128q12 15 23 15h26q11 0 11 -7q0 -4 -4 -8zM174 496q-60 0 -60 -59v-418q0 -19 -17 -19h-10q-17 0 -17 19v418q0 100 104 100h133q19 0 19 -17v-7q0 -17 -19 -17h-133z" />
    <glyph glyph-name="uni0454" unicode="&#x454;" horiz-adv-x="437" 
d="M99 257v-21q0 -203 154 -203q49 0 119 9h5q16 0 16 -14v-7q0 -15 -19 -18q-67 -9 -121 -9q-101 0 -153 72q-45 63 -45 170v67q0 108 45 169q51 70 153 70q67 0 121 -9q19 -3 19 -18v-7q0 -14 -16 -14h-5q-70 9 -119 9q-154 0 -154 -200v-5h233q19 0 19 -16v-9
q0 -16 -19 -16h-233z" />
    <glyph glyph-name="uni0455" unicode="&#x455;" horiz-adv-x="440" 
d="M217 -6q-73 0 -145 14q-22 5 -22 16v11q0 14 16 14h6q96 -16 147 -16q127 0 127 100q0 31 -21 53q-22 21 -85 56l-64 35q-64 35 -89 61q-32 34 -32 81q0 123 153 123q67 0 143 -9q21 -3 21 -17v-8q0 -16 -18 -16h-3q-95 11 -139 11q-55 0 -80 -15q-33 -20 -33 -69
q0 -50 97 -104l67 -37q69 -38 95 -65q32 -34 32 -80q0 -139 -173 -139z" />
    <glyph glyph-name="uni0456" unicode="&#x456;" horiz-adv-x="204" 
d="M124 655q0 -19 -19 -19h-6q-19 0 -19 19v74q0 19 19 19h6q19 0 19 -19v-74zM124 19q0 -19 -19 -19h-6q-19 0 -19 19v499q0 19 19 19h6q19 0 19 -19v-499z" />
    <glyph glyph-name="uni0457" unicode="&#x457;" horiz-adv-x="204" 
d="M124 19q0 -19 -19 -19h-6q-19 0 -19 19v499q0 19 19 19h6q19 0 19 -19v-499zM199 661q0 -19 -19 -19h-6q-19 0 -19 19v74q0 19 19 19h6q19 0 19 -19v-74zM49 661q0 -19 -19 -19h-6q-19 0 -19 19v74q0 19 19 19h6q19 0 19 -19v-74z" />
    <glyph glyph-name="uni0458" unicode="&#x458;" horiz-adv-x="204" 
d="M124 655q0 -19 -19 -19h-6q-19 0 -19 19v74q0 19 19 19h6q19 0 19 -19v-74zM124 -86q0 -62 -26 -87q-24 -22 -77 -22q-19 0 -42 3q-17 2 -17 14v9q0 12 21 12h38q34 0 46 13q13 14 13 58v604q0 19 16 19h11q17 0 17 -19v-604z" />
    <glyph glyph-name="uni0459" unicode="&#x459;" horiz-adv-x="807" 
d="M404 537q18 0 18 -20v-183q51 3 103 3q242 0 242 -163v-18q0 -163 -242 -163q-65 0 -128 7q-19 0 -19 19v477h-130q-18 0 -23 -18l-141 -465q-4 -13 -16 -13h-13q-15 0 -15 16q0 6 1 9l142 463q15 49 65 49h156zM676 59q46 29 46 97v18q0 68 -46 97q-46 28 -151 28
q-37 0 -103 -3v-263q44 -2 103 -2q105 0 151 28z" />
    <glyph glyph-name="uni045A" unicode="&#x45a;" horiz-adv-x="839" 
d="M407 266h-293v-247q0 -19 -19 -19h-6q-19 0 -19 19v516q0 19 19 19h6q19 0 19 -19v-228h293v224q0 19 17 19h9q17 0 17 -19v-197q53 3 107 3q242 0 242 -163v-18q0 -163 -242 -163q-86 0 -137 6q-13 1 -13 9v258zM450 34q69 -3 107 -3q105 0 151 28q46 29 46 97v18
q0 68 -46 97q-46 28 -151 28q-38 0 -107 -3v-262z" />
    <glyph glyph-name="uni045B" unicode="&#x45b;" horiz-adv-x="505" 
d="M441 19q0 -19 -17 -19h-10q-17 0 -17 19v331q0 153 -148 153q-73 0 -135 -18v-466q0 -19 -17 -19h-10q-17 0 -17 19v613h-68q-19 0 -19 15v7q0 17 19 17h68v53q0 19 17 19h10q17 0 17 -19v-53h176q19 0 19 -17v-7q0 -15 -19 -15h-176v-108q70 18 135 18q191 0 191 -192z
" />
    <glyph glyph-name="uni045C" unicode="&#x45c;" horiz-adv-x="444" 
d="M386 -6q-18 0 -30 12l-242 259v-246q0 -19 -19 -19h-6q-19 0 -19 19v499q0 19 19 19h6q19 0 19 -19v-215l246 230q11 9 24 9q20 0 20 -18q0 -9 -7 -15l-245 -224l246 -260q7 -9 7 -15q0 -16 -19 -16zM361 763l-107 -128q-14 -17 -22 -17h-22q-9 0 -9 7q0 6 4 10l100 128
q12 15 23 15h26q11 0 11 -7q0 -4 -4 -8z" />
    <glyph glyph-name="uni045E" unicode="&#x45e;" horiz-adv-x="486" 
d="M446 512l-164 -568q-23 -80 -58 -110q-34 -29 -104 -29q-26 0 -62 6q-20 3 -20 14v11q0 14 15 14h6q45 -6 65 -6q54 0 78 22q23 21 41 87l13 47h-14q-45 0 -61 56l-135 457q-1 2 -1 7q0 17 17 17h9q12 0 16 -14l135 -460q6 -22 23 -22h23l137 483q4 13 18 13h9
q15 0 15 -17q0 -5 -1 -8zM353 658q-41 -40 -102 -40t-101 40q-42 41 -42 103q0 17 12 17h20q11 0 11 -17q0 -56 37 -83q27 -19 63 -19t63 19q37 27 37 83q0 17 11 17h20q12 0 12 -17q0 -62 -41 -103z" />
    <glyph glyph-name="uni045F" unicode="&#x45f;" horiz-adv-x="521" 
d="M407 518q0 19 17 19h10q17 0 17 -19v-418q0 -100 -106 -100h-63v-90q0 -19 -19 -19h-6q-19 0 -19 19v90h-64q-104 0 -104 100v418q0 19 17 19h10q17 0 17 -19v-418q0 -59 60 -59h172q61 0 61 59v418z" />
    <glyph glyph-name="franc" unicode="&#x20a3;" horiz-adv-x="518" 
d="M478 385q0 -17 -19 -17h-335v-137h123q19 0 19 -16v-10q0 -17 -19 -17h-123v-169q0 -19 -17 -19h-10q-17 0 -17 19v169h-61q-19 0 -19 17v10q0 16 19 16h61v400q0 112 121 112h258q19 0 19 -17v-8q0 -16 -19 -16h-258q-40 0 -56 -12q-21 -16 -21 -59v-220h335
q19 0 19 -16v-10z" />
    <glyph glyph-name="lira" unicode="&#x20a4;" 
d="M188 234v-65q0 -72 -32 -128h334q20 0 20 -14v-11q0 -16 -20 -16h-372q-20 0 -20 20q0 7 3 11q41 69 41 138v65h-53q-18 0 -18 17v9q0 17 20 17h51v107h-53q-18 0 -18 17v9q0 17 20 17h51v59q0 130 42 192q48 70 157 70q74 0 148 -9q19 -3 19 -16v-8q0 -15 -15 -15h-6
q-70 8 -146 8q-90 0 -125 -60q-28 -49 -28 -162v-59h245q18 0 18 -17v-9q0 -17 -20 -17h-243v-107h245q18 0 18 -17v-9q0 -17 -20 -17h-243z" />
    <glyph glyph-name="peseta" unicode="&#x20a7;" horiz-adv-x="1335" 
d="M505 528q0 -214 -272 -214q-53 0 -109 4v-299q0 -19 -17 -19h-10q-17 0 -17 19v705q0 17 17 19q88 5 136 5q272 0 272 -203v-17zM461 545q0 90 -58 129q-54 35 -170 35q-65 0 -109 -3v-349q62 -4 109 -4q118 0 172 40q56 41 56 135v17zM870 13q0 -14 -17 -16
q-22 -3 -52 -3q-57 0 -83 22q-30 25 -30 86v394h-99q-19 0 -19 16v10q0 15 19 15h99v103q0 19 17 19h11q16 0 16 -19v-103h119q19 0 19 -15v-10q0 -16 -19 -16h-119v-394q0 -42 18 -57q14 -12 51 -12h48q21 0 21 -14v-6zM1112 -6q-73 0 -145 14q-22 5 -22 16v11q0 18 22 14
q96 -16 147 -16q127 0 127 100q0 31 -21 53q-22 21 -85 56l-64 35q-64 35 -89 61q-32 34 -32 81q0 123 153 123q67 0 143 -9q21 -3 21 -17v-8q0 -18 -21 -16q-95 11 -139 11q-55 0 -80 -15q-33 -20 -33 -69q0 -50 97 -104l67 -37q69 -38 95 -65q32 -34 32 -80
q0 -139 -173 -139z" />
    <glyph glyph-name="Euro" unicode="&#x20ac;" 
d="M521 21q0 -15 -19 -17q-87 -10 -143 -10q-105 0 -175 61q-87 74 -92 224h-44q-18 0 -18 16v9q0 16 20 16h42v107h-44q-18 0 -18 16v9q0 16 20 16h42q7 147 93 220q70 60 174 60q56 0 143 -10q19 -2 19 -17v-12q0 -12 -13 -12h-6q-81 9 -143 9q-89 0 -148 -54
q-69 -63 -75 -184h329q18 0 18 -13l-2 -12q-3 -16 -20 -16h-325v-107h297q18 0 18 -13l-2 -12q-3 -16 -20 -16h-293q6 -124 74 -188q59 -55 149 -55q62 0 143 9h6q13 0 13 -12v-12z" />
    <glyph glyph-name="uni2113" unicode="&#x2113;" horiz-adv-x="394" 
d="M244 741q-45 0 -61 -32q-16 -29 -16 -104v-236q85 95 116 146q40 69 40 145q0 81 -79 81zM123 327v278q0 172 121 172q62 0 95 -36q28 -31 28 -81q0 -137 -200 -348v-178q0 -100 71 -100q47 0 96 37q15 11 27 -1l3 -3q9 -13 -1 -23q-52 -52 -124 -52q-116 0 -116 141v138
l-63 -58q-16 -14 -26 -1l-4 5q-10 13 1 24z" />
    <glyph glyph-name="uni2116" unicode="&#x2116;" horiz-adv-x="1138" 
d="M556 45q0 -51 -45 -51h-1q-24 0 -33 7q-11 9 -18 23l-337 675q-3 7 -8 7t-5 -7v-680q0 -19 -17 -19h-10q-17 0 -17 19v680q0 49 49 49q33 0 48 -31l336 -674q4 -7 8 -7q5 0 5 9v679q0 19 16 19h12q17 0 17 -19v-679zM709 132q-19 0 -19 -16v-10q0 -17 19 -17h345
q19 0 19 17v10q0 16 -19 16h-345zM1067 451q0 -107 -46 -166q-49 -62 -139 -62t-139 62q-46 59 -46 166v39q0 107 46 167q49 62 139 62t139 -62q46 -60 46 -167v-39zM1023 490q0 188 -141 188t-141 -188v-39q0 -187 141 -187t141 187v39z" />
    <glyph glyph-name="estimated" unicode="&#x212e;" horiz-adv-x="606" 
d="M148 282v-193q66 -63 152 -63q126 0 210 127l31 -19q-91 -141 -241 -141q-119 0 -197 86q-74 83 -74 204q0 123 73 205q77 85 202 85q124 0 200 -87q73 -82 73 -204h-429zM457 478q-68 62 -153 62q-96 0 -156 -62v-163h309v163z" />
    <glyph glyph-name="partialdiff" unicode="&#x2202;" horiz-adv-x="538" 
d="M108 747l-1 5q-3 17 16 21q47 10 105 10q258 0 258 -293q0 -104 -23 -246q-41 -250 -243 -250q-175 0 -175 179q0 33 4 60l11 70q40 239 246 239q92 0 139 -60v8q0 117 -38 176q-51 79 -179 79q-58 0 -100 -8q-17 -3 -20 10zM428 303q6 36 6 67q0 133 -135 133
q-164 0 -195 -200l-11 -70q-5 -37 -5 -60q0 -140 134 -140q161 0 195 200z" />
    <glyph glyph-name="product" unicode="&#x220f;" horiz-adv-x="697" 
d="M628 743q19 0 19 -16v-8q0 -17 -19 -17h-61v-738q0 -19 -17 -19h-9q-17 0 -17 19v738h-350v-738q0 -19 -17 -19h-10q-17 0 -17 19v738h-61q-19 0 -19 17v8q0 16 19 16h559z" />
    <glyph glyph-name="summation" unicode="&#x2211;" horiz-adv-x="504" 
d="M276 308l-177 -313q-5 -9 3 -9h333q19 0 19 -16v-8q0 -17 -19 -17h-338q-36 0 -44 26q-7 20 6 43l180 316q4 7 4 14t-4 14l-180 316q-13 23 -6 44q8 25 44 25h338q19 0 19 -17v-8q0 -16 -19 -16h-333q-8 0 -3 -9l177 -313q11 -16 11 -36q0 -19 -11 -36z" />
    <glyph glyph-name="uni2219" unicode="&#x2219;" horiz-adv-x="168" 
d="M106 360q0 -19 -19 -19h-6q-19 0 -19 19v74q0 19 19 19h6q19 0 19 -19v-74z" />
    <glyph glyph-name="radical" unicode="&#x221a;" horiz-adv-x="736" 
d="M412 -28q-14 -43 -52 -43q-40 0 -51 43l-109 438q-4 18 -25 18h-106q-19 0 -19 17v8q0 16 19 16h106q57 0 68 -46l111 -441q2 -6 6 -6q5 0 6 6l271 872q4 19 27 19h7q20 0 12 -26z" />
    <glyph glyph-name="infinity" unicode="&#x221e;" horiz-adv-x="691" 
d="M601 363q0 -207 -141 -207h-6q-81 0 -131 56q-34 -57 -97 -57h-6q-80 0 -110 70q-21 47 -21 137v25q0 207 140 207h6q76 0 129 -58q36 59 100 59h6q80 0 111 -70q20 -47 20 -137v-25zM454 192h6q98 0 98 171v25q0 83 -14 119q-19 52 -74 52h-6q-71 0 -89 -116l-19 -127
q-8 -45 -16 -67q48 -57 114 -57zM229 558q-97 0 -97 -171v-25q0 -83 14 -119q19 -52 74 -52h6q72 0 91 132l18 127q5 32 11 48q-50 60 -111 60h-6z" />
    <glyph glyph-name="integral" unicode="&#x222b;" horiz-adv-x="414" 
d="M185 630q0 118 113 118q33 0 52 -3t19 -16v-7q0 -13 -21 -13h-50q-69 0 -69 -79v-713q0 -118 -113 -118q-32 0 -52 3q-19 3 -19 16v7q0 13 21 13h50q69 0 69 79v713z" />
    <glyph glyph-name="approxequal" unicode="&#x2248;" horiz-adv-x="491" 
d="M399 519q0 -91 -78 -91q-40 0 -67 26l-48 47q-28 28 -48 28q-41 0 -41 -53v-26q0 -16 -10 -16h-17q-11 0 -11 16v26q0 91 79 91q39 0 66 -26l48 -47q28 -28 49 -28q40 0 40 53v26q0 16 10 16h17q11 0 11 -16v-26zM399 319q0 -91 -78 -91q-40 0 -67 26l-48 47
q-28 28 -48 28q-41 0 -41 -53v-26q0 -16 -10 -16h-17q-11 0 -11 16v26q0 91 79 91q39 0 66 -26l48 -47q28 -28 49 -28q40 0 40 53v26q0 16 10 16h17q11 0 11 -16v-26z" />
    <glyph glyph-name="notequal" unicode="&#x2260;" 
d="M401 748q17 0 10 -19l-72 -217h134q20 0 20 -16v-10q0 -16 -20 -16h-148l-51 -158h199q20 0 20 -16v-10q0 -16 -20 -16h-213l-84 -257q-6 -19 -19 -19h-19q-15 0 -9 19l84 257h-105q-20 0 -20 16v10q0 16 20 16h119l52 158h-171q-20 0 -20 16v10q0 16 20 16h185l71 217
q6 19 22 19h15z" />
    <glyph glyph-name="lessequal" unicode="&#x2264;" 
d="M426 148l-7 -7q-4 -4 -10 -4q-7 0 -16 7l-266 218q-15 12 -15 29t15 29l266 218q9 7 16 7q6 0 10 -4l7 -7q5 -5 5 -11q0 -9 -8 -15l-265 -217l265 -217q8 -6 8 -15q0 -6 -5 -11zM513 16q0 -16 -20 -16h-405q-20 0 -20 16v10q0 16 20 16h405q20 0 20 -16v-10z" />
    <glyph glyph-name="greaterequal" unicode="&#x2265;" 
d="M467 362l-266 -218q-9 -7 -16 -7q-6 0 -10 4l-7 7q-5 5 -5 11q0 9 8 15l265 217l-265 217q-8 6 -8 15q0 6 5 11l7 7q4 4 10 4q7 0 16 -7l266 -218q15 -12 15 -29t-15 -29zM513 16q0 -16 -20 -16h-405q-20 0 -20 16v10q0 16 20 16h405q20 0 20 -16v-10z" />
    <glyph glyph-name="lozenge" unicode="&#x25ca;" horiz-adv-x="608" 
d="M253 149l-123 153q-26 31 -26 56t26 57l126 158q20 26 48 26t48 -26l126 -158q26 -32 26 -57t-26 -56l-123 -153q-29 -36 -51 -36t-51 36zM284 542l-124 -157q-12 -16 -12 -28q0 -14 14 -31l120 -150q14 -19 22 -19t22 19l120 150q14 17 14 31q0 12 -12 28l-124 157
q-11 14 -20 14t-20 -14z" />
    <glyph glyph-name="uni00A0" unicode="&#xa0;" horiz-adv-x="215" 
 />
    <glyph glyph-name="uni00AD" unicode="&#xad;" horiz-adv-x="344" 
d="M292 273q0 -16 -19 -16h-202q-19 0 -19 16v8q0 18 19 18h202q19 0 19 -18v-8z" />
    <glyph glyph-name="uni02C9" unicode="&#x2c9;" horiz-adv-x="330" 
d="M318 704q0 -16 -20 -16h-266q-20 0 -20 16v11q0 15 20 15h266q20 0 20 -15v-11z" />
    <glyph glyph-name="zero.fitted" unicode="&#xf639;" 
d="M520 273q0 -279 -230 -279t-230 279v197q0 278 230 278t230 -278v-197zM476 470q0 238 -186 238t-186 -238v-197q0 -239 186 -239t186 239v197z" />
    <glyph glyph-name="one.fitted" unicode="&#xf6dc;" horiz-adv-x="381" 
d="M226 20q0 -20 -20 -20h-4q-20 0 -20 20v680l-118 -15q-20 -2 -20 13v5q0 16 20 20l139 20q23 3 23 -20v-703z" />
    <glyph glyph-name="two.fitted" unicode="&#xf63a;" 
d="M472 475q-30 -42 -107 -94l-102 -69q-90 -60 -117 -114q-21 -40 -21 -117v-40h346q20 0 20 -15v-11q0 -15 -20 -15h-371q-20 0 -20 20v61q0 83 27 135q34 67 128 130l102 69q68 46 91 78q24 32 24 80q0 69 -42 100q-44 33 -142 33q-76 0 -153 -15q-21 -3 -21 15v11
q0 12 19 16q70 15 155 15q232 0 232 -175q0 -57 -28 -98z" />
    <glyph glyph-name="three.fitted" unicode="&#xf63b;" 
d="M496 206q0 -212 -248 -212q-75 0 -146 15q-18 4 -18 18v6q0 19 20 16q78 -13 144 -13q104 0 152 40q49 40 49 130v20q0 50 -32 91q-39 52 -110 52h-187q-19 0 -19 18v7q0 18 19 18h187q77 0 115 51q27 37 27 90v12q0 81 -50 113q-45 28 -151 28q-54 0 -144 -15
q-20 -3 -20 16v8q0 14 18 18q84 15 146 15q124 0 182 -37q66 -43 66 -146v-12q0 -120 -104 -165q104 -47 104 -162v-20z" />
    <glyph glyph-name="four.fitted" unicode="&#xf63c;" 
d="M542 233q0 -17 -19 -17h-100v-197q0 -19 -16 -19h-12q-16 0 -16 19v197h-277q-64 0 -64 54q0 21 14 42l280 411q16 25 51 25q40 0 40 -48v-442h100q19 0 19 -16v-9zM379 694q0 8 -6 8q-4 0 -10 -8l-273 -401q-10 -16 -10 -23q0 -12 22 -12h277v436z" />
    <glyph glyph-name="five.fitted" unicode="&#xf63d;" 
d="M503 215q0 -106 -70 -165q-68 -56 -183 -56q-77 0 -154 18q-19 3 -19 19v11q0 17 21 12q77 -18 152 -18q209 0 209 179v25q0 86 -58 122q-54 33 -183 33h-106q-22 0 -20 22l23 309q2 17 20 17h326q20 0 20 -16v-11q0 -14 -20 -14h-303l-18 -266h78q158 0 224 -50
q61 -46 61 -146v-25z" />
    <glyph glyph-name="six.fitted" unicode="&#xf63e;" 
d="M64 488q0 137 63 201q59 59 182 59q74 0 159 -19q22 -4 22 -18v-10q0 -18 -24 -13q-87 18 -157 18q-105 0 -151 -48q-50 -51 -50 -170v-62q102 26 185 26q95 0 152 -41q71 -51 71 -155v-5q0 -257 -231 -257q-221 0 -221 259v235zM108 253q0 -118 43 -169q42 -50 134 -50
q187 0 187 217v5q0 155 -179 155q-93 0 -185 -24v-134z" />
    <glyph glyph-name="seven.fitted" unicode="&#xf63f;" horiz-adv-x="530" 
d="M168 10q-4 -10 -18 -10h-15q-24 0 -12 27l316 659q7 14 -7 14h-374q-20 0 -20 16v8q0 19 20 19h396q24 0 34 -16q11 -17 0 -41z" />
    <glyph glyph-name="eight.fitted" unicode="&#xf640;" 
d="M524 197q0 -100 -66 -153q-62 -50 -168 -50t-168 50q-66 53 -66 153v30q0 46 25 90q29 50 79 72q-48 17 -76 60q-28 42 -28 95v22q0 91 65 138q61 44 169 44t169 -44q65 -47 65 -138v-22q0 -53 -28 -95q-28 -43 -76 -60q50 -22 79 -72q25 -44 25 -90v-30zM477 566
q0 140 -187 140t-187 -140v-22q0 -52 30 -87q39 -45 116 -45h82q77 0 116 45q30 35 30 87v22zM477 227q0 48 -30 88q-40 54 -116 54h-82q-76 0 -116 -54q-30 -40 -30 -88v-30q0 -161 187 -161t187 161v30z" />
    <glyph glyph-name="nine.fitted" unicode="&#xf641;" 
d="M516 254q0 -137 -63 -200q-59 -60 -182 -60q-74 0 -159 19q-22 4 -22 18v10q0 18 24 13q87 -18 157 -18q105 0 152 48q49 51 49 170v62q-102 -26 -185 -26q-95 0 -152 41q-71 51 -71 155v5q0 257 231 257q221 0 221 -259v-235zM472 489q0 118 -43 170q-42 49 -134 49
q-187 0 -187 -217v-5q0 -155 179 -155q93 0 185 24v134z" />
    <glyph glyph-name="zero.taboldstyle" unicode="&#xf643;" 
d="M520 273q0 -279 -230 -279t-230 279v66q0 278 230 278t230 -278v-66zM476 339q0 238 -186 238t-186 -238v-66q0 -239 186 -239t186 239v66z" />
    <glyph glyph-name="one.taboldstyle" unicode="&#xf644;" 
d="M256 41v538l-177 -22q-15 0 -15 13v5q0 16 20 20l198 27q18 0 18 -20v-561h171q20 0 20 -15v-11q0 -15 -20 -15h-386q-20 0 -20 15v11q0 15 20 15h171z" />
    <glyph glyph-name="two.taboldstyle" unicode="&#xf645;" 
d="M448 358q-31 -30 -143 -97q-102 -61 -133 -93q-47 -48 -47 -117v-10h346q20 0 20 -15v-11q0 -15 -20 -15h-371q-20 0 -20 20v31q0 85 61 148q38 39 143 100q97 57 126 84q42 41 42 98q0 95 -184 95q-76 0 -153 -15l-5 -1q-16 0 -16 16v11q0 12 19 16q70 15 168 15
q219 0 219 -137q0 -73 -52 -123z" />
    <glyph glyph-name="three.taboldstyle" unicode="&#xf646;" 
d="M496 76q0 -212 -248 -212q-75 0 -146 15q-18 4 -18 18v6q0 16 16 16h4q78 -13 144 -13q104 0 152 40q49 40 49 130v20q0 50 -32 91q-39 52 -110 52h-187q-19 0 -19 18v7q0 18 19 18h187q77 0 115 51q27 37 27 90v12q0 81 -50 113q-45 28 -151 28q-54 0 -144 -15h-4
q-16 0 -16 16v8q0 14 18 18q84 15 146 15q124 0 182 -37q66 -43 66 -146v-12q0 -120 -104 -165q104 -47 104 -162v-20z" />
    <glyph glyph-name="four.taboldstyle" unicode="&#xf647;" 
d="M542 103q0 -17 -19 -17h-100v-197q0 -19 -16 -19h-12q-16 0 -16 19v197h-277q-64 0 -64 54q0 21 14 42l280 411q16 25 51 25q40 0 40 -48v-442h100q19 0 19 -16v-9zM379 564q0 8 -6 8q-4 0 -10 -8l-273 -401q-10 -16 -10 -23q0 -12 22 -12h277v436z" />
    <glyph glyph-name="five.taboldstyle" unicode="&#xf648;" 
d="M503 79q0 -106 -70 -165q-68 -56 -183 -56q-77 0 -154 18q-19 3 -19 19v11q0 13 13 13q5 0 8 -1q77 -18 152 -18q209 0 209 179v25q0 86 -58 122q-54 33 -183 33h-106q-20 0 -20 20l23 311q2 17 20 17h326q20 0 20 -16v-11q0 -14 -20 -14h-303l-18 -266h78q158 0 224 -50
q61 -46 61 -146v-25z" />
    <glyph glyph-name="six.taboldstyle" unicode="&#xf649;" 
d="M516 251q0 -257 -231 -257q-221 0 -221 259v235q0 137 63 201q59 59 182 59q74 0 159 -19q22 -4 22 -18v-10q0 -14 -16 -14q-5 0 -8 1q-87 18 -157 18q-105 0 -151 -48q-50 -51 -50 -170v-62q102 26 185 26q95 0 152 -41q71 -51 71 -155v-5zM472 256q0 155 -179 155
q-93 0 -185 -24v-134q0 -118 43 -169q42 -50 134 -50q187 0 187 217v5z" />
    <glyph glyph-name="seven.taboldstyle" unicode="&#xf64a;" 
d="M512 560l-320 -676q-4 -10 -18 -10h-15q-15 0 -15 15q0 6 3 12l316 659q1 2 1 6q0 8 -8 8h-374q-20 0 -20 16v8q0 19 20 19h396q39 0 39 -35q0 -12 -5 -22z" />
    <glyph glyph-name="eight.taboldstyle" unicode="&#xf64b;" 
d="M524 197q0 -100 -66 -153q-62 -50 -168 -50t-168 50q-66 53 -66 153v30q0 46 25 90q29 50 79 72q-48 17 -76 60q-28 42 -28 95v22q0 91 65 138q61 44 169 44t169 -44q65 -47 65 -138v-22q0 -53 -28 -95q-28 -43 -76 -60q50 -22 79 -72q25 -44 25 -90v-30zM477 566
q0 140 -187 140t-187 -140v-22q0 -52 30 -87q39 -45 116 -45h82q77 0 116 45q30 35 30 87v22zM477 227q0 48 -30 88q-40 54 -116 54h-82q-76 0 -116 -54q-30 -40 -30 -88v-30q0 -161 187 -161t187 161v30z" />
    <glyph glyph-name="nine.taboldstyle" unicode="&#xf64c;" 
d="M516 123q0 -137 -63 -200q-59 -60 -182 -60q-74 0 -159 19q-22 4 -22 18v10q0 14 16 14q5 0 8 -1q87 -18 157 -18q105 0 152 48q49 51 49 170v62q-102 -26 -185 -26q-95 0 -152 41q-71 51 -71 155v5q0 257 231 257q221 0 221 -259v-235zM472 358q0 118 -43 170
q-42 49 -134 49q-187 0 -187 -217v-5q0 -155 179 -155q93 0 185 24v134z" />
    <glyph glyph-name="zero.denominator" unicode="&#xf655;" horiz-adv-x="319" 
d="M291 154q0 -157 -131 -157q-132 0 -132 157v107q0 156 132 156q131 0 131 -156v-107zM252 261q0 119 -92 119q-93 0 -93 -119v-107q0 -120 93 -120q92 0 92 120v107z" />
    <glyph glyph-name="one.denominator" unicode="&#xf656;" horiz-adv-x="210" 
d="M92 375l-55 -8q-20 -2 -20 19q0 15 18 19l76 11q21 3 21 -19v-379q0 -18 -16 -18h-8q-16 0 -16 18v357z" />
    <glyph glyph-name="two.denominator" unicode="&#xf657;" horiz-adv-x="319" 
d="M47 389v3q0 17 19 19q39 6 81 6q133 0 133 -93q0 -67 -76 -118l-55 -37q-70 -47 -70 -117v-14h178q18 0 18 -16v-6q0 -16 -18 -16h-200q-18 0 -18 19v33q0 88 87 148l55 38q58 40 58 86q0 58 -92 58q-33 0 -80 -5q-20 -2 -20 12z" />
    <glyph glyph-name="three.denominator" unicode="&#xf658;" horiz-adv-x="319" 
d="M237 129q0 70 -68 70h-101q-18 0 -18 17v4q0 17 18 17h101q68 0 68 68v7q0 40 -25 56q-22 14 -75 14q-23 0 -77 -6q-19 -2 -19 12v4q0 16 16 18q39 7 80 7q71 0 104 -21q37 -24 37 -84v-7q0 -59 -47 -89q47 -26 47 -87v-11q0 -121 -141 -121q-41 0 -80 7q-16 2 -16 18v4
q0 14 19 12q54 -6 77 -6q100 0 100 86v11z" />
    <glyph glyph-name="four.denominator" unicode="&#xf659;" horiz-adv-x="319" 
d="M199 154v207q0 8 -5 1l-134 -201q-4 -7 4 -7h135zM215 0q-16 0 -16 18v99h-141q-42 0 -42 36q0 14 11 30l147 215q12 19 36 19q29 0 29 -33v-230h46q18 0 18 -16v-4q0 -17 -18 -17h-46v-99q0 -18 -16 -18h-8z" />
    <glyph glyph-name="five.denominator" unicode="&#xf65a;" horiz-adv-x="319" 
d="M242 127v4q0 47 -31 65q-28 16 -100 16h-47q-19 0 -18 21l11 166q2 17 19 17h176q18 0 18 -17v-6q0 -16 -18 -16h-156l-8 -127h30q85 0 123 -25q41 -28 41 -94v-4q0 -63 -41 -97q-39 -33 -106 -33q-44 0 -83 7q-16 2 -16 18v4q0 14 19 12q54 -6 80 -6q107 0 107 95z" />
    <glyph glyph-name="six.denominator" unicode="&#xf65b;" horiz-adv-x="319" 
d="M30 270q0 147 140 147q44 0 87 -9q18 -2 18 -18v-5q0 -18 -22 -14q-46 8 -83 8q-53 0 -76 -24q-25 -25 -25 -85v-20q39 9 88 9q132 0 132 -119q0 -143 -132 -143q-127 0 -127 147v126zM69 144q0 -112 88 -112q93 0 93 108q0 45 -23 64q-22 19 -74 19q-48 0 -84 -9v-70z
" />
    <glyph glyph-name="seven.denominator" unicode="&#xf65c;" horiz-adv-x="292" 
d="M228 371q3 5 -4 5h-189q-19 0 -19 17v4q0 19 19 19h213q17 0 25 -13q7 -13 -1 -31l-169 -355q-8 -17 -19 -17h-14q-21 0 -8 26z" />
    <glyph glyph-name="eight.denominator" unicode="&#xf65d;" horiz-adv-x="319" 
d="M293 113q0 -57 -38 -88q-35 -28 -95 -28q-134 0 -134 116v17q0 57 49 86q-49 27 -49 84v12q0 105 134 105q133 0 133 -105v-12q0 -57 -49 -84q49 -29 49 -86v-17zM252 130q0 23 -14 42q-20 26 -57 26h-44q-36 0 -56 -26q-14 -19 -14 -42v-17q0 -78 93 -78q92 0 92 78v17z
M252 312q0 67 -92 67q-93 0 -93 -67v-12q0 -62 70 -62h44q71 0 71 62v12z" />
    <glyph glyph-name="nine.denominator" unicode="&#xf65e;" horiz-adv-x="319" 
d="M289 144q0 -147 -140 -147q-44 0 -87 9q-18 2 -18 18v5q0 18 22 14q46 -8 83 -8q53 0 76 24q25 25 25 85v20q-39 -9 -88 -9q-132 0 -132 119q0 143 132 143q127 0 127 -147v-126zM250 270q0 112 -88 112q-93 0 -93 -108q0 -45 23 -64q22 -19 74 -19q48 0 84 9v70z" />
    <glyph glyph-name="zero.numerator" unicode="&#xf661;" horiz-adv-x="319" 
d="M291 486q0 -157 -131 -157q-132 0 -132 157v107q0 156 132 156q131 0 131 -156v-107zM252 593q0 119 -92 119q-93 0 -93 -119v-107q0 -120 93 -120q92 0 92 120v107z" />
    <glyph glyph-name="one.numerator" unicode="&#xf662;" horiz-adv-x="210" 
d="M92 707l-55 -8q-20 -2 -20 19q0 15 18 19l76 11q21 3 21 -19v-379q0 -18 -16 -18h-8q-16 0 -16 18v357z" />
    <glyph glyph-name="two.numerator" unicode="&#xf663;" horiz-adv-x="319" 
d="M47 721v3q0 17 19 19q39 6 81 6q133 0 133 -93q0 -67 -76 -118l-55 -37q-70 -47 -70 -117v-14h178q18 0 18 -16v-6q0 -16 -18 -16h-200q-18 0 -18 19v33q0 88 87 148l55 38q58 40 58 86q0 58 -92 58q-33 0 -80 -5q-20 -2 -20 12z" />
    <glyph glyph-name="three.numerator" unicode="&#xf664;" horiz-adv-x="319" 
d="M237 461q0 70 -68 70h-101q-18 0 -18 17v4q0 17 18 17h101q68 0 68 68v7q0 40 -25 56q-22 14 -75 14q-23 0 -77 -6q-19 -2 -19 12v4q0 16 16 18q39 7 80 7q71 0 104 -21q37 -24 37 -84v-7q0 -59 -47 -89q47 -26 47 -87v-11q0 -121 -141 -121q-41 0 -80 7q-16 2 -16 18v4
q0 14 19 12q54 -6 77 -6q100 0 100 86v11z" />
    <glyph glyph-name="four.numerator" unicode="&#xf665;" horiz-adv-x="319" 
d="M199 486v207q0 8 -5 1l-134 -201q-4 -7 4 -7h135zM215 332q-16 0 -16 18v99h-141q-42 0 -42 36q0 14 11 30l147 215q12 19 36 19q29 0 29 -33v-230h46q18 0 18 -16v-4q0 -17 -18 -17h-46v-99q0 -18 -16 -18h-8z" />
    <glyph glyph-name="five.numerator" unicode="&#xf666;" horiz-adv-x="319" 
d="M242 459v4q0 47 -31 65q-28 16 -100 16h-47q-19 0 -18 21l11 166q2 17 19 17h176q18 0 18 -17v-6q0 -16 -18 -16h-156l-8 -127h30q85 0 123 -25q41 -28 41 -94v-4q0 -63 -41 -97q-39 -33 -106 -33q-44 0 -83 7q-16 2 -16 18v4q0 14 19 12q54 -6 80 -6q107 0 107 95z" />
    <glyph glyph-name="six.numerator" unicode="&#xf667;" horiz-adv-x="319" 
d="M30 602q0 147 140 147q44 0 87 -9q18 -2 18 -18v-5q0 -18 -22 -14q-46 8 -83 8q-53 0 -76 -24q-25 -25 -25 -85v-20q39 9 88 9q132 0 132 -119q0 -143 -132 -143q-127 0 -127 147v126zM69 476q0 -112 88 -112q93 0 93 108q0 45 -23 64q-22 19 -74 19q-48 0 -84 -9v-70z
" />
    <glyph glyph-name="seven.numerator" unicode="&#xf668;" horiz-adv-x="292" 
d="M228 703q3 5 -4 5h-189q-19 0 -19 17v4q0 19 19 19h213q17 0 25 -13q7 -13 -1 -31l-169 -355q-8 -17 -19 -17h-14q-21 0 -8 26z" />
    <glyph glyph-name="eight.numerator" unicode="&#xf669;" horiz-adv-x="319" 
d="M293 445q0 -57 -38 -88q-35 -28 -95 -28q-134 0 -134 116v17q0 57 49 86q-49 27 -49 84v12q0 105 134 105q133 0 133 -105v-12q0 -57 -49 -84q49 -29 49 -86v-17zM252 462q0 23 -14 42q-20 26 -57 26h-44q-36 0 -56 -26q-14 -19 -14 -42v-17q0 -78 93 -78q92 0 92 78v17z
M252 644q0 67 -92 67q-93 0 -93 -67v-12q0 -62 70 -62h44q71 0 71 62v12z" />
    <glyph glyph-name="nine.numerator" unicode="&#xf66a;" horiz-adv-x="319" 
d="M289 476q0 -147 -140 -147q-44 0 -87 9q-18 2 -18 18v5q0 18 22 14q46 -8 83 -8q53 0 76 24q25 25 25 85v20q-39 -9 -88 -9q-132 0 -132 119q0 143 132 143q127 0 127 -147v-126zM250 602q0 112 -88 112q-93 0 -93 -108q0 -45 23 -64q22 -19 74 -19q48 0 84 9v70z" />
    <glyph glyph-name="j.dotless" unicode="&#xe008;" horiz-adv-x="204" 
d="M215 518l-106 -604q-11 -62 -38 -86q-26 -23 -84 -23q-19 0 -42 3q-14 3 -14 12l1 11q1 12 17 12h44q35 0 49 13q15 14 23 58l106 604q4 19 20 19h11q13 0 13 -14v-5z" />
    <glyph glyph-name="uni2215" unicode="&#x2215;" horiz-adv-x="304" 
d="M387 724l-418 -711q-11 -19 -21 -19h-27q-8 0 -8 6t5 13l418 711q11 19 21 19h28q8 0 8 -5t-6 -14z" />
    <glyph glyph-name="uni021A" unicode="&#x21a;" horiz-adv-x="571" 
d="M541 717q0 -15 -19 -15h-214v-683q0 -19 -17 -19h-10q-17 0 -17 19v683h-215q-19 0 -19 15v9q0 17 19 17h473q19 0 19 -17v-9zM303 -55q12 0 12 -10q0 -6 -2 -9l-56 -102q-9 -19 -24 -19h-9q-9 0 -9 9q0 5 1 7l43 105q7 19 20 19h24z" />
    <glyph glyph-name="uni021B" unicode="&#x21b;" horiz-adv-x="380" 
d="M340 13q0 -14 -17 -16q-22 -3 -52 -3q-57 0 -83 22q-30 25 -30 86v394h-99q-19 0 -19 16v10q0 15 19 15h99v103q0 19 17 19h11q16 0 16 -19v-103h119q19 0 19 -15v-10q0 -16 -19 -16h-119v-394q0 -42 18 -57q14 -12 51 -12h48q21 0 21 -14v-6zM228 -55q12 0 12 -10
q0 -6 -2 -9l-56 -102q-9 -19 -24 -19h-9q-9 0 -9 9q0 5 1 7l43 105q7 19 20 19h24z" />
    <glyph glyph-name="uni03A9" unicode="&#x3a9;" horiz-adv-x="616" 
d="M492 674q72 -81 72 -241v-24q0 -242 -160 -299v-69h148q19 0 19 -16v-8q0 -17 -19 -17h-169q-24 0 -23 21v105q0 15 14 18q146 38 146 265v24q0 273 -212 273t-212 -273v-24q0 -227 146 -265q14 -3 14 -18v-105q1 -21 -23 -21h-169q-19 0 -19 17v8q0 16 19 16h148v69
q-160 57 -160 299v24q0 160 72 241q66 74 184 74t184 -74z" />
    <glyph glyph-name="uni04E8" unicode="&#x4e8;" horiz-adv-x="632" 
d="M572 309q0 -160 -72 -241q-66 -74 -184 -74t-184 74q-72 81 -72 241v124q0 160 72 241q66 74 184 74t184 -74q72 -81 72 -241v-124zM528 405v28q0 273 -212 273t-212 -273v-28h424zM104 371v-62q0 -273 212 -273t212 273v62h-424z" />
    <glyph glyph-name="uni04E9" unicode="&#x4e9;" horiz-adv-x="522" 
d="M467 233q0 -239 -206 -239t-206 239v70q0 239 206 239t206 -239v-70zM423 296v7q0 200 -162 200t-162 -200v-7h324zM99 268v-35q0 -200 162 -200t162 200v35h-324z" />
    <glyph glyph-name="uni04D8" unicode="&#x4d8;" horiz-adv-x="632" 
d="M48 355q0 26 26 26h486v29q-4 166 -91 232q-62 54 -178 55q-95 2 -204 -27q-20 -4 -29 12v10q0 21 26 26q112 23 207 23q310 0 310 -331v-90q0 -146 -71 -234q-75 -92 -208 -92q-138 0 -208 90q-66 83 -66 234v37zM82 337q0 -305 237 -305q242 0 242 307v8h-479v-10z" />
    <glyph glyph-name="uni04D9" unicode="&#x4d9;" horiz-adv-x="511" 
d="M55 259q0 19 19 19h338v21q0 116 -53 165q-43 39 -128 39q-65 0 -148 -17q-21 -4 -21 13v7q0 15 19 19q82 17 150 17q225 0 225 -243v-66q0 -107 -51 -171q-55 -68 -151 -68q-100 0 -151 66q-48 61 -48 172v27zM99 232q0 -199 155 -199q158 0 158 200v5h-313v-6z" />
    <glyph glyph-name="uni04A2" unicode="&#x4a2;" horiz-adv-x="647" 
d="M567 19q0 -19 -17 -19h-9q-17 0 -17 19v358h-400v-358q0 -19 -17 -19h-10q-17 0 -17 19v705q0 19 17 19h10q17 0 17 -19v-306h400v306q0 19 17 19h9q17 0 17 -19v-705zM550 41h63q34 0 34 -30v-125q0 -19 -17 -19h-9q-17 0 -17 19v114h-52z" />
    <glyph glyph-name="uni04A3" unicode="&#x4a3;" horiz-adv-x="521" 
d="M114 266v-247q0 -19 -19 -19h-6q-19 0 -19 19v499q0 19 19 19h6q19 0 19 -19v-211h293v211q0 19 19 19h6q19 0 19 -19v-499q0 -19 -19 -19h-6q-19 0 -19 19v247h-293zM428 41h59q34 0 34 -30v-125q0 -19 -17 -19h-9q-17 0 -17 19v114h-55z" />
    <glyph glyph-name="uni0492" unicode="&#x492;" horiz-adv-x="518" 
d="M124 19q0 -19 -17 -19h-10q-17 0 -17 19v612q0 112 121 112h258q19 0 19 -17v-8q0 -16 -19 -16h-258q-40 0 -56 -12q-21 -16 -21 -59v-612zM312 465q0 -16 -20 -16h-266q-20 0 -20 16v11q0 15 20 15h266q20 0 20 -15v-11z" />
    <glyph glyph-name="uni0493" unicode="&#x493;" horiz-adv-x="371" 
d="M174 496q-60 0 -60 -59v-418q0 -19 -17 -19h-10q-17 0 -17 19v418q0 100 104 100h133q19 0 19 -17v-7q0 -17 -19 -17h-133zM237 301q0 -14 -15 -14h-202q-15 0 -15 14v9q0 13 15 13h202q15 0 15 -13v-9z" />
    <glyph glyph-name="uni04AE" unicode="&#x4ae;" horiz-adv-x="551" 
d="M344 367q-22 -48 -47 -58v-290q0 -19 -17 -19h-10q-17 0 -17 19v290q-25 10 -47 58l-158 349q-12 27 14 27h10q10 0 16 -12l157 -350q16 -35 30 -35t30 35l157 350q6 12 16 12h10q26 0 14 -27z" />
    <glyph glyph-name="uni04AF" unicode="&#x4af;" horiz-adv-x="551" 
d="M295 7v-181q0 -19 -17 -19h-10q-17 0 -17 19v181q-25 10 -221 500q-12 27 14 27h10q10 0 16 -12q189 -478 203 -478t202 478q6 12 16 12h10q26 0 14 -27q-195 -490 -220 -500z" />
    <glyph glyph-name="uni04B0" unicode="&#x4b0;" horiz-adv-x="551" 
d="M344 367q-22 -48 -47 -58v-290q0 -19 -17 -19h-10q-17 0 -17 19v290q-25 10 -47 58l-158 349q-12 27 14 27h10q10 0 16 -12l157 -350q16 -35 30 -35t30 35l157 350q6 12 16 12h10q26 0 14 -27zM428 218q0 -16 -20 -16h-266q-20 0 -20 16v11q0 15 20 15h266q20 0 20 -15
v-11z" />
    <glyph glyph-name="uni04B1" unicode="&#x4b1;" horiz-adv-x="551" 
d="M389 -24q0 -14 -16 -14h-201q-15 0 -15 14v9q0 13 15 13h201q16 0 16 -13v-9zM295 7v-181q0 -19 -17 -19h-10q-17 0 -17 19v181q-25 10 -221 500q-12 27 14 27h10q10 0 16 -12q189 -478 203 -478t202 478q6 12 16 12h10q26 0 14 -27q-195 -490 -220 -500z" />
    <glyph glyph-name="uni049A" unicode="&#x49a;" horiz-adv-x="542" 
d="M493 -2q-15 0 -23 8l-346 360v-347q0 -19 -17 -19h-10q-17 0 -17 19v705q0 19 19 19h6q19 0 19 -19v-320l340 332q12 11 23 11q19 0 19 -17q0 -10 -8 -18l-336 -326l343 -356q7 -7 7 -16q0 -16 -19 -16zM446 41h63q34 0 34 -30v-125q0 -19 -17 -19h-9q-17 0 -17 19v114z
" />
    <glyph glyph-name="uni049B" unicode="&#x49b;" horiz-adv-x="444" 
d="M386 -6q-18 0 -30 12l-242 259v-246q0 -19 -19 -19h-6q-19 0 -19 19v499q0 19 19 19h6q19 0 19 -19v-215l246 230q11 9 24 9q20 0 20 -18q0 -9 -7 -15l-245 -224l246 -260q7 -9 7 -15q0 -16 -19 -16zM351 41h59q34 0 34 -30v-125q0 -19 -17 -19h-9q-17 0 -17 19v114h-22z
" />
    <glyph glyph-name="uni04BA" unicode="&#x4ba;" horiz-adv-x="505" 
d="M440 13q0 -19 -17 -19h-10q-16 0 -16 19v337q0 153 -148 153q-73 0 -135 -18v-472q0 -19 -17 -19h-10q-17 0 -17 19v711q0 19 17 19h10q17 0 17 -19v-200q70 18 135 18q191 0 191 -192v-337z" />
    <glyph glyph-name="uni04BB" unicode="&#x4bb;" horiz-adv-x="505" 
d="M440 13q0 -19 -17 -19h-10q-16 0 -16 19v337q0 153 -148 153q-73 0 -135 -18v-472q0 -19 -17 -19h-10q-17 0 -17 19v711q0 19 17 19h10q17 0 17 -19v-200q70 18 135 18q191 0 191 -192v-337z" />
    </font>
</defs>
</svg>
