<?xml version="1.0" standalone="no"?>
<!DOCTYPE svg PUBLIC "-//W3C//DTD SVG 1.1//EN" "http://www.w3.org/Graphics/SVG/1.1/DTD/svg11.dtd" >
<svg>
<metadata>
Created by FontForge 20090622 at Wed Oct 14 15:04:08 2015
 By deploy user
Digitised data (c) 2004 Monotype Imaging. All Rights Reserved. Neo Sans is designed by Sebastian Lester.
</metadata>
<defs>
<font id="NeoSansPro" horiz-adv-x="605" >
  <font-face 
    font-family="Neo Sans Pro"
    font-weight="400"
    font-stretch="normal"
    units-per-em="1000"
    panose-1="2 11 5 4 3 5 4 4 2 4"
    ascent="765"
    descent="-235"
    x-height="550"
    cap-height="743"
    bbox="-123.5 -216 1394 980"
    underline-thickness="57"
    underline-position="-21"
    unicode-range="U+001D-U+FB04"
  />
    <missing-glyph />
    <glyph glyph-name="uniFB01" unicode="fi" horiz-adv-x="628" 
d="M548 20q0 -20 -20 -20h-48q-20 0 -20 20v456h-231v-456q0 -20 -19 -20h-49q-20 0 -20 20v456l-97 11q-19 2 -19 18v27q0 18 19 18h97v72q0 77 37 110q33 29 103 29q30 0 56 -6q19 -5 19 -16v-33q0 -15 -18 -15h-48q-36 0 -48 -14q-13 -14 -13 -55v-72h299q20 0 20 -20
v-510zM550 658q0 -20 -20 -20h-51q-20 0 -20 20v80q0 20 20 20h51q20 0 20 -20v-80z" />
    <glyph glyph-name="uniFB02" unicode="fl" horiz-adv-x="625" 
d="M548 20q0 -20 -18 -20h-52q-18 0 -18 20v671h-164q-37 0 -51 -14q-16 -15 -16 -55v-72h105q19 0 19 -18v-39q0 -17 -19 -17h-105v-456q0 -20 -19 -20h-49q-20 0 -20 20v456l-97 11q-19 2 -19 18v27q0 18 19 18h97v72q0 139 146 139q119 0 191 -9h52q18 0 18 -19v-713z
" />
    <glyph glyph-name="uniFB00" unicode="ff" horiz-adv-x="700" 
d="M675 706q0 -15 -18 -15h-48q-36 0 -48 -14q-13 -14 -13 -55v-72h105q19 0 19 -18v-39q0 -17 -19 -17h-105v-456q0 -20 -19 -20h-49q-20 0 -20 20v456h-231v-456q0 -20 -19 -20h-49q-20 0 -20 20v456l-97 11q-19 2 -19 18v27q0 18 19 18h97v72q0 77 37 110q33 29 103 29
q30 0 56 -6q19 -5 19 -16v-33q0 -15 -18 -15h-48q-36 0 -48 -14q-13 -14 -13 -55v-72h231v72q0 77 37 110q33 29 103 29q30 0 56 -6q19 -5 19 -16v-33z" />
    <glyph glyph-name="uniFB03" unicode="ffi" horiz-adv-x="947" 
d="M867 20q0 -20 -20 -20h-48q-20 0 -20 20v456h-231v-456q0 -20 -19 -20h-49q-20 0 -20 20v456h-231v-456q0 -20 -19 -20h-49q-20 0 -20 20v456l-97 11q-19 2 -19 18v27q0 18 19 18h97v72q0 77 37 110q33 29 103 29q30 0 56 -6q19 -5 19 -16v-33q0 -15 -18 -15h-48
q-36 0 -48 -14q-13 -14 -13 -55v-72h231v72q0 77 37 110q33 29 103 29q30 0 56 -6q19 -5 19 -16v-33q0 -15 -18 -15h-48q-36 0 -48 -14q-13 -14 -13 -55v-72h299q20 0 20 -20v-510zM869 658q0 -20 -20 -20h-51q-20 0 -20 20v80q0 20 20 20h51q20 0 20 -20v-80z" />
    <glyph glyph-name="uniFB04" unicode="ffl" horiz-adv-x="944" 
d="M356 706q0 -15 -18 -15h-48q-36 0 -48 -14q-13 -14 -13 -55v-72h231v72q0 139 146 139q118 0 190 -9h52q18 0 18 -19v-713q0 -20 -18 -20h-52q-18 0 -18 20v671h-163q-37 0 -51 -14q-16 -15 -16 -55v-72h105q19 0 19 -18v-39q0 -17 -19 -17h-105v-456q0 -20 -19 -20h-49
q-20 0 -20 20v456h-231v-456q0 -20 -19 -20h-49q-20 0 -20 20v456l-97 11q-19 2 -19 18v27q0 18 19 18h97v72q0 77 37 110q33 29 103 29q30 0 56 -6q19 -5 19 -16v-33z" />
    <glyph glyph-name="f_b" unicode="fb" horiz-adv-x="933" 
d="M883 240q0 -247 -218 -247q-96 0 -184 17q-21 4 -21 23v658h-164q-37 0 -51 -14q-16 -15 -16 -55v-72h105q19 0 19 -18v-39q0 -17 -19 -17h-105v-456q0 -20 -19 -20h-49q-20 0 -20 20v456l-97 11q-19 2 -19 18v27q0 18 19 18h97v72q0 139 146 139q119 0 191 -9h51
q19 0 19 -19v-186q54 10 117 10q218 0 218 -245v-72zM795 312q0 84 -28 124q-31 44 -102 44q-78 0 -117 -7v-397q68 -6 117 -6q71 0 102 44q28 40 28 126v72z" />
    <glyph glyph-name="f_f_b" unicode="ffb" horiz-adv-x="1241" 
d="M356 706q0 -15 -18 -15h-48q-36 0 -48 -14q-13 -14 -13 -55v-72h231v72q0 139 146 139q108 0 180 -9h51q19 0 19 -19v-186q54 10 117 10q218 0 218 -245v-72q0 -247 -218 -247q-96 0 -184 17q-21 4 -21 23v658h-153q-37 0 -51 -14q-16 -15 -16 -55v-72h105q19 0 19 -18
v-39q0 -17 -19 -17h-105v-456q0 -20 -19 -20h-49q-20 0 -20 20v456h-231v-456q0 -20 -19 -20h-49q-20 0 -20 20v456l-97 11q-19 2 -19 18v27q0 18 19 18h97v72q0 77 37 110q33 29 103 29q30 0 56 -6q19 -5 19 -16v-33zM1103 312q0 84 -28 124q-31 44 -102 44q-78 0 -117 -7
v-397q68 -6 117 -6q71 0 102 44q28 40 28 126v72z" />
    <glyph glyph-name="f_f_h" unicode="ffh" horiz-adv-x="1257" 
d="M856 526q71 31 153 31q180 0 180 -208v-329q0 -20 -20 -20h-48q-20 0 -20 20v329q0 131 -107 131q-76 0 -138 -28v-432q0 -20 -20 -20h-49q-19 0 -19 20v671h-153q-37 0 -51 -14q-16 -15 -16 -55v-72h105q19 0 19 -18v-39q0 -17 -19 -17h-105v-456q0 -20 -19 -20h-49
q-20 0 -20 20v456h-231v-456q0 -20 -19 -20h-49q-20 0 -20 20v456l-97 11q-19 2 -19 18v27q0 18 19 18h97v72q0 77 37 110q33 29 103 29q30 0 56 -6q19 -5 19 -16v-33q0 -15 -18 -15h-48q-36 0 -48 -14q-13 -14 -13 -55v-72h231v72q0 139 146 139q108 0 180 -9h51
q19 0 19 -19v-207z" />
    <glyph glyph-name="f_f_k" unicode="ffk" horiz-adv-x="1196" 
d="M615 691q-37 0 -51 -14q-16 -15 -16 -55v-72h105q19 0 19 -18v-39q0 -17 -19 -17h-105v-456q0 -20 -19 -20h-49q-20 0 -20 20v456h-231v-456q0 -20 -19 -20h-49q-20 0 -20 20v456l-97 11q-19 2 -19 18v27q0 18 19 18h97v72q0 77 37 110q33 29 103 29q30 0 56 -6
q19 -5 19 -16v-33q0 -15 -18 -15h-48q-36 0 -48 -14q-13 -14 -13 -55v-72h231v72q0 139 146 139q108 0 180 -9h51q19 0 19 -19v-417l200 225q8 9 20 9h70q15 0 15 -11q0 -6 -5 -11l-220 -238l222 -268q3 -3 3 -9q0 -13 -11 -13h-72q-13 0 -23 13l-199 246v-239
q0 -20 -20 -20h-48q-20 0 -20 20v671h-153z" />
    <glyph glyph-name="f_h" unicode="fh" horiz-adv-x="949" 
d="M548 526q71 31 153 31q180 0 180 -208v-329q0 -20 -20 -20h-48q-20 0 -20 20v329q0 131 -107 131q-76 0 -138 -28v-432q0 -20 -20 -20h-49q-19 0 -19 20v671h-164q-37 0 -51 -14q-16 -15 -16 -55v-72h105q19 0 19 -18v-39q0 -17 -19 -17h-105v-456q0 -20 -19 -20h-49
q-20 0 -20 20v456l-97 11q-19 2 -19 18v27q0 18 19 18h97v72q0 139 146 139q119 0 191 -9h51q19 0 19 -19v-207z" />
    <glyph glyph-name="f_j" unicode="fj" horiz-adv-x="628" 
d="M548 -64q0 -75 -32 -105q-29 -28 -93 -28q-27 0 -54 4q-18 3 -18 16v37q0 14 21 14h41q28 0 38 12q9 12 9 50v540h-231v-456q0 -20 -19 -20h-49q-20 0 -20 20v456l-97 11q-19 2 -19 18v27q0 18 19 18h97v72q0 77 37 110q33 29 103 29q30 0 56 -6q19 -5 19 -16v-33
q0 -15 -18 -15h-48q-36 0 -48 -14q-13 -14 -13 -55v-72h301q18 0 18 -20v-594zM550 657q0 -19 -20 -19h-51q-20 0 -20 19v81q0 20 20 20h51q20 0 20 -20v-81z" />
    <glyph glyph-name="f_f_j" unicode="ffj" horiz-adv-x="947" 
d="M867 -64q0 -75 -32 -105q-29 -28 -93 -28q-27 0 -54 4q-18 3 -18 16v37q0 14 21 14h41q28 0 38 12q9 12 9 50v540h-231v-456q0 -20 -19 -20h-49q-20 0 -20 20v456h-231v-456q0 -20 -19 -20h-49q-20 0 -20 20v456l-97 11q-19 2 -19 18v27q0 18 19 18h97v72q0 77 37 110
q33 29 103 29q30 0 56 -6q19 -5 19 -16v-33q0 -15 -18 -15h-48q-36 0 -48 -14q-13 -14 -13 -55v-72h231v72q0 77 37 110q33 29 103 29q30 0 56 -6q19 -5 19 -16v-33q0 -15 -18 -15h-48q-36 0 -48 -14q-13 -14 -13 -55v-72h301q18 0 18 -20v-594zM869 657q0 -19 -20 -19h-51
q-20 0 -20 19v81q0 20 20 20h51q20 0 20 -20v-81z" />
    <glyph glyph-name="f_k" unicode="fk" horiz-adv-x="888" 
d="M296 691q-37 0 -51 -14q-16 -15 -16 -55v-72h105q19 0 19 -18v-39q0 -17 -19 -17h-105v-456q0 -20 -19 -20h-49q-20 0 -20 20v456l-97 11q-19 2 -19 18v27q0 18 19 18h97v72q0 139 146 139q119 0 191 -9h51q19 0 19 -19v-417l200 225q8 9 20 9h70q15 0 15 -11
q0 -6 -5 -11l-220 -238l222 -268q3 -3 3 -9q0 -13 -11 -13h-72q-13 0 -23 13l-199 246v-239q0 -20 -20 -20h-48q-20 0 -20 20v671h-164z" />
    <glyph glyph-name="uni001D" horiz-adv-x="500" 
d="M12 665h475v-665h-475v665zM250 375l161 243h-323zM60 91q0 -1 161 242l-161 242v-484zM278 333l162 -243v485zM250 290l-162 -242h323z" />
    <glyph glyph-name="nonmarkingreturn" unicode=" " horiz-adv-x="247" 
 />
    <glyph glyph-name="exclam" unicode="!" horiz-adv-x="217" 
d="M146 213q0 -19 -19 -19h-36q-20 0 -20 19l-7 520q0 19 20 19h50q20 0 20 -19zM152 19q0 -19 -19 -19h-48q-19 0 -19 19v94q0 19 19 19h48q19 0 19 -19v-94z" />
    <glyph glyph-name="quotedbl" unicode="&#x22;" horiz-adv-x="362" 
d="M332 733l-58 -189q-5 -19 -19 -19h-47q-9 0 -9 10q0 6 1 9l46 189q4 19 20 19h56q11 0 11 -11q0 -5 -1 -8zM162 733l-58 -189q-5 -19 -19 -19h-47q-9 0 -9 10q0 6 1 9l46 189q4 19 20 19h56q11 0 11 -11q0 -5 -1 -8z" />
    <glyph glyph-name="numbersign" unicode="#" horiz-adv-x="660" 
d="M608 488q-2 -19 -20 -19h-97l-18 -202h98q16 0 16 -19l-2 -23q-2 -19 -20 -19h-98l-16 -187q-2 -19 -18 -19h-44q-16 0 -16 17l16 189h-155l-16 -187q-2 -19 -18 -19h-45q-16 0 -16 17l16 189h-93q-16 0 -16 19l2 23q2 19 20 19h93l18 202h-94q-16 0 -16 19l2 24
q2 19 20 19h93l17 193q2 19 19 19h45q15 0 15 -17l-17 -195h155l17 193q2 19 19 19h44q15 0 15 -17l-17 -195h98q16 0 16 -19zM258 469l-18 -202h155l18 202h-155z" />
    <glyph glyph-name="dollar" unicode="$" 
d="M345 -3v-94q0 -20 -20 -20h-47q-20 0 -20 20v90q-72 1 -143 14q-19 3 -19 18v41q0 16 17 16h3q104 -9 165 -9q152 0 152 120q0 37 -26 65q-24 26 -94 69l-97 59q-138 84 -138 187q0 152 180 174v86q0 20 20 20h47q20 0 20 -20v-83q80 -3 146 -13q17 -3 17 -17v-43
q0 -16 -17 -16h-2q-132 9 -172 9q-79 0 -112 -21q-35 -22 -35 -76q0 -55 109 -121l92 -55q157 -93 157 -204q0 -171 -183 -196z" />
    <glyph glyph-name="percent" unicode="%" horiz-adv-x="794" 
d="M749 155q0 -162 -134 -162q-135 0 -135 162v93q0 162 135 162q134 0 134 -162v-93zM645 724l-418 -708q-11 -20 -22 -20h-49q-10 0 -10 8q0 7 4 12l418 708q11 19 23 19h51q8 0 8 -6q0 -3 -5 -13zM314 496q0 -162 -134 -162q-135 0 -135 162v93q0 161 135 161
q134 0 134 -161v-93zM687 248q0 105 -72 105q-73 0 -73 -105v-93q0 -105 73 -105q72 0 72 105v93zM252 589q0 105 -72 105q-73 0 -73 -105v-93q0 -105 73 -105q72 0 72 105v93z" />
    <glyph glyph-name="ampersand" unicode="&#x26;" horiz-adv-x="678" 
d="M630 0h-69q-9 0 -16 7l-50 54q-79 -68 -197 -68q-103 0 -168 41q-77 47 -77 142v8q0 61 34 106q32 41 110 91l-7 8q-104 119 -104 194v8q0 78 57 119q54 40 153 40q87 0 141 -40q58 -43 58 -119v-8q0 -53 -29 -92q-33 -45 -124 -106l-28 -19l181 -195q39 69 39 176v14
q0 16 16 16h43q17 0 17 -16v-14q0 -137 -63 -230l89 -95q5 -5 5 -11q0 -11 -11 -11zM412 591q0 92 -116 92q-128 0 -128 -92v-8q0 -56 85 -150l10 -11l34 21q72 44 94 72q21 26 21 68v8zM248 326q-60 -38 -81 -67q-22 -29 -22 -75v-8q0 -57 46 -87q41 -27 107 -27
q90 0 149 51z" />
    <glyph glyph-name="quoteright" unicode="&#x2019;" horiz-adv-x="186" 
d="M156 733l-61 -189q-5 -19 -19 -19h-38q-9 0 -9 10q0 6 1 9l37 189q4 19 20 19h59q11 0 11 -11q0 -5 -1 -8z" />
    <glyph glyph-name="parenleft" unicode="(" horiz-adv-x="305" 
d="M270 -209h-47q-14 0 -23 11q-140 170 -140 463v13q0 293 140 463q9 11 23 11h47q10 0 10 -8q0 -5 -3 -10q-129 -190 -129 -456v-13q0 -266 129 -456q3 -4 3 -10q0 -8 -10 -8z" />
    <glyph glyph-name="parenright" unicode=")" horiz-adv-x="305" 
d="M259 265q0 -293 -140 -463q-9 -11 -23 -11h-47q-10 0 -10 8q0 6 3 10q129 190 129 456v13q0 266 -129 456q-3 5 -3 10q0 8 10 8h47q14 0 23 -11q140 -170 140 -463v-13z" />
    <glyph glyph-name="asterisk" unicode="*" horiz-adv-x="465" 
d="M405 583l-125 -39l77 -106q5 -7 5 -13t-6 -11l-24 -18q-4 -3 -8 -3q-8 0 -15 10l-76 106l-76 -106q-7 -10 -15 -10q-3 0 -8 3l-25 18q-6 5 -6 11t5 13l78 106l-124 39q-15 6 -15 15l10 34q3 10 13 10q3 0 9 -2l124 -41v131q0 19 15 19h30q15 0 15 -19l-1 -131l125 41
q6 2 9 2q10 0 13 -10l9 -29q1 -2 1 -5q0 -10 -14 -15z" />
    <glyph glyph-name="plus" unicode="+" 
d="M530 371q0 -16 -20 -16h-172v-171q0 -20 -16 -20h-40q-16 0 -16 20v171h-171q-20 0 -20 16v40q0 16 20 16h171v172q0 20 16 20h40q16 0 16 -20v-172h172q20 0 20 -16v-40z" />
    <glyph glyph-name="comma" unicode="," horiz-adv-x="214" 
d="M167 110l-75 -189q-7 -19 -19 -19h-41q-12 0 -12 12q0 5 1 7l57 189q6 19 20 19h58q13 0 13 -11q0 -2 -2 -8z" />
    <glyph glyph-name="hyphen" unicode="-" horiz-adv-x="333" 
d="M285 273q0 -17 -19 -17h-199q-19 0 -19 17v39q0 18 19 18h199q19 0 19 -18v-39z" />
    <glyph glyph-name="period" unicode="." horiz-adv-x="214" 
d="M150 21q0 -20 -19 -20h-48q-19 0 -19 20v93q0 19 19 19h48q19 0 19 -19v-93z" />
    <glyph glyph-name="slash" unicode="/" horiz-adv-x="355" 
d="M332 723l-226 -703q-6 -20 -18 -20h-51q-14 0 -14 14q0 4 1 6l227 703q6 20 17 20h51q14 0 14 -14q0 -4 -1 -6z" />
    <glyph glyph-name="zero" unicode="0" 
d="M548 304q0 -311 -245 -311q-246 0 -246 311v135q0 311 246 311q245 0 245 -311v-135zM457 439q0 234 -154 234t-154 -234v-135q0 -234 154 -234t154 234v135z" />
    <glyph glyph-name="one" unicode="1" 
d="M90 0q-20 0 -20 18v44q0 17 20 17h159v570l-157 -66q-22 -8 -22 8v51q0 7 10 13l179 82q12 6 21 6h41q19 0 19 -19v-645h160q20 0 20 -17v-44q0 -18 -20 -18h-410z" />
    <glyph glyph-name="two" unicode="2" 
d="M396 378l-96 -65q-82 -55 -112 -102q-28 -44 -28 -111v-21h337q20 0 20 -17v-44q0 -18 -20 -18h-397q-20 0 -20 19v81q0 161 153 263l101 68q63 43 83 69q20 27 20 71q0 54 -34 79q-36 24 -116 24q-72 0 -177 -15h-4q-16 0 -16 18v35q0 14 19 18q78 20 178 20
q239 0 239 -179q0 -105 -130 -193z" />
    <glyph glyph-name="three" unicode="3" 
d="M521 207q0 -108 -70 -163q-64 -51 -179 -51q-82 0 -169 20q-19 4 -19 19v34q0 17 17 17h3q105 -14 168 -14q82 0 119 33t37 105v21q0 48 -24 81q-31 41 -93 41h-182q-19 0 -19 18v35q0 19 19 19h182q117 0 117 119v14q0 62 -36 90q-36 29 -120 29q-46 0 -168 -15h-3
q-17 0 -17 17v35q0 15 19 19q96 20 169 20q249 0 249 -195v-14q0 -108 -95 -156q95 -47 95 -157v-21z" />
    <glyph glyph-name="four" unicode="4" 
d="M567 216q0 -18 -19 -18h-87v-178q0 -20 -17 -20h-58q-17 0 -17 20v178h-289q-41 0 -41 39v38q0 21 12 37l296 415q10 16 29 16h59q26 0 26 -22v-447h87q19 0 19 -18v-40zM370 616q0 6 -4 6h-1q-4 0 -8 -6l-231 -328q-3 -4 -3 -8q0 -6 8 -6h239v342z" />
    <glyph glyph-name="five" unicode="5" 
d="M528 226q0 -111 -67 -172t-188 -61q-101 0 -176 18q-19 5 -19 20v37q0 15 15 15h5q80 -14 175 -14q163 0 163 157v15q0 74 -49 105q-48 29 -160 29h-120q-16 0 -16 17l28 334q2 17 20 17h344q20 0 20 -17v-44q0 -16 -20 -16h-287l-16 -216h47q148 0 220 -44
q81 -51 81 -165v-15z" />
    <glyph glyph-name="six" unicode="6" 
d="M546 246q0 -121 -60 -186q-63 -67 -184 -67q-242 0 -242 284v175q0 157 66 229q64 69 195 69q95 0 172 -17q23 -6 23 -19v-39q0 -18 -18 -18l-6 1q-82 16 -171 16q-106 0 -143 -62q-28 -46 -28 -160v-11q91 20 151 20q245 0 245 -209v-6zM456 252q0 138 -155 138
q-79 0 -151 -18v-95q0 -117 40 -166q35 -44 112 -44q154 0 154 179v6z" />
    <glyph glyph-name="seven" unicode="7" 
d="M520 628l-288 -613q-7 -15 -22 -15h-60q-15 0 -15 15q0 5 3 11l302 628q1 1 1 4q0 7 -7 7h-341q-20 0 -20 17v42q0 19 20 19h365q75 0 75 -63q0 -24 -13 -52z" />
    <glyph glyph-name="eight" unicode="8" 
d="M551 207q0 -105 -72 -162q-65 -52 -171 -52h-10q-106 0 -171 52q-72 57 -72 162v19q0 108 97 162q-95 48 -95 156v9q0 99 69 150q63 47 172 47h10q109 0 172 -47q69 -51 69 -150v-9q0 -108 -95 -156q97 -54 97 -162v-19zM461 553q0 123 -153 123h-10q-153 0 -153 -123v-9
q0 -51 29 -83q33 -37 98 -37h62q65 0 98 37q29 32 29 83v9zM460 226q0 50 -28 84q-35 42 -98 42h-62q-63 0 -97 -42q-29 -34 -29 -84v-19q0 -138 152 -138h10q152 0 152 138v19z" />
    <glyph glyph-name="nine" unicode="9" 
d="M537 291q0 -157 -66 -229q-64 -69 -195 -69q-95 0 -172 17q-24 6 -24 19v39q0 18 18 18l6 -1q82 -16 171 -16q107 0 144 62q28 46 28 160v11q-93 -20 -151 -20q-246 0 -246 209v6q0 121 61 186q63 67 183 67q243 0 243 -284v-175zM447 466q0 117 -40 166q-35 44 -112 44
q-155 0 -155 -179v-6q0 -138 155 -138q79 0 151 18z" />
    <glyph glyph-name="colon" unicode=":" horiz-adv-x="219" 
d="M153 437q0 -19 -20 -19h-47q-20 0 -20 19v93q0 20 20 20h47q20 0 20 -20v-93zM153 19q0 -19 -20 -19h-47q-20 0 -20 19v94q0 19 20 19h47q20 0 20 -19v-94z" />
    <glyph glyph-name="semicolon" unicode=";" horiz-adv-x="219" 
d="M153 437q0 -19 -19 -19h-49q-19 0 -19 19v93q0 20 19 20h49q19 0 19 -20v-93zM155 109l-75 -189q-8 -20 -19 -20h-40q-12 0 -12 13q0 5 1 7l57 189q6 19 20 19h57q13 0 13 -11q0 -2 -2 -8z" />
    <glyph glyph-name="less" unicode="&#x3c;" 
d="M470 140h-58q-15 0 -31 13l-241 204q-18 15 -18 34t18 34l241 204q16 13 31 13h58q12 0 12 -10q0 -8 -10 -17l-262 -224l262 -224q10 -9 10 -17q0 -10 -12 -10z" />
    <glyph glyph-name="equal" unicode="=" 
d="M515 482q0 -16 -20 -16h-385q-20 0 -20 16v40q0 16 20 16h385q20 0 20 -16v-40zM515 261q0 -16 -20 -16h-385q-20 0 -20 16v40q0 16 20 16h385q20 0 20 -16v-40z" />
    <glyph glyph-name="greater" unicode="&#x3e;" 
d="M465 357l-241 -204q-16 -13 -31 -13h-58q-12 0 -12 10q0 8 10 17l262 224l-262 224q-10 9 -10 17q0 10 12 10h58q15 0 31 -13l241 -204q18 -15 18 -34t-18 -34z" />
    <glyph glyph-name="question" unicode="?" horiz-adv-x="446" 
d="M386 587q0 -68 -91 -171l-45 -51q-53 -60 -53 -103v-49q0 -19 -20 -19h-44q-19 0 -19 19v49q0 79 66 151l46 51q62 68 62 123v12q0 72 -102 72q-54 0 -135 -9h-3q-15 0 -15 17v35q0 20 17 23q67 13 136 13q200 0 200 -151v-12zM198 19q0 -19 -19 -19h-48q-20 0 -20 19v93
q0 20 20 20h48q19 0 19 -20v-93z" />
    <glyph glyph-name="at" unicode="@" horiz-adv-x="767" 
d="M634 118q-84 -64 -270 -64q-75 0 -118 37q-43 36 -43 102q0 12 1 18l11 117q16 159 182 159q57 0 128 -15q21 -5 21 -21l-30 -317q87 13 120 76q26 50 26 156q0 100 -61 163q-67 69 -185 69q-129 0 -207 -70q-76 -68 -87 -184l-15 -152q-2 -22 -2 -32q0 -95 62 -151
q67 -62 190 -62q60 0 144 7h1q9 0 9 -7v-32q0 -12 -16 -14q-69 -8 -139 -8q-143 0 -229 74q-86 73 -86 194q0 21 1 31l15 156q13 139 107 222q98 86 255 86q147 0 232 -89q77 -81 77 -201q0 -176 -94 -248zM457 409q-42 6 -68 6q-82 0 -91 -89l-11 -114q-1 -6 -1 -17
q0 -69 82 -69h21q29 0 43 2z" />
    <glyph glyph-name="A" unicode="A" horiz-adv-x="633" 
d="M587 0h-59q-13 0 -17 15l-65 230h-259l-64 -230q-4 -15 -18 -15h-59q-17 0 -17 16q0 5 1 7l185 651q21 76 102 76q80 0 101 -75l185 -652q1 -2 1 -7q0 -16 -17 -16zM336 653q-5 18 -19 18q-15 0 -20 -18l-91 -329h221z" />
    <glyph glyph-name="B" unicode="B" horiz-adv-x="616" 
d="M566 205q0 -212 -292 -212q-106 0 -163 9q-33 4 -33 37v666q0 34 32 37q66 8 159 8q293 0 293 -193v-16q0 -116 -107 -157q111 -39 111 -162v-17zM471 557q0 67 -55 94q-46 22 -147 22q-15 0 -99 -3v-248h154q147 0 147 119v16zM475 222q0 127 -151 127h-154v-275l51 -2
q33 -2 53 -2q101 0 147 27q54 31 54 108v17z" />
    <glyph glyph-name="C" unicode="C" horiz-adv-x="545" 
d="M510 26q0 -16 -20 -20q-68 -13 -166 -13q-110 0 -178 63q-86 80 -86 246v139q0 167 86 246q68 63 178 63q67 0 168 -16q16 -2 16 -13v-51q0 -11 -12 -11h-3q-108 9 -168 9q-174 0 -174 -227v-139q0 -227 174 -227q69 0 165 8h4q16 0 16 -16v-41z" />
    <glyph glyph-name="D" unicode="D" horiz-adv-x="641" 
d="M584 304q0 -156 -82 -236q-78 -75 -221 -75q-124 0 -182 10q-21 3 -21 25v687q0 22 21 25q58 10 182 10q303 0 303 -311v-135zM493 439q0 233 -212 233q-61 0 -111 -3v-596q32 -2 111 -2q212 0 212 233v135z" />
    <glyph glyph-name="E" unicode="E" horiz-adv-x="551" 
d="M496 12q0 -12 -10 -14q-47 -5 -195 -5q-213 0 -213 186v385q0 186 213 186q132 0 195 -6q10 -2 10 -14v-50q0 -12 -11 -12h-193q-76 0 -101 -23q-22 -21 -22 -81v-139h307q20 0 20 -20v-38q0 -20 -20 -20h-307v-168q0 -60 22 -80q25 -24 101 -24h193q11 0 11 -12v-51z
" />
    <glyph glyph-name="F" unicode="F" horiz-adv-x="551" 
d="M496 367q0 -20 -20 -20h-307v-327q0 -20 -20 -20h-51q-20 0 -20 20v544q0 186 213 186q132 0 195 -6q10 -2 10 -14v-50q0 -12 -11 -12h-193q-76 0 -101 -23q-22 -21 -22 -81v-139h307q20 0 20 -20v-38z" />
    <glyph glyph-name="G" unicode="G" horiz-adv-x="612" 
d="M534 30q0 -19 -18 -22q-92 -15 -199 -15t-176 70q-83 82 -83 241v134q0 167 86 247q69 65 182 65q101 0 190 -14q17 -2 17 -15v-50q0 -10 -13 -10h-4q-83 7 -190 7q-177 0 -177 -230v-134q0 -117 49 -177q44 -53 119 -53q54 0 126 6v286q0 20 18 20h54q19 0 19 -20v-336z
" />
    <glyph glyph-name="H" unicode="H" horiz-adv-x="680" 
d="M602 20q0 -20 -20 -20h-51q-20 0 -20 20v332h-342v-332q0 -20 -20 -20h-51q-20 0 -20 20v703q0 20 20 20h51q20 0 20 -20v-290h342v290q0 20 20 20h51q20 0 20 -20v-703z" />
    <glyph glyph-name="I" unicode="I" horiz-adv-x="267" 
d="M179 20q0 -20 -18 -20h-55q-18 0 -18 20v704q0 19 18 19h55q18 0 18 -19v-704z" />
    <glyph glyph-name="J" unicode="J" horiz-adv-x="257" 
d="M179 -37q0 -143 -155 -143q-37 0 -53 8q-6 3 -6 11v37q0 17 20 17h39q38 0 52 17q12 14 12 53v761q0 19 19 19h53q19 0 19 -19v-761z" />
    <glyph glyph-name="K" unicode="K" horiz-adv-x="607" 
d="M551 0h-78q-13 0 -22 10l-282 343v-333q0 -20 -18 -20h-55q-18 0 -18 20v704q0 19 19 19h53q19 0 19 -19v-323l288 333q9 9 20 9h72q14 0 14 -11q0 -6 -4 -10l-301 -340l301 -360q5 -5 5 -12q0 -10 -13 -10z" />
    <glyph glyph-name="L" unicode="L" horiz-adv-x="514" 
d="M496 16q0 -12 -10 -14q-58 -9 -195 -9q-99 0 -147 31q-66 43 -66 155v544q0 20 20 20h51q20 0 20 -20v-544q0 -60 22 -80q25 -24 101 -24h193q11 0 11 -12v-47z" />
    <glyph glyph-name="M" unicode="M" horiz-adv-x="761" 
d="M684 20q0 -20 -20 -20h-49q-20 0 -20 20v593q0 3 -1 3t-2 -2l-143 -296q-14 -29 -45 -29h-46q-30 0 -45 29l-143 296q-1 2 -2 2t-1 -3v-593q0 -20 -20 -20h-49q-20 0 -20 20v694q0 29 29 29h65q24 0 32 -17l165 -343q5 -11 12 -11t12 11l165 343q8 17 32 17h65
q29 0 29 -29v-694z" />
    <glyph glyph-name="N" unicode="N" horiz-adv-x="680" 
d="M602 29q0 -29 -29 -29h-62q-24 0 -32 16l-309 587q-1 3 -3 3q-1 0 -1 -3v-584q0 -19 -18 -19h-52q-18 0 -18 12v703q0 28 29 28h55q30 0 41 -20l309 -587q1 0 1 3v585q0 19 18 19h53q18 0 18 -19v-695z" />
    <glyph glyph-name="O" unicode="O" horiz-adv-x="661" 
d="M601 307q0 -160 -76 -240q-70 -74 -194 -74t-194 74q-77 81 -77 240v129q0 159 77 240q70 74 194 74t194 -74q76 -80 76 -240v-129zM509 436q0 232 -178 232q-179 0 -179 -232v-129q0 -232 179 -232q178 0 178 232v129z" />
    <glyph glyph-name="P" unicode="P" horiz-adv-x="593" 
d="M548 520q0 -224 -280 -224q-35 0 -100 5v-281q0 -20 -18 -20h-54q-18 0 -18 20v697q0 22 24 25q69 8 166 8q280 0 280 -217v-13zM457 533q0 75 -46 108q-45 32 -143 32q-52 0 -100 -4v-293l100 -4q102 0 146 35q43 34 43 113v13z" />
    <glyph glyph-name="Q" unicode="Q" horiz-adv-x="661" 
d="M601 307q0 -285 -227 -312v-43q0 -37 12 -48q11 -10 50 -10h59q22 0 22 -16v-34q0 -24 -81 -24q-78 0 -112 26q-38 30 -38 105v45q-226 29 -226 311v129q0 159 77 240q70 74 194 74t194 -74q76 -80 76 -240v-129zM509 436q0 232 -178 232q-179 0 -179 -232v-129
q0 -232 179 -232q178 0 178 232v129z" />
    <glyph glyph-name="R" unicode="R" horiz-adv-x="625" 
d="M573 0h-64q-18 0 -26 13l-179 298h-26q-30 0 -110 3v-294q0 -20 -18 -20h-54q-18 0 -18 20v700q0 19 24 22q69 8 176 8q280 0 280 -215v-7q0 -161 -157 -202l182 -304q3 -4 3 -9q0 -13 -13 -13zM468 535q0 73 -48 104q-45 29 -142 29q-86 0 -110 -3v-274l110 -2
q97 0 141 29q49 32 49 110v7z" />
    <glyph glyph-name="S" unicode="S" horiz-adv-x="550" 
d="M253 -7q-78 0 -166 14q-19 3 -19 18v40q0 16 17 16h3q69 -6 165 -6q152 0 152 118q0 37 -26 65q-24 26 -94 69l-97 59q-138 84 -138 187q0 177 239 177q98 0 174 -12q17 -3 17 -17v-43q0 -16 -17 -16h-2q-88 6 -172 6q-79 0 -112 -20q-35 -21 -35 -75q0 -55 109 -121
l92 -55q157 -93 157 -204q0 -200 -247 -200z" />
    <glyph glyph-name="T" unicode="T" horiz-adv-x="590" 
d="M555 681q0 -16 -19 -16h-195v-645q0 -20 -18 -20h-55q-18 0 -18 20v645h-195q-20 0 -20 16v44q0 18 20 18h481q19 0 19 -18v-44z" />
    <glyph glyph-name="U" unicode="U" horiz-adv-x="662" 
d="M587 270q0 -277 -256 -277t-256 277v454q0 19 19 19h54q19 0 19 -19v-454q0 -101 36 -148q38 -51 128 -51t129 51q35 46 35 148v454q0 19 19 19h54q19 0 19 -19v-454z" />
    <glyph glyph-name="V" unicode="V" horiz-adv-x="643" 
d="M608 720l-184 -651q-22 -76 -102 -76t-102 76l-185 651q-1 2 -1 6q0 17 18 17h58q14 0 18 -15l174 -637q6 -21 20 -21q13 0 19 21l175 637q4 15 17 15h59q17 0 17 -17q0 -4 -1 -6z" />
    <glyph glyph-name="W" unicode="W" horiz-adv-x="825" 
d="M680 47q-9 -51 -62 -51h-43q-44 0 -57 50l-98 370q-2 9 -6 9h-2q-4 0 -6 -9l-99 -370q-13 -50 -57 -50h-42q-53 0 -62 51l-111 679q0 17 17 17h58q14 0 17 -17l97 -637q3 -15 5 -15q4 0 7 15l98 370q10 40 47 40h64q37 0 47 -40l98 -370q3 -15 7 -15q2 0 5 15l97 637
q3 17 17 17h58q17 0 17 -17z" />
    <glyph glyph-name="X" unicode="X" horiz-adv-x="646" 
d="M588 0h-63q-11 0 -21 15l-183 291l-179 -291q-10 -15 -21 -15h-59q-16 0 -16 15q0 6 3 10l222 353l-220 341q-3 5 -3 10q0 14 15 14h65q12 0 18 -10l180 -285l174 285q7 10 19 10h59q16 0 16 -15q0 -4 -3 -9l-215 -343l225 -351q3 -4 3 -11q0 -14 -16 -14z" />
    <glyph glyph-name="Y" unicode="Y" horiz-adv-x="583" 
d="M546 718l-155 -348q-24 -52 -54 -66v-284q0 -20 -18 -20h-55q-18 0 -18 20v284q-29 11 -54 66l-154 348q-3 6 -3 11q0 14 17 14h61q12 0 18 -14l138 -324q11 -26 23 -26t23 26l139 324q6 14 17 14h61q17 0 17 -14q0 -5 -3 -11z" />
    <glyph glyph-name="Z" unicode="Z" horiz-adv-x="597" 
d="M544 18q0 -18 -20 -18h-385q-48 0 -65 14q-18 14 -18 54q0 36 15 58l358 521q3 5 3 8q0 7 -10 7h-332q-20 0 -20 17v47q0 17 20 17h356q45 0 64 -12q21 -15 21 -54q0 -35 -16 -59l-357 -521q-3 -4 -3 -9q0 -6 10 -6h359q20 0 20 -17v-47z" />
    <glyph glyph-name="bracketleft" unicode="[" horiz-adv-x="327" 
d="M303 -174q0 -20 -20 -20h-186q-17 0 -17 19v899q0 19 17 19h186q20 0 20 -20v-33q0 -20 -20 -20h-114v-791h114q20 0 20 -20v-33z" />
    <glyph glyph-name="backslash" unicode="\" horiz-adv-x="355" 
d="M319 0h-51q-12 0 -18 20l-226 703q-1 2 -1 6q0 14 14 14h51q11 0 17 -20l227 -703q1 -2 1 -6q0 -14 -14 -14z" />
    <glyph glyph-name="bracketright" unicode="]" horiz-adv-x="327" 
d="M247 -175q0 -19 -17 -19h-186q-20 0 -20 20v33q0 20 20 20h114v791h-114q-20 0 -20 20v33q0 20 20 20h186q17 0 17 -19v-899z" />
    <glyph glyph-name="asciicircum" unicode="^" 
d="M494 563h-60q-13 0 -28 18l-103 120l-103 -120q-15 -18 -28 -18h-60q-11 0 -11 9q0 6 4 11l115 149q14 18 30 18h106q16 0 30 -18l115 -149q4 -5 4 -11q0 -9 -11 -9z" />
    <glyph glyph-name="underscore" unicode="_" horiz-adv-x="494" 
d="M525 -90q0 -16 -20 -16h-515q-20 0 -20 16v25q0 16 20 16h515q20 0 20 -16v-25z" />
    <glyph glyph-name="quoteleft" unicode="&#x2018;" horiz-adv-x="186" 
d="M156 733l-37 -189q-4 -19 -20 -19h-59q-11 0 -11 11q0 5 1 8l61 189q5 19 19 19h38q9 0 9 -10q0 -6 -1 -9z" />
    <glyph glyph-name="a" unicode="a" horiz-adv-x="519" 
d="M451 20q0 -20 -20 -20h-46q-20 0 -20 20v22q-84 -49 -154 -49q-163 0 -163 162v12q0 83 54 122q57 40 187 40h74v40q0 63 -24 88t-83 25q-73 0 -153 -8h-5q-18 0 -18 16v35q0 16 21 19q76 13 155 13q195 0 195 -188v-349zM363 266h-74q-89 0 -122 -22q-31 -21 -31 -76
v-12q0 -51 24 -72q21 -19 68 -19q61 0 135 40v161z" />
    <glyph glyph-name="b" unicode="b" horiz-adv-x="541" 
d="M491 240q0 -247 -218 -247q-96 0 -184 17q-21 4 -21 23v700q0 19 18 19h51q19 0 19 -19v-186q54 10 117 10q218 0 218 -245v-72zM403 312q0 84 -28 124q-31 44 -102 44q-78 0 -117 -7v-397q68 -6 117 -6q71 0 102 44q28 40 28 126v72z" />
    <glyph glyph-name="c" unicode="c" horiz-adv-x="452" 
d="M408 26q0 -18 -20 -22q-60 -11 -125 -11q-101 0 -157 66q-56 65 -56 177v78q0 112 55 177q57 66 158 66q65 0 125 -11q20 -4 20 -22v-36q0 -15 -17 -15h-4q-62 7 -124 7q-125 0 -125 -166v-78q0 -166 125 -166q62 0 124 7h4q17 0 17 -15v-36z" />
    <glyph glyph-name="d" unicode="d" horiz-adv-x="541" 
d="M473 33q0 -19 -21 -23q-88 -17 -184 -17q-109 0 -165 67q-53 64 -53 180v72q0 245 218 245q61 0 117 -10v186q0 19 19 19h51q18 0 18 -19v-700zM385 473q-38 7 -117 7q-71 0 -102 -44q-28 -40 -28 -124v-72q0 -86 28 -126q31 -44 102 -44q49 0 117 6v397z" />
    <glyph glyph-name="e" unicode="e" horiz-adv-x="544" 
d="M492 269q0 -22 -19 -22h-335v-14q0 -87 35 -126q33 -37 104 -37q106 0 178 11h5q16 0 16 -14v-34q0 -19 -20 -23q-88 -17 -179 -17q-99 0 -157 50q-70 61 -70 190v90q0 109 57 171q59 63 165 63q107 0 165 -64q55 -61 55 -170v-54zM403 323q0 157 -131 157
q-134 0 -134 -157v-9h265v9z" />
    <glyph glyph-name="f" unicode="f" horiz-adv-x="381" 
d="M356 706q0 -15 -18 -15h-48q-36 0 -48 -14q-13 -14 -13 -55v-72h105q19 0 19 -18v-39q0 -17 -19 -17h-105v-456q0 -20 -19 -20h-49q-20 0 -20 20v456l-97 11q-19 2 -19 18v27q0 18 19 18h97v72q0 77 37 110q33 29 103 29q30 0 56 -6q19 -5 19 -16v-33z" />
    <glyph glyph-name="g" unicode="g" horiz-adv-x="559" 
d="M523 502q0 -16 -18 -19l-36 -7q34 -36 34 -103v-8q0 -171 -222 -171q-68 0 -116 20q-25 -12 -25 -34q0 -24 31 -32l149 -38q94 -24 133 -48q59 -36 59 -99v-8q0 -155 -228 -155q-230 0 -230 159v9q0 79 63 127l-7 3q-46 20 -46 78v1q0 49 41 72q-46 43 -46 116v8
q0 177 222 177h219q23 0 23 -22v-26zM416 373q0 107 -135 107t-135 -107v-8q0 -102 135 -102t135 102v8zM424 -37q0 28 -27 45q-25 15 -95 33l-113 29q-49 -42 -49 -102v-9q0 -91 144 -91q81 0 113 23q27 19 27 64v8z" />
    <glyph glyph-name="h" unicode="h" horiz-adv-x="557" 
d="M489 20q0 -20 -20 -20h-48q-20 0 -20 20v329q0 131 -107 131q-76 0 -138 -28v-432q0 -20 -20 -20h-49q-19 0 -19 20v712q0 20 19 20h50q19 0 19 -20v-206q71 31 153 31q180 0 180 -208v-329z" />
    <glyph glyph-name="i" unicode="i" horiz-adv-x="247" 
d="M169 658q0 -20 -20 -20h-51q-20 0 -20 20v80q0 20 20 20h51q20 0 20 -20v-80zM167 20q0 -20 -20 -20h-48q-20 0 -20 20v510q0 20 20 20h48q20 0 20 -20v-510z" />
    <glyph glyph-name="j" unicode="j" horiz-adv-x="247" 
d="M169 657q0 -19 -20 -19h-51q-20 0 -20 19v81q0 20 20 20h51q20 0 20 -20v-81zM167 -64q0 -75 -32 -105q-29 -28 -93 -28q-27 0 -54 4q-18 3 -18 16v37q0 14 21 14h41q28 0 38 12q9 12 9 50v594q0 20 18 20h52q18 0 18 -20v-594z" />
    <glyph glyph-name="k" unicode="k" horiz-adv-x="496" 
d="M450 0h-72q-13 0 -23 13l-199 246v-239q0 -20 -20 -20h-48q-20 0 -20 20v712q0 20 20 20h48q20 0 20 -20v-416l200 225q8 9 20 9h70q15 0 15 -11q0 -6 -5 -11l-220 -238l222 -268q3 -3 3 -9q0 -13 -11 -13z" />
    <glyph glyph-name="l" unicode="l" horiz-adv-x="244" 
d="M166 20q0 -20 -18 -20h-52q-18 0 -18 20v713q0 19 18 19h52q18 0 18 -19v-713z" />
    <glyph glyph-name="m" unicode="m" horiz-adv-x="798" 
d="M730 20q0 -20 -20 -20h-48q-20 0 -20 20v354q0 107 -91 107q-47 0 -117 -27q9 -33 9 -78v-356q0 -20 -18 -20h-53q-17 0 -17 20v356q0 62 -19 85q-16 20 -58 20q-44 0 -122 -39v-422q0 -20 -18 -20h-53q-17 0 -17 20v510q0 20 19 20h50q19 0 19 -20v-19q75 47 146 47
q65 0 100 -41q87 41 166 41q162 0 162 -184v-354z" />
    <glyph glyph-name="n" unicode="n" horiz-adv-x="557" 
d="M489 20q0 -20 -20 -20h-48q-20 0 -20 20v329q0 74 -26 104q-25 28 -84 28q-57 0 -135 -39v-422q0 -20 -20 -20h-49q-19 0 -19 20v510q0 20 19 20h50q19 0 19 -20v-19q82 46 159 46q174 0 174 -208v-329z" />
    <glyph glyph-name="o" unicode="o" horiz-adv-x="545" 
d="M495 237q0 -113 -56 -177q-59 -67 -167 -67t-166 67q-56 64 -56 177v76q0 113 56 177q58 67 166 67t167 -67q56 -64 56 -177v-76zM407 313q0 167 -135 167q-134 0 -134 -167v-76q0 -167 134 -167q135 0 135 167v76z" />
    <glyph glyph-name="p" unicode="p" horiz-adv-x="541" 
d="M491 238q0 -245 -218 -245q-56 0 -117 11v-181q0 -19 -19 -19h-51q-18 0 -18 19v688q0 18 21 23q94 23 184 23q109 0 165 -67q53 -64 53 -180v-72zM403 310q0 173 -130 173q-61 0 -117 -10v-396q55 -10 117 -10q130 0 130 171v72z" />
    <glyph glyph-name="q" unicode="q" horiz-adv-x="541" 
d="M473 -177q0 -19 -18 -19h-51q-19 0 -19 19v181q-60 -11 -117 -11q-218 0 -218 245v72q0 247 218 247q90 0 184 -23q21 -5 21 -23v-688zM385 473q-54 10 -117 10q-130 0 -130 -173v-72q0 -171 130 -171q62 0 117 10v396z" />
    <glyph glyph-name="r" unicode="r" horiz-adv-x="342" 
d="M315 498q0 -17 -21 -17q-68 0 -138 -42v-419q0 -20 -20 -20h-49q-19 0 -19 20v510q0 20 19 20h47q19 0 19 -20v-21q69 48 141 48q21 0 21 -18v-41z" />
    <glyph glyph-name="s" unicode="s" horiz-adv-x="466" 
d="M229 -7q-97 0 -158 15q-21 5 -21 20v35q0 15 18 15h4q88 -11 157 -11q99 0 99 71q0 38 -75 83l-101 60q-102 62 -102 143q0 133 181 133q80 0 156 -13q19 -3 19 -20v-33q0 -17 -17 -17h-3q-93 8 -155 8q-48 0 -67 -10q-26 -13 -26 -48t69 -76l99 -59q110 -65 110 -151
q0 -145 -187 -145z" />
    <glyph glyph-name="t" unicode="t" horiz-adv-x="385" 
d="M360 15q0 -14 -18 -17q-33 -5 -65 -5q-73 0 -102 26q-34 29 -34 108v349l-97 11q-19 2 -19 18v27q0 18 19 18h97v98q0 17 18 20l55 8q15 0 15 -17v-109h108q20 0 20 -20v-34q0 -20 -20 -20h-108v-349q0 -40 12 -52q10 -11 42 -11h56q21 0 21 -14v-35z" />
    <glyph glyph-name="u" unicode="u" horiz-adv-x="557" 
d="M489 20q0 -20 -19 -20h-50q-19 0 -19 20v19q-82 -46 -159 -46q-174 0 -174 208v329q0 20 20 20h48q20 0 20 -20v-329q0 -74 27 -104q24 -28 83 -28q57 0 135 39v422q0 20 20 20h49q19 0 19 -20v-510z" />
    <glyph glyph-name="v" unicode="v" horiz-adv-x="530" 
d="M490 526l-135 -476q-16 -57 -90 -57t-90 57l-135 476q-1 3 -1 7q0 17 16 17h55q13 0 19 -19l115 -436q7 -29 21 -29t21 29l115 436q6 19 19 19h55q16 0 16 -17q0 -4 -1 -7z" />
    <glyph glyph-name="w" unicode="w" horiz-adv-x="786" 
d="M748 526l-97 -464q-10 -46 -24 -58q-14 -11 -60 -11q-40 0 -54 12q-16 14 -28 60l-87 340q-2 7 -5 7t-5 -7l-87 -340q-11 -44 -27 -58t-55 -14q-46 0 -60 11q-14 12 -24 58l-97 464v4q0 20 19 20h54q15 0 17 -16l83 -456q2 -12 8 -12q5 0 8 12l98 384q8 30 40 30h56
q32 0 40 -30l98 -384q3 -12 8 -12q6 0 8 12l83 456q2 16 17 16h54q19 0 19 -20v-4z" />
    <glyph glyph-name="x" unicode="x" horiz-adv-x="547" 
d="M498 0h-69q-9 0 -14 8l-143 209l-143 -207q-7 -10 -17 -10h-60q-12 0 -12 10q0 7 5 13l180 257l-170 245q-5 8 -5 13q0 12 15 12h65q11 0 20 -14l127 -188l128 188q10 14 21 14h58q13 0 13 -12q0 -5 -5 -13l-168 -239l183 -263q4 -5 4 -12q0 -11 -13 -11z" />
    <glyph glyph-name="y" unicode="y" horiz-adv-x="534" 
d="M494 526l-165 -576q-24 -84 -60 -114q-39 -34 -123 -34q-46 0 -84 9q-21 5 -21 16v37q0 16 19 16h3q66 -6 89 -6q44 0 65 16q22 18 34 69l10 41h-14q-54 0 -74 69l-133 457q-1 2 -1 7q0 17 18 17h55q13 0 17 -16l118 -434q6 -22 19 -22h16l122 457q4 15 19 15h56
q16 0 16 -17q0 -5 -1 -7z" />
    <glyph glyph-name="z" unicode="z" horiz-adv-x="482" 
d="M432 20q0 -20 -20 -20h-302q-61 0 -61 55v19q0 35 23 65l258 321q4 6 4 9q0 7 -10 7h-243q-20 0 -20 20v34q0 20 20 20h294q56 0 56 -49v-24q0 -28 -23 -55l-263 -329q-5 -5 -5 -11q0 -8 8 -8h264q20 0 20 -20v-34z" />
    <glyph glyph-name="braceleft" unicode="{" horiz-adv-x="331" 
d="M304 -174q0 -20 -20 -20h-51q-91 0 -122 29t-31 109v176q0 83 -60 125v58q60 42 60 124v178q0 80 31 109t122 29h50q20 0 20 -20v-33q0 -20 -20 -20h-45q-44 0 -57 -13q-12 -12 -12 -52v-178q0 -105 -71 -154q71 -50 71 -153v-176q0 -40 12 -52q13 -13 57 -13h46
q20 0 20 -20v-33z" />
    <glyph glyph-name="bar" unicode="|" horiz-adv-x="249" 
d="M169 -175q0 -19 -18 -19h-52q-19 0 -19 19v899q0 19 19 19h52q18 0 18 -19v-899z" />
    <glyph glyph-name="braceright" unicode="}" horiz-adv-x="331" 
d="M311 245q-60 -42 -60 -125v-176q0 -80 -31 -109t-122 -29h-51q-20 0 -20 20v33q0 20 20 20h46q44 0 57 13q12 12 12 52v176q0 103 71 153q-71 49 -71 154v178q0 40 -12 52q-13 13 -57 13h-45q-20 0 -20 20v33q0 20 20 20h50q91 0 122 -29t31 -109v-178q0 -82 60 -124v-58
z" />
    <glyph glyph-name="asciitilde" unicode="~" 
d="M514 467q0 -128 -109 -128q-40 0 -76 28l-73 58q-39 31 -53 31q-26 0 -35 -16q-7 -12 -7 -43v-26q0 -20 -20 -20h-29q-20 0 -20 20v26q0 130 111 130q40 0 75 -28l85 -68q24 -20 42 -20q27 0 34 13q6 10 6 43v28q0 20 20 20h29q20 0 20 -20v-28z" />
    <glyph glyph-name="exclamdown" unicode="&#xa1;" horiz-adv-x="217" 
d="M153 437q0 -19 -19 -19h-48q-19 0 -19 19v94q0 19 19 19h48q19 0 19 -19v-94zM84 -203q-19 0 -19 19l7 520q0 19 20 19h35q20 0 20 -19l8 -520q0 -19 -20 -19h-51z" />
    <glyph glyph-name="cent" unicode="&#xa2;" 
d="M482 26q0 -18 -20 -22q-45 -7 -94 -10v-90q0 -20 -20 -20h-41q-20 0 -20 20v94q-78 16 -121 79q-42 62 -42 159v78q0 97 42 159q43 63 121 79v93q0 20 20 20h41q20 0 20 -20v-89q49 -3 94 -10q20 -4 20 -22v-36q0 -15 -17 -15h-4q-70 8 -124 8q-125 0 -125 -167v-78
q0 -167 125 -167q54 0 124 8h4q17 0 17 -15v-36z" />
    <glyph glyph-name="sterling" unicode="&#xa3;" 
d="M535 17q0 -17 -20 -17h-399q-17 0 -17 15v39q0 6 10 23q31 53 31 118v152h-52q-18 0 -18 18v42q0 18 20 18h50v65q0 130 47 188q51 64 174 64q77 0 155 -13q19 -4 19 -17v-41q0 -17 -15 -17h-5q-97 11 -154 11q-77 0 -104 -37q-26 -36 -26 -138v-65h215q19 0 19 -18v-42
q0 -18 -20 -18h-214v-152q0 -55 -35 -119h319q20 0 20 -15v-44z" />
    <glyph glyph-name="fraction" unicode="&#x2044;" horiz-adv-x="255" 
d="M370 743q17 0 6 -19l-418 -708q-11 -20 -22 -20h-47q-20 0 -8 20l421 713q9 14 20 14h48z" />
    <glyph glyph-name="yen" unicode="&#xa5;" 
d="M569 231q0 -20 -20 -20h-200v-191q0 -20 -18 -20h-57q-17 0 -17 20v191h-201q-20 0 -20 20v30q0 20 20 20h201v21l-55 110h-146q-20 0 -20 20v30q0 20 20 20h111l-119 236q-3 8 -3 12q0 13 16 13h63q11 0 17 -14l162 -339l162 339q6 14 17 14h62q17 0 17 -14q0 -5 -3 -11
l-119 -236h110q20 0 20 -20v-30q0 -20 -20 -20h-145l-55 -110v-21h200q20 0 20 -20v-30z" />
    <glyph glyph-name="florin" unicode="&#x192;" 
d="M544 707q-1 -15 -24 -15h-55q-36 0 -52 -14q-17 -15 -22 -54l-27 -196h143q17 0 17 -15l-5 -40q-2 -18 -22 -18h-143l-50 -357q-20 -137 -160 -137q-31 0 -69 5q-17 3 -17 14l4 35q2 15 24 15h55q36 0 52 15q17 14 22 53l50 357h-128q-18 0 -18 16l5 39q2 18 23 18h128
l27 196q18 137 160 137q32 0 69 -5q17 -3 17 -14z" />
    <glyph glyph-name="section" unicode="&#xa7;" horiz-adv-x="547" 
d="M252 -216q-80 0 -168 14q-19 4 -19 19v42q0 17 20 17h2q108 -10 162 -10h3q84 0 120 32q30 28 30 85q0 40 -21 65q-22 26 -87 65l-112 67q-78 47 -107 89q-27 40 -27 99q0 51 34 105q-34 36 -34 101q0 176 239 176q100 0 175 -13q18 -4 18 -19v-43q0 -17 -18 -17l-88 5
q-54 4 -87 4q-84 0 -116 -22q-28 -21 -28 -71q0 -34 21 -58q20 -24 80 -59l109 -64q85 -50 118 -98q28 -41 28 -102q0 -65 -29 -109q29 -43 29 -101q0 -199 -247 -199zM386 258q-20 23 -81 61l-90 55q-63 40 -72 47q-9 -27 -9 -53q0 -62 89 -114l110 -64q31 -18 67 -43
q7 22 7 46q0 39 -21 65z" />
    <glyph glyph-name="currency" unicode="&#xa4;" 
d="M541 559l-82 -82q33 -46 33 -104q0 -59 -34 -106l82 -82q7 -7 7 -15q0 -7 -5 -12l-27 -27q-5 -5 -11 -5q-8 0 -15 7l-84 84q-46 -33 -102 -33q-57 0 -104 33l-82 -82q-8 -8 -16 -8q-5 0 -10 5l-27 28q-5 7 -5 11q0 8 7 15l81 81q-34 46 -34 106q0 58 32 103l-81 81
q-7 7 -7 15t5 12l28 27q5 5 11 5q7 0 15 -8l80 -80q47 34 106 34q58 0 106 -34l82 82q7 7 15 7q6 0 11 -5l27 -27q5 -5 5 -11q0 -8 -7 -15zM386 457q-35 35 -85 35t-85 -35t-35 -84t35 -85q36 -35 85 -35q50 0 85 35q35 36 35 85t-35 84z" />
    <glyph glyph-name="quotesingle" unicode="'" horiz-adv-x="192" 
d="M162 733l-58 -189q-5 -19 -19 -19h-47q-9 0 -9 10q0 6 1 9l46 189q4 19 20 19h56q11 0 11 -11q0 -5 -1 -8z" />
    <glyph glyph-name="quotedblleft" unicode="&#x201c;" horiz-adv-x="336" 
d="M306 733l-37 -189q-4 -19 -20 -19h-59q-11 0 -11 11q0 5 1 8l61 189q5 19 19 19h38q9 0 9 -10q0 -6 -1 -9zM156 733l-37 -189q-4 -19 -20 -19h-59q-11 0 -11 11q0 5 1 8l61 189q5 19 19 19h38q9 0 9 -10q0 -6 -1 -9z" />
    <glyph glyph-name="guillemotleft" unicode="&#xab;" horiz-adv-x="614" 
d="M549 70h-58q-11 0 -21 10l-169 169q-11 11 -11 28t11 28l169 169q10 10 21 10h58q11 0 11 -9q0 -7 -6 -13l-178 -185l178 -185q6 -6 6 -13q0 -9 -11 -9zM289 70h-58q-11 0 -21 10l-169 169q-11 11 -11 28t11 28l169 169q10 10 21 10h58q11 0 11 -9q0 -7 -6 -13l-178 -185
l178 -185q6 -6 6 -13q0 -9 -11 -9z" />
    <glyph glyph-name="guilsinglleft" unicode="&#x2039;" horiz-adv-x="354" 
d="M289 70h-58q-11 0 -21 10l-169 169q-11 11 -11 28t11 28l169 169q10 10 21 10h58q11 0 11 -9q0 -7 -6 -13l-178 -185l178 -185q6 -6 6 -13q0 -9 -11 -9z" />
    <glyph glyph-name="guilsinglright" unicode="&#x203a;" horiz-adv-x="354" 
d="M313 249l-169 -169q-10 -10 -21 -10h-58q-11 0 -11 9q0 7 6 13l178 185l-178 185q-6 6 -6 13q0 9 11 9h58q11 0 21 -10l169 -169q11 -11 11 -28t-11 -28z" />
    <glyph glyph-name="endash" unicode="&#x2013;" horiz-adv-x="310" 
d="M325 263q0 -17 -19 -17h-302q-19 0 -19 17v39q0 18 19 18h302q19 0 19 -18v-39z" />
    <glyph glyph-name="dagger" unicode="&#x2020;" horiz-adv-x="404" 
d="M367 495q0 -16 -19 -16h-109v-459q0 -20 -16 -20h-57q-16 0 -16 20v459h-94q-19 0 -19 16v45q0 15 19 15h94v178q0 19 17 19h56q16 0 16 -19v-178h109q19 0 19 -15v-45z" />
    <glyph glyph-name="daggerdbl" unicode="&#x2021;" horiz-adv-x="404" 
d="M367 285q0 -16 -19 -16h-109v-249q0 -20 -16 -20h-57q-16 0 -16 20v249h-94q-19 0 -19 16v45q0 15 19 15h94v134h-94q-19 0 -19 16v45q0 15 19 15h94v178q0 19 17 19h56q16 0 16 -19v-178h109q19 0 19 -15v-45q0 -16 -19 -16h-109v-134h109q19 0 19 -15v-45z" />
    <glyph glyph-name="periodcentered" unicode="&#xb7;" horiz-adv-x="214" 
d="M150 345q0 -20 -19 -20h-48q-19 0 -19 20v93q0 19 19 19h48q19 0 19 -19v-93z" />
    <glyph glyph-name="paragraph" unicode="&#xb6;" horiz-adv-x="622" 
d="M557 -176q0 -19 -17 -19h-23q-17 0 -17 19v865h-58v-865q0 -19 -17 -19h-23q-17 0 -17 19v439h-104q-106 0 -170 58q-66 59 -66 165v34q0 106 66 166q64 57 170 57h260q16 0 16 -19v-900z" />
    <glyph glyph-name="bullet" unicode="&#x2022;" horiz-adv-x="418" 
d="M322 255q-47 -47 -113 -47t-112 47q-47 46 -47 112t47 113q46 46 112 46t113 -46q46 -47 46 -113t-46 -112z" />
    <glyph glyph-name="quotesinglbase" unicode="&#x201a;" horiz-adv-x="186" 
d="M167 110l-75 -189q-7 -19 -19 -19h-41q-12 0 -12 12q0 5 1 7l57 189q6 19 20 19h58q13 0 13 -11q0 -2 -2 -8z" />
    <glyph glyph-name="quotedblbase" unicode="&#x201e;" horiz-adv-x="336" 
d="M347 110l-75 -189q-7 -19 -19 -19h-41q-12 0 -12 12q0 5 1 7l57 189q6 19 20 19h58q13 0 13 -11q0 -2 -2 -8zM167 110l-75 -189q-7 -19 -19 -19h-41q-12 0 -12 12q0 5 1 7l57 189q6 19 20 19h58q13 0 13 -11q0 -2 -2 -8z" />
    <glyph glyph-name="quotedblright" unicode="&#x201d;" horiz-adv-x="336" 
d="M306 733l-61 -189q-5 -19 -19 -19h-38q-9 0 -9 10q0 6 1 9l37 189q4 19 20 19h59q11 0 11 -11q0 -5 -1 -8zM156 733l-61 -189q-5 -19 -19 -19h-38q-9 0 -9 10q0 6 1 9l37 189q4 19 20 19h59q11 0 11 -11q0 -5 -1 -8z" />
    <glyph glyph-name="guillemotright" unicode="&#xbb;" horiz-adv-x="614" 
d="M573 249l-169 -169q-10 -10 -21 -10h-58q-11 0 -11 9q0 7 6 13l178 185l-178 185q-6 6 -6 13q0 9 11 9h58q11 0 21 -10l169 -169q11 -11 11 -28t-11 -28zM313 249l-169 -169q-10 -10 -21 -10h-58q-11 0 -11 9q0 7 6 13l178 185l-178 185q-6 6 -6 13q0 9 11 9h58
q11 0 21 -10l169 -169q11 -11 11 -28t-11 -28z" />
    <glyph glyph-name="ellipsis" unicode="&#x2026;" horiz-adv-x="606" 
d="M548 19q0 -19 -19 -19h-48q-20 0 -20 19v94q0 19 20 19h48q19 0 19 -19v-94zM347 19q0 -19 -20 -19h-48q-19 0 -19 19v94q0 19 19 19h48q20 0 20 -19v-94zM145 19q0 -19 -19 -19h-48q-20 0 -20 19v94q0 19 20 19h48q19 0 19 -19v-94z" />
    <glyph glyph-name="perthousand" unicode="&#x2030;" horiz-adv-x="1134" 
d="M1089 155q0 -162 -134 -162q-135 0 -135 162v93q0 162 135 162q134 0 134 -162v-93zM749 155q0 -162 -134 -162q-135 0 -135 162v93q0 162 135 162q134 0 134 -162v-93zM645 724l-418 -708q-11 -20 -22 -20h-52q-8 0 -8 6t5 14l418 708q11 19 23 19h51q8 0 8 -6
q0 -3 -5 -13zM314 496q0 -162 -134 -162q-135 0 -135 162v93q0 161 135 161q134 0 134 -161v-93zM1027 248q0 105 -72 105q-73 0 -73 -105v-93q0 -105 73 -105q72 0 72 105v93zM687 248q0 105 -72 105q-73 0 -73 -105v-93q0 -105 73 -105q72 0 72 105v93zM252 589
q0 105 -72 105q-73 0 -73 -105v-93q0 -105 73 -105q72 0 72 105v93z" />
    <glyph glyph-name="questiondown" unicode="&#xbf;" horiz-adv-x="446" 
d="M328 438q0 -20 -20 -20h-48q-19 0 -19 20v93q0 19 19 19h48q20 0 20 -19v-93zM406 -165q0 -20 -17 -23q-67 -13 -136 -13q-200 0 -200 151v12q0 68 91 171l45 51q53 60 53 103v49q0 19 20 19h44q19 0 19 -19v-49q0 -79 -66 -151l-46 -51q-62 -68 -62 -123v-12
q0 -72 102 -72q54 0 135 9h3q15 0 15 -17v-35z" />
    <glyph glyph-name="grave" unicode="`" horiz-adv-x="372" 
d="M234 623h-54q-9 0 -23 15l-113 126q-4 4 -4 8q0 7 11 7h66q13 0 25 -15l97 -124q4 -4 4 -10q0 -7 -9 -7z" />
    <glyph glyph-name="acute" unicode="&#xb4;" horiz-adv-x="373" 
d="M329 764l-113 -126q-13 -15 -23 -15h-54q-9 0 -9 7q0 6 4 10l98 124q12 15 24 15h66q11 0 11 -7q0 -4 -4 -8z" />
    <glyph glyph-name="circumflex" unicode="&#x2c6;" horiz-adv-x="373" 
d="M344 623h-52q-9 0 -23 15l-82 97l-83 -97q-13 -15 -23 -15h-52q-9 0 -9 7q0 6 4 10l96 124q12 15 24 15h85q13 0 25 -15l95 -124q4 -4 4 -10q0 -7 -9 -7z" />
    <glyph glyph-name="tilde" unicode="&#x2dc;" horiz-adv-x="493" 
d="M419 731q0 -105 -94 -105q-37 0 -64 21l-61 49q-28 22 -41 22q-31 0 -31 -46v-21q0 -17 -17 -17h-31q-16 0 -16 17v21q0 109 95 109q29 0 60 -24l71 -56q18 -14 35 -14q30 0 30 44v23q0 17 17 17h31q16 0 16 -17v-23z" />
    <glyph glyph-name="macron" unicode="&#xaf;" horiz-adv-x="373" 
d="M351 692q0 -17 -20 -17h-288q-20 0 -20 17v34q0 17 20 17h288q20 0 20 -17v-34z" />
    <glyph glyph-name="breve" unicode="&#x2d8;" horiz-adv-x="373" 
d="M350 762q-5 -66 -55 -105q-45 -36 -108 -36t-108 36q-50 39 -55 105v4q0 13 11 13h37q14 0 15 -16q4 -38 35 -60q27 -20 65 -20t65 20q31 22 35 60q1 16 15 16h37q11 0 11 -13v-4z" />
    <glyph glyph-name="dotaccent" unicode="&#x2d9;" horiz-adv-x="373" 
d="M230 658q0 -20 -19 -20h-48q-20 0 -20 20v84q0 19 20 19h48q19 0 19 -19v-84z" />
    <glyph glyph-name="dieresis" unicode="&#xa8;" horiz-adv-x="373" 
d="M314 660q0 -19 -20 -19h-39q-20 0 -20 19v81q0 20 20 20h39q20 0 20 -20v-81zM139 660q0 -19 -20 -19h-39q-20 0 -20 19v81q0 20 20 20h39q20 0 20 -20v-81z" />
    <glyph glyph-name="ring" unicode="&#x2da;" horiz-adv-x="373" 
d="M259 632q-30 -30 -72 -30t-72 30q-30 29 -30 71t30 72t72 30t72 -30q29 -30 29 -72t-29 -71zM224 741q-15 15 -37 15t-37 -15t-15 -37t15 -37q15 -16 37 -16t37 16q16 15 16 37t-16 37z" />
    <glyph glyph-name="cedilla" unicode="&#xb8;" horiz-adv-x="366" 
d="M250 -47l-113 -126q-13 -15 -23 -15h-54q-9 0 -9 7q0 6 4 10l97 124q12 15 25 15h66q11 0 11 -7q0 -4 -4 -8z" />
    <glyph glyph-name="hungarumlaut" unicode="&#x2dd;" horiz-adv-x="373" 
d="M408 764l-112 -126q-13 -15 -23 -15h-54q-9 0 -9 7q0 6 4 10l97 124q12 15 25 15h65q11 0 11 -7q0 -4 -4 -8zM233 764l-112 -126q-13 -15 -23 -15h-54q-9 0 -9 7q0 6 4 10l97 124q12 15 25 15h65q11 0 11 -7q0 -4 -4 -8z" />
    <glyph glyph-name="ogonek" unicode="&#x2db;" horiz-adv-x="366" 
d="M297 -179q0 -8 -11 -11q-30 -10 -76 -10q-131 0 -131 96q0 54 64 91l66 40q14 10 25 10h52q9 0 11 -7t-4 -12l-87 -60q-54 -37 -54 -62q0 -38 69 -38q19 0 45 5l26 5q5 0 5 -8v-39z" />
    <glyph glyph-name="caron" unicode="&#x2c7;" horiz-adv-x="373" 
d="M351 762l-97 -124q-12 -15 -25 -15h-85q-12 0 -24 15l-98 124q-4 4 -4 10q0 7 9 7h54q9 0 23 -16l83 -96l82 96q14 16 23 16h54q9 0 9 -7q0 -6 -4 -10z" />
    <glyph glyph-name="emdash" unicode="&#x2014;" horiz-adv-x="600" 
d="M615 263q0 -17 -19 -17h-592q-19 0 -19 17v39q0 18 19 18h592q19 0 19 -18v-39z" />
    <glyph glyph-name="AE" unicode="&#xc6;" horiz-adv-x="859" 
d="M804 14q0 -12 -10 -14q-65 -7 -165 -7q-213 0 -213 186v66h-239l-64 -230q-4 -15 -18 -15h-59q-17 0 -17 16q0 5 1 7l185 645q22 75 102 75h487q10 0 10 -14v-53q0 -12 -11 -12h-286v-239h277q20 0 20 -20v-38q0 -20 -20 -20h-277v-168q0 -60 22 -80q25 -24 101 -24h163
q11 0 11 -12v-49zM416 664h-109q-15 0 -20 -17l-91 -323h220v340z" />
    <glyph glyph-name="ordfeminine" unicode="&#xaa;" horiz-adv-x="294" 
d="M264 450q0 -13 -10 -16q-45 -13 -98 -13q-126 0 -126 98v7q0 92 142 92h32v13q0 63 -54 63q-26 0 -84 -5h-2q-14 0 -14 13v21q0 12 15 14q50 9 85 9q114 0 114 -115v-181zM205 576h-32q-48 -2 -66 -12q-19 -11 -19 -38v-7q0 -27 14 -39q15 -12 54 -12q22 0 49 5v103z" />
    <glyph glyph-name="Lslash" unicode="&#x141;" horiz-adv-x="514" 
d="M496 16q0 -12 -10 -14q-58 -9 -195 -9q-213 0 -213 186v117l-61 -75q-5 -6 -11 -6q-7 0 -7 6v64q0 13 7 22l72 89v327q0 20 20 20h51q20 0 20 -20v-216l68 84q6 7 11 7q7 0 7 -7v-65q0 -13 -8 -23l-78 -96v-228q0 -60 22 -80q25 -24 101 -24h193q11 0 11 -12v-47z" />
    <glyph glyph-name="Oslash" unicode="&#xd8;" horiz-adv-x="661" 
d="M630 727l-71 -98q42 -75 42 -193v-129q0 -160 -76 -240q-70 -74 -194 -74q-114 0 -183 63l-31 -44q-14 -19 -25 -19h-53q-11 0 -11 11q0 4 3 8l72 100q-43 74 -43 195v129q0 159 77 240q70 74 194 74q116 0 184 -64l29 41q14 19 26 19h52q11 0 11 -11q0 -3 -3 -8z
M462 613q-45 55 -131 55q-179 0 -179 -232v-129q0 -59 13 -108zM509 436q0 63 -12 106l-297 -414q44 -53 131 -53q178 0 178 232v129z" />
    <glyph glyph-name="OE" unicode="&#x152;" horiz-adv-x="983" 
d="M928 15q0 -12 -10 -14q-58 -9 -195 -9q-147 0 -191 83q-70 -82 -201 -82q-124 0 -194 74q-77 81 -77 240v129q0 159 77 240q70 74 194 74q131 0 201 -82q45 82 191 82q137 0 195 -9q10 -2 10 -14v-47q0 -12 -11 -12h-193q-76 0 -101 -23q-22 -21 -22 -81v-139h307
q20 0 20 -20v-38q0 -20 -20 -20h-307v-169q0 -60 22 -80q25 -24 101 -24h193q11 0 11 -12v-47zM510 440q0 228 -179 228t-179 -232v-129q0 -232 179 -232t179 231v134z" />
    <glyph glyph-name="ordmasculine" unicode="&#xba;" horiz-adv-x="322" 
d="M291 566q0 -145 -129 -145q-130 0 -130 145v35q0 145 130 145q129 0 129 -145v-35zM230 601q0 92 -68 92q-70 0 -70 -92v-35q0 -93 70 -93q68 0 68 93v35z" />
    <glyph glyph-name="ae" unicode="&#xe6;" horiz-adv-x="853" 
d="M803 269q0 -22 -19 -22h-333v-32q0 -148 146 -148q79 0 171 14h5q16 0 16 -14v-34q0 -19 -20 -23q-88 -17 -177 -17q-117 0 -173 59q-68 -59 -180 -59q-81 0 -133 39q-58 44 -58 126v9q0 84 54 122q56 40 187 40h75v40q0 63 -25 88q-24 25 -83 25q-73 0 -153 -8h-5
q-18 0 -18 16v35q0 16 21 19q76 13 155 13q119 0 166 -70q59 70 163 70q106 0 164 -70q54 -65 54 -176v-42zM716 319q0 163 -131 163q-64 0 -99 -43q-35 -42 -35 -120v-5h265v5zM364 265h-75q-89 0 -121 -22q-31 -21 -31 -76v-9q0 -95 114 -95q72 0 113 31v171z" />
    <glyph glyph-name="dotlessi" unicode="&#x131;" horiz-adv-x="247" 
d="M167 20q0 -20 -20 -20h-48q-20 0 -20 20v510q0 20 20 20h48q20 0 20 -20v-510z" />
    <glyph glyph-name="lslash" unicode="&#x142;" horiz-adv-x="244" 
d="M248 522q0 -8 -6 -16l-76 -94v-392q0 -20 -18 -20h-52q-18 0 -18 20v284l-68 -83q-4 -5 -9 -5q-9 0 -9 8v61q0 14 7 22l79 97v329q0 19 18 19h52q18 0 18 -19v-221l64 79q4 5 9 5q9 0 9 -9v-65z" />
    <glyph glyph-name="oslash" unicode="&#xf8;" horiz-adv-x="545" 
d="M524 564l-70 -94q41 -62 41 -157v-76q0 -113 -56 -177q-59 -67 -167 -67q-85 0 -139 42l-44 -60q-8 -10 -16 -10h-49q-8 0 -8 8q0 7 4 11l71 96q-41 62 -41 157v76q0 113 56 177q58 67 166 67q86 0 140 -42l42 58q8 10 16 10h50q8 0 8 -8q0 -7 -4 -11zM362 449
q-34 31 -90 31q-134 0 -134 -167v-76q0 -46 10 -79zM407 313q0 42 -11 78l-214 -290q33 -31 90 -31q135 0 135 167v76z" />
    <glyph glyph-name="oe" unicode="&#x153;" horiz-adv-x="899" 
d="M849 269q0 -22 -19 -22h-335v-10q0 -83 28 -121q32 -46 111 -46q106 0 178 11h5q16 0 16 -14v-34q0 -19 -20 -23q-88 -17 -179 -17q-128 0 -184 82q-58 -82 -178 -82q-108 0 -166 67q-56 64 -56 177v76q0 113 56 177q58 67 166 67q121 0 179 -82q57 82 178 82
q107 0 165 -64q55 -61 55 -170v-54zM760 323q0 157 -131 157q-134 0 -134 -157v-9h265v9zM407 313q0 167 -135 167q-134 0 -134 -167v-76q0 -167 134 -167q135 0 135 167v76z" />
    <glyph glyph-name="germandbls" unicode="&#xdf;" horiz-adv-x="581" 
d="M527 215q0 -112 -71 -170q-63 -52 -166 -52q-18 0 -48 3q-20 2 -20 19v41q0 11 11 11l43 -1q162 0 162 149v14q0 57 -39 91q-42 37 -116 37h-37q-20 0 -20 20v29q0 20 20 20h37q71 0 108 37q32 33 32 85v12q0 121 -131 121q-138 0 -138 -167v-493q0 -21 -18 -21h-53
q-18 0 -18 21v493q0 122 61 185q59 59 166 59q100 0 157 -47q62 -52 62 -151v-12q0 -108 -105 -154q121 -43 121 -165v-14z" />
    <glyph glyph-name="logicalnot" unicode="&#xac;" 
d="M515 247q0 -20 -20 -20h-32q-20 0 -20 20v219h-333q-20 0 -20 16v40q0 16 20 16h388q17 0 17 -17v-274z" />
    <glyph glyph-name="mu" unicode="&#xb5;" horiz-adv-x="557" 
d="M489 44q0 -17 -19 -23q-76 -28 -185 -28q-79 0 -129 29v-198q0 -20 -20 -20h-48q-20 0 -20 20v706q0 20 19 20h50q19 0 19 -20v-329q0 -133 129 -133q68 0 116 14v448q0 20 20 20h49q19 0 19 -20v-486z" />
    <glyph glyph-name="trademark" unicode="&#x2122;" horiz-adv-x="790" 
d="M747 346q0 -10 -10 -10h-41q-10 0 -10 10v240q0 63 -16 81q-20 22 -89 22v-343q0 -10 -10 -10h-42q-10 0 -10 10v343q-50 0 -106 -6v-337q0 -10 -9 -10h-41q-10 0 -10 10v371q0 18 15 19q97 10 182 10q110 0 150 -29q47 -34 47 -131v-240zM317 703q0 -14 -17 -14h-97
v-337q0 -16 -16 -16h-32q-15 0 -15 16v337h-99q-16 0 -16 14v25q0 15 16 15h259q17 0 17 -15v-25z" />
    <glyph glyph-name="Eth" unicode="&#xd0;" horiz-adv-x="641" 
d="M584 304q0 -156 -82 -236q-78 -75 -221 -75q-124 0 -182 10q-21 3 -21 25v319h-38q-20 0 -20 20v38q0 20 20 20h38v290q0 22 21 25q58 10 182 10q303 0 303 -311v-135zM493 439q0 233 -212 233q-61 0 -111 -3v-244h103q20 0 20 -20v-38q0 -20 -20 -20h-103v-274
q32 -2 111 -2q212 0 212 233v135z" />
    <glyph glyph-name="onehalf" unicode="&#xbd;" horiz-adv-x="744" 
d="M575 724l-418 -708q-11 -20 -22 -20h-49q-10 0 -10 8q0 7 4 12l418 708q11 19 23 19h51q8 0 8 -6q0 -3 -5 -13zM57 645q-17 -6 -17 13v28q0 10 10 13l80 38q12 6 32 6h6q17 0 17 -19v-378q0 -19 -17 -19h-30q-17 0 -17 19v326zM632 204q-39 -25 -52 -35q-72 -48 -72 -107
v-4h173q18 0 18 -17v-23q0 -18 -18 -18h-214q-18 0 -18 18v44q0 91 86 148l54 36q52 38 52 69q0 48 -73 48q-38 0 -97 -9q-16 0 -16 18v19q0 13 15 18q40 10 98 10q136 0 136 -104q0 -58 -72 -111z" />
    <glyph glyph-name="plusminus" unicode="&#xb1;" 
d="M530 371q0 -16 -20 -16h-172v-171q0 -20 -16 -20h-40q-16 0 -16 20v171h-171q-20 0 -20 16v40q0 16 20 16h171v172q0 20 16 20h40q16 0 16 -20v-172h172q20 0 20 -16v-40zM530 16q0 -16 -20 -16h-415q-20 0 -20 16v33q0 16 20 16h415q20 0 20 -16v-33z" />
    <glyph glyph-name="Thorn" unicode="&#xde;" horiz-adv-x="593" 
d="M548 426q0 -226 -281 -226q-57 0 -99 3v-183q0 -20 -16 -20h-56q-18 0 -18 20v704q0 19 18 19h55q17 0 17 -19v-69q78 3 97 3q283 0 283 -218v-14zM457 440q0 76 -48 109q-45 30 -142 30q-77 0 -99 -2v-296q69 -3 99 -3q98 0 143 34q47 36 47 114v14z" />
    <glyph glyph-name="onequarter" unicode="&#xbc;" horiz-adv-x="741" 
d="M575 724l-418 -708q-11 -20 -22 -20h-49q-10 0 -10 8q0 7 4 12l418 708q11 19 23 19h51q8 0 8 -6q0 -3 -5 -13zM57 645q-17 -6 -17 13v28q0 10 10 13l80 38q12 6 32 6h6q17 0 17 -19v-378q0 -19 -17 -19h-30q-17 0 -17 19v326zM701 124q0 -17 -19 -17h-38v-88
q0 -19 -18 -19h-31q-17 0 -17 19v88h-147q-31 0 -31 28v20q0 15 8 26l162 224q6 11 20 11h31q23 0 23 -20v-233h38q19 0 19 -17v-22zM579 325l-113 -162h113v162z" />
    <glyph glyph-name="divide" unicode="&#xf7;" 
d="M345 527q0 -20 -19 -20h-48q-20 0 -20 20v88q0 19 20 19h48q19 0 19 -19v-88zM515 371q0 -16 -20 -16h-385q-20 0 -20 16v40q0 16 20 16h385q20 0 20 -16v-40zM345 162q0 -19 -19 -19h-48q-20 0 -20 19v89q0 19 20 19h48q19 0 19 -19v-89z" />
    <glyph glyph-name="brokenbar" unicode="&#xa6;" horiz-adv-x="249" 
d="M169 362q0 -20 -18 -20h-53q-18 0 -18 20v347q0 19 18 19h53q18 0 18 -19v-347zM169 -191q0 -20 -18 -20h-53q-18 0 -18 20v347q0 19 18 19h53q18 0 18 -19v-347z" />
    <glyph glyph-name="degree" unicode="&#xb0;" horiz-adv-x="342" 
d="M272 508q-41 -42 -100 -42t-101 42t-42 100t42 100t101 42t100 -42q42 -41 42 -100q0 -58 -42 -100zM234 670q-26 26 -62 26t-62 -26t-26 -62t26 -62t62 -26t62 26t26 62t-26 62z" />
    <glyph glyph-name="thorn" unicode="&#xfe;" horiz-adv-x="541" 
d="M491 238q0 -245 -218 -245q-56 0 -117 11v-181q0 -19 -19 -19h-51q-18 0 -18 19v909q0 20 20 20h48q20 0 20 -20v-185q65 10 117 10q109 0 165 -67q53 -64 53 -180v-72zM403 310q0 173 -130 173q-61 0 -117 -10v-396q55 -10 117 -10q130 0 130 171v72z" />
    <glyph glyph-name="threequarters" unicode="&#xbe;" horiz-adv-x="826" 
d="M659 724l-418 -708q-11 -20 -22 -20h-49q-10 0 -10 8q0 7 4 12l418 708q11 19 23 19h51q8 0 8 -6q0 -3 -5 -13zM786 124q0 -17 -19 -17h-38v-88q0 -19 -18 -19h-31q-17 0 -17 19v88h-147q-31 0 -31 28v20q0 15 8 26l162 224q6 11 20 11h31q23 0 23 -20v-233h38
q19 0 19 -17v-22zM664 325l-113 -162h113v162zM291 446q0 -123 -142 -123q-38 0 -93 11q-16 4 -16 18v18q0 18 19 18q53 -8 90 -8q76 0 76 66v11q0 59 -55 59h-98q-17 0 -17 16v20q0 17 17 17h98q55 0 55 57v7q0 57 -76 57q-20 0 -80 -8l-12 -1q-17 0 -17 18v18q0 13 15 19
q50 10 94 10q142 0 142 -113v-7q0 -56 -43 -84q43 -27 43 -85v-11z" />
    <glyph glyph-name="registered" unicode="&#xae;" horiz-adv-x="598" 
d="M490 294q-79 -78 -191 -78t-190 78q-79 78 -79 190t79 190q78 79 190 79t191 -79q79 -78 79 -190t-79 -190zM461 646q-67 67 -162 67q-94 0 -161 -67q-66 -67 -66 -162q0 -94 66 -161q67 -66 161 -66q95 0 162 66q67 67 67 161q0 95 -67 162zM413 318h-28q-8 0 -12 8
l-81 128l-12 3h-40v-124q0 -15 -14 -15h-25q-13 0 -13 15v302q0 21 18 22q23 3 76 3q131 0 131 -101v-4q0 -71 -67 -90l77 -125q2 -4 2 -9q0 -13 -12 -13zM363 559q0 54 -78 54h-46v-112l46 -1q78 0 78 55v4z" />
    <glyph glyph-name="minus" unicode="&#x2212;" 
d="M526 371q0 -16 -20 -16h-415q-20 0 -20 16v40q0 16 20 16h415q20 0 20 -16v-40z" />
    <glyph glyph-name="eth" unicode="&#xf0;" horiz-adv-x="545" 
d="M495 243q0 -250 -221 -250q-224 0 -224 250v55q0 121 57 185q58 65 166 65q72 0 112 -36q-32 83 -147 137l-86 -66q-7 -6 -13 -6q-5 0 -11 6l-17 19q-3 3 -3 7q0 9 10 17l61 47q-45 15 -79 22q-16 4 -16 15q0 3 1 5l12 34q4 11 14 11q5 0 8 -1q71 -17 124 -37l94 71
q5 4 13 4q7 0 12 -5l17 -18q4 -4 4 -8q0 -6 -10 -14l-73 -56q111 -63 155 -157q40 -86 40 -241v-55zM407 298q0 175 -134 175t-134 -175v-55q0 -174 135 -174q133 0 133 174v55z" />
    <glyph glyph-name="multiply" unicode="&#xd7;" 
d="M483 233l-28 -28q-5 -5 -10 -5q-8 0 -16 8l-132 132l-131 -131q-8 -8 -16 -8q-5 0 -10 5l-28 28q-5 5 -5 10q0 8 8 16l131 131l-131 132q-8 8 -8 15q0 5 5 10l28 28q5 5 11 5q8 0 15 -7l131 -132l132 132q8 8 16 8q5 0 10 -5l28 -28q5 -5 5 -10q0 -8 -8 -16l-132 -132
l132 -132q8 -8 8 -16q0 -5 -5 -10z" />
    <glyph glyph-name="copyright" unicode="&#xa9;" horiz-adv-x="750" 
d="M604 145q-96 -95 -230 -95t-229 95t-95 229q0 135 95 231t229 96t230 -96q96 -97 96 -231t-96 -229zM574 574q-83 83 -200 83t-199 -83t-82 -200t82 -198q82 -82 199 -82t200 82q82 81 82 198t-82 200zM476 183q0 -13 -15 -15q-35 -7 -91 -7q-153 0 -153 183v66
q0 184 153 184q51 0 91 -8q15 -2 15 -14v-28q0 -12 -13 -12h-3q-52 5 -90 5q-91 0 -91 -127v-66q0 -126 91 -126q38 0 90 5h2q14 0 14 -13v-27z" />
    <glyph glyph-name="Aacute" unicode="&#xc1;" horiz-adv-x="633" 
d="M587 0h-59q-13 0 -17 15l-65 230h-259l-64 -230q-4 -15 -18 -15h-59q-17 0 -17 16q0 5 1 7l185 651q21 76 102 76q80 0 101 -75l185 -652q1 -2 1 -7q0 -16 -17 -16zM336 653q-5 18 -19 18q-15 0 -20 -18l-91 -329h221zM465 935l-113 -126q-13 -15 -23 -15h-54q-9 0 -9 7
q0 6 4 10l98 124q12 15 24 15h66q11 0 11 -7q0 -4 -4 -8z" />
    <glyph glyph-name="Acircumflex" unicode="&#xc2;" horiz-adv-x="633" 
d="M587 0h-59q-13 0 -17 15l-65 230h-259l-64 -230q-4 -15 -18 -15h-59q-17 0 -17 16q0 5 1 7l185 651q21 76 102 76q80 0 101 -75l185 -652q1 -2 1 -7q0 -16 -17 -16zM336 653q-5 18 -19 18q-15 0 -20 -18l-91 -329h221zM479 794h-52q-9 0 -23 15l-82 97l-83 -97
q-13 -15 -23 -15h-52q-9 0 -9 7q0 6 4 10l96 124q12 15 24 15h85q13 0 25 -15l95 -124q4 -4 4 -10q0 -7 -9 -7z" />
    <glyph glyph-name="Adieresis" unicode="&#xc4;" horiz-adv-x="633" 
d="M587 0h-59q-13 0 -17 15l-65 230h-259l-64 -230q-4 -15 -18 -15h-59q-17 0 -17 16q0 5 1 7l185 651q21 76 102 76q80 0 101 -75l185 -652q1 -2 1 -7q0 -16 -17 -16zM336 653q-5 18 -19 18q-15 0 -20 -18l-91 -329h221zM450 827q0 -19 -20 -19h-39q-20 0 -20 19v81
q0 20 20 20h39q20 0 20 -20v-81zM275 827q0 -19 -20 -19h-39q-20 0 -20 19v81q0 20 20 20h39q20 0 20 -20v-81z" />
    <glyph glyph-name="Agrave" unicode="&#xc0;" horiz-adv-x="633" 
d="M587 0h-59q-13 0 -17 15l-65 230h-259l-64 -230q-4 -15 -18 -15h-59q-17 0 -17 16q0 5 1 7l185 651q21 76 102 76q80 0 101 -75l185 -652q1 -2 1 -7q0 -16 -17 -16zM336 653q-5 18 -19 18q-15 0 -20 -18l-91 -329h221zM376 794h-54q-9 0 -23 15l-113 126q-4 4 -4 8
q0 7 11 7h66q13 0 25 -15l97 -124q4 -4 4 -10q0 -7 -9 -7z" />
    <glyph glyph-name="Aring" unicode="&#xc5;" horiz-adv-x="633" 
d="M587 0h-59q-13 0 -17 15l-65 230h-259l-64 -230q-4 -15 -18 -15h-59q-17 0 -17 16q0 5 1 7l185 651q21 76 102 76q80 0 101 -75l185 -652q1 -2 1 -7q0 -16 -17 -16zM336 653q-5 18 -19 18q-15 0 -20 -18l-91 -329h221zM388 807q-30 -30 -72 -30t-72 30q-30 29 -30 71
t30 72t72 30t72 -30q29 -30 29 -72t-29 -71zM353 916q-15 15 -37 15t-37 -15t-15 -37t15 -37q15 -16 37 -16t37 16q16 15 16 37t-16 37z" />
    <glyph glyph-name="Atilde" unicode="&#xc3;" horiz-adv-x="633" 
d="M587 0h-59q-13 0 -17 15l-65 230h-259l-64 -230q-4 -15 -18 -15h-59q-17 0 -17 16q0 5 1 7l185 651q21 76 102 76q80 0 101 -75l185 -652q1 -2 1 -7q0 -16 -17 -16zM336 653q-5 18 -19 18q-15 0 -20 -18l-91 -329h221zM497 894q0 -105 -94 -105q-37 0 -64 21l-61 49
q-28 22 -41 22q-31 0 -31 -46v-21q0 -17 -17 -17h-31q-16 0 -16 17v21q0 109 95 109q29 0 60 -24l71 -56q18 -14 35 -14q30 0 30 44v23q0 17 17 17h31q16 0 16 -17v-23z" />
    <glyph glyph-name="Ccedilla" unicode="&#xc7;" horiz-adv-x="545" 
d="M510 26q0 -16 -20 -20q-68 -13 -166 -13q-110 0 -178 63q-86 80 -86 246v139q0 167 86 246q68 63 178 63q67 0 168 -16q16 -2 16 -13v-51q0 -11 -12 -11h-3q-108 9 -168 9q-174 0 -174 -227v-139q0 -227 174 -227q69 0 165 8h4q16 0 16 -16v-41zM377 -47l-113 -126
q-13 -15 -23 -15h-54q-9 0 -9 7q0 4 4 10l97 124q12 15 25 15h66q11 0 11 -7q0 -4 -4 -8z" />
    <glyph glyph-name="Eacute" unicode="&#xc9;" horiz-adv-x="551" 
d="M496 12q0 -12 -10 -14q-47 -5 -195 -5q-213 0 -213 186v385q0 186 213 186q132 0 195 -6q10 -2 10 -14v-50q0 -12 -11 -12h-193q-76 0 -101 -23q-22 -21 -22 -81v-139h307q20 0 20 -20v-38q0 -20 -20 -20h-307v-168q0 -60 22 -80q25 -24 101 -24h193q11 0 11 -12v-51z
M432 935l-113 -126q-13 -15 -23 -15h-54q-9 0 -9 7q0 6 4 10l98 124q12 15 24 15h66q11 0 11 -7q0 -4 -4 -8z" />
    <glyph glyph-name="Ecircumflex" unicode="&#xca;" horiz-adv-x="551" 
d="M496 12q0 -12 -10 -14q-47 -5 -195 -5q-213 0 -213 186v385q0 186 213 186q132 0 195 -6q10 -2 10 -14v-50q0 -12 -11 -12h-193q-76 0 -101 -23q-22 -21 -22 -81v-139h307q20 0 20 -20v-38q0 -20 -20 -20h-307v-168q0 -60 22 -80q25 -24 101 -24h193q11 0 11 -12v-51z
M447 794h-52q-9 0 -23 15l-82 97l-83 -97q-13 -15 -23 -15h-52q-9 0 -9 7q0 6 4 10l96 124q12 15 24 15h85q13 0 25 -15l95 -124q4 -4 4 -10q0 -7 -9 -7z" />
    <glyph glyph-name="Edieresis" unicode="&#xcb;" horiz-adv-x="551" 
d="M496 12q0 -12 -10 -14q-47 -5 -195 -5q-213 0 -213 186v385q0 186 213 186q132 0 195 -6q10 -2 10 -14v-50q0 -12 -11 -12h-193q-76 0 -101 -23q-22 -21 -22 -81v-139h307q20 0 20 -20v-38q0 -20 -20 -20h-307v-168q0 -60 22 -80q25 -24 101 -24h193q11 0 11 -12v-51z
M424 829q0 -19 -20 -19h-39q-20 0 -20 19v81q0 20 20 20h39q20 0 20 -20v-81zM249 829q0 -19 -20 -19h-39q-20 0 -20 19v81q0 20 20 20h39q20 0 20 -20v-81z" />
    <glyph glyph-name="Egrave" unicode="&#xc8;" horiz-adv-x="551" 
d="M496 12q0 -12 -10 -14q-47 -5 -195 -5q-213 0 -213 186v385q0 186 213 186q132 0 195 -6q10 -2 10 -14v-50q0 -12 -11 -12h-193q-76 0 -101 -23q-22 -21 -22 -81v-139h307q20 0 20 -20v-38q0 -20 -20 -20h-307v-168q0 -60 22 -80q25 -24 101 -24h193q11 0 11 -12v-51z
M351 793h-54q-9 0 -23 15l-113 126q-4 4 -4 8q0 7 11 7h66q13 0 25 -15l97 -124q4 -4 4 -10q0 -7 -9 -7z" />
    <glyph glyph-name="Iacute" unicode="&#xcd;" horiz-adv-x="267" 
d="M179 20q0 -20 -18 -20h-55q-18 0 -18 20v704q0 19 18 19h55q18 0 18 -19v-704zM268 935l-113 -126q-13 -15 -23 -15h-54q-9 0 -9 7q0 6 4 10l98 124q12 15 24 15h66q11 0 11 -7q0 -4 -4 -8z" />
    <glyph glyph-name="Icircumflex" unicode="&#xce;" horiz-adv-x="267" 
d="M179 20q0 -20 -18 -20h-55q-18 0 -18 20v704q0 19 18 19h55q18 0 18 -19v-704zM287 794h-52q-9 0 -23 15l-82 97l-83 -97q-13 -15 -23 -15h-52q-9 0 -9 7q0 6 4 10l96 124q12 15 24 15h85q13 0 25 -15l95 -124q4 -4 4 -10q0 -7 -9 -7z" />
    <glyph glyph-name="Idieresis" unicode="&#xcf;" horiz-adv-x="267" 
d="M179 20q0 -20 -18 -20h-55q-18 0 -18 20v704q0 19 18 19h55q18 0 18 -19v-704zM261 828q0 -19 -20 -19h-39q-20 0 -20 19v81q0 20 20 20h39q20 0 20 -20v-81zM86 828q0 -19 -20 -19h-39q-20 0 -20 19v81q0 20 20 20h39q20 0 20 -20v-81z" />
    <glyph glyph-name="Igrave" unicode="&#xcc;" horiz-adv-x="267" 
d="M179 20q0 -20 -18 -20h-55q-18 0 -18 20v704q0 19 18 19h55q18 0 18 -19v-704zM189 794h-54q-9 0 -23 15l-113 126q-4 4 -4 8q0 7 11 7h66q13 0 25 -15l97 -124q4 -4 4 -10q0 -7 -9 -7z" />
    <glyph glyph-name="Ntilde" unicode="&#xd1;" horiz-adv-x="680" 
d="M602 29q0 -29 -29 -29h-62q-24 0 -32 16l-309 587q-1 3 -3 3q-1 0 -1 -3v-584q0 -19 -18 -19h-52q-18 0 -18 12v703q0 28 29 28h55q30 0 41 -20l309 -587q1 0 1 3v585q0 19 18 19h53q18 0 18 -19v-695zM508 892q0 -105 -94 -105q-37 0 -64 21l-61 49q-28 22 -41 22
q-31 0 -31 -46v-21q0 -17 -17 -17h-31q-16 0 -16 17v21q0 109 95 109q29 0 60 -24l71 -56q18 -14 35 -14q30 0 30 44v23q0 17 17 17h31q16 0 16 -17v-23z" />
    <glyph glyph-name="Oacute" unicode="&#xd3;" horiz-adv-x="661" 
d="M601 307q0 -160 -76 -240q-70 -74 -194 -74t-194 74q-77 81 -77 240v129q0 159 77 240q70 74 194 74t194 -74q76 -80 76 -240v-129zM509 436q0 232 -178 232q-179 0 -179 -232v-129q0 -232 179 -232q178 0 178 232v129zM453 935l-113 -126q-13 -15 -23 -15h-54q-9 0 -9 7
q0 6 4 10l98 124q12 15 24 15h66q11 0 11 -7q0 -4 -4 -8z" />
    <glyph glyph-name="Ocircumflex" unicode="&#xd4;" horiz-adv-x="661" 
d="M601 307q0 -160 -76 -240q-70 -74 -194 -74t-194 74q-77 81 -77 240v129q0 159 77 240q70 74 194 74t194 -74q76 -80 76 -240v-129zM509 436q0 232 -178 232q-179 0 -179 -232v-129q0 -232 179 -232q178 0 178 232v129zM488 795h-52q-9 0 -23 15l-82 97l-83 -97
q-13 -15 -23 -15h-52q-9 0 -9 7q0 6 4 10l96 124q12 15 24 15h85q13 0 25 -15l95 -124q4 -4 4 -10q0 -7 -9 -7z" />
    <glyph glyph-name="Odieresis" unicode="&#xd6;" horiz-adv-x="661" 
d="M601 307q0 -160 -76 -240q-70 -74 -194 -74t-194 74q-77 81 -77 240v129q0 159 77 240q70 74 194 74t194 -74q76 -80 76 -240v-129zM509 436q0 232 -178 232q-179 0 -179 -232v-129q0 -232 179 -232q178 0 178 232v129zM458 829q0 -19 -20 -19h-39q-20 0 -20 19v81
q0 20 20 20h39q20 0 20 -20v-81zM283 829q0 -19 -20 -19h-39q-20 0 -20 19v81q0 20 20 20h39q20 0 20 -20v-81z" />
    <glyph glyph-name="Ograve" unicode="&#xd2;" horiz-adv-x="661" 
d="M601 307q0 -160 -76 -240q-70 -74 -194 -74t-194 74q-77 81 -77 240v129q0 159 77 240q70 74 194 74t194 -74q76 -80 76 -240v-129zM509 436q0 232 -178 232q-179 0 -179 -232v-129q0 -232 179 -232q178 0 178 232v129zM388 794h-54q-9 0 -23 15l-113 126q-4 4 -4 8
q0 7 11 7h66q13 0 25 -15l97 -124q4 -4 4 -10q0 -7 -9 -7z" />
    <glyph glyph-name="Otilde" unicode="&#xd5;" horiz-adv-x="661" 
d="M601 307q0 -160 -76 -240q-70 -74 -194 -74t-194 74q-77 81 -77 240v129q0 159 77 240q70 74 194 74t194 -74q76 -80 76 -240v-129zM509 436q0 232 -178 232q-179 0 -179 -232v-129q0 -232 179 -232q178 0 178 232v129zM511 894q0 -105 -94 -105q-37 0 -64 21l-61 49
q-28 22 -41 22q-31 0 -31 -46v-21q0 -17 -17 -17h-31q-16 0 -16 17v21q0 109 95 109q29 0 60 -24l71 -56q18 -14 35 -14q30 0 30 44v23q0 17 17 17h31q16 0 16 -17v-23z" />
    <glyph glyph-name="Scaron" unicode="&#x160;" horiz-adv-x="550" 
d="M253 -7q-78 0 -166 14q-19 3 -19 18v40q0 16 17 16h3q69 -6 165 -6q152 0 152 118q0 37 -26 65q-24 26 -94 69l-97 59q-138 84 -138 187q0 177 239 177q98 0 174 -12q17 -3 17 -17v-43q0 -16 -17 -16h-2q-88 6 -172 6q-79 0 -112 -20q-35 -21 -35 -75q0 -55 109 -121
l92 -55q157 -93 157 -204q0 -200 -247 -200zM452 933l-97 -124q-12 -15 -25 -15h-85q-12 0 -24 15l-98 124q-4 4 -4 10q0 7 9 7h54q9 0 23 -16l83 -96l82 96q14 16 23 16h54q9 0 9 -7q0 -6 -4 -10z" />
    <glyph glyph-name="Uacute" unicode="&#xda;" horiz-adv-x="662" 
d="M587 270q0 -277 -256 -277t-256 277v454q0 19 19 19h54q19 0 19 -19v-454q0 -101 36 -148q38 -51 128 -51t129 51q35 46 35 148v454q0 19 19 19h54q19 0 19 -19v-454zM475 935l-113 -126q-13 -15 -23 -15h-54q-9 0 -9 7q0 6 4 10l98 124q12 15 24 15h66q11 0 11 -7
q0 -4 -4 -8z" />
    <glyph glyph-name="Ucircumflex" unicode="&#xdb;" horiz-adv-x="662" 
d="M587 270q0 -277 -256 -277t-256 277v454q0 19 19 19h54q19 0 19 -19v-454q0 -101 36 -148q38 -51 128 -51t129 51q35 46 35 148v454q0 19 19 19h54q19 0 19 -19v-454zM485 794h-52q-9 0 -23 15l-82 97l-83 -97q-13 -15 -23 -15h-52q-9 0 -9 7q0 6 4 10l96 124
q12 15 24 15h85q13 0 25 -15l95 -124q4 -4 4 -10q0 -7 -9 -7z" />
    <glyph glyph-name="Udieresis" unicode="&#xdc;" horiz-adv-x="662" 
d="M587 270q0 -277 -256 -277t-256 277v454q0 19 19 19h54q19 0 19 -19v-454q0 -101 36 -148q38 -51 128 -51t129 51q35 46 35 148v454q0 19 19 19h54q19 0 19 -19v-454zM456 829q0 -19 -20 -19h-39q-20 0 -20 19v81q0 20 20 20h39q20 0 20 -20v-81zM281 829q0 -19 -20 -19
h-39q-20 0 -20 19v81q0 20 20 20h39q20 0 20 -20v-81z" />
    <glyph glyph-name="Ugrave" unicode="&#xd9;" horiz-adv-x="662" 
d="M587 270q0 -277 -256 -277t-256 277v454q0 19 19 19h54q19 0 19 -19v-454q0 -101 36 -148q38 -51 128 -51t129 51q35 46 35 148v454q0 19 19 19h54q19 0 19 -19v-454zM380 794h-54q-9 0 -23 15l-113 126q-4 4 -4 8q0 7 11 7h66q13 0 25 -15l97 -124q4 -4 4 -10
q0 -7 -9 -7z" />
    <glyph glyph-name="Yacute" unicode="&#xdd;" horiz-adv-x="583" 
d="M546 718l-155 -348q-24 -52 -54 -66v-284q0 -20 -18 -20h-55q-18 0 -18 20v284q-29 11 -54 66l-154 348q-3 6 -3 11q0 14 17 14h61q12 0 18 -14l138 -324q11 -26 23 -26t23 26l139 324q6 14 17 14h61q17 0 17 -14q0 -5 -3 -11zM434 935l-113 -126q-13 -15 -23 -15h-54
q-9 0 -9 7q0 6 4 10l98 124q12 15 24 15h66q11 0 11 -7q0 -4 -4 -8z" />
    <glyph glyph-name="Ydieresis" unicode="&#x178;" horiz-adv-x="583" 
d="M546 718l-155 -348q-24 -52 -54 -66v-284q0 -20 -18 -20h-55q-18 0 -18 20v284q-29 11 -54 66l-154 348q-3 6 -3 11q0 14 17 14h61q12 0 18 -14l138 -324q11 -26 23 -26t23 26l139 324q6 14 17 14h61q17 0 17 -14q0 -5 -3 -11zM418 821q0 -19 -20 -19h-39q-20 0 -20 19
v81q0 20 20 20h39q20 0 20 -20v-81zM243 821q0 -19 -20 -19h-39q-20 0 -20 19v81q0 20 20 20h39q20 0 20 -20v-81z" />
    <glyph glyph-name="Zcaron" unicode="&#x17d;" horiz-adv-x="597" 
d="M544 18q0 -18 -20 -18h-385q-48 0 -65 14q-18 14 -18 54q0 36 15 58l358 521q3 5 3 8q0 7 -10 7h-332q-20 0 -20 17v47q0 17 20 17h356q45 0 64 -12q21 -15 21 -54q0 -35 -16 -59l-357 -521q-3 -4 -3 -9q0 -6 10 -6h359q20 0 20 -17v-47zM466 933l-97 -124
q-12 -15 -25 -15h-85q-12 0 -24 15l-98 124q-4 4 -4 10q0 7 9 7h54q9 0 23 -16l83 -96l82 96q14 16 23 16h54q9 0 9 -7q0 -6 -4 -10z" />
    <glyph glyph-name="aacute" unicode="&#xe1;" horiz-adv-x="519" 
d="M451 20q0 -20 -20 -20h-46q-20 0 -20 20v22q-84 -49 -154 -49q-163 0 -163 162v12q0 83 54 122q57 40 187 40h74v40q0 63 -24 88t-83 25q-73 0 -153 -8h-5q-18 0 -18 16v35q0 16 21 19q76 13 155 13q195 0 195 -188v-349zM363 266h-74q-89 0 -122 -22q-31 -21 -31 -76
v-12q0 -51 24 -72q21 -19 68 -19q61 0 135 40v161zM408 764l-113 -126q-13 -15 -23 -15h-54q-9 0 -9 7q0 6 4 10l98 124q12 15 24 15h66q11 0 11 -7q0 -4 -4 -8z" />
    <glyph glyph-name="acircumflex" unicode="&#xe2;" horiz-adv-x="519" 
d="M451 20q0 -20 -20 -20h-46q-20 0 -20 20v22q-84 -49 -154 -49q-163 0 -163 162v12q0 83 54 122q57 40 187 40h74v40q0 63 -24 88t-83 25q-73 0 -153 -8h-5q-18 0 -18 16v35q0 16 21 19q76 13 155 13q195 0 195 -188v-349zM363 266h-74q-89 0 -122 -22q-31 -21 -31 -76
v-12q0 -51 24 -72q21 -19 68 -19q61 0 135 40v161zM416 623h-52q-9 0 -23 15l-82 97l-83 -97q-13 -15 -23 -15h-52q-9 0 -9 7q0 6 4 10l96 124q12 15 24 15h85q13 0 25 -15l95 -124q4 -4 4 -10q0 -7 -9 -7z" />
    <glyph glyph-name="adieresis" unicode="&#xe4;" horiz-adv-x="519" 
d="M451 20q0 -20 -20 -20h-46q-20 0 -20 20v22q-84 -49 -154 -49q-163 0 -163 162v12q0 83 54 122q57 40 187 40h74v40q0 63 -24 88t-83 25q-73 0 -153 -8h-5q-18 0 -18 16v35q0 16 21 19q76 13 155 13q195 0 195 -188v-349zM363 266h-74q-89 0 -122 -22q-31 -21 -31 -76
v-12q0 -51 24 -72q21 -19 68 -19q61 0 135 40v161zM388 660q0 -19 -20 -19h-39q-20 0 -20 19v81q0 20 20 20h39q20 0 20 -20v-81zM213 660q0 -19 -20 -19h-39q-20 0 -20 19v81q0 20 20 20h39q20 0 20 -20v-81z" />
    <glyph glyph-name="agrave" unicode="&#xe0;" horiz-adv-x="519" 
d="M451 20q0 -20 -20 -20h-46q-20 0 -20 20v22q-84 -49 -154 -49q-163 0 -163 162v12q0 83 54 122q57 40 187 40h74v40q0 63 -24 88t-83 25q-73 0 -153 -8h-5q-18 0 -18 16v35q0 16 21 19q76 13 155 13q195 0 195 -188v-349zM363 266h-74q-89 0 -122 -22q-31 -21 -31 -76
v-12q0 -51 24 -72q21 -19 68 -19q61 0 135 40v161zM315 623h-54q-9 0 -23 15l-113 126q-4 4 -4 8q0 7 11 7h66q13 0 25 -15l97 -124q4 -4 4 -10q0 -7 -9 -7z" />
    <glyph glyph-name="aring" unicode="&#xe5;" horiz-adv-x="519" 
d="M451 20q0 -20 -20 -20h-46q-20 0 -20 20v22q-84 -49 -154 -49q-163 0 -163 162v12q0 83 54 122q57 40 187 40h74v40q0 63 -24 88t-83 25q-73 0 -153 -8h-5q-18 0 -18 16v35q0 16 21 19q76 13 155 13q195 0 195 -188v-349zM363 266h-74q-89 0 -122 -22q-31 -21 -31 -76
v-12q0 -51 24 -72q21 -19 68 -19q61 0 135 40v161zM329 632q-30 -30 -72 -30t-72 30q-30 29 -30 71t30 72t72 30t72 -30q29 -30 29 -72t-29 -71zM294 741q-15 15 -37 15t-37 -15t-15 -37t15 -37q15 -16 37 -16t37 16q16 15 16 37t-16 37z" />
    <glyph glyph-name="atilde" unicode="&#xe3;" horiz-adv-x="519" 
d="M451 20q0 -20 -20 -20h-46q-20 0 -20 20v22q-84 -49 -154 -49q-163 0 -163 162v12q0 83 54 122q57 40 187 40h74v40q0 63 -24 88t-83 25q-73 0 -153 -8h-5q-18 0 -18 16v35q0 16 21 19q76 13 155 13q195 0 195 -188v-349zM363 266h-74q-89 0 -122 -22q-31 -21 -31 -76
v-12q0 -51 24 -72q21 -19 68 -19q61 0 135 40v161zM446 731q0 -105 -94 -105q-37 0 -64 21l-61 49q-28 22 -41 22q-31 0 -31 -46v-21q0 -17 -17 -17h-31q-16 0 -16 17v21q0 109 95 109q29 0 60 -24l71 -56q18 -14 35 -14q30 0 30 44v23q0 17 17 17h31q16 0 16 -17v-23z" />
    <glyph glyph-name="ccedilla" unicode="&#xe7;" horiz-adv-x="452" 
d="M408 26q0 -18 -20 -22q-60 -11 -125 -11q-101 0 -157 66q-56 65 -56 177v78q0 112 55 177q57 66 158 66q65 0 125 -11q20 -4 20 -22v-36q0 -15 -17 -15h-4q-62 7 -124 7q-125 0 -125 -166v-78q0 -166 125 -166q62 0 124 7h4q17 0 17 -15v-36zM318 -47l-113 -126
q-13 -15 -23 -15h-54q-9 0 -9 7q0 6 4 10l97 124q12 15 25 15h66q11 0 11 -7q0 -4 -4 -8z" />
    <glyph glyph-name="eacute" unicode="&#xe9;" horiz-adv-x="544" 
d="M492 269q0 -22 -19 -22h-335v-14q0 -87 35 -126q33 -37 104 -37q106 0 178 11h5q16 0 16 -14v-34q0 -19 -20 -23q-88 -17 -179 -17q-99 0 -157 50q-70 61 -70 190v90q0 109 57 171q59 63 165 63q107 0 165 -64q55 -61 55 -170v-54zM403 323q0 157 -131 157
q-134 0 -134 -157v-9h265v9zM430 764l-113 -126q-13 -15 -23 -15h-54q-9 0 -9 7q0 6 4 10l98 124q12 15 24 15h66q11 0 11 -7q0 -4 -4 -8z" />
    <glyph glyph-name="ecircumflex" unicode="&#xea;" horiz-adv-x="544" 
d="M492 269q0 -22 -19 -22h-335v-14q0 -87 35 -126q33 -37 104 -37q106 0 178 11h5q16 0 16 -14v-34q0 -19 -20 -23q-88 -17 -179 -17q-99 0 -157 50q-70 61 -70 190v90q0 109 57 171q59 63 165 63q107 0 165 -64q55 -61 55 -170v-54zM403 323q0 157 -131 157
q-134 0 -134 -157v-9h265v9zM430 623h-52q-9 0 -23 15l-82 97l-83 -97q-13 -15 -23 -15h-52q-9 0 -9 7q0 6 4 10l96 124q12 15 24 15h85q13 0 25 -15l95 -124q4 -4 4 -10q0 -7 -9 -7z" />
    <glyph glyph-name="edieresis" unicode="&#xeb;" horiz-adv-x="544" 
d="M492 269q0 -22 -19 -22h-335v-14q0 -87 35 -126q33 -37 104 -37q106 0 178 11h5q16 0 16 -14v-34q0 -19 -20 -23q-88 -17 -179 -17q-99 0 -157 50q-70 61 -70 190v90q0 109 57 171q59 63 165 63q107 0 165 -64q55 -61 55 -170v-54zM403 323q0 157 -131 157
q-134 0 -134 -157v-9h265v9zM403 660q0 -19 -20 -19h-39q-20 0 -20 19v81q0 20 20 20h39q20 0 20 -20v-81zM228 660q0 -19 -20 -19h-39q-20 0 -20 19v81q0 20 20 20h39q20 0 20 -20v-81z" />
    <glyph glyph-name="egrave" unicode="&#xe8;" horiz-adv-x="544" 
d="M492 269q0 -22 -19 -22h-335v-14q0 -87 35 -126q33 -37 104 -37q106 0 178 11h5q16 0 16 -14v-34q0 -19 -20 -23q-88 -17 -179 -17q-99 0 -157 50q-70 61 -70 190v90q0 109 57 171q59 63 165 63q107 0 165 -64q55 -61 55 -170v-54zM403 323q0 157 -131 157
q-134 0 -134 -157v-9h265v9zM349 623h-54q-9 0 -23 15l-113 126q-4 4 -4 8q0 7 11 7h66q13 0 25 -15l97 -124q4 -4 4 -10q0 -7 -9 -7z" />
    <glyph glyph-name="iacute" unicode="&#xed;" horiz-adv-x="247" 
d="M167 20q0 -20 -20 -20h-48q-20 0 -20 20v510q0 20 20 20h48q20 0 20 -20v-510zM267 764l-113 -126q-13 -15 -23 -15h-54q-9 0 -9 7q0 6 4 10l98 124q12 15 24 15h66q11 0 11 -7q0 -4 -4 -8z" />
    <glyph glyph-name="icircumflex" unicode="&#xee;" horiz-adv-x="247" 
d="M167 20q0 -20 -20 -20h-48q-20 0 -20 20v510q0 20 20 20h48q20 0 20 -20v-510zM280 623h-52q-9 0 -23 15l-82 97l-83 -97q-13 -15 -23 -15h-52q-9 0 -9 7q0 6 4 10l96 124q12 15 24 15h85q13 0 25 -15l95 -124q4 -4 4 -10q0 -7 -9 -7z" />
    <glyph glyph-name="idieresis" unicode="&#xef;" horiz-adv-x="247" 
d="M167 20q0 -20 -20 -20h-48q-20 0 -20 20v510q0 20 20 20h48q20 0 20 -20v-510zM250 660q0 -19 -20 -19h-39q-20 0 -20 19v81q0 20 20 20h39q20 0 20 -20v-81zM75 660q0 -19 -20 -19h-39q-20 0 -20 19v81q0 20 20 20h39q20 0 20 -20v-81z" />
    <glyph glyph-name="igrave" unicode="&#xec;" horiz-adv-x="247" 
d="M167 20q0 -20 -20 -20h-48q-20 0 -20 20v510q0 20 20 20h48q20 0 20 -20v-510zM176 623h-54q-9 0 -23 15l-113 126q-4 4 -4 8q0 7 11 7h66q13 0 25 -15l97 -124q4 -4 4 -10q0 -7 -9 -7z" />
    <glyph glyph-name="ntilde" unicode="&#xf1;" horiz-adv-x="557" 
d="M489 20q0 -20 -20 -20h-48q-20 0 -20 20v329q0 74 -26 104q-25 28 -84 28q-57 0 -135 -39v-422q0 -20 -20 -20h-49q-19 0 -19 20v510q0 20 19 20h50q19 0 19 -20v-19q82 46 159 46q174 0 174 -208v-329zM460 731q0 -105 -94 -105q-37 0 -64 21l-61 49q-28 22 -41 22
q-31 0 -31 -46v-21q0 -17 -17 -17h-31q-16 0 -16 17v21q0 109 95 109q29 0 60 -24l71 -56q18 -14 35 -14q30 0 30 44v23q0 17 17 17h31q16 0 16 -17v-23z" />
    <glyph glyph-name="oacute" unicode="&#xf3;" horiz-adv-x="545" 
d="M495 237q0 -113 -56 -177q-59 -67 -167 -67t-166 67q-56 64 -56 177v76q0 113 56 177q58 67 166 67t167 -67q56 -64 56 -177v-76zM407 313q0 167 -135 167q-134 0 -134 -167v-76q0 -167 134 -167q135 0 135 167v76zM422 764l-113 -126q-13 -15 -23 -15h-54q-9 0 -9 7
q0 6 4 10l98 124q12 15 24 15h66q11 0 11 -7q0 -4 -4 -8z" />
    <glyph glyph-name="ocircumflex" unicode="&#xf4;" horiz-adv-x="545" 
d="M495 237q0 -113 -56 -177q-59 -67 -167 -67t-166 67q-56 64 -56 177v76q0 113 56 177q58 67 166 67t167 -67q56 -64 56 -177v-76zM407 313q0 167 -135 167q-134 0 -134 -167v-76q0 -167 134 -167q135 0 135 167v76zM431 623h-52q-9 0 -23 15l-82 97l-83 -97
q-13 -15 -23 -15h-52q-9 0 -9 7q0 6 4 10l96 124q12 15 24 15h85q13 0 25 -15l95 -124q4 -4 4 -10q0 -7 -9 -7z" />
    <glyph glyph-name="odieresis" unicode="&#xf6;" horiz-adv-x="545" 
d="M495 237q0 -113 -56 -177q-59 -67 -167 -67t-166 67q-56 64 -56 177v76q0 113 56 177q58 67 166 67t167 -67q56 -64 56 -177v-76zM407 313q0 167 -135 167q-134 0 -134 -167v-76q0 -167 134 -167q135 0 135 167v76zM398 660q0 -19 -20 -19h-39q-20 0 -20 19v81
q0 20 20 20h39q20 0 20 -20v-81zM223 660q0 -19 -20 -19h-39q-20 0 -20 19v81q0 20 20 20h39q20 0 20 -20v-81z" />
    <glyph glyph-name="ograve" unicode="&#xf2;" horiz-adv-x="545" 
d="M495 237q0 -113 -56 -177q-59 -67 -167 -67t-166 67q-56 64 -56 177v76q0 113 56 177q58 67 166 67t167 -67q56 -64 56 -177v-76zM407 313q0 167 -135 167q-134 0 -134 -167v-76q0 -167 134 -167q135 0 135 167v76zM321 623h-54q-9 0 -23 15l-113 126q-4 4 -4 8q0 7 11 7
h66q13 0 25 -15l97 -124q4 -4 4 -10q0 -7 -9 -7z" />
    <glyph glyph-name="otilde" unicode="&#xf5;" horiz-adv-x="545" 
d="M495 237q0 -113 -56 -177q-59 -67 -167 -67t-166 67q-56 64 -56 177v76q0 113 56 177q58 67 166 67t167 -67q56 -64 56 -177v-76zM407 313q0 167 -135 167q-134 0 -134 -167v-76q0 -167 134 -167q135 0 135 167v76zM456 731q0 -105 -94 -105q-37 0 -64 21l-61 49
q-28 22 -41 22q-31 0 -31 -46v-21q0 -17 -17 -17h-31q-16 0 -16 17v21q0 109 95 109q29 0 60 -24l71 -56q18 -14 35 -14q30 0 30 44v23q0 17 17 17h31q16 0 16 -17v-23z" />
    <glyph glyph-name="scaron" unicode="&#x161;" horiz-adv-x="466" 
d="M229 -7q-97 0 -158 15q-21 5 -21 20v35q0 15 18 15h4q88 -11 157 -11q99 0 99 71q0 38 -75 83l-101 60q-102 62 -102 143q0 133 181 133q80 0 156 -13q19 -3 19 -20v-33q0 -17 -17 -17h-3q-93 8 -155 8q-48 0 -67 -10q-26 -13 -26 -48t69 -76l99 -59q110 -65 110 -151
q0 -145 -187 -145zM392 762l-97 -124q-12 -15 -25 -15h-85q-12 0 -24 15l-98 124q-4 4 -4 10q0 7 9 7h54q9 0 23 -16l83 -96l82 96q14 16 23 16h54q9 0 9 -7q0 -6 -4 -10z" />
    <glyph glyph-name="uacute" unicode="&#xfa;" horiz-adv-x="557" 
d="M489 20q0 -20 -19 -20h-50q-19 0 -19 20v19q-82 -46 -159 -46q-174 0 -174 208v329q0 20 20 20h48q20 0 20 -20v-329q0 -74 27 -104q24 -28 83 -28q57 0 135 39v422q0 20 20 20h49q19 0 19 -20v-510zM430 764l-113 -126q-13 -15 -23 -15h-54q-9 0 -9 7q0 6 4 10l98 124
q12 15 24 15h66q11 0 11 -7q0 -4 -4 -8z" />
    <glyph glyph-name="ucircumflex" unicode="&#xfb;" horiz-adv-x="557" 
d="M489 20q0 -20 -19 -20h-50q-19 0 -19 20v19q-82 -46 -159 -46q-174 0 -174 208v329q0 20 20 20h48q20 0 20 -20v-329q0 -74 27 -104q24 -28 83 -28q57 0 135 39v422q0 20 20 20h49q19 0 19 -20v-510zM437 623h-52q-9 0 -23 15l-82 97l-83 -97q-13 -15 -23 -15h-52
q-9 0 -9 7q0 6 4 10l96 124q12 15 24 15h85q13 0 25 -15l95 -124q4 -4 4 -10q0 -7 -9 -7z" />
    <glyph glyph-name="udieresis" unicode="&#xfc;" horiz-adv-x="557" 
d="M489 20q0 -20 -19 -20h-50q-19 0 -19 20v19q-82 -46 -159 -46q-174 0 -174 208v329q0 20 20 20h48q20 0 20 -20v-329q0 -74 27 -104q24 -28 83 -28q57 0 135 39v422q0 20 20 20h49q19 0 19 -20v-510zM405 660q0 -19 -20 -19h-39q-20 0 -20 19v81q0 20 20 20h39
q20 0 20 -20v-81zM230 660q0 -19 -20 -19h-39q-20 0 -20 19v81q0 20 20 20h39q20 0 20 -20v-81z" />
    <glyph glyph-name="ugrave" unicode="&#xf9;" horiz-adv-x="557" 
d="M489 20q0 -20 -19 -20h-50q-19 0 -19 20v19q-82 -46 -159 -46q-174 0 -174 208v329q0 20 20 20h48q20 0 20 -20v-329q0 -74 27 -104q24 -28 83 -28q57 0 135 39v422q0 20 20 20h49q19 0 19 -20v-510zM327 623h-54q-9 0 -23 15l-113 126q-4 4 -4 8q0 7 11 7h66
q13 0 25 -15l97 -124q4 -4 4 -10q0 -7 -9 -7z" />
    <glyph glyph-name="yacute" unicode="&#xfd;" horiz-adv-x="534" 
d="M494 526l-165 -576q-24 -84 -60 -114q-39 -34 -123 -34q-46 0 -84 9q-21 5 -21 16v37q0 16 19 16h3q66 -6 89 -6q44 0 65 16q22 18 34 69l10 41h-14q-54 0 -74 69l-133 457q-1 2 -1 7q0 17 18 17h55q13 0 17 -16l118 -434q6 -22 19 -22h16l122 457q4 15 19 15h56
q16 0 16 -17q0 -5 -1 -7zM442 764l-113 -126q-13 -15 -23 -15h-54q-9 0 -9 7q0 6 4 10l98 124q12 15 24 15h66q11 0 11 -7q0 -4 -4 -8z" />
    <glyph glyph-name="ydieresis" unicode="&#xff;" horiz-adv-x="534" 
d="M494 526l-165 -576q-24 -84 -60 -114q-39 -34 -123 -34q-46 0 -84 9q-21 5 -21 16v37q0 16 19 16h3q66 -6 89 -6q44 0 65 16q22 18 34 69l10 41h-14q-54 0 -74 69l-133 457q-1 2 -1 7q0 17 18 17h55q13 0 17 -16l118 -434q6 -22 19 -22h16l122 457q4 15 19 15h56
q16 0 16 -17q0 -5 -1 -7zM404 660q0 -19 -20 -19h-39q-20 0 -20 19v81q0 20 20 20h39q20 0 20 -20v-81zM229 660q0 -19 -20 -19h-39q-20 0 -20 19v81q0 20 20 20h39q20 0 20 -20v-81z" />
    <glyph glyph-name="zcaron" unicode="&#x17e;" horiz-adv-x="482" 
d="M432 20q0 -20 -20 -20h-302q-61 0 -61 55v19q0 35 23 65l258 321q4 6 4 9q0 7 -10 7h-243q-20 0 -20 20v34q0 20 20 20h294q56 0 56 -49v-24q0 -28 -23 -55l-263 -329q-5 -5 -5 -11q0 -8 8 -8h264q20 0 20 -20v-34zM409 762l-97 -124q-12 -15 -25 -15h-85q-12 0 -24 15
l-98 124q-4 4 -4 10q0 7 9 7h54q9 0 23 -16l83 -96l82 96q14 16 23 16h54q9 0 9 -7q0 -6 -4 -10z" />
    <glyph glyph-name="oneeighth" unicode="&#x215b;" horiz-adv-x="759" 
d="M569 743q17 0 6 -19l-418 -708q-11 -20 -22 -20h-47q-20 0 -8 20l421 713q9 14 20 14h48zM57 645q-17 -6 -17 13v28q0 10 10 13l80 38q12 6 32 6h6q17 0 17 -19v-378q0 -19 -17 -19h-30q-17 0 -17 19v326zM719 119q0 -60 -41 -93q-38 -30 -98 -30h-5q-60 0 -98 30
q-41 34 -41 93v10q0 55 45 87q-44 33 -44 84v5q0 114 138 114h5q138 0 138 -114v-5q0 -53 -44 -84q45 -31 45 -87v-10zM654 129q0 61 -59 61h-34q-30 0 -46 -20q-14 -17 -14 -41v-10q0 -66 74 -66h5q74 0 74 66v10zM655 305q0 59 -75 59h-5q-74 0 -74 -59v-5q0 -57 60 -57
h34q60 0 60 57v5z" />
    <glyph glyph-name="threeeighths" unicode="&#x215c;" horiz-adv-x="833" 
d="M793 119q0 -60 -41 -93q-38 -30 -98 -30h-5q-60 0 -98 30q-41 34 -41 93v10q0 55 45 87q-44 33 -44 84v5q0 114 138 114h5q138 0 138 -114v-5q0 -53 -44 -84q45 -31 45 -87v-10zM728 129q0 61 -59 61h-34q-30 0 -46 -20q-14 -17 -14 -41v-10q0 -66 74 -66h5q74 0 74 66
v10zM729 305q0 59 -75 59h-5q-74 0 -74 -59v-5q0 -57 60 -57h34q60 0 60 57v5zM643 743q17 0 6 -19l-418 -708q-11 -20 -22 -20h-47q-20 0 -8 20l421 713q9 14 20 14h48zM291 446q0 -123 -142 -123q-38 0 -93 11q-16 4 -16 18v18q0 18 19 18q53 -8 90 -8q76 0 76 66v11
q0 59 -55 59h-98q-17 0 -17 16v20q0 17 17 17h98q55 0 55 57v7q0 57 -76 57q-20 0 -80 -8l-12 -1q-17 0 -17 18v18q0 13 15 19q50 10 94 10q142 0 142 -113v-7q0 -56 -43 -84q43 -27 43 -85v-11z" />
    <glyph glyph-name="fiveeighths" unicode="&#x215d;" horiz-adv-x="829" 
d="M639 743q17 0 6 -19l-418 -708q-11 -20 -22 -20h-47q-20 0 -8 20l421 713q9 14 20 14h48zM789 119q0 -60 -41 -93q-38 -30 -98 -30h-5q-60 0 -98 30q-41 34 -41 93v10q0 55 45 87q-44 33 -44 84v5q0 114 138 114h5q138 0 138 -114v-5q0 -53 -44 -84q45 -31 45 -87v-10z
M724 129q0 61 -59 61h-34q-30 0 -46 -20q-14 -17 -14 -41v-10q0 -66 74 -66h5q74 0 74 66v10zM725 305q0 59 -75 59h-5q-74 0 -74 -59v-5q0 -57 60 -57h34q60 0 60 57v5zM297 456q0 -63 -38 -98t-107 -35q-57 0 -96 10q-16 5 -16 18v20q0 17 19 17q47 -8 93 -8q81 0 81 76v9
q0 35 -25 50q-24 13 -80 13h-65q-16 0 -16 19l14 179q3 17 19 17h186q18 0 18 -18v-24q0 -16 -18 -16h-148l-7 -100h17q169 0 169 -120v-9z" />
    <glyph glyph-name="seveneighths" unicode="&#x215e;" horiz-adv-x="774" 
d="M584 743q17 0 6 -19l-418 -708q-11 -20 -22 -20h-47q-20 0 -8 20l421 713q9 14 20 14h48zM734 119q0 -60 -41 -93q-38 -30 -98 -30h-5q-60 0 -98 30q-41 34 -41 93v10q0 55 45 87q-44 33 -44 84v5q0 114 138 114h5q138 0 138 -114v-5q0 -53 -44 -84q45 -31 45 -87v-10z
M669 129q0 61 -59 61h-34q-30 0 -46 -20q-14 -17 -14 -41v-10q0 -66 74 -66h5q74 0 74 66v10zM670 305q0 59 -75 59h-5q-74 0 -74 -59v-5q0 -57 60 -57h34q60 0 60 57v5zM236 685h-177q-19 0 -19 16v23q0 19 19 19h205q39 0 39 -36q0 -21 -8 -38l-156 -333q-4 -9 -17 -9h-36
q-21 0 -10 24z" />
    <glyph glyph-name="onethird" unicode="&#x2153;" horiz-adv-x="747" 
d="M575 724l-418 -708q-11 -20 -22 -20h-49q-10 0 -10 8q0 7 4 12l418 708q11 19 23 19h51q8 0 8 -6q0 -3 -5 -13zM57 645q-17 -6 -17 13v28q0 10 10 13l80 38q12 6 32 6h6q17 0 17 -19v-378q0 -19 -17 -19h-30q-17 0 -17 19v326zM707 119q0 -123 -142 -123q-38 0 -93 11
q-16 4 -16 18v18q0 18 19 18q53 -8 90 -8q76 0 76 66v11q0 59 -55 59h-98q-17 0 -17 16v20q0 17 17 17h98q55 0 55 57v7q0 57 -76 57q-20 0 -80 -8l-12 -1q-17 0 -17 18v18q0 13 15 19q50 10 94 10q142 0 142 -113v-7q0 -56 -43 -84q43 -27 43 -85v-11z" />
    <glyph glyph-name="twothirds" unicode="&#x2154;" horiz-adv-x="886" 
d="M223 531q-39 -25 -52 -35q-72 -48 -72 -107v-4h173q18 0 18 -17v-23q0 -18 -18 -18h-214q-18 0 -18 18v44q0 91 86 148l54 36q52 38 52 69q0 48 -73 48q-38 0 -97 -9q-16 0 -16 18v19q0 13 15 18q40 10 98 10q136 0 136 -104q0 -58 -72 -111zM683 743q17 0 6 -19
l-418 -708q-11 -20 -22 -20h-47q-20 0 -8 20l421 713q9 14 20 14h48zM846 119q0 -123 -142 -123q-38 0 -93 11q-16 4 -16 18v18q0 18 19 18q53 -8 90 -8q76 0 76 66v11q0 59 -55 59h-98q-17 0 -17 16v20q0 17 17 17h98q55 0 55 57v7q0 57 -76 57q-20 0 -80 -8l-12 -1
q-17 0 -17 18v18q0 13 15 19q50 10 94 10q142 0 142 -113v-7q0 -56 -43 -84q43 -27 43 -85v-11z" />
    <glyph glyph-name="zero.oldstyle" unicode="&#xf730;" 
d="M548 269q0 -276 -245 -276q-246 0 -246 276v15q0 276 246 276q245 0 245 -276v-15zM457 284q0 199 -154 199t-154 -199v-15q0 -199 154 -199t154 199v15z" />
    <glyph glyph-name="one.oldstyle" unicode="&#xf731;" horiz-adv-x="430" 
d="M283 20q0 -20 -18 -20h-55q-18 0 -18 20v436l-129 -56q-7 -3 -13 -3q-9 0 -9 11v51q0 7 10 13l151 72q12 6 21 6h41q19 0 19 -19v-511z" />
    <glyph glyph-name="two.oldstyle" unicode="&#xf732;" horiz-adv-x="560" 
d="M317 196q-102 -38 -133 -62q-24 -18 -34 -55h327q20 0 20 -17v-44q0 -18 -20 -18h-397q-20 0 -20 19v38q0 84 58 131q34 27 154 79q94 40 115 57q30 24 30 71q0 52 -34 72q-32 17 -116 17q-72 0 -177 -15h-4q-16 0 -16 18v35q0 14 19 18q78 20 178 20q125 0 180 -36
q59 -39 59 -129q0 -128 -189 -199z" />
    <glyph glyph-name="three.oldstyle" unicode="&#xf733;" 
d="M521 17q0 -108 -70 -163q-64 -51 -179 -51q-82 0 -169 20q-19 4 -19 19v34q0 17 17 17h3q105 -14 168 -14q82 0 119 33t37 105v21q0 48 -24 81q-31 41 -93 41h-182q-19 0 -19 18v35q0 19 19 19h182q117 0 117 119v14q0 62 -36 90q-36 29 -120 29q-46 0 -168 -15h-3
q-17 0 -17 17v35q0 15 19 19q96 20 169 20q249 0 249 -195v-14q0 -108 -95 -156q95 -47 95 -157v-21z" />
    <glyph glyph-name="four.oldstyle" unicode="&#xf734;" 
d="M567 22q0 -18 -19 -18h-87v-178q0 -20 -17 -20h-58q-17 0 -17 20v178h-289q-41 0 -41 39v38q0 21 12 37l296 415q10 16 29 16h59q26 0 26 -22v-447h87q19 0 19 -18v-40zM370 422q0 6 -4 6h-1q-4 0 -8 -6l-231 -328q-3 -4 -3 -8q0 -6 8 -6h239v342z" />
    <glyph glyph-name="five.oldstyle" unicode="&#xf735;" 
d="M528 33q0 -111 -67 -172t-188 -61q-101 0 -176 18q-19 5 -19 20v37q0 15 15 15h5q80 -14 175 -14q163 0 163 157v15q0 74 -49 105q-48 29 -160 29h-120q-16 0 -16 17l28 334q2 17 20 17h344q20 0 20 -17v-44q0 -16 -20 -16h-287l-16 -216h47q148 0 220 -44
q81 -51 81 -165v-15z" />
    <glyph glyph-name="six.oldstyle" unicode="&#xf736;" 
d="M546 246q0 -121 -60 -186q-63 -67 -184 -67q-242 0 -242 284v175q0 157 66 229q64 69 195 69q95 0 172 -17q23 -6 23 -19v-39q0 -18 -18 -18l-6 1q-82 16 -171 16q-106 0 -143 -62q-28 -46 -28 -160v-11q91 20 151 20q245 0 245 -209v-6zM456 252q0 138 -155 138
q-79 0 -151 -18v-95q0 -117 40 -166q35 -44 112 -44q154 0 154 179v6z" />
    <glyph glyph-name="seven.oldstyle" unicode="&#xf737;" horiz-adv-x="563" 
d="M497 434l-288 -613q-7 -15 -22 -15h-60q-15 0 -15 15q0 5 3 11l302 628q1 1 1 4q0 7 -7 7h-341q-20 0 -20 17v42q0 19 20 19h365q75 0 75 -63q0 -24 -13 -52z" />
    <glyph glyph-name="eight.oldstyle" unicode="&#xf738;" 
d="M551 207q0 -105 -72 -162q-65 -52 -171 -52h-10q-106 0 -171 52q-72 57 -72 162v19q0 108 97 162q-95 48 -95 156v9q0 99 69 150q63 47 172 47h10q109 0 172 -47q69 -51 69 -150v-9q0 -108 -95 -156q97 -54 97 -162v-19zM461 553q0 123 -153 123h-10q-153 0 -153 -123v-9
q0 -51 29 -83q33 -37 98 -37h62q65 0 98 37q29 32 29 83v9zM460 226q0 50 -28 84q-35 42 -98 42h-62q-63 0 -97 -42q-29 -34 -29 -84v-19q0 -138 152 -138h10q152 0 152 138v19z" />
    <glyph glyph-name="nine.oldstyle" unicode="&#xf739;" 
d="M537 101q0 -157 -66 -229q-64 -69 -195 -69q-95 0 -172 17q-24 6 -24 19v39q0 18 18 18l6 -1q82 -16 171 -16q107 0 144 62q28 46 28 160v11q-93 -20 -151 -20q-246 0 -246 209v6q0 121 61 186q63 67 183 67q243 0 243 -284v-175zM447 276q0 117 -40 166q-35 44 -112 44
q-155 0 -155 -179v-6q0 -138 155 -138q79 0 151 18z" />
    <glyph glyph-name="uni2014.alt" unicode="&#xe009;" horiz-adv-x="600" 
d="M555 263q0 -17 -19 -17h-472q-19 0 -19 17v39q0 18 19 18h472q19 0 19 -18v-39z" />
    <glyph glyph-name="a.superior" unicode="&#xf6e9;" horiz-adv-x="316" 
d="M276 337q0 -16 -15 -16h-27q-16 0 -16 16v4q-43 -24 -82 -24q-96 0 -96 96v7q0 49 31 72q33 24 110 24h36v17q0 59 -55 59q-34 0 -76 -4l-13 -1q-15 0 -15 14v20q0 15 16 15q40 7 88 7q114 0 114 -110v-196zM217 471h-36q-47 0 -64 -12q-17 -11 -17 -38v-7q0 -47 46 -47
q32 0 71 21v83z" />
    <glyph glyph-name="b.superior" unicode="&#xf6ea;" horiz-adv-x="317" 
d="M287 461q0 -144 -127 -144q-55 0 -104 10q-16 2 -16 18v393q0 16 15 16h28q16 0 16 -16v-99q28 4 61 4q127 0 127 -142v-40zM228 501q0 90 -68 90q-42 0 -61 -3v-215l10 -1q34 -2 51 -2q68 0 68 91v40z" />
    <glyph glyph-name="d.superior" unicode="&#xf6eb;" horiz-adv-x="318" 
d="M278 345q0 -16 -16 -18q-50 -10 -104 -10q-128 0 -128 144v40q0 142 128 142q32 0 60 -4v99q0 16 16 16h28q16 0 16 -16v-393zM218 588q-27 3 -60 3q-68 0 -68 -90v-40q0 -91 68 -91q16 0 50 2l10 1v215z" />
    <glyph glyph-name="e.superior" unicode="&#xf6ec;" horiz-adv-x="318" 
d="M288 477q0 -17 -15 -17h-183v-3q0 -87 73 -87q59 0 101 6q15 0 15 -13v-18q0 -15 -15 -18q-46 -10 -101 -10q-133 0 -133 140v50q0 64 34 100t96 36q128 0 128 -136v-30zM229 507q0 84 -69 84q-70 0 -70 -84h139z" />
    <glyph glyph-name="i.superior" unicode="&#xf6ed;" horiz-adv-x="142" 
d="M101 337q0 -16 -16 -16h-28q-16 0 -16 16v287q0 16 16 16h28q16 0 16 -16v-287zM102 696q0 -16 -16 -16h-29q-17 0 -17 16v45q0 16 17 16h29q16 0 16 -16v-45z" />
    <glyph glyph-name="l.superior" unicode="&#xf6ee;" horiz-adv-x="141" 
d="M101 337q0 -16 -16 -16h-29q-16 0 -16 16v401q0 16 16 16h29q16 0 16 -16v-401z" />
    <glyph glyph-name="m.superior" unicode="&#xf6ef;" horiz-adv-x="461" 
d="M421 337q0 -16 -16 -16h-27q-16 0 -16 16v199q0 55 -46 55q-20 0 -59 -13q4 -16 4 -41v-200q0 -16 -16 -16h-30q-15 0 -15 16v200q0 32 -9 44q-8 10 -29 10q-25 0 -63 -19v-235q0 -16 -15 -16h-30q-14 0 -14 16v287q0 16 15 16h28q16 0 16 -16v-1q37 21 77 21
q36 0 57 -20q50 20 93 20q95 0 95 -108v-199z" />
    <glyph glyph-name="uni207F" unicode="&#x207f;" horiz-adv-x="326" 
d="M286 337q0 -16 -17 -16h-26q-16 0 -16 16v185q0 69 -57 69q-30 0 -71 -19v-235q0 -16 -16 -16h-27q-16 0 -16 16v287q0 16 16 16h27q16 0 16 -16v-2q41 21 85 21q102 0 102 -121v-185z" />
    <glyph glyph-name="o.superior" unicode="&#xf6f0;" horiz-adv-x="320" 
d="M290 459q0 -66 -33 -103q-34 -39 -97 -39t-97 39q-33 37 -33 103v42q0 66 33 103q34 39 97 39t97 -39q33 -37 33 -103v-42zM231 501q0 90 -71 90q-70 0 -70 -90v-42q0 -89 70 -89q71 0 71 89v42z" />
    <glyph glyph-name="r.superior" unicode="&#xf6f1;" horiz-adv-x="209" 
d="M189 606q0 -15 -17 -15q-36 0 -73 -22v-232q0 -16 -16 -16h-27q-16 0 -16 16v287q0 16 16 16h25q16 0 16 -16v-3q36 22 75 22q17 0 17 -14v-23z" />
    <glyph glyph-name="s.superior" unicode="&#xf6f2;" horiz-adv-x="275" 
d="M136 317q-55 0 -91 9q-15 2 -15 16v19q0 13 18 13q54 -6 88 -6q50 0 50 36q0 19 -39 42l-57 34q-60 35 -60 85q0 78 107 78q53 0 89 -7q14 0 14 -15v-19q0 -15 -16 -15q-50 5 -87 5q-47 0 -47 -27q0 -17 36 -40l55 -32q64 -39 64 -89q0 -87 -109 -87z" />
    <glyph glyph-name="t.superior" unicode="&#xf6f3;" horiz-adv-x="219" 
d="M209 335q0 -13 -14 -15q-16 -3 -38 -3q-44 0 -62 16q-20 17 -20 64v191l-50 7q-15 0 -15 15v15q0 15 16 15h49v50q0 16 16 16l31 4q14 0 14 -13v-57h55q16 0 16 -16v-19q0 -17 -16 -17h-55v-191q0 -31 24 -31h32q17 0 17 -12v-19z" />
    <glyph glyph-name="uni00B9" unicode="&#xb9;" horiz-adv-x="333" 
d="M71 645q-17 -6 -17 13v28q0 10 10 13l80 38q12 6 32 6h6q17 0 17 -19v-378q0 -19 -17 -19h-30q-17 0 -17 19v326z" />
    <glyph glyph-name="uni00B2" unicode="&#xb2;" horiz-adv-x="333" 
d="M222 531q-39 -25 -52 -35q-72 -48 -72 -107v-4h173q18 0 18 -17v-23q0 -18 -18 -18h-214q-18 0 -18 18v44q0 91 86 148l54 36q52 38 52 69q0 48 -73 48q-38 0 -97 -9q-16 0 -16 18v19q0 13 15 18q40 10 98 10q136 0 136 -104q0 -58 -72 -111z" />
    <glyph glyph-name="uni00B3" unicode="&#xb3;" horiz-adv-x="333" 
d="M292 446q0 -123 -142 -123q-38 0 -93 11q-16 4 -16 18v18q0 18 19 18q53 -8 90 -8q76 0 76 66v11q0 59 -55 59h-98q-17 0 -17 16v20q0 17 17 17h98q55 0 55 57v7q0 57 -76 57q-20 0 -80 -8l-12 -1q-17 0 -17 18v18q0 13 15 19q50 10 94 10q142 0 142 -113v-7
q0 -56 -43 -84q43 -27 43 -85v-11z" />
    <glyph glyph-name="commaaccent" unicode="&#xf6c3;" horiz-adv-x="342" 
d="M224 -49q11 0 11 -11l-1 -8l-54 -109q-9 -19 -24 -19h-41q-9 0 -9 8q0 4 1 8l28 112q4 19 20 19h69z" />
    <glyph glyph-name="Abreve" unicode="&#x102;" horiz-adv-x="633" 
d="M587 0h-59q-13 0 -17 15l-65 230h-259l-64 -230q-4 -15 -18 -15h-59q-17 0 -17 16q0 5 1 7l185 651q21 76 102 76q80 0 101 -75l185 -652q1 -2 1 -7q0 -16 -17 -16zM336 653q-5 18 -19 18q-15 0 -20 -18l-91 -329h221zM477 933q-5 -66 -55 -105q-45 -36 -108 -36t-108 36
q-50 39 -55 105v4q0 13 11 13h37q14 0 15 -16q4 -38 35 -60q27 -20 65 -20t65 20q31 22 35 60q1 16 15 16h37q11 0 11 -13v-4z" />
    <glyph glyph-name="Amacron" unicode="&#x100;" horiz-adv-x="633" 
d="M587 0h-59q-13 0 -17 15l-65 230h-259l-64 -230q-4 -15 -18 -15h-59q-17 0 -17 16q0 5 1 7l185 651q21 76 102 76q80 0 101 -75l185 -652q1 -2 1 -7q0 -16 -17 -16zM336 653q-5 18 -19 18q-15 0 -20 -18l-91 -329h221zM478 836q0 -17 -20 -17h-288q-20 0 -20 17v34
q0 17 20 17h288q20 0 20 -17v-34z" />
    <glyph glyph-name="Aogonek" unicode="&#x104;" horiz-adv-x="633" 
d="M187 245l-64 -230q-4 -15 -18 -15h-59q-17 0 -17 16q0 5 1 7l185 651q21 76 102 76q80 0 101 -75l183 -646q2 -8 2 -11q0 -9 -8 -15l-78 -45q-54 -31 -54 -62q0 -38 69 -38q19 0 43 4l24 3q5 0 5 -8v-36q0 -8 -11 -11q-30 -10 -72 -10q-131 0 -131 96q0 53 76 98l44 26
l-64 225h-259zM336 653q-5 18 -19 18q-15 0 -20 -18l-91 -329h221z" />
    <glyph glyph-name="AEacute" unicode="&#x1fc;" horiz-adv-x="859" 
d="M804 14q0 -12 -10 -14q-65 -7 -165 -7q-213 0 -213 186v66h-239l-64 -230q-4 -15 -18 -15h-59q-17 0 -17 16q0 5 1 7l185 645q22 75 102 75h487q10 0 10 -14v-53q0 -12 -11 -12h-286v-239h277q20 0 20 -20v-38q0 -20 -20 -20h-277v-168q0 -60 22 -80q25 -24 101 -24h163
q11 0 11 -12v-49zM416 664h-109q-15 0 -20 -17l-91 -323h220v340zM665 936l-113 -126q-13 -15 -23 -15h-54q-9 0 -9 7q0 6 4 10l98 124q12 15 24 15h66q11 0 11 -7q0 -4 -4 -8z" />
    <glyph glyph-name="Cacute" unicode="&#x106;" horiz-adv-x="545" 
d="M510 26q0 -16 -20 -20q-68 -13 -166 -13q-110 0 -178 63q-86 80 -86 246v139q0 167 86 246q68 63 178 63q67 0 168 -16q16 -2 16 -13v-51q0 -11 -12 -11h-3q-108 9 -168 9q-174 0 -174 -227v-139q0 -227 174 -227q69 0 165 8h4q16 0 16 -16v-41zM439 935l-113 -126
q-13 -15 -23 -15h-54q-9 0 -9 7q0 6 4 10l98 124q12 15 24 15h66q11 0 11 -7q0 -4 -4 -8z" />
    <glyph glyph-name="Ccaron" unicode="&#x10c;" horiz-adv-x="545" 
d="M510 26q0 -16 -20 -20q-68 -13 -166 -13q-110 0 -178 63q-86 80 -86 246v139q0 167 86 246q68 63 178 63q67 0 168 -16q16 -2 16 -13v-51q0 -11 -12 -11h-3q-108 9 -168 9q-174 0 -174 -227v-139q0 -227 174 -227q69 0 165 8h4q16 0 16 -16v-41zM471 933l-97 -124
q-12 -15 -25 -15h-85q-12 0 -24 15l-98 124q-4 4 -4 10q0 7 9 7h54q9 0 23 -16l83 -96l82 96q14 16 23 16h54q9 0 9 -7q0 -6 -4 -10z" />
    <glyph glyph-name="Ccircumflex" unicode="&#x108;" horiz-adv-x="545" 
d="M510 26q0 -16 -20 -20q-68 -13 -166 -13q-110 0 -178 63q-86 80 -86 246v139q0 167 86 246q68 63 178 63q67 0 168 -16q16 -2 16 -13v-51q0 -11 -12 -11h-3q-108 9 -168 9q-174 0 -174 -227v-139q0 -227 174 -227q69 0 165 8h4q16 0 16 -16v-41zM464 794h-52q-9 0 -23 15
l-82 97l-83 -97q-13 -15 -23 -15h-52q-9 0 -9 7q0 6 4 10l96 124q12 15 24 15h85q13 0 25 -15l95 -124q4 -4 4 -10q0 -7 -9 -7z" />
    <glyph glyph-name="Cdotaccent" unicode="&#x10a;" horiz-adv-x="545" 
d="M510 26q0 -16 -20 -20q-68 -13 -166 -13q-110 0 -178 63q-86 80 -86 246v139q0 167 86 246q68 63 178 63q67 0 168 -16q16 -2 16 -13v-51q0 -11 -12 -11h-3q-108 9 -168 9q-174 0 -174 -227v-139q0 -227 174 -227q69 0 165 8h4q16 0 16 -16v-41zM352 814q0 -20 -19 -20
h-48q-20 0 -20 20v84q0 19 20 19h48q19 0 19 -19v-84z" />
    <glyph glyph-name="Dcaron" unicode="&#x10e;" horiz-adv-x="641" 
d="M584 304q0 -156 -82 -236q-78 -75 -221 -75q-124 0 -182 10q-21 3 -21 25v687q0 22 21 25q58 10 182 10q303 0 303 -311v-135zM493 439q0 233 -212 233q-61 0 -111 -3v-596q32 -2 111 -2q212 0 212 233v135zM485 933l-97 -124q-12 -15 -25 -15h-85q-12 0 -24 15l-98 124
q-4 4 -4 10q0 7 9 7h54q9 0 23 -16l83 -96l82 96q14 16 23 16h54q9 0 9 -7q0 -6 -4 -10z" />
    <glyph glyph-name="Dcroat" unicode="&#x110;" horiz-adv-x="641" 
d="M584 304q0 -156 -82 -236q-78 -75 -221 -75q-124 0 -182 10q-21 3 -21 25v319h-38q-20 0 -20 20v38q0 20 20 20h38v290q0 22 21 25q58 10 182 10q303 0 303 -311v-135zM493 439q0 233 -212 233q-61 0 -111 -3v-244h103q20 0 20 -20v-38q0 -20 -20 -20h-103v-274
q32 -2 111 -2q212 0 212 233v135z" />
    <glyph glyph-name="Ebreve" unicode="&#x114;" horiz-adv-x="551" 
d="M496 12q0 -12 -10 -14q-47 -5 -195 -5q-213 0 -213 186v385q0 186 213 186q132 0 195 -6q10 -2 10 -14v-50q0 -12 -11 -12h-193q-76 0 -101 -23q-22 -21 -22 -81v-139h307q20 0 20 -20v-38q0 -20 -20 -20h-307v-168q0 -60 22 -80q25 -24 101 -24h193q11 0 11 -12v-51z
M470 935q-5 -66 -55 -105q-45 -36 -108 -36t-108 36q-50 39 -55 105v4q0 13 11 13h37q14 0 15 -16q4 -38 35 -60q27 -20 65 -20t65 20q31 22 35 60q1 16 15 16h37q11 0 11 -13v-4z" />
    <glyph glyph-name="Ecaron" unicode="&#x11a;" horiz-adv-x="551" 
d="M496 12q0 -12 -10 -14q-47 -5 -195 -5q-213 0 -213 186v385q0 186 213 186q132 0 195 -6q10 -2 10 -14v-50q0 -12 -11 -12h-193q-76 0 -101 -23q-22 -21 -22 -81v-139h307q20 0 20 -20v-38q0 -20 -20 -20h-307v-168q0 -60 22 -80q25 -24 101 -24h193q11 0 11 -12v-51z
M451 933l-97 -124q-12 -15 -25 -15h-85q-12 0 -24 15l-98 124q-4 4 -4 10q0 7 9 7h54q9 0 23 -16l83 -96l82 96q14 16 23 16h54q9 0 9 -7q0 -6 -4 -10z" />
    <glyph glyph-name="Edotaccent" unicode="&#x116;" horiz-adv-x="551" 
d="M496 12q0 -12 -10 -14q-47 -5 -195 -5q-213 0 -213 186v385q0 186 213 186q132 0 195 -6q10 -2 10 -14v-50q0 -12 -11 -12h-193q-76 0 -101 -23q-22 -21 -22 -81v-139h307q20 0 20 -20v-38q0 -20 -20 -20h-307v-168q0 -60 22 -80q25 -24 101 -24h193q11 0 11 -12v-51z
M343 829q0 -20 -19 -20h-48q-20 0 -20 20v84q0 19 20 19h48q19 0 19 -19v-84z" />
    <glyph glyph-name="Emacron" unicode="&#x112;" horiz-adv-x="551" 
d="M496 12q0 -12 -10 -14q-47 -5 -195 -5q-213 0 -213 186v385q0 186 213 186q132 0 195 -6q10 -2 10 -14v-50q0 -12 -11 -12h-193q-76 0 -101 -23q-22 -21 -22 -81v-139h307q20 0 20 -20v-38q0 -20 -20 -20h-307v-168q0 -60 22 -80q25 -24 101 -24h193q11 0 11 -12v-51z
M463 836q0 -17 -20 -17h-288q-20 0 -20 17v34q0 17 20 17h288q20 0 20 -17v-34z" />
    <glyph glyph-name="Eng" unicode="&#x14a;" horiz-adv-x="680" 
d="M602 -37q0 -143 -155 -143q-37 0 -53 8q-6 3 -6 11v37q0 17 20 17h39q38 0 52 17q13 15 13 53v37h-1q-24 0 -32 16l-309 587q-1 3 -3 3q-1 0 -1 -3v-584q0 -19 -18 -19h-52q-18 0 -18 12v703q0 28 29 28h55q30 0 41 -20l309 -587q1 0 1 3v585q0 19 18 19h53q18 0 18 -19
v-761z" />
    <glyph glyph-name="Eogonek" unicode="&#x118;" horiz-adv-x="551" 
d="M496 12q0 -12 -10 -14q-20 -2 -40 -2l-54 -38q-54 -37 -54 -62q0 -38 69 -38q19 0 45 5l26 5q5 0 5 -8v-39q0 -8 -11 -11q-30 -10 -76 -10q-131 0 -131 96q0 54 64 91l10 6h-48q-213 0 -213 186v385q0 186 213 186q132 0 195 -6q10 -2 10 -14v-50q0 -12 -11 -12h-193
q-76 0 -101 -23q-22 -21 -22 -81v-139h307q20 0 20 -20v-38q0 -20 -20 -20h-307v-168q0 -60 22 -80q25 -24 101 -24h193q11 0 11 -12v-51z" />
    <glyph glyph-name="Gbreve" unicode="&#x11e;" horiz-adv-x="612" 
d="M534 30q0 -19 -18 -22q-92 -15 -199 -15t-176 70q-83 82 -83 241v134q0 167 86 247q69 65 182 65q101 0 190 -14q17 -2 17 -15v-50q0 -10 -13 -10h-4q-83 7 -190 7q-177 0 -177 -230v-134q0 -117 49 -177q44 -53 119 -53q54 0 126 6v286q0 20 18 20h54q19 0 19 -20v-336z
M469 933q-5 -66 -55 -105q-45 -36 -108 -36t-108 36q-50 39 -55 105v4q0 13 11 13h37q14 0 15 -16q4 -38 35 -60q27 -20 65 -20t65 20q31 22 35 60q1 16 15 16h37q11 0 11 -13v-4z" />
    <glyph glyph-name="Gcircumflex" unicode="&#x11c;" horiz-adv-x="612" 
d="M534 30q0 -19 -18 -22q-92 -15 -199 -15t-176 70q-83 82 -83 241v134q0 167 86 247q69 65 182 65q101 0 190 -14q17 -2 17 -15v-50q0 -10 -13 -10h-4q-83 7 -190 7q-177 0 -177 -230v-134q0 -117 49 -177q44 -53 119 -53q54 0 126 6v286q0 20 18 20h54q19 0 19 -20v-336z
M477 794h-52q-9 0 -23 15l-82 97l-83 -97q-13 -15 -23 -15h-52q-9 0 -9 7q0 6 4 10l96 124q12 15 24 15h85q13 0 25 -15l95 -124q4 -4 4 -10q0 -7 -9 -7z" />
    <glyph glyph-name="uni0122" unicode="&#x122;" horiz-adv-x="612" 
d="M360 -49q11 0 11 -11l-1 -8l-54 -109q-9 -19 -24 -19h-41q-9 0 -9 8q0 4 1 8l28 112q4 19 20 19h69zM534 30q0 -19 -18 -22q-92 -15 -199 -15t-176 70q-83 82 -83 241v134q0 167 86 247q69 65 182 65q101 0 190 -14q17 -2 17 -15v-50q0 -10 -13 -10h-4q-83 7 -190 7
q-177 0 -177 -230v-134q0 -117 49 -177q44 -53 119 -53q54 0 126 6v286q0 20 18 20h54q19 0 19 -20v-336z" />
    <glyph glyph-name="Gdotaccent" unicode="&#x120;" horiz-adv-x="612" 
d="M534 30q0 -19 -18 -22q-92 -15 -199 -15t-176 70q-83 82 -83 241v134q0 167 86 247q69 65 182 65q101 0 190 -14q17 -2 17 -15v-50q0 -10 -13 -10h-4q-83 7 -190 7q-177 0 -177 -230v-134q0 -117 49 -177q44 -53 119 -53q54 0 126 6v286q0 20 18 20h54q19 0 19 -20v-336z
M365 814q0 -20 -19 -20h-48q-20 0 -20 20v84q0 19 20 19h48q19 0 19 -19v-84z" />
    <glyph glyph-name="Hbar" unicode="&#x126;" horiz-adv-x="680" 
d="M660 562q0 -20 -20 -20h-38v-522q0 -20 -20 -20h-51q-20 0 -20 20v332h-342v-332q0 -20 -20 -20h-51q-20 0 -20 20v522h-38q-20 0 -20 20v41q0 20 20 20h38v100q0 20 20 20h51q20 0 20 -20v-100h342v100q0 20 20 20h51q20 0 20 -20v-100h38q20 0 20 -20v-41zM511 433v109
h-342v-109h342z" />
    <glyph glyph-name="Hcircumflex" unicode="&#x124;" horiz-adv-x="680" 
d="M602 20q0 -20 -20 -20h-51q-20 0 -20 20v332h-342v-332q0 -20 -20 -20h-51q-20 0 -20 20v703q0 20 20 20h51q20 0 20 -20v-290h342v290q0 20 20 20h51q20 0 20 -20v-703zM498 793h-52q-9 0 -23 15l-82 97l-83 -97q-13 -15 -23 -15h-52q-9 0 -9 7q0 6 4 10l96 124
q12 15 24 15h85q13 0 25 -15l95 -124q4 -4 4 -10q0 -7 -9 -7z" />
    <glyph glyph-name="Ibreve" unicode="&#x12c;" horiz-adv-x="267" 
d="M179 20q0 -20 -18 -20h-55q-18 0 -18 20v704q0 19 18 19h55q18 0 18 -19v-704zM296 934q-5 -66 -55 -105q-45 -36 -108 -36t-108 36q-50 39 -55 105v4q0 13 11 13h37q14 0 15 -16q4 -38 35 -60q27 -20 65 -20t65 20q31 22 35 60q1 16 15 16h37q11 0 11 -13v-4z" />
    <glyph glyph-name="IJ" unicode="&#x132;" horiz-adv-x="524" 
d="M179 20q0 -20 -18 -20h-55q-18 0 -18 20v704q0 19 18 19h55q18 0 18 -19v-704zM446 -37q0 -143 -155 -143q-37 0 -53 8q-6 3 -6 11v37q0 17 20 17h39q38 0 52 17q12 14 12 53v761q0 19 19 19h53q19 0 19 -19v-761z" />
    <glyph glyph-name="Imacron" unicode="&#x12a;" horiz-adv-x="267" 
d="M179 20q0 -20 -18 -20h-55q-18 0 -18 20v704q0 19 18 19h55q18 0 18 -19v-704zM297 837q0 -17 -20 -17h-288q-20 0 -20 17v34q0 17 20 17h288q20 0 20 -17v-34z" />
    <glyph glyph-name="Iogonek" unicode="&#x12e;" horiz-adv-x="267" 
d="M70 -5l18 13v716q0 19 18 19h55q18 0 18 -19v-707q0 -11 -8 -17l-36 -29q-54 -44 -54 -75q0 -38 69 -38q19 0 45 5l26 5q5 0 5 -8v-39q0 -8 -11 -11q-30 -10 -76 -10q-131 0 -131 96q0 55 62 99z" />
    <glyph glyph-name="Itilde" unicode="&#x128;" horiz-adv-x="267" 
d="M179 20q0 -20 -18 -20h-55q-18 0 -18 20v704q0 19 18 19h55q18 0 18 -19v-704zM310 891q0 -105 -94 -105q-37 0 -64 21l-61 49q-28 22 -41 22q-31 0 -31 -46v-21q0 -17 -17 -17h-31q-16 0 -16 17v21q0 109 95 109q29 0 60 -24l71 -56q18 -14 35 -14q30 0 30 44v23
q0 17 17 17h31q16 0 16 -17v-23z" />
    <glyph glyph-name="Jcircumflex" unicode="&#x134;" horiz-adv-x="257" 
d="M179 -37q0 -143 -155 -143q-37 0 -53 8q-6 3 -6 11v37q0 17 20 17h39q38 0 52 17q12 14 12 53v761q0 19 19 19h53q19 0 19 -19v-761zM292 794h-52q-9 0 -23 15l-82 97l-83 -97q-13 -15 -23 -15h-52q-9 0 -9 7q0 6 4 10l96 124q12 15 24 15h85q13 0 25 -15l95 -124
q4 -4 4 -10q0 -7 -9 -7z" />
    <glyph glyph-name="uni0136" unicode="&#x136;" horiz-adv-x="607" 
d="M357 -49q11 0 11 -11l-1 -8l-54 -109q-9 -19 -24 -19h-41q-9 0 -9 8q0 4 1 8l28 112q4 19 20 19h69zM551 0h-78q-13 0 -22 10l-282 343v-333q0 -20 -18 -20h-55q-18 0 -18 20v704q0 19 19 19h53q19 0 19 -19v-323l288 333q9 9 20 9h72q14 0 14 -11q0 -6 -4 -10l-301 -340
l301 -360q5 -5 5 -12q0 -10 -13 -10z" />
    <glyph glyph-name="Lacute" unicode="&#x139;" horiz-adv-x="514" 
d="M496 16q0 -12 -10 -14q-58 -9 -195 -9q-99 0 -147 31q-66 43 -66 155v544q0 20 20 20h51q20 0 20 -20v-544q0 -60 22 -80q25 -24 101 -24h193q11 0 11 -12v-47zM390 935l-113 -126q-13 -15 -23 -15h-54q-9 0 -9 7q0 6 4 10l98 124q12 15 24 15h66q11 0 11 -7q0 -4 -4 -8z
" />
    <glyph glyph-name="Lcaron" unicode="&#x13d;" horiz-adv-x="514" 
d="M426 733l-75 -189q-7 -19 -19 -19h-41q-12 0 -12 12q0 5 1 7l57 189q6 19 20 19h58q13 0 13 -11q0 -2 -2 -8zM496 16q0 -12 -10 -14q-58 -9 -195 -9q-99 0 -147 31q-66 43 -66 155v544q0 20 20 20h51q20 0 20 -20v-544q0 -60 22 -80q25 -24 101 -24h193q11 0 11 -12v-47z
" />
    <glyph glyph-name="uni013B" unicode="&#x13b;" horiz-adv-x="514" 
d="M321 -49q11 0 11 -11l-1 -8l-54 -109q-9 -19 -24 -19h-41q-9 0 -9 8q0 4 1 8l28 112q4 19 20 19h69zM496 16q0 -12 -10 -14q-58 -9 -195 -9q-99 0 -147 31q-66 43 -66 155v544q0 20 20 20h51q20 0 20 -20v-544q0 -60 22 -80q25 -24 101 -24h193q11 0 11 -12v-47z" />
    <glyph glyph-name="Ldot" unicode="&#x13f;" horiz-adv-x="514" 
d="M496 16q0 -12 -10 -14q-58 -9 -195 -9q-99 0 -147 31q-66 43 -66 155v544q0 20 20 20h51q20 0 20 -20v-544q0 -60 22 -80q25 -24 101 -24h193q11 0 11 -12v-47zM402 323q0 -20 -19 -20h-48q-20 0 -20 20v84q0 19 20 19h48q19 0 19 -19v-84z" />
    <glyph glyph-name="Nacute" unicode="&#x143;" horiz-adv-x="680" 
d="M602 29q0 -29 -29 -29h-62q-24 0 -32 16l-309 587q-1 3 -3 3q-1 0 -1 -3v-584q0 -19 -18 -19h-52q-18 0 -18 12v703q0 28 29 28h55q30 0 41 -20l309 -587q1 0 1 3v585q0 19 18 19h53q18 0 18 -19v-695zM473 935l-113 -126q-13 -15 -23 -15h-54q-9 0 -9 7q0 6 4 10l98 124
q12 15 24 15h66q11 0 11 -7q0 -4 -4 -8z" />
    <glyph glyph-name="Ncaron" unicode="&#x147;" horiz-adv-x="680" 
d="M602 29q0 -29 -29 -29h-62q-24 0 -32 16l-309 587q-1 3 -3 3q-1 0 -1 -3v-584q0 -19 -18 -19h-52q-18 0 -18 12v703q0 28 29 28h55q30 0 41 -20l309 -587q1 0 1 3v585q0 19 18 19h53q18 0 18 -19v-695zM505 933l-97 -124q-12 -15 -25 -15h-85q-12 0 -24 15l-98 124
q-4 4 -4 10q0 7 9 7h54q9 0 23 -16l83 -96l82 96q14 16 23 16h54q9 0 9 -7q0 -6 -4 -10z" />
    <glyph glyph-name="uni0145" unicode="&#x145;" horiz-adv-x="680" 
d="M384 -49q11 0 11 -11l-1 -8l-54 -109q-9 -19 -24 -19h-41q-9 0 -9 8q0 4 1 8l28 112q4 19 20 19h69zM602 29q0 -29 -29 -29h-62q-24 0 -32 16l-309 587q-1 3 -3 3q-1 0 -1 -3v-584q0 -19 -18 -19h-52q-18 0 -18 12v703q0 28 29 28h55q30 0 41 -20l309 -587q1 0 1 3v585
q0 19 18 19h53q18 0 18 -19v-695z" />
    <glyph glyph-name="Obreve" unicode="&#x14e;" horiz-adv-x="661" 
d="M601 307q0 -160 -76 -240q-70 -74 -194 -74t-194 74q-77 81 -77 240v129q0 159 77 240q70 74 194 74t194 -74q76 -80 76 -240v-129zM509 436q0 232 -178 232q-179 0 -179 -232v-129q0 -232 179 -232q178 0 178 232v129zM503 936q-5 -66 -55 -105q-45 -36 -108 -36
t-108 36q-50 39 -55 105v4q0 13 11 13h37q14 0 15 -16q4 -38 35 -60q27 -20 65 -20t65 20q31 22 35 60q1 16 15 16h37q11 0 11 -13v-4z" />
    <glyph glyph-name="Ohungarumlaut" unicode="&#x150;" horiz-adv-x="661" 
d="M601 307q0 -160 -76 -240q-70 -74 -194 -74t-194 74q-77 81 -77 240v129q0 159 77 240q70 74 194 74t194 -74q76 -80 76 -240v-129zM509 436q0 232 -178 232q-179 0 -179 -232v-129q0 -232 179 -232q178 0 178 232v129zM550 935l-112 -126q-13 -15 -23 -15h-54q-9 0 -9 7
q0 6 4 10l97 124q12 15 25 15h65q11 0 11 -7q0 -4 -4 -8zM375 935l-112 -126q-13 -15 -23 -15h-54q-9 0 -9 7q0 6 4 10l97 124q12 15 25 15h65q11 0 11 -7q0 -4 -4 -8z" />
    <glyph glyph-name="Omacron" unicode="&#x14c;" horiz-adv-x="661" 
d="M601 307q0 -160 -76 -240q-70 -74 -194 -74t-194 74q-77 81 -77 240v129q0 159 77 240q70 74 194 74t194 -74q76 -80 76 -240v-129zM509 436q0 232 -178 232q-179 0 -179 -232v-129q0 -232 179 -232q178 0 178 232v129zM495 836q0 -17 -20 -17h-288q-20 0 -20 17v34
q0 17 20 17h288q20 0 20 -17v-34z" />
    <glyph glyph-name="Oslashacute" unicode="&#x1fe;" horiz-adv-x="661" 
d="M630 727l-71 -98q42 -75 42 -193v-129q0 -160 -76 -240q-70 -74 -194 -74q-114 0 -183 63l-31 -44q-14 -19 -25 -19h-53q-11 0 -11 11q0 4 3 8l72 100q-43 74 -43 195v129q0 159 77 240q70 74 194 74q116 0 184 -64l29 41q14 19 26 19h52q11 0 11 -11q0 -3 -3 -8z
M462 613q-45 55 -131 55q-179 0 -179 -232v-129q0 -59 13 -108zM509 436q0 63 -12 106l-297 -414q44 -53 131 -53q178 0 178 232v129zM481 935l-113 -126q-13 -15 -23 -15h-54q-9 0 -9 7q0 6 4 10l98 124q12 15 24 15h66q11 0 11 -7q0 -4 -4 -8z" />
    <glyph glyph-name="Racute" unicode="&#x154;" horiz-adv-x="625" 
d="M573 0h-64q-18 0 -26 13l-179 298h-26q-30 0 -110 3v-294q0 -20 -18 -20h-54q-18 0 -18 20v700q0 19 24 22q69 8 176 8q280 0 280 -215v-7q0 -161 -157 -202l182 -304q3 -4 3 -9q0 -13 -13 -13zM468 535q0 73 -48 104q-45 29 -142 29q-86 0 -110 -3v-274l110 -2
q97 0 141 29q49 32 49 110v7zM445 935l-113 -126q-13 -15 -23 -15h-54q-9 0 -9 7q0 6 4 10l98 124q12 15 24 15h66q11 0 11 -7q0 -4 -4 -8z" />
    <glyph glyph-name="Rcaron" unicode="&#x158;" horiz-adv-x="625" 
d="M573 0h-64q-18 0 -26 13l-179 298h-26q-30 0 -110 3v-294q0 -20 -18 -20h-54q-18 0 -18 20v700q0 19 24 22q69 8 176 8q280 0 280 -215v-7q0 -161 -157 -202l182 -304q3 -4 3 -9q0 -13 -13 -13zM468 535q0 73 -48 104q-45 29 -142 29q-86 0 -110 -3v-274l110 -2
q97 0 141 29q49 32 49 110v7zM477 933l-97 -124q-12 -15 -25 -15h-85q-12 0 -24 15l-98 124q-4 4 -4 10q0 7 9 7h54q9 0 23 -16l83 -96l82 96q14 16 23 16h54q9 0 9 -7q0 -6 -4 -10z" />
    <glyph glyph-name="uni0156" unicode="&#x156;" horiz-adv-x="625" 
d="M366 -49q11 0 11 -11l-1 -8l-54 -109q-9 -19 -24 -19h-41q-9 0 -9 8q0 4 1 8l28 112q4 19 20 19h69zM573 0h-64q-18 0 -26 13l-179 298h-26q-30 0 -110 3v-294q0 -20 -18 -20h-54q-18 0 -18 20v700q0 19 24 22q69 8 176 8q280 0 280 -215v-7q0 -161 -157 -202l182 -304
q3 -4 3 -9q0 -13 -13 -13zM468 535q0 73 -48 104q-45 29 -142 29q-86 0 -110 -3v-274l110 -2q97 0 141 29q49 32 49 110v7z" />
    <glyph glyph-name="Sacute" unicode="&#x15a;" horiz-adv-x="550" 
d="M253 -7q-78 0 -166 14q-19 3 -19 18v40q0 16 17 16h3q69 -6 165 -6q152 0 152 118q0 37 -26 65q-24 26 -94 69l-97 59q-138 84 -138 187q0 177 239 177q98 0 174 -12q17 -3 17 -17v-43q0 -16 -17 -16h-2q-88 6 -172 6q-79 0 -112 -20q-35 -21 -35 -75q0 -55 109 -121
l92 -55q157 -93 157 -204q0 -200 -247 -200zM408 935l-113 -126q-13 -15 -23 -15h-54q-9 0 -9 7q0 6 4 10l98 124q12 15 24 15h66q11 0 11 -7q0 -4 -4 -8z" />
    <glyph glyph-name="Scedilla" unicode="&#x15e;" horiz-adv-x="550" 
d="M253 -7q-78 0 -166 14q-19 3 -19 18v40q0 16 17 16h3q69 -6 165 -6q152 0 152 118q0 37 -26 65q-24 26 -94 69l-97 59q-138 84 -138 187q0 177 239 177q98 0 174 -12q17 -3 17 -17v-43q0 -16 -17 -16h-2q-88 6 -172 6q-79 0 -112 -20q-35 -21 -35 -75q0 -55 109 -121
l92 -55q157 -93 157 -204q0 -200 -247 -200zM323 -47l-113 -126q-13 -15 -23 -15h-54q-9 0 -9 7q0 6 4 10l97 124q12 15 25 15h66q11 0 11 -7q0 -4 -4 -8z" />
    <glyph glyph-name="Scircumflex" unicode="&#x15c;" horiz-adv-x="550" 
d="M253 -7q-78 0 -166 14q-19 3 -19 18v40q0 16 17 16h3q69 -6 165 -6q152 0 152 118q0 37 -26 65q-24 26 -94 69l-97 59q-138 84 -138 187q0 177 239 177q98 0 174 -12q17 -3 17 -17v-43q0 -16 -17 -16h-2q-88 6 -172 6q-79 0 -112 -20q-35 -21 -35 -75q0 -55 109 -121
l92 -55q157 -93 157 -204q0 -200 -247 -200zM419 794h-52q-9 0 -23 15l-82 97l-83 -97q-13 -15 -23 -15h-52q-9 0 -9 7q0 6 4 10l96 124q12 15 24 15h85q13 0 25 -15l95 -124q4 -4 4 -10q0 -7 -9 -7z" />
    <glyph glyph-name="uni0218" unicode="&#x218;" horiz-adv-x="550" 
d="M319 -49q11 0 11 -11l-1 -8l-54 -109q-9 -19 -24 -19h-41q-9 0 -9 8q0 4 1 8l28 112q4 19 20 19h69zM253 -7q-78 0 -166 14q-19 3 -19 18v40q0 16 17 16h3q69 -6 165 -6q152 0 152 118q0 37 -26 65q-24 26 -94 69l-97 59q-138 84 -138 187q0 177 239 177q98 0 174 -12
q17 -3 17 -17v-43q0 -16 -17 -16h-2q-88 6 -172 6q-79 0 -112 -20q-35 -21 -35 -75q0 -55 109 -121l92 -55q157 -93 157 -204q0 -200 -247 -200z" />
    <glyph glyph-name="Tbar" unicode="&#x166;" horiz-adv-x="590" 
d="M341 465v-445q0 -20 -18 -20h-55q-18 0 -18 20v445h-195q-20 0 -20 16v44q0 18 20 18h195v122h-195q-20 0 -20 16v44q0 18 20 18h481q19 0 19 -18v-44q0 -16 -19 -16h-195v-122h195q19 0 19 -18v-44q0 -16 -19 -16h-195z" />
    <glyph glyph-name="Tcaron" unicode="&#x164;" horiz-adv-x="590" 
d="M555 681q0 -16 -19 -16h-195v-645q0 -20 -18 -20h-55q-18 0 -18 20v645h-195q-20 0 -20 16v44q0 18 20 18h481q19 0 19 -18v-44zM460 933l-97 -124q-12 -15 -25 -15h-85q-12 0 -24 15l-98 124q-4 4 -4 10q0 7 9 7h54q9 0 23 -16l83 -96l82 96q14 16 23 16h54q9 0 9 -7
q0 -6 -4 -10z" />
    <glyph glyph-name="uni0162" unicode="&#x162;" horiz-adv-x="590" 
d="M333 -49q11 0 11 -11l-1 -8l-54 -109q-9 -19 -24 -19h-41q-9 0 -9 8q0 4 1 8l28 112q4 19 20 19h69zM555 681q0 -16 -19 -16h-195v-645q0 -20 -18 -20h-55q-18 0 -18 20v645h-195q-20 0 -20 16v44q0 18 20 18h481q19 0 19 -18v-44z" />
    <glyph glyph-name="Ubreve" unicode="&#x16c;" horiz-adv-x="662" 
d="M587 270q0 -277 -256 -277t-256 277v454q0 19 19 19h54q19 0 19 -19v-454q0 -101 36 -148q38 -51 128 -51t129 51q35 46 35 148v454q0 19 19 19h54q19 0 19 -19v-454zM491 936q-5 -66 -55 -105q-45 -36 -108 -36t-108 36q-50 39 -55 105v4q0 13 11 13h37q14 0 15 -16
q4 -38 35 -60q27 -20 65 -20t65 20q31 22 35 60q1 16 15 16h37q11 0 11 -13v-4z" />
    <glyph glyph-name="Uhungarumlaut" unicode="&#x170;" horiz-adv-x="662" 
d="M587 270q0 -277 -256 -277t-256 277v454q0 19 19 19h54q19 0 19 -19v-454q0 -101 36 -148q38 -51 128 -51t129 51q35 46 35 148v454q0 19 19 19h54q19 0 19 -19v-454zM551 935l-112 -126q-13 -15 -23 -15h-54q-9 0 -9 7q0 6 4 10l97 124q12 15 25 15h65q11 0 11 -7
q0 -4 -4 -8zM376 935l-112 -126q-13 -15 -23 -15h-54q-9 0 -9 7q0 6 4 10l97 124q12 15 25 15h65q11 0 11 -7q0 -4 -4 -8z" />
    <glyph glyph-name="Umacron" unicode="&#x16a;" horiz-adv-x="662" 
d="M587 270q0 -277 -256 -277t-256 277v454q0 19 19 19h54q19 0 19 -19v-454q0 -101 36 -148q38 -51 128 -51t129 51q35 46 35 148v454q0 19 19 19h54q19 0 19 -19v-454zM495 837q0 -17 -20 -17h-288q-20 0 -20 17v34q0 17 20 17h288q20 0 20 -17v-34z" />
    <glyph glyph-name="Uogonek" unicode="&#x172;" horiz-adv-x="662" 
d="M587 270q1 -167 -111 -245l-96 -67q-54 -38 -54 -62q0 -38 69 -38q19 0 45 5l26 5q5 0 5 -8v-39q0 -8 -11 -11q-30 -10 -76 -10q-131 0 -131 96q0 60 64 91l11 6q-253 2 -253 277v454q0 19 19 19h54q19 0 19 -19v-454q0 -101 36 -148q38 -51 128 -51t129 51q35 46 35 148
v454q0 19 19 19h54q19 0 19 -19v-454z" />
    <glyph glyph-name="Uring" unicode="&#x16e;" horiz-adv-x="662" 
d="M587 270q0 -277 -256 -277t-256 277v454q0 19 19 19h54q19 0 19 -19v-454q0 -101 36 -148q38 -51 128 -51t129 51q35 46 35 148v454q0 19 19 19h54q19 0 19 -19v-454zM404 807q-30 -30 -72 -30t-72 30q-30 29 -30 71t30 72t72 30t72 -30q29 -30 29 -72t-29 -71zM369 916
q-15 15 -37 15t-37 -15t-15 -37t15 -37q15 -16 37 -16t37 16q16 15 16 37t-16 37z" />
    <glyph glyph-name="Utilde" unicode="&#x168;" horiz-adv-x="662" 
d="M587 270q0 -277 -256 -277t-256 277v454q0 19 19 19h54q19 0 19 -19v-454q0 -101 36 -148q38 -51 128 -51t129 51q35 46 35 148v454q0 19 19 19h54q19 0 19 -19v-454zM505 892q0 -105 -94 -105q-37 0 -64 21l-61 49q-28 22 -41 22q-31 0 -31 -46v-21q0 -17 -17 -17h-31
q-16 0 -16 17v21q0 109 95 109q29 0 60 -24l71 -56q18 -14 35 -14q30 0 30 44v23q0 17 17 17h31q16 0 16 -17v-23z" />
    <glyph glyph-name="Wacute" unicode="&#x1e82;" horiz-adv-x="825" 
d="M680 47q-9 -51 -62 -51h-43q-44 0 -57 50l-98 370q-2 9 -6 9h-2q-4 0 -6 -9l-99 -370q-13 -50 -57 -50h-42q-53 0 -62 51l-111 679q0 17 17 17h58q14 0 17 -17l97 -637q3 -15 5 -15q4 0 7 15l98 370q10 40 47 40h64q37 0 47 -40l98 -370q3 -15 7 -15q2 0 5 15l97 637
q3 17 17 17h58q17 0 17 -17zM555 936l-113 -126q-13 -15 -23 -15h-54q-9 0 -9 7q0 6 4 10l98 124q12 15 24 15h66q11 0 11 -7q0 -4 -4 -8z" />
    <glyph glyph-name="Wcircumflex" unicode="&#x174;" horiz-adv-x="825" 
d="M680 47q-9 -51 -62 -51h-43q-44 0 -57 50l-98 370q-2 9 -6 9h-2q-4 0 -6 -9l-99 -370q-13 -50 -57 -50h-42q-53 0 -62 51l-111 679q0 17 17 17h58q14 0 17 -17l97 -637q3 -15 5 -15q4 0 7 15l98 370q10 40 47 40h64q37 0 47 -40l98 -370q3 -15 7 -15q2 0 5 15l97 637
q3 17 17 17h58q17 0 17 -17zM570 794h-52q-9 0 -23 15l-82 97l-83 -97q-13 -15 -23 -15h-52q-9 0 -9 7q0 6 4 10l96 124q12 15 24 15h85q13 0 25 -15l95 -124q4 -4 4 -10q0 -7 -9 -7z" />
    <glyph glyph-name="Wdieresis" unicode="&#x1e84;" horiz-adv-x="825" 
d="M680 47q-9 -51 -62 -51h-43q-44 0 -57 50l-98 370q-2 9 -6 9h-2q-4 0 -6 -9l-99 -370q-13 -50 -57 -50h-42q-53 0 -62 51l-111 679q0 17 17 17h58q14 0 17 -17l97 -637q3 -15 5 -15q4 0 7 15l98 370q10 40 47 40h64q37 0 47 -40l98 -370q3 -15 7 -15q2 0 5 15l97 637
q3 17 17 17h58q17 0 17 -17zM539 813q0 -19 -20 -19h-39q-20 0 -20 19v81q0 20 20 20h39q20 0 20 -20v-81zM364 813q0 -19 -20 -19h-39q-20 0 -20 19v81q0 20 20 20h39q20 0 20 -20v-81z" />
    <glyph glyph-name="Wgrave" unicode="&#x1e80;" horiz-adv-x="825" 
d="M680 47q-9 -51 -62 -51h-43q-44 0 -57 50l-98 370q-2 9 -6 9h-2q-4 0 -6 -9l-99 -370q-13 -50 -57 -50h-42q-53 0 -62 51l-111 679q0 17 17 17h58q14 0 17 -17l97 -637q3 -15 5 -15q4 0 7 15l98 370q10 40 47 40h64q37 0 47 -40l98 -370q3 -15 7 -15q2 0 5 15l97 637
q3 17 17 17h58q17 0 17 -17zM475 794h-54q-9 0 -23 15l-113 126q-4 4 -4 8q0 7 11 7h66q13 0 25 -15l97 -124q4 -4 4 -10q0 -7 -9 -7z" />
    <glyph glyph-name="Ycircumflex" unicode="&#x176;" horiz-adv-x="583" 
d="M546 718l-155 -348q-24 -52 -54 -66v-284q0 -20 -18 -20h-55q-18 0 -18 20v284q-29 11 -54 66l-154 348q-3 6 -3 11q0 14 17 14h61q12 0 18 -14l138 -324q11 -26 23 -26t23 26l139 324q6 14 17 14h61q17 0 17 -14q0 -5 -3 -11zM451 795h-52q-9 0 -23 15l-82 97l-83 -97
q-13 -15 -23 -15h-52q-9 0 -9 7q0 6 4 10l96 124q12 15 24 15h85q13 0 25 -15l95 -124q4 -4 4 -10q0 -7 -9 -7z" />
    <glyph glyph-name="Ygrave" unicode="&#x1ef2;" horiz-adv-x="583" 
d="M546 718l-155 -348q-24 -52 -54 -66v-284q0 -20 -18 -20h-55q-18 0 -18 20v284q-29 11 -54 66l-154 348q-3 6 -3 11q0 14 17 14h61q12 0 18 -14l138 -324q11 -26 23 -26t23 26l139 324q6 14 17 14h61q17 0 17 -14q0 -5 -3 -11zM347 794h-54q-9 0 -23 15l-113 126
q-4 4 -4 8q0 7 11 7h66q13 0 25 -15l97 -124q4 -4 4 -10q0 -7 -9 -7z" />
    <glyph glyph-name="Zacute" unicode="&#x179;" horiz-adv-x="597" 
d="M544 18q0 -18 -20 -18h-385q-48 0 -65 14q-18 14 -18 54q0 36 15 58l358 521q3 5 3 8q0 7 -10 7h-332q-20 0 -20 17v47q0 17 20 17h356q45 0 64 -12q21 -15 21 -54q0 -35 -16 -59l-357 -521q-3 -4 -3 -9q0 -6 10 -6h359q20 0 20 -17v-47zM431 935l-113 -126
q-13 -15 -23 -15h-54q-9 0 -9 7q0 6 4 10l98 124q12 15 24 15h66q11 0 11 -7q0 -4 -4 -8z" />
    <glyph glyph-name="Zdotaccent" unicode="&#x17b;" horiz-adv-x="597" 
d="M544 18q0 -18 -20 -18h-385q-48 0 -65 14q-18 14 -18 54q0 36 15 58l358 521q3 5 3 8q0 7 -10 7h-332q-20 0 -20 17v47q0 17 20 17h356q45 0 64 -12q21 -15 21 -54q0 -35 -16 -59l-357 -521q-3 -4 -3 -9q0 -6 10 -6h359q20 0 20 -17v-47zM342 829q0 -20 -19 -20h-48
q-20 0 -20 20v84q0 19 20 19h48q19 0 19 -19v-84z" />
    <glyph glyph-name="Idotaccent" unicode="&#x130;" horiz-adv-x="267" 
d="M179 20q0 -20 -18 -20h-55q-18 0 -18 20v704q0 19 18 19h55q18 0 18 -19v-704zM177 829q0 -20 -19 -20h-48q-20 0 -20 20v84q0 19 20 19h48q19 0 19 -19v-84z" />
    <glyph glyph-name="abreve" unicode="&#x103;" horiz-adv-x="519" 
d="M451 20q0 -20 -20 -20h-46q-20 0 -20 20v22q-84 -49 -154 -49q-163 0 -163 162v12q0 83 54 122q57 40 187 40h74v40q0 63 -24 88t-83 25q-73 0 -153 -8h-5q-18 0 -18 16v35q0 16 21 19q76 13 155 13q195 0 195 -188v-349zM363 266h-74q-89 0 -122 -22q-31 -21 -31 -76
v-12q0 -51 24 -72q21 -19 68 -19q61 0 135 40v161zM423 762q-5 -66 -55 -105q-45 -36 -108 -36t-108 36q-50 39 -55 105v4q0 13 11 13h37q14 0 15 -16q4 -38 35 -60q27 -20 65 -20t65 20q31 22 35 60q1 16 15 16h37q11 0 11 -13v-4z" />
    <glyph glyph-name="amacron" unicode="&#x101;" horiz-adv-x="519" 
d="M451 20q0 -20 -20 -20h-46q-20 0 -20 20v22q-84 -49 -154 -49q-163 0 -163 162v12q0 83 54 122q57 40 187 40h74v40q0 63 -24 88t-83 25q-73 0 -153 -8h-5q-18 0 -18 16v35q0 16 21 19q76 13 155 13q195 0 195 -188v-349zM363 266h-74q-89 0 -122 -22q-31 -21 -31 -76
v-12q0 -51 24 -72q21 -19 68 -19q61 0 135 40v161zM424 666q0 -17 -20 -17h-288q-20 0 -20 17v34q0 17 20 17h288q20 0 20 -17v-34z" />
    <glyph glyph-name="aogonek" unicode="&#x105;" horiz-adv-x="519" 
d="M376 -42q-54 -37 -54 -67q0 -33 56 -33q19 0 42 5l22 5q5 0 5 -8v-39q0 -8 -11 -11q-30 -10 -69 -10q-119 0 -119 93q0 52 65 94l52 33v22q-84 -49 -154 -49q-163 0 -163 162v12q0 83 54 122q57 40 187 40h74v40q0 63 -24 88t-83 25q-73 0 -153 -8h-5q-18 0 -18 16v35
q0 16 21 19q76 13 155 13q195 0 195 -188v-349q0 -10 -8 -16zM363 266h-74q-89 0 -122 -22q-31 -21 -31 -76v-12q0 -51 24 -72q21 -19 68 -19q61 0 135 40v161z" />
    <glyph glyph-name="aeacute" unicode="&#x1fd;" horiz-adv-x="853" 
d="M803 269q0 -22 -19 -22h-333v-32q0 -148 146 -148q79 0 171 14h5q16 0 16 -14v-34q0 -19 -20 -23q-88 -17 -177 -17q-117 0 -173 59q-68 -59 -180 -59q-81 0 -133 39q-58 44 -58 126v9q0 84 54 122q56 40 187 40h75v40q0 63 -25 88q-24 25 -83 25q-73 0 -153 -8h-5
q-18 0 -18 16v35q0 16 21 19q76 13 155 13q119 0 166 -70q59 70 163 70q106 0 164 -70q54 -65 54 -176v-42zM716 319q0 163 -131 163q-64 0 -99 -43q-35 -42 -35 -120v-5h265v5zM364 265h-75q-89 0 -121 -22q-31 -21 -31 -76v-9q0 -95 114 -95q72 0 113 31v171zM588 764
l-113 -126q-13 -15 -23 -15h-54q-9 0 -9 7q0 6 4 10l98 124q12 15 24 15h66q11 0 11 -7q0 -4 -4 -8z" />
    <glyph glyph-name="cacute" unicode="&#x107;" horiz-adv-x="452" 
d="M408 26q0 -18 -20 -22q-60 -11 -125 -11q-101 0 -157 66q-56 65 -56 177v78q0 112 55 177q57 66 158 66q65 0 125 -11q20 -4 20 -22v-36q0 -15 -17 -15h-4q-62 7 -124 7q-125 0 -125 -166v-78q0 -166 125 -166q62 0 124 7h4q17 0 17 -15v-36zM380 764l-113 -126
q-13 -15 -23 -15h-54q-9 0 -9 7q0 6 4 10l98 124q12 15 24 15h66q11 0 11 -7q0 -4 -4 -8z" />
    <glyph glyph-name="ccaron" unicode="&#x10d;" horiz-adv-x="452" 
d="M408 26q0 -18 -20 -22q-60 -11 -125 -11q-101 0 -157 66q-56 65 -56 177v78q0 112 55 177q57 66 158 66q65 0 125 -11q20 -4 20 -22v-36q0 -15 -17 -15h-4q-62 7 -124 7q-125 0 -125 -166v-78q0 -166 125 -166q62 0 124 7h4q17 0 17 -15v-36zM413 762l-97 -124
q-12 -15 -25 -15h-85q-12 0 -24 15l-98 124q-4 4 -4 10q0 7 9 7h54q9 0 23 -16l83 -96l82 96q14 16 23 16h54q9 0 9 -7q0 -6 -4 -10z" />
    <glyph glyph-name="ccircumflex" unicode="&#x109;" horiz-adv-x="452" 
d="M408 26q0 -18 -20 -22q-60 -11 -125 -11q-101 0 -157 66q-56 65 -56 177v78q0 112 55 177q57 66 158 66q65 0 125 -11q20 -4 20 -22v-36q0 -15 -17 -15h-4q-62 7 -124 7q-125 0 -125 -166v-78q0 -166 125 -166q62 0 124 7h4q17 0 17 -15v-36zM405 623h-52q-9 0 -23 15
l-82 97l-83 -97q-13 -15 -23 -15h-52q-9 0 -9 7q0 6 4 10l96 124q12 15 24 15h85q13 0 25 -15l95 -124q4 -4 4 -10q0 -7 -9 -7z" />
    <glyph glyph-name="cdotaccent" unicode="&#x10b;" horiz-adv-x="452" 
d="M408 26q0 -18 -20 -22q-60 -11 -125 -11q-101 0 -157 66q-56 65 -56 177v78q0 112 55 177q57 66 158 66q65 0 125 -11q20 -4 20 -22v-36q0 -15 -17 -15h-4q-62 7 -124 7q-125 0 -125 -166v-78q0 -166 125 -166q62 0 124 7h4q17 0 17 -15v-36zM299 658q0 -20 -19 -20h-48
q-20 0 -20 20v84q0 19 20 19h48q19 0 19 -19v-84z" />
    <glyph glyph-name="dcaron" unicode="&#x10f;" horiz-adv-x="643" 
d="M666 735l-75 -189q-7 -19 -19 -19h-41q-12 0 -12 12q0 5 1 7l57 189q6 19 20 19h58q13 0 13 -11q0 -2 -2 -8zM473 33q0 -19 -21 -23q-88 -17 -184 -17q-109 0 -165 67q-53 64 -53 180v72q0 245 218 245q61 0 117 -10v186q0 19 19 19h51q18 0 18 -19v-700zM385 473
q-38 7 -117 7q-71 0 -102 -44q-28 -40 -28 -124v-72q0 -86 28 -126q31 -44 102 -44q49 0 117 6v397z" />
    <glyph glyph-name="dcroat" unicode="&#x111;" horiz-adv-x="541" 
d="M473 33q0 -19 -21 -23q-88 -17 -184 -17q-109 0 -165 67q-53 64 -53 180v72q0 245 218 245q61 0 117 -10v73h-160q-20 0 -20 20v34q0 20 20 20h160v39q0 19 19 19h51q18 0 18 -19v-39h35q20 0 20 -20v-34q0 -20 -20 -20h-35v-587zM385 473q-38 7 -117 7q-71 0 -102 -44
q-28 -40 -28 -124v-72q0 -86 28 -126q31 -44 102 -44q49 0 117 6v397z" />
    <glyph glyph-name="ebreve" unicode="&#x115;" horiz-adv-x="544" 
d="M492 269q0 -22 -19 -22h-335v-14q0 -87 35 -126q33 -37 104 -37q106 0 178 11h5q16 0 16 -14v-34q0 -19 -20 -23q-88 -17 -179 -17q-99 0 -157 50q-70 61 -70 190v90q0 109 57 171q59 63 165 63q107 0 165 -64q55 -61 55 -170v-54zM403 323q0 157 -131 157
q-134 0 -134 -157v-9h265v9zM434 763q-5 -66 -55 -105q-45 -36 -108 -36t-108 36q-50 39 -55 105v4q0 13 11 13h37q14 0 15 -16q4 -38 35 -60q27 -20 65 -20t65 20q31 22 35 60q1 16 15 16h37q11 0 11 -13v-4z" />
    <glyph glyph-name="ecaron" unicode="&#x11b;" horiz-adv-x="544" 
d="M492 269q0 -22 -19 -22h-335v-14q0 -87 35 -126q33 -37 104 -37q106 0 178 11h5q16 0 16 -14v-34q0 -19 -20 -23q-88 -17 -179 -17q-99 0 -157 50q-70 61 -70 190v90q0 109 57 171q59 63 165 63q107 0 165 -64q55 -61 55 -170v-54zM403 323q0 157 -131 157
q-134 0 -134 -157v-9h265v9zM437 762l-97 -124q-12 -15 -25 -15h-85q-12 0 -24 15l-98 124q-4 4 -4 10q0 7 9 7h54q9 0 23 -16l83 -96l82 96q14 16 23 16h54q9 0 9 -7q0 -6 -4 -10z" />
    <glyph glyph-name="edotaccent" unicode="&#x117;" horiz-adv-x="544" 
d="M492 269q0 -22 -19 -22h-335v-14q0 -87 35 -126q33 -37 104 -37q106 0 178 11h5q16 0 16 -14v-34q0 -19 -20 -23q-88 -17 -179 -17q-99 0 -157 50q-70 61 -70 190v90q0 109 57 171q59 63 165 63q107 0 165 -64q55 -61 55 -170v-54zM403 323q0 157 -131 157
q-134 0 -134 -157v-9h265v9zM316 658q0 -20 -19 -20h-48q-20 0 -20 20v84q0 19 20 19h48q19 0 19 -19v-84z" />
    <glyph glyph-name="emacron" unicode="&#x113;" horiz-adv-x="544" 
d="M492 269q0 -22 -19 -22h-335v-14q0 -87 35 -126q33 -37 104 -37q106 0 178 11h5q16 0 16 -14v-34q0 -19 -20 -23q-88 -17 -179 -17q-99 0 -157 50q-70 61 -70 190v90q0 109 57 171q59 63 165 63q107 0 165 -64q55 -61 55 -170v-54zM403 323q0 157 -131 157
q-134 0 -134 -157v-9h265v9zM436 666q0 -17 -20 -17h-288q-20 0 -20 17v34q0 17 20 17h288q20 0 20 -17v-34z" />
    <glyph glyph-name="eng" unicode="&#x14b;" horiz-adv-x="557" 
d="M489 -64q0 -75 -32 -105q-29 -28 -93 -28q-27 0 -54 4q-18 3 -18 16v37q0 14 21 14h41q28 0 38 12q9 12 9 50v413q0 74 -26 104q-25 28 -84 28q-57 0 -135 -39v-422q0 -20 -20 -20h-49q-19 0 -19 20v510q0 20 19 20h50q19 0 19 -20v-19q82 46 159 46q174 0 174 -208v-413
z" />
    <glyph glyph-name="eogonek" unicode="&#x119;" horiz-adv-x="544" 
d="M403 323q0 157 -131 157q-134 0 -134 -157v-9h265v9zM337 -5q-38 -2 -60 -2q-99 0 -157 50q-70 61 -70 190v90q0 109 57 171q59 63 165 63q107 0 165 -64q55 -61 55 -170v-54q0 -22 -19 -22h-335v-14q0 -87 35 -126q33 -37 104 -37q59 0 130 6q70 6 61 6q8 0 8 -15v-34
q0 -14 -9 -20l-80 -55q-54 -37 -54 -62q0 -38 69 -38q19 0 45 5l26 5q5 0 5 -8v-39q0 -8 -11 -11q-30 -10 -76 -10q-131 0 -131 96q0 52 64 91z" />
    <glyph glyph-name="gbreve" unicode="&#x11f;" horiz-adv-x="559" 
d="M523 502q0 -16 -18 -19l-36 -7q34 -36 34 -103v-8q0 -171 -222 -171q-68 0 -116 20q-25 -12 -25 -34q0 -24 31 -32l149 -38q94 -24 133 -48q59 -36 59 -99v-8q0 -155 -228 -155q-230 0 -230 159v9q0 79 63 127l-7 3q-46 20 -46 78v1q0 49 41 72q-46 43 -46 116v8
q0 177 222 177h219q23 0 23 -22v-26zM416 373q0 107 -135 107t-135 -107v-8q0 -102 135 -102t135 102v8zM424 -37q0 28 -27 45q-25 15 -95 33l-113 29q-49 -42 -49 -102v-9q0 -91 144 -91q81 0 113 23q27 19 27 64v8zM443 762q-5 -66 -55 -105q-45 -36 -108 -36t-108 36
q-50 39 -55 105v4q0 13 11 13h37q14 0 15 -16q4 -38 35 -60q27 -20 65 -20t65 20q31 22 35 60q1 16 15 16h37q11 0 11 -13v-4z" />
    <glyph glyph-name="gcircumflex" unicode="&#x11d;" horiz-adv-x="559" 
d="M523 502q0 -16 -18 -19l-36 -7q34 -36 34 -103v-8q0 -171 -222 -171q-68 0 -116 20q-25 -12 -25 -34q0 -24 31 -32l149 -38q94 -24 133 -48q59 -36 59 -99v-8q0 -155 -228 -155q-230 0 -230 159v9q0 79 63 127l-7 3q-46 20 -46 78v1q0 49 41 72q-46 43 -46 116v8
q0 177 222 177h219q23 0 23 -22v-26zM416 373q0 107 -135 107t-135 -107v-8q0 -102 135 -102t135 102v8zM424 -37q0 28 -27 45q-25 15 -95 33l-113 29q-49 -42 -49 -102v-9q0 -91 144 -91q81 0 113 23q27 19 27 64v8zM446 623h-52q-9 0 -23 15l-82 97l-83 -97
q-13 -15 -23 -15h-52q-9 0 -9 7q0 6 4 10l96 124q12 15 24 15h85q13 0 25 -15l95 -124q4 -4 4 -10q0 -7 -9 -7z" />
    <glyph glyph-name="uni0123" unicode="&#x123;" horiz-adv-x="559" 
d="M242 605q-12 0 -12 11q0 5 2 8l54 109q9 19 24 19h41q9 0 9 -8q0 -4 -1 -8l-28 -112q-4 -19 -20 -19h-69zM523 502q0 -16 -18 -19l-36 -7q34 -36 34 -103v-8q0 -171 -222 -171q-68 0 -116 20q-25 -12 -25 -34q0 -24 31 -32l149 -38q94 -24 133 -48q59 -36 59 -99v-8
q0 -155 -228 -155q-230 0 -230 159v9q0 79 63 127l-7 3q-46 20 -46 78v1q0 49 41 72q-46 43 -46 116v8q0 177 222 177h219q23 0 23 -22v-26zM416 373q0 107 -135 107t-135 -107v-8q0 -102 135 -102t135 102v8zM424 -37q0 28 -27 45q-25 15 -95 33l-113 29q-49 -42 -49 -102
v-9q0 -91 144 -91q81 0 113 23q27 19 27 64v8z" />
    <glyph glyph-name="gdotaccent" unicode="&#x121;" horiz-adv-x="559" 
d="M523 502q0 -16 -18 -19l-36 -7q34 -36 34 -103v-8q0 -171 -222 -171q-68 0 -116 20q-25 -12 -25 -34q0 -24 31 -32l149 -38q94 -24 133 -48q59 -36 59 -99v-8q0 -155 -228 -155q-230 0 -230 159v9q0 79 63 127l-7 3q-46 20 -46 78v1q0 49 41 72q-46 43 -46 116v8
q0 177 222 177h219q23 0 23 -22v-26zM416 373q0 107 -135 107t-135 -107v-8q0 -102 135 -102t135 102v8zM424 -37q0 28 -27 45q-25 15 -95 33l-113 29q-49 -42 -49 -102v-9q0 -91 144 -91q81 0 113 23q27 19 27 64v8zM334 658q0 -20 -19 -20h-48q-20 0 -20 20v84q0 19 20 19
h48q19 0 19 -19v-84z" />
    <glyph glyph-name="hbar" unicode="&#x127;" horiz-adv-x="557" 
d="M68 697v35q0 20 19 20h50q19 0 19 -20v-35h161q20 0 20 -20v-34q0 -20 -20 -20h-161v-97q71 31 153 31q180 0 180 -208v-329q0 -20 -20 -20h-48q-20 0 -20 20v329q0 131 -107 131q-76 0 -138 -28v-432q0 -20 -20 -20h-49q-19 0 -19 20v603h-34q-20 0 -20 20v34
q0 20 20 20h34z" />
    <glyph glyph-name="hcircumflex" unicode="&#x125;" horiz-adv-x="557" 
d="M489 20q0 -20 -20 -20h-48q-20 0 -20 20v329q0 131 -107 131q-76 0 -138 -28v-432q0 -20 -20 -20h-49q-19 0 -19 20v712q0 20 19 20h50q19 0 19 -20v-206q71 31 153 31q180 0 180 -208v-329zM447 793h-52q-9 0 -23 15l-82 97l-83 -97q-13 -15 -23 -15h-52q-9 0 -9 7
q0 6 4 10l96 124q12 15 24 15h85q13 0 25 -15l95 -124q4 -4 4 -10q0 -7 -9 -7z" />
    <glyph glyph-name="ibreve" unicode="&#x12d;" horiz-adv-x="247" 
d="M167 20q0 -20 -20 -20h-48q-20 0 -20 20v510q0 20 20 20h48q20 0 20 -20v-510zM286 762q-5 -66 -55 -105q-45 -36 -108 -36t-108 36q-50 39 -55 105v4q0 13 11 13h37q14 0 15 -16q4 -38 35 -60q27 -20 65 -20t65 20q31 22 35 60q1 16 15 16h37q11 0 11 -13v-4z" />
    <glyph glyph-name="ij" unicode="&#x133;" horiz-adv-x="494" 
d="M169 658q0 -20 -20 -20h-51q-20 0 -20 20v80q0 20 20 20h51q20 0 20 -20v-80zM167 20q0 -20 -20 -20h-48q-20 0 -20 20v510q0 20 20 20h48q20 0 20 -20v-510zM416 657q0 -19 -20 -19h-51q-20 0 -20 19v81q0 20 20 20h51q20 0 20 -20v-81zM414 -64q0 -75 -32 -105
q-29 -28 -93 -28q-27 0 -54 4q-18 3 -18 16v37q0 14 21 14h41q28 0 38 12q9 12 9 50v594q0 20 18 20h52q18 0 18 -20v-594z" />
    <glyph glyph-name="imacron" unicode="&#x12b;" horiz-adv-x="247" 
d="M167 20q0 -20 -20 -20h-48q-20 0 -20 20v510q0 20 20 20h48q20 0 20 -20v-510zM287 666q0 -17 -20 -17h-288q-20 0 -20 17v34q0 17 20 17h288q20 0 20 -17v-34z" />
    <glyph glyph-name="iogonek" unicode="&#x12f;" horiz-adv-x="247" 
d="M60 -5l18 13v523q0 19 18 19h53q18 0 18 -19v-514q0 -11 -8 -17l-36 -29q-52 -42 -52 -75q0 -38 69 -38q19 0 45 5l26 5q5 0 5 -8v-39q0 -8 -11 -11q-30 -10 -76 -10q-131 0 -131 96q0 55 62 99zM169 658q0 -20 -20 -20h-51q-20 0 -20 20v80q0 20 20 20h51q20 0 20 -20
v-80z" />
    <glyph glyph-name="itilde" unicode="&#x129;" horiz-adv-x="247" 
d="M167 20q0 -20 -20 -20h-48q-20 0 -20 20v510q0 20 20 20h48q20 0 20 -20v-510zM301 731q0 -105 -94 -105q-37 0 -64 21l-61 49q-28 22 -41 22q-31 0 -31 -46v-21q0 -17 -17 -17h-31q-16 0 -16 17v21q0 109 95 109q29 0 60 -24l71 -56q18 -14 35 -14q30 0 30 44v23
q0 17 17 17h31q16 0 16 -17v-23z" />
    <glyph glyph-name="jcircumflex" unicode="&#x135;" horiz-adv-x="247" 
d="M167 -64q0 -75 -32 -105q-29 -28 -93 -28q-27 0 -54 4q-18 3 -18 16v37q0 14 21 14h41q28 0 38 12q9 12 9 50v594q0 20 18 20h52q18 0 18 -20v-594zM279 623h-52q-9 0 -23 15l-82 97l-83 -97q-13 -15 -23 -15h-52q-9 0 -9 7q0 6 4 10l96 124q12 15 24 15h85q13 0 25 -15
l95 -124q4 -4 4 -10q0 -7 -9 -7z" />
    <glyph glyph-name="uni0137" unicode="&#x137;" horiz-adv-x="496" 
d="M302 -49q11 0 11 -11l-1 -8l-54 -109q-9 -19 -24 -19h-41q-9 0 -9 8q0 4 1 8l28 112q4 19 20 19h69zM450 0h-72q-13 0 -23 13l-199 246v-239q0 -20 -20 -20h-48q-20 0 -20 20v712q0 20 20 20h48q20 0 20 -20v-416l200 225q8 9 20 9h70q15 0 15 -11q0 -6 -5 -11l-220 -238
l222 -268q3 -3 3 -9q0 -13 -11 -13z" />
    <glyph glyph-name="lacute" unicode="&#x13a;" horiz-adv-x="244" 
d="M166 20q0 -20 -18 -20h-52q-18 0 -18 20v713q0 19 18 19h52q18 0 18 -19v-713zM254 937l-113 -126q-13 -15 -23 -15h-54q-9 0 -9 7q0 6 4 10l98 124q12 15 24 15h66q11 0 11 -7q0 -4 -4 -8z" />
    <glyph glyph-name="lcaron" unicode="&#x13e;" horiz-adv-x="346" 
d="M369 735l-75 -189q-7 -19 -19 -19h-41q-12 0 -12 12q0 5 1 7l57 189q6 19 20 19h58q13 0 13 -11q0 -2 -2 -8zM166 20q0 -20 -18 -20h-52q-18 0 -18 20v713q0 19 18 19h52q18 0 18 -19v-713z" />
    <glyph glyph-name="uni013C" unicode="&#x13c;" horiz-adv-x="244" 
d="M159 -49q11 0 11 -11l-1 -8l-54 -109q-9 -19 -24 -19h-41q-9 0 -9 8q0 4 1 8l28 112q4 19 20 19h69zM166 20q0 -20 -18 -20h-52q-18 0 -18 20v713q0 19 18 19h52q18 0 18 -19v-713z" />
    <glyph glyph-name="ldot" unicode="&#x140;" horiz-adv-x="369" 
d="M166 20q0 -20 -18 -20h-52q-18 0 -18 20v713q0 19 18 19h52q18 0 18 -19v-713zM334 326q0 -20 -19 -20h-48q-20 0 -20 20v84q0 19 20 19h48q19 0 19 -19v-84z" />
    <glyph glyph-name="nacute" unicode="&#x144;" horiz-adv-x="557" 
d="M489 20q0 -20 -20 -20h-48q-20 0 -20 20v329q0 74 -26 104q-25 28 -84 28q-57 0 -135 -39v-422q0 -20 -20 -20h-49q-19 0 -19 20v510q0 20 19 20h50q19 0 19 -20v-19q82 46 159 46q174 0 174 -208v-329zM411 764l-113 -126q-13 -15 -23 -15h-54q-9 0 -9 7q0 6 4 10
l98 124q12 15 24 15h66q11 0 11 -7q0 -4 -4 -8z" />
    <glyph glyph-name="ncaron" unicode="&#x148;" horiz-adv-x="557" 
d="M489 20q0 -20 -20 -20h-48q-20 0 -20 20v329q0 74 -26 104q-25 28 -84 28q-57 0 -135 -39v-422q0 -20 -20 -20h-49q-19 0 -19 20v510q0 20 19 20h50q19 0 19 -20v-19q82 46 159 46q174 0 174 -208v-329zM443 762l-97 -124q-12 -15 -25 -15h-85q-12 0 -24 15l-98 124
q-4 4 -4 10q0 7 9 7h54q9 0 23 -16l83 -96l82 96q14 16 23 16h54q9 0 9 -7q0 -6 -4 -10z" />
    <glyph glyph-name="uni0146" unicode="&#x146;" horiz-adv-x="557" 
d="M314 -49q11 0 11 -11l-1 -8l-54 -109q-9 -19 -24 -19h-41q-9 0 -9 8q0 4 1 8l28 112q4 19 20 19h69zM489 20q0 -20 -20 -20h-48q-20 0 -20 20v329q0 74 -26 104q-25 28 -84 28q-57 0 -135 -39v-422q0 -20 -20 -20h-49q-19 0 -19 20v510q0 20 19 20h50q19 0 19 -20v-19
q82 46 159 46q174 0 174 -208v-329z" />
    <glyph glyph-name="obreve" unicode="&#x14f;" horiz-adv-x="545" 
d="M495 237q0 -113 -56 -177q-59 -67 -167 -67t-166 67q-56 64 -56 177v76q0 113 56 177q58 67 166 67t167 -67q56 -64 56 -177v-76zM407 313q0 167 -135 167q-134 0 -134 -167v-76q0 -167 134 -167q135 0 135 167v76zM434 762q-5 -66 -55 -105q-45 -36 -108 -36t-108 36
q-50 39 -55 105v4q0 13 11 13h37q14 0 15 -16q4 -38 35 -60q27 -20 65 -20t65 20q31 22 35 60q1 16 15 16h37q11 0 11 -13v-4z" />
    <glyph glyph-name="ohungarumlaut" unicode="&#x151;" horiz-adv-x="545" 
d="M495 237q0 -113 -56 -177q-59 -67 -167 -67t-166 67q-56 64 -56 177v76q0 113 56 177q58 67 166 67t167 -67q56 -64 56 -177v-76zM407 313q0 167 -135 167q-134 0 -134 -167v-76q0 -167 134 -167q135 0 135 167v76zM493 764l-112 -126q-13 -15 -23 -15h-54q-9 0 -9 7
q0 6 4 10l97 124q12 15 25 15h65q11 0 11 -7q0 -4 -4 -8zM318 764l-112 -126q-13 -15 -23 -15h-54q-9 0 -9 7q0 6 4 10l97 124q12 15 25 15h65q11 0 11 -7q0 -4 -4 -8z" />
    <glyph glyph-name="omacron" unicode="&#x14d;" horiz-adv-x="545" 
d="M495 237q0 -113 -56 -177q-59 -67 -167 -67t-166 67q-56 64 -56 177v76q0 113 56 177q58 67 166 67t167 -67q56 -64 56 -177v-76zM407 313q0 167 -135 167q-134 0 -134 -167v-76q0 -167 134 -167q135 0 135 167v76zM435 666q0 -17 -20 -17h-288q-20 0 -20 17v34
q0 17 20 17h288q20 0 20 -17v-34z" />
    <glyph glyph-name="oslashacute" unicode="&#x1ff;" horiz-adv-x="545" 
d="M524 564l-70 -94q41 -62 41 -157v-76q0 -113 -56 -177q-59 -67 -167 -67q-85 0 -139 42l-44 -60q-8 -10 -16 -10h-49q-8 0 -8 8q0 7 4 11l71 96q-41 62 -41 157v76q0 113 56 177q58 67 166 67q86 0 140 -42l42 58q8 10 16 10h50q8 0 8 -8q0 -7 -4 -11zM362 449
q-34 31 -90 31q-134 0 -134 -167v-76q0 -46 10 -79zM407 313q0 42 -11 78l-214 -290q33 -31 90 -31q135 0 135 167v76zM418 764l-113 -126q-13 -15 -23 -15h-54q-9 0 -9 7q0 6 4 10l98 124q12 15 24 15h66q11 0 11 -7q0 -4 -4 -8z" />
    <glyph glyph-name="racute" unicode="&#x155;" horiz-adv-x="342" 
d="M315 498q0 -17 -21 -17q-68 0 -138 -42v-419q0 -20 -20 -20h-49q-19 0 -19 20v510q0 20 19 20h47q19 0 19 -20v-21q69 48 141 48q21 0 21 -18v-41zM303 764l-113 -126q-13 -15 -23 -15h-54q-9 0 -9 7q0 6 4 10l98 124q12 15 24 15h66q11 0 11 -7q0 -4 -4 -8z" />
    <glyph glyph-name="rcaron" unicode="&#x159;" horiz-adv-x="342" 
d="M315 498q0 -17 -21 -17q-68 0 -138 -42v-419q0 -20 -20 -20h-49q-19 0 -19 20v510q0 20 19 20h47q19 0 19 -20v-21q69 48 141 48q21 0 21 -18v-41zM335 762l-97 -124q-12 -15 -25 -15h-85q-12 0 -24 15l-98 124q-4 4 -4 10q0 7 9 7h54q9 0 23 -16l83 -96l82 96
q14 16 23 16h54q9 0 9 -7q0 -6 -4 -10z" />
    <glyph glyph-name="uni0157" unicode="&#x157;" horiz-adv-x="342" 
d="M224 -49q11 0 11 -11l-1 -8l-54 -109q-9 -19 -24 -19h-41q-9 0 -9 8q0 4 1 8l28 112q4 19 20 19h69zM315 498q0 -17 -21 -17q-68 0 -138 -42v-419q0 -20 -20 -20h-49q-19 0 -19 20v510q0 20 19 20h47q19 0 19 -20v-21q69 48 141 48q21 0 21 -18v-41z" />
    <glyph glyph-name="sacute" unicode="&#x15b;" horiz-adv-x="466" 
d="M229 -7q-97 0 -158 15q-21 5 -21 20v35q0 15 18 15h4q88 -11 157 -11q99 0 99 71q0 38 -75 83l-101 60q-102 62 -102 143q0 133 181 133q80 0 156 -13q19 -3 19 -20v-33q0 -17 -17 -17h-3q-93 8 -155 8q-48 0 -67 -10q-26 -13 -26 -48t69 -76l99 -59q110 -65 110 -151
q0 -145 -187 -145zM366 764l-113 -126q-13 -15 -23 -15h-54q-9 0 -9 7q0 6 4 10l98 124q12 15 24 15h66q11 0 11 -7q0 -4 -4 -8z" />
    <glyph glyph-name="scedilla" unicode="&#x15f;" horiz-adv-x="466" 
d="M229 -7q-97 0 -158 15q-21 5 -21 20v35q0 15 18 15h4q88 -11 157 -11q99 0 99 71q0 38 -75 83l-101 60q-102 62 -102 143q0 133 181 133q80 0 156 -13q19 -3 19 -20v-33q0 -17 -17 -17h-3q-93 8 -155 8q-48 0 -67 -10q-26 -13 -26 -48t69 -76l99 -59q110 -65 110 -151
q0 -145 -187 -145zM281 -47l-113 -126q-13 -15 -23 -15h-54q-9 0 -9 7q0 6 4 10l97 124q12 15 25 15h66q11 0 11 -7q0 -4 -4 -8z" />
    <glyph glyph-name="scircumflex" unicode="&#x15d;" horiz-adv-x="466" 
d="M229 -7q-97 0 -158 15q-21 5 -21 20v35q0 15 18 15h4q88 -11 157 -11q99 0 99 71q0 38 -75 83l-101 60q-102 62 -102 143q0 133 181 133q80 0 156 -13q19 -3 19 -20v-33q0 -17 -17 -17h-3q-93 8 -155 8q-48 0 -67 -10q-26 -13 -26 -48t69 -76l99 -59q110 -65 110 -151
q0 -145 -187 -145zM387 623h-52q-9 0 -23 15l-82 97l-83 -97q-13 -15 -23 -15h-52q-9 0 -9 7q0 6 4 10l96 124q12 15 24 15h85q13 0 25 -15l95 -124q4 -4 4 -10q0 -7 -9 -7z" />
    <glyph glyph-name="uni0219" unicode="&#x219;" horiz-adv-x="466" 
d="M266 -49q11 0 11 -11l-1 -8l-54 -109q-9 -19 -24 -19h-41q-9 0 -9 8q0 4 1 8l28 112q4 19 20 19h69zM229 -7q-97 0 -158 15q-21 5 -21 20v35q0 15 18 15h4q88 -11 157 -11q99 0 99 71q0 38 -75 83l-101 60q-102 62 -102 143q0 133 181 133q80 0 156 -13q19 -3 19 -20v-33
q0 -17 -17 -17h-3q-93 8 -155 8q-48 0 -67 -10q-26 -13 -26 -48t69 -76l99 -59q110 -65 110 -151q0 -145 -187 -145z" />
    <glyph glyph-name="tbar" unicode="&#x167;" horiz-adv-x="385" 
d="M360 15q0 -14 -18 -17q-33 -5 -65 -5q-73 0 -102 26q-34 29 -34 108v179l-97 11q-19 2 -19 18v27q0 18 19 18h97v96l-97 11q-19 2 -19 18v27q0 18 19 18h97v98q0 17 18 20l55 8q15 0 15 -17v-109h108q20 0 20 -20v-34q0 -20 -20 -20h-108v-96h108q20 0 20 -20v-34
q0 -20 -20 -20h-108v-179q0 -40 12 -52q10 -11 42 -11h56q21 0 21 -14v-35z" />
    <glyph glyph-name="tcaron" unicode="&#x165;" horiz-adv-x="513" 
d="M536 733l-75 -189q-7 -19 -19 -19h-41q-12 0 -12 12q0 5 1 7l57 189q6 19 20 19h58q13 0 13 -11q0 -2 -2 -8zM360 15q0 -14 -18 -17q-33 -5 -65 -5q-73 0 -102 26q-34 29 -34 108v349l-97 11q-19 2 -19 18v27q0 18 19 18h97v98q0 17 18 20l55 8q15 0 15 -17v-109h108
q20 0 20 -20v-34q0 -20 -20 -20h-108v-349q0 -40 12 -52q10 -11 42 -11h56q21 0 21 -14v-35z" />
    <glyph glyph-name="uni0163" unicode="&#x163;" horiz-adv-x="385" 
d="M246 -49q11 0 11 -11l-1 -8l-54 -109q-9 -19 -24 -19h-41q-9 0 -9 8q0 4 1 8l28 112q4 19 20 19h69zM360 15q0 -14 -18 -17q-33 -5 -65 -5q-73 0 -102 26q-34 29 -34 108v349l-97 11q-19 2 -19 18v27q0 18 19 18h97v98q0 17 18 20l55 8q15 0 15 -17v-109h108q20 0 20 -20
v-34q0 -20 -20 -20h-108v-349q0 -40 12 -52q10 -11 42 -11h56q21 0 21 -14v-35z" />
    <glyph glyph-name="ubreve" unicode="&#x16d;" horiz-adv-x="557" 
d="M489 20q0 -20 -19 -20h-50q-19 0 -19 20v19q-82 -46 -159 -46q-174 0 -174 208v329q0 20 20 20h48q20 0 20 -20v-329q0 -74 27 -104q24 -28 83 -28q57 0 135 39v422q0 20 20 20h49q19 0 19 -20v-510zM441 762q-5 -66 -55 -105q-45 -36 -108 -36t-108 36q-50 39 -55 105v4
q0 13 11 13h37q14 0 15 -16q4 -38 35 -60q27 -20 65 -20t65 20q31 22 35 60q1 16 15 16h37q11 0 11 -13v-4z" />
    <glyph glyph-name="uhungarumlaut" unicode="&#x171;" horiz-adv-x="557" 
d="M489 20q0 -20 -19 -20h-50q-19 0 -19 20v19q-82 -46 -159 -46q-174 0 -174 208v329q0 20 20 20h48q20 0 20 -20v-329q0 -74 27 -104q24 -28 83 -28q57 0 135 39v422q0 20 20 20h49q19 0 19 -20v-510zM498 764l-112 -126q-13 -15 -23 -15h-54q-9 0 -9 7q0 6 4 10l97 124
q12 15 25 15h65q11 0 11 -7q0 -4 -4 -8zM323 764l-112 -126q-13 -15 -23 -15h-54q-9 0 -9 7q0 6 4 10l97 124q12 15 25 15h65q11 0 11 -7q0 -4 -4 -8z" />
    <glyph glyph-name="umacron" unicode="&#x16b;" horiz-adv-x="557" 
d="M489 20q0 -20 -19 -20h-50q-19 0 -19 20v19q-82 -46 -159 -46q-174 0 -174 208v329q0 20 20 20h48q20 0 20 -20v-329q0 -74 27 -104q24 -28 83 -28q57 0 135 39v422q0 20 20 20h49q19 0 19 -20v-510zM443 666q0 -17 -20 -17h-288q-20 0 -20 17v34q0 17 20 17h288
q20 0 20 -17v-34z" />
    <glyph glyph-name="uogonek" unicode="&#x173;" horiz-adv-x="557" 
d="M403 40q-83 -47 -161 -47q-174 0 -174 208v329q0 20 20 20h48q20 0 20 -20v-329q0 -74 27 -104q24 -28 83 -28q57 0 135 39v422q0 20 20 20h49q19 0 19 -20v-510q0 -10 -8 -16l-67 -46q-54 -37 -54 -67q0 -33 56 -33q19 0 42 5l22 5q5 0 5 -8v-39q0 -8 -11 -11
q-30 -10 -69 -10q-119 0 -119 93q0 52 65 94l52 33v20z" />
    <glyph glyph-name="uring" unicode="&#x16f;" horiz-adv-x="557" 
d="M489 20q0 -20 -19 -20h-50q-19 0 -19 20v19q-82 -46 -159 -46q-174 0 -174 208v329q0 20 20 20h48q20 0 20 -20v-329q0 -74 27 -104q24 -28 83 -28q57 0 135 39v422q0 20 20 20h49q19 0 19 -20v-510zM351 632q-30 -30 -72 -30t-72 30q-30 29 -30 71t30 72t72 30t72 -30
q29 -30 29 -72t-29 -71zM316 741q-15 15 -37 15t-37 -15t-15 -37t15 -37q15 -16 37 -16t37 16q16 15 16 37t-16 37z" />
    <glyph glyph-name="utilde" unicode="&#x169;" horiz-adv-x="557" 
d="M489 20q0 -20 -19 -20h-50q-19 0 -19 20v19q-82 -46 -159 -46q-174 0 -174 208v329q0 20 20 20h48q20 0 20 -20v-329q0 -74 27 -104q24 -28 83 -28q57 0 135 39v422q0 20 20 20h49q19 0 19 -20v-510zM459 721q0 -105 -94 -105q-37 0 -64 21l-61 49q-28 22 -41 22
q-31 0 -31 -46v-21q0 -17 -17 -17h-31q-16 0 -16 17v21q0 109 95 109q29 0 60 -24l71 -56q18 -14 35 -14q30 0 30 44v23q0 17 17 17h31q16 0 16 -17v-23z" />
    <glyph glyph-name="wacute" unicode="&#x1e83;" horiz-adv-x="786" 
d="M748 526l-97 -464q-10 -46 -24 -58q-14 -11 -60 -11q-40 0 -54 12q-16 14 -28 60l-87 340q-2 7 -5 7t-5 -7l-87 -340q-11 -44 -27 -58t-55 -14q-46 0 -60 11q-14 12 -24 58l-97 464v4q0 20 19 20h54q15 0 17 -16l83 -456q2 -12 8 -12q5 0 8 12l98 384q8 30 40 30h56
q32 0 40 -30l98 -384q3 -12 8 -12q6 0 8 12l83 456q2 16 17 16h54q19 0 19 -20v-4zM538 764l-113 -126q-13 -15 -23 -15h-54q-9 0 -9 7q0 6 4 10l98 124q12 15 24 15h66q11 0 11 -7q0 -4 -4 -8z" />
    <glyph glyph-name="wcircumflex" unicode="&#x175;" horiz-adv-x="786" 
d="M748 526l-97 -464q-10 -46 -24 -58q-14 -11 -60 -11q-40 0 -54 12q-16 14 -28 60l-87 340q-2 7 -5 7t-5 -7l-87 -340q-11 -44 -27 -58t-55 -14q-46 0 -60 11q-14 12 -24 58l-97 464v4q0 20 19 20h54q15 0 17 -16l83 -456q2 -12 8 -12q5 0 8 12l98 384q8 30 40 30h56
q32 0 40 -30l98 -384q3 -12 8 -12q6 0 8 12l83 456q2 16 17 16h54q19 0 19 -20v-4zM551 623h-52q-9 0 -23 15l-82 97l-83 -97q-13 -15 -23 -15h-52q-9 0 -9 7q0 6 4 10l96 124q12 15 24 15h85q13 0 25 -15l95 -124q4 -4 4 -10q0 -7 -9 -7z" />
    <glyph glyph-name="wdieresis" unicode="&#x1e85;" horiz-adv-x="786" 
d="M748 526l-97 -464q-10 -46 -24 -58q-14 -11 -60 -11q-40 0 -54 12q-16 14 -28 60l-87 340q-2 7 -5 7t-5 -7l-87 -340q-11 -44 -27 -58t-55 -14q-46 0 -60 11q-14 12 -24 58l-97 464v4q0 20 19 20h54q15 0 17 -16l83 -456q2 -12 8 -12q5 0 8 12l98 384q8 30 40 30h56
q32 0 40 -30l98 -384q3 -12 8 -12q6 0 8 12l83 456q2 16 17 16h54q19 0 19 -20v-4zM520 660q0 -19 -20 -19h-39q-20 0 -20 19v81q0 20 20 20h39q20 0 20 -20v-81zM345 660q0 -19 -20 -19h-39q-20 0 -20 19v81q0 20 20 20h39q20 0 20 -20v-81z" />
    <glyph glyph-name="wgrave" unicode="&#x1e81;" horiz-adv-x="786" 
d="M748 526l-97 -464q-10 -46 -24 -58q-14 -11 -60 -11q-40 0 -54 12q-16 14 -28 60l-87 340q-2 7 -5 7t-5 -7l-87 -340q-11 -44 -27 -58t-55 -14q-46 0 -60 11q-14 12 -24 58l-97 464v4q0 20 19 20h54q15 0 17 -16l83 -456q2 -12 8 -12q5 0 8 12l98 384q8 30 40 30h56
q32 0 40 -30l98 -384q3 -12 8 -12q6 0 8 12l83 456q2 16 17 16h54q19 0 19 -20v-4zM455 623h-54q-9 0 -23 15l-113 126q-4 4 -4 8q0 7 11 7h66q13 0 25 -15l97 -124q4 -4 4 -10q0 -7 -9 -7z" />
    <glyph glyph-name="ycircumflex" unicode="&#x177;" horiz-adv-x="534" 
d="M494 526l-165 -576q-24 -84 -60 -114q-39 -34 -123 -34q-46 0 -84 9q-21 5 -21 16v37q0 16 19 16h3q66 -6 89 -6q44 0 65 16q22 18 34 69l10 41h-14q-54 0 -74 69l-133 457q-1 2 -1 7q0 17 18 17h55q13 0 17 -16l118 -434q6 -22 19 -22h16l122 457q4 15 19 15h56
q16 0 16 -17q0 -5 -1 -7zM425 623h-52q-9 0 -23 15l-82 97l-83 -97q-13 -15 -23 -15h-52q-9 0 -9 7q0 6 4 10l96 124q12 15 24 15h85q13 0 25 -15l95 -124q4 -4 4 -10q0 -7 -9 -7z" />
    <glyph glyph-name="ygrave" unicode="&#x1ef3;" horiz-adv-x="534" 
d="M494 526l-165 -576q-24 -84 -60 -114q-39 -34 -123 -34q-46 0 -84 9q-21 5 -21 16v37q0 16 19 16h3q66 -6 89 -6q44 0 65 16q22 18 34 69l10 41h-14q-54 0 -74 69l-133 457q-1 2 -1 7q0 17 18 17h55q13 0 17 -16l118 -434q6 -22 19 -22h16l122 457q4 15 19 15h56
q16 0 16 -17q0 -5 -1 -7zM327 623h-54q-9 0 -23 15l-113 126q-4 4 -4 8q0 7 11 7h66q13 0 25 -15l97 -124q4 -4 4 -10q0 -7 -9 -7z" />
    <glyph glyph-name="zacute" unicode="&#x17a;" horiz-adv-x="482" 
d="M432 20q0 -20 -20 -20h-302q-61 0 -61 55v19q0 35 23 65l258 321q4 6 4 9q0 7 -10 7h-243q-20 0 -20 20v34q0 20 20 20h294q56 0 56 -49v-24q0 -28 -23 -55l-263 -329q-5 -5 -5 -11q0 -8 8 -8h264q20 0 20 -20v-34zM394 764l-113 -126q-13 -15 -23 -15h-54q-9 0 -9 7
q0 6 4 10l98 124q12 15 24 15h66q11 0 11 -7q0 -4 -4 -8z" />
    <glyph glyph-name="zdotaccent" unicode="&#x17c;" horiz-adv-x="482" 
d="M432 20q0 -20 -20 -20h-302q-61 0 -61 55v19q0 35 23 65l258 321q4 6 4 9q0 7 -10 7h-243q-20 0 -20 20v34q0 20 20 20h294q56 0 56 -49v-24q0 -28 -23 -55l-263 -329q-5 -5 -5 -11q0 -8 8 -8h264q20 0 20 -20v-34zM285 658q0 -20 -19 -20h-48q-20 0 -20 20v84
q0 19 20 19h48q19 0 19 -19v-84z" />
    <glyph glyph-name="kgreenlandic" unicode="&#x138;" horiz-adv-x="496" 
d="M450 0h-72q-13 0 -23 13l-199 246v-239q0 -20 -20 -20h-48q-20 0 -20 20v510q0 20 20 20h48q20 0 20 -20v-214l200 225q8 9 20 9h70q15 0 15 -11q0 -6 -5 -11l-220 -238l222 -268q3 -3 3 -9q0 -13 -11 -13z" />
    <glyph glyph-name="napostrophe" unicode="&#x149;" horiz-adv-x="663" 
d="M156 733l-61 -189q-5 -19 -19 -19h-38q-9 0 -9 10q0 6 1 9l37 189q4 19 20 19h59q11 0 11 -11q0 -5 -1 -8zM595 20q0 -20 -20 -20h-48q-20 0 -20 20v329q0 74 -26 104q-25 28 -84 28q-57 0 -135 -39v-422q0 -20 -20 -20h-49q-19 0 -19 20v510q0 20 19 20h50q19 0 19 -20
v-19q82 46 159 46q174 0 174 -208v-329z" />
    <glyph glyph-name="Delta" unicode="&#x2206;" horiz-adv-x="633" 
d="M587 0h-541q-17 0 -17 16q0 5 1 7l185 651q21 76 102 76q80 0 101 -75l185 -652q1 -2 1 -7q0 -16 -17 -16zM336 653q-5 18 -19 18q-15 0 -20 -18l-156 -574h351z" />
    <glyph glyph-name="Omega" unicode="&#x2126;" horiz-adv-x="592" 
d="M556 21q0 -21 -23 -21h-181q-21 0 -21 21v113q0 20 14 25q125 44 125 214v88q0 213 -174 213t-174 -213v-88q0 -170 125 -214q14 -5 14 -25v-113q0 -21 -21 -21h-181q-23 0 -23 21v34q0 20 23 20h121v37q-148 63 -148 261v88q0 140 69 217q70 77 195 77t195 -77
q69 -77 69 -217v-88q0 -198 -148 -261v-37h121q23 0 23 -20v-34z" />
    <glyph glyph-name="uni03BC" unicode="&#x3bc;" horiz-adv-x="557" 
d="M489 44q0 -17 -19 -23q-76 -28 -185 -28q-79 0 -129 29v-198q0 -20 -20 -20h-48q-20 0 -20 20v706q0 20 19 20h50q19 0 19 -20v-329q0 -133 129 -133q68 0 116 14v448q0 20 20 20h49q19 0 19 -20v-486z" />
    <glyph glyph-name="pi" unicode="&#x3c0;" horiz-adv-x="552" 
d="M447 469v-335q0 -46 9 -60q10 -15 41 -15h24q10 0 10 -11v-43q0 -10 -11 -13q-20 -4 -40 -4q-67 0 -94 33q-26 32 -26 113v335h-166v-449q0 -20 -14 -20h-60q-15 0 -15 20v449h-69q-15 0 -15 15v50q0 16 15 16h480q15 0 15 -16v-50q0 -15 -15 -15h-69z" />
    <glyph glyph-name="uni0410" unicode="&#x410;" horiz-adv-x="633" 
d="M587 0h-59q-13 0 -17 15l-65 230h-259l-64 -230q-4 -15 -18 -15h-59q-17 0 -17 16q0 5 1 7l185 651q21 76 102 76q80 0 101 -75l185 -652q1 -2 1 -7q0 -16 -17 -16zM336 653q-5 18 -19 18q-15 0 -20 -18l-91 -329h221z" />
    <glyph glyph-name="uni0411" unicode="&#x411;" horiz-adv-x="616" 
d="M566 205q0 -212 -292 -212q-106 0 -163 9q-33 4 -33 37v685q0 19 18 19h382q20 0 20 -20v-41q0 -20 -20 -20h-309v-231q60 4 105 4q292 0 292 -213v-17zM475 223q0 77 -54 108q-46 27 -147 27q-37 0 -105 -4v-280l52 -2q33 -2 53 -2q101 0 147 27q54 31 54 108v18z" />
    <glyph glyph-name="uni0412" unicode="&#x412;" horiz-adv-x="616" 
d="M566 205q0 -212 -292 -212q-106 0 -163 9q-33 4 -33 37v666q0 34 32 37q66 8 159 8q293 0 293 -193v-16q0 -116 -107 -157q111 -39 111 -162v-17zM471 557q0 67 -55 94q-46 22 -147 22q-15 0 -99 -3v-248h154q147 0 147 119v16zM475 222q0 127 -151 127h-154v-275l51 -2
q33 -2 53 -2q101 0 147 27q54 31 54 108v17z" />
    <glyph glyph-name="uni0413" unicode="&#x413;" horiz-adv-x="536" 
d="M496 680q0 -12 -11 -12h-193q-76 0 -101 -23q-22 -21 -22 -81v-544q0 -20 -20 -20h-51q-20 0 -20 20v544q0 186 213 186q132 0 195 -6q10 -2 10 -14v-50z" />
    <glyph glyph-name="uni0490" unicode="&#x490;" horiz-adv-x="536" 
d="M496 680q0 -12 -11 -12h-193q-76 0 -101 -23q-22 -21 -22 -81v-544q0 -20 -20 -20h-51q-20 0 -20 20v544q0 186 213 186q37 0 115 -2v57q0 19 18 19h54q18 0 18 -19v-125z" />
    <glyph glyph-name="uni0414" unicode="&#x414;" horiz-adv-x="685" 
d="M74 81l169 593q21 76 102 76q80 0 101 -75l168 -594h28q18 0 18 -19v-162q0 -20 -18 -20h-55q-18 0 -18 20v100h-453v-100q0 -20 -18 -20h-55q-18 0 -18 20v162q0 19 18 19h31zM169 81h352l-157 572q-5 18 -19 18q-15 0 -20 -18z" />
    <glyph glyph-name="uni0415" unicode="&#x415;" horiz-adv-x="551" 
d="M496 12q0 -12 -10 -14q-47 -5 -195 -5q-213 0 -213 186v385q0 186 213 186q132 0 195 -6q10 -2 10 -14v-50q0 -12 -11 -12h-193q-76 0 -101 -23q-22 -21 -22 -81v-139h307q20 0 20 -20v-38q0 -20 -20 -20h-307v-168q0 -60 22 -80q25 -24 101 -24h193q11 0 11 -12v-51z
" />
    <glyph glyph-name="uni0416" unicode="&#x416;" horiz-adv-x="967" 
d="M919 22q6 -7 4 -14q-1 -8 -12 -8h-78q-13 0 -22 10l-282 343v-333q0 -20 -18 -20h-55q-18 0 -18 20v333l-282 -343q-9 -10 -22 -10h-78q-11 0 -12 8q-2 7 4 14l301 360l-301 340q-6 7 -4 14q3 7 14 7h72q11 0 20 -9l288 -333v323q0 19 19 19h53q19 0 19 -19v-323l288 333
q9 9 20 9h72q11 0 14 -7q2 -7 -4 -14l-301 -340z" />
    <glyph glyph-name="uni0417" unicode="&#x417;" horiz-adv-x="585" 
d="M507 207q0 -108 -70 -163q-64 -51 -179 -51q-82 0 -169 20q-19 4 -19 19v34q0 19 20 17q105 -14 168 -14q82 0 119 33t37 105v21q0 48 -24 81q-31 41 -93 41h-182q-19 0 -19 18v35q0 19 19 19h182q117 0 117 119v14q0 62 -36 90q-36 29 -120 29q-46 0 -168 -15
q-20 -2 -20 17v35q0 15 19 19q96 20 169 20q249 0 249 -195v-14q0 -108 -95 -156q95 -47 95 -157v-21z" />
    <glyph glyph-name="uni0418" unicode="&#x418;" horiz-adv-x="680" 
d="M78 724q0 19 18 19h53q18 0 18 -19v-585q0 -3 1 -3l309 587q11 20 41 20h55q29 0 29 -28v-703q0 -12 -18 -12h-52q-18 0 -18 19v584q0 3 -1 3t-3 -3l-309 -587q-8 -16 -32 -16h-62q-29 0 -29 29v695z" />
    <glyph glyph-name="uni0419" unicode="&#x419;" horiz-adv-x="680" 
d="M449 828q-45 -36 -108 -36t-108 36q-50 39 -55 105q-2 17 11 17h37q14 0 15 -16q4 -38 35 -60q27 -20 65 -20t65 20q31 22 35 60q1 16 15 16h37q13 0 11 -17q-5 -66 -55 -105zM78 29q0 -29 29 -29h62q24 0 32 16l309 587q2 3 3 3t1 -3v-584q0 -19 18 -19h52q18 0 18 12
v703q0 28 -29 28h-55q-30 0 -41 -20l-309 -587q-1 0 -1 3v585q0 19 -18 19h-53q-18 0 -18 -19v-695z" />
    <glyph glyph-name="uni041A" unicode="&#x41a;" horiz-adv-x="607" 
d="M559 22q6 -7 4 -14q-1 -8 -12 -8h-78q-13 0 -22 10l-282 343v-333q0 -20 -18 -20h-55q-18 0 -18 20v704q0 19 19 19h53q19 0 19 -19v-323l288 333q9 9 20 9h72q11 0 14 -7q2 -7 -4 -14l-301 -340z" />
    <glyph glyph-name="uni041B" unicode="&#x41b;" horiz-adv-x="633" 
d="M336 653q-5 18 -19 18q-15 0 -20 -18l-174 -638q-4 -15 -18 -15h-59q-17 0 -17 16q0 5 1 7l185 651q21 76 102 76q80 0 101 -75l185 -652q1 -2 1 -7q0 -16 -17 -16h-59q-13 0 -17 15z" />
    <glyph glyph-name="uni041C" unicode="&#x41c;" horiz-adv-x="761" 
d="M684 20q0 -20 -20 -20h-49q-20 0 -20 20v593q0 7 -3 1l-143 -296q-14 -29 -45 -29h-46q-30 0 -45 29l-143 296q-3 6 -3 -1v-593q0 -20 -20 -20h-49q-20 0 -20 20v694q0 29 29 29h65q24 0 32 -17l165 -343q5 -11 12 -11t12 11l165 343q8 17 32 17h65q29 0 29 -29v-694z
" />
    <glyph glyph-name="uni041D" unicode="&#x41d;" horiz-adv-x="680" 
d="M602 20q0 -20 -20 -20h-51q-20 0 -20 20v332h-342v-332q0 -20 -20 -20h-51q-20 0 -20 20v703q0 20 20 20h51q20 0 20 -20v-290h342v290q0 20 20 20h51q20 0 20 -20v-703z" />
    <glyph glyph-name="uni041E" unicode="&#x41e;" horiz-adv-x="661" 
d="M601 307q0 -160 -76 -240q-70 -74 -194 -74t-194 74q-77 81 -77 240v129q0 159 77 240q70 74 194 74t194 -74q76 -80 76 -240v-129zM509 436q0 232 -178 232q-179 0 -179 -232v-129q0 -232 179 -232q178 0 178 232v129z" />
    <glyph glyph-name="uni041F" unicode="&#x41f;" horiz-adv-x="680" 
d="M511 618q0 25 -7 33q-9 10 -38 10h-252q-29 0 -38 -10q-7 -8 -7 -33v-598q0 -20 -20 -20h-51q-20 0 -20 20v598q0 125 136 125h252q136 0 136 -125v-598q0 -20 -20 -20h-51q-20 0 -20 20v598z" />
    <glyph glyph-name="uni0420" unicode="&#x420;" horiz-adv-x="588" 
d="M548 520q0 -224 -280 -224q-35 0 -100 5v-281q0 -20 -18 -20h-54q-18 0 -18 20v697q0 22 24 25q69 8 166 8q280 0 280 -217v-13zM457 533q0 75 -46 108q-45 32 -143 32q-52 0 -100 -4v-293l100 -4q102 0 146 35q43 34 43 113v13z" />
    <glyph glyph-name="uni0421" unicode="&#x421;" horiz-adv-x="545" 
d="M510 26q0 -16 -20 -20q-68 -13 -166 -13q-110 0 -178 63q-86 80 -86 246v139q0 167 86 246q68 63 178 63q67 0 168 -16q16 -2 16 -13v-51q0 -12 -15 -11q-108 9 -168 9q-174 0 -174 -227v-139q0 -227 174 -227q69 0 165 8q20 2 20 -16v-41z" />
    <glyph glyph-name="uni0422" unicode="&#x422;" horiz-adv-x="590" 
d="M555 681q0 -16 -19 -16h-195v-645q0 -20 -18 -20h-55q-18 0 -18 20v645h-195q-20 0 -20 16v44q0 18 20 18h481q19 0 19 -18v-44z" />
    <glyph glyph-name="uni0423" unicode="&#x423;" horiz-adv-x="588" 
d="M334 145q-32 -83 -69 -115q-43 -37 -125 -37q-36 0 -63 6q-21 5 -21 16v46q0 18 22 16q31 -3 62 -3q43 0 62 16q20 16 40 69l36 94h-5q-49 0 -72 61l-151 404q-10 25 14 25h61q12 0 18 -14l141 -375q7 -19 20 -19h6l153 394q6 14 17 14h62q24 0 14 -25z" />
    <glyph glyph-name="uni0424" unicode="&#x424;" horiz-adv-x="789" 
d="M439 636h38q129 0 201 -53q79 -58 79 -174v-33q0 -120 -79 -180q-72 -54 -201 -54q-25 0 -38 1v-123q0 -20 -18 -20h-54q-18 0 -18 20v123q-14 -1 -38 -1q-129 0 -201 54q-79 60 -79 180v33q0 116 79 174q72 53 201 53h38v94q0 20 18 20h54q18 0 18 -20v-94zM439 559
v-340q14 -1 38 -1q100 0 146 40q43 38 43 118v33q0 150 -189 150h-38zM349 219v340h-38q-189 0 -189 -150v-33q0 -80 43 -118q46 -40 146 -40q23 0 38 1z" />
    <glyph glyph-name="uni0425" unicode="&#x425;" horiz-adv-x="646" 
d="M600 25q6 -9 2 -17t-15 -8h-63q-11 0 -21 15l-183 291l-179 -291q-10 -15 -21 -15h-59q-11 0 -15 8q-3 8 2 17l222 353l-220 341q-5 8 -2 16q4 8 14 8h65q12 0 18 -10l180 -285l174 285q7 10 19 10h59q10 0 14 -8t-1 -16l-215 -343z" />
    <glyph glyph-name="uni0426" unicode="&#x426;" horiz-adv-x="687" 
d="M214 0q-136 0 -136 124v599q0 20 20 20h51q20 0 20 -20v-599q0 -25 7 -33q9 -10 38 -10h252q29 0 38 10q7 8 7 33v599q0 20 20 20h51q20 0 20 -20v-598q0 -22 -5 -44h52q18 0 18 -19v-162q0 -20 -18 -20h-55q-18 0 -18 20v100h-362z" />
    <glyph glyph-name="uni0427" unicode="&#x427;" horiz-adv-x="637" 
d="M559 20q0 -20 -20 -20h-51q-20 0 -20 20v289q-83 -19 -178 -19q-222 0 -222 212v221q0 20 20 20h51q20 0 20 -20v-221q0 -75 34 -103q33 -26 118 -26q93 0 157 16v334q0 20 18 20h55q18 0 18 -20v-703z" />
    <glyph glyph-name="uni0428" unicode="&#x428;" horiz-adv-x="933" 
d="M764 723q0 20 20 20h51q20 0 20 -20v-599q0 -124 -136 -124h-505q-136 0 -136 124v599q0 20 20 20h51q20 0 20 -20v-599q0 -25 7 -33q9 -10 38 -10h207v642q0 20 20 20h51q20 0 20 -20v-642h207q29 0 38 10q7 8 7 33v599z" />
    <glyph glyph-name="uni0429" unicode="&#x429;" horiz-adv-x="945" 
d="M719 81q29 0 38 10q7 8 7 33v599q0 20 20 20h51q20 0 20 -20v-599q0 -23 -5 -43h52q18 0 18 -19v-162q0 -20 -18 -20h-55q-18 0 -18 20v100h-615q-136 0 -136 124v599q0 20 20 20h51q20 0 20 -20v-599q0 -25 7 -33q9 -10 38 -10h207v642q0 20 20 20h51q20 0 20 -20v-642
h207z" />
    <glyph glyph-name="uni042A" unicode="&#x42a;" horiz-adv-x="677" 
d="M642 205q0 -212 -292 -212q-106 0 -163 9q-33 4 -33 37v623h-109q-20 0 -20 20v41q0 20 20 20h182q18 0 18 -19v-293q60 4 105 4q292 0 292 -213v-17zM551 223q0 77 -54 108q-46 27 -147 27q-37 0 -105 -4v-280l52 -2q33 -2 53 -2q101 0 147 27q54 31 54 108v18z" />
    <glyph glyph-name="uni042B" unicode="&#x42b;" horiz-adv-x="863" 
d="M785 20q0 -20 -18 -20h-55q-18 0 -18 20v704q0 19 18 19h55q18 0 18 -19v-704zM566 205q0 -212 -292 -212q-106 0 -163 9q-33 4 -33 37v685q0 19 18 19h55q18 0 18 -19v-293q60 4 105 4q292 0 292 -213v-17zM475 223q0 77 -54 108q-46 27 -147 27q-37 0 -105 -4v-280
l52 -2q33 -2 53 -2q101 0 147 27q54 31 54 108v18z" />
    <glyph glyph-name="uni042C" unicode="&#x42c;" horiz-adv-x="601" 
d="M566 205q0 -212 -292 -212q-106 0 -163 9q-33 4 -33 37v685q0 19 18 19h55q18 0 18 -19v-293q60 4 105 4q292 0 292 -213v-17zM475 223q0 77 -54 108q-46 27 -147 27q-37 0 -105 -4v-280l52 -2q33 -2 53 -2q101 0 147 27q54 31 54 108v18z" />
    <glyph glyph-name="uni042D" unicode="&#x42d;" horiz-adv-x="573" 
d="M447 425q-6 243 -220 243q-68 0 -152 -7q-20 -2 -20 16v40q0 16 20 20q68 13 153 13q130 0 209 -68q101 -86 101 -273v-75q0 -187 -101 -273q-79 -68 -209 -68q-85 0 -153 13q-20 4 -20 20v40q0 18 20 16q84 -7 152 -7q220 0 220 259v13h-330q-20 0 -20 20v38q0 20 20 20
h330z" />
    <glyph glyph-name="uni042E" unicode="&#x42e;" horiz-adv-x="928" 
d="M868 307q0 -160 -76 -240q-70 -74 -194 -74t-194 74q-77 81 -77 240v25h-148v-312q0 -20 -18 -20h-55q-18 0 -18 20v704q0 19 18 19h55q18 0 18 -19v-311h148v23q0 159 77 240q70 74 194 74t194 -74q76 -80 76 -240v-129zM776 436q0 232 -178 232q-179 0 -179 -232v-129
q0 -232 179 -232q178 0 178 232v129z" />
    <glyph glyph-name="uni042F" unicode="&#x42f;" horiz-adv-x="634" 
d="M556 20q0 -20 -18 -20h-54q-18 0 -18 20v294q-60 -3 -110 -3h-26l-179 -298q-8 -13 -26 -13h-64q-9 0 -12 8q-3 7 2 14l182 304q-157 41 -157 202v7q0 215 280 215q107 0 176 -8q24 -3 24 -22v-700zM466 665q-24 3 -110 3q-97 0 -141 -29q-49 -31 -49 -104v-7
q0 -78 49 -110q44 -29 141 -29q40 0 110 2v274z" />
    <glyph glyph-name="uni0401" unicode="&#x401;" horiz-adv-x="551" 
d="M424 829q0 -19 -20 -19h-39q-20 0 -20 19v81q0 20 20 20h39q20 0 20 -20v-81zM249 829q0 -19 -20 -19h-39q-20 0 -20 19v81q0 20 20 20h39q20 0 20 -20v-81zM496 12q0 -12 -10 -14q-47 -5 -195 -5q-213 0 -213 186v385q0 186 213 186q132 0 195 -6q10 -2 10 -14v-50
q0 -12 -11 -12h-193q-76 0 -101 -23q-22 -21 -22 -81v-139h307q20 0 20 -20v-38q0 -20 -20 -20h-307v-168q0 -60 22 -80q25 -24 101 -24h193q11 0 11 -12v-51z" />
    <glyph glyph-name="uni0402" unicode="&#x402;" horiz-adv-x="813" 
d="M763 150q0 -173 -185 -173q-37 0 -53 8q-6 3 -6 11v37q0 17 20 17h39q94 0 94 100v91q0 77 -41 105q-35 23 -123 23q-98 0 -167 -22v-327q0 -20 -18 -20h-55q-18 0 -18 20v645h-195q-20 0 -20 16v44q0 18 20 18h481q19 0 19 -18v-44q0 -16 -19 -16h-195v-243
q81 27 184 27q238 0 238 -208v-91z" />
    <glyph glyph-name="uni0403" unicode="&#x403;" horiz-adv-x="536" 
d="M309 809q-13 -15 -23 -15h-54q-18 0 -5 17l98 124q12 15 24 15h66q20 0 7 -15zM496 680q0 -12 -11 -12h-193q-76 0 -101 -23q-22 -21 -22 -81v-544q0 -20 -20 -20h-51q-20 0 -20 20v544q0 186 213 186q132 0 195 -6q10 -2 10 -14v-50z" />
    <glyph glyph-name="uni0404" unicode="&#x404;" horiz-adv-x="573" 
d="M456 425q20 0 20 -20v-38q0 -20 -20 -20h-330v-13q0 -259 220 -259q68 0 152 7q20 2 20 -16v-40q0 -16 -20 -20q-68 -13 -153 -13q-130 0 -209 68q-101 86 -101 273v75q0 187 101 273q79 68 209 68q85 0 153 -13q20 -4 20 -20v-40q0 -18 -20 -16q-84 7 -152 7
q-214 0 -220 -243h330z" />
    <glyph glyph-name="uni0405" unicode="&#x405;" horiz-adv-x="550" 
d="M253 -7q-78 0 -166 14q-19 3 -19 18v40q0 18 20 16q69 -6 165 -6q152 0 152 118q0 37 -26 65q-24 26 -94 69l-97 59q-138 84 -138 187q0 177 239 177q98 0 174 -12q17 -3 17 -17v-43q0 -18 -19 -16q-88 6 -172 6q-79 0 -112 -20q-35 -21 -35 -75q0 -55 109 -121l92 -55
q157 -93 157 -204q0 -200 -247 -200z" />
    <glyph glyph-name="uni0406" unicode="&#x406;" horiz-adv-x="267" 
d="M179 20q0 -20 -18 -20h-55q-18 0 -18 20v704q0 19 18 19h55q18 0 18 -19v-704z" />
    <glyph glyph-name="uni0407" unicode="&#x407;" horiz-adv-x="267" 
d="M261 828q0 -19 -20 -19h-39q-20 0 -20 19v81q0 20 20 20h39q20 0 20 -20v-81zM86 828q0 -19 -20 -19h-39q-20 0 -20 19v81q0 20 20 20h39q20 0 20 -20v-81zM179 20q0 -20 -18 -20h-55q-18 0 -18 20v704q0 19 18 19h55q18 0 18 -19v-704z" />
    <glyph glyph-name="uni0408" unicode="&#x408;" horiz-adv-x="257" 
d="M179 -37q0 -143 -155 -143q-37 0 -53 8q-6 3 -6 11v37q0 17 20 17h39q38 0 52 17q12 14 12 53v761q0 19 19 19h53q19 0 19 -19v-761z" />
    <glyph glyph-name="uni0409" unicode="&#x409;" horiz-adv-x="934" 
d="M808 223q0 77 -54 108q-46 27 -147 27q-37 0 -105 -4v-280l52 -2q33 -2 53 -2q101 0 147 27q54 31 54 108v18zM482 743q20 0 20 -20v-292q60 4 105 4q292 0 292 -213v-17q0 -212 -292 -212q-106 0 -163 9q-33 4 -33 37v622h-96q-15 0 -20 -18l-171 -628q-4 -15 -18 -15
h-59q-22 0 -16 23l182 644q21 76 102 76h167z" />
    <glyph glyph-name="uni040A" unicode="&#x40a;" horiz-adv-x="1034" 
d="M999 205q0 -212 -292 -212q-93 0 -176 7q-20 2 -20 20v332h-342v-332q0 -20 -20 -20h-51q-20 0 -20 20v703q0 20 20 20h51q20 0 20 -20v-290h342v290q0 20 20 20h51q20 0 20 -20v-292q60 4 105 4q292 0 292 -213v-17zM908 223q0 77 -54 108q-46 27 -147 27q-37 0 -105 -4
v-280l52 -2q33 -2 53 -2q101 0 147 27q54 31 54 108v18z" />
    <glyph glyph-name="uni040B" unicode="&#x40b;" horiz-adv-x="804" 
d="M736 20q0 -20 -20 -20h-51q-20 0 -20 20v221q0 80 -39 107q-30 21 -105 21q-86 0 -160 -21v-328q0 -20 -18 -20h-55q-18 0 -18 20v645h-195q-20 0 -20 16v44q0 18 20 18h481q19 0 19 -18v-44q0 -16 -19 -16h-195v-241q82 25 174 25q107 0 159 -42q62 -50 62 -166v-221z
" />
    <glyph glyph-name="uni040C" unicode="&#x40c;" horiz-adv-x="607" 
d="M322 809q-13 -15 -23 -15h-54q-18 0 -5 17l98 124q12 15 24 15h66q20 0 7 -15zM559 22q6 -7 4 -14q-1 -8 -12 -8h-78q-13 0 -22 10l-282 343v-333q0 -20 -18 -20h-55q-18 0 -18 20v704q0 19 19 19h53q19 0 19 -19v-323l288 333q9 9 20 9h72q11 0 14 -7q2 -7 -4 -14
l-301 -340z" />
    <glyph glyph-name="uni040E" unicode="&#x40e;" horiz-adv-x="588" 
d="M398 828q-45 -36 -108 -36t-108 36q-50 39 -55 105q-2 17 11 17h37q14 0 15 -16q4 -38 35 -60q27 -20 65 -20t65 20q31 22 35 60q1 16 15 16h37q13 0 11 -17q-5 -66 -55 -105zM334 145q-32 -83 -69 -115q-43 -37 -125 -37q-36 0 -63 6q-21 5 -21 16v46q0 18 22 16
q31 -3 62 -3q43 0 62 16q20 16 40 69l36 94h-5q-49 0 -72 61l-151 404q-10 25 14 25h61q12 0 18 -14l141 -375q7 -19 20 -19h6l153 394q6 14 17 14h62q24 0 14 -25z" />
    <glyph glyph-name="uni040F" unicode="&#x40f;" horiz-adv-x="680" 
d="M386 -100q0 -20 -18 -20h-55q-18 0 -18 20v100h-81q-136 0 -136 125v598q0 20 20 20h51q20 0 20 -20v-598q0 -25 7 -33q9 -10 38 -10h252q29 0 38 10q7 8 7 33v598q0 20 20 20h51q20 0 20 -20v-598q0 -125 -136 -125h-80v-100z" />
    <glyph glyph-name="uni0430" unicode="&#x430;" horiz-adv-x="519" 
d="M451 20q0 -20 -20 -20h-46q-20 0 -20 20v22q-84 -49 -154 -49q-163 0 -163 162v12q0 83 54 122q57 40 187 40h74v40q0 63 -24 88t-83 25q-73 0 -153 -8q-23 -2 -23 16v35q0 16 21 19q76 13 155 13q195 0 195 -188v-349zM363 266h-74q-89 0 -122 -22q-31 -21 -31 -76v-12
q0 -51 24 -72q21 -19 68 -19q61 0 135 40v161z" />
    <glyph glyph-name="uni0431" unicode="&#x431;" horiz-adv-x="545" 
d="M495 243q0 -250 -224 -250q-221 0 -221 250v46q0 188 28 255q42 102 182 129l72 14q60 12 67 52q1 13 15 13h56q13 0 12 -13q-5 -95 -130 -121l-75 -16q-60 -13 -87 -31q-33 -24 -39 -70q47 39 121 39q108 0 166 -65q57 -65 57 -186v-46zM406 289q0 176 -134 176
t-134 -176v-46q0 -174 133 -174q135 0 135 174v46z" />
    <glyph glyph-name="uni0432" unicode="&#x432;" horiz-adv-x="553" 
d="M498 161q0 -168 -253 -168q-98 0 -148 6q-29 3 -29 28v496q0 26 28 29q48 5 159 5q237 0 237 -149v-5q0 -88 -72 -117q78 -32 78 -118v-7zM403 408q0 44 -39 61q-35 16 -115 16q-69 0 -93 -1v-165h125q57 0 84 13q38 19 38 71v5zM409 168q0 52 -42 71q-27 12 -86 12h-125
v-185q60 -2 86 -2q90 0 129 23q38 23 38 74v7z" />
    <glyph glyph-name="uni0433" unicode="&#x433;" horiz-adv-x="409" 
d="M194 474q-22 0 -30 -8q-8 -7 -8 -30v-416q0 -20 -20 -20h-48q-20 0 -20 20v416q0 74 46 100q26 14 80 14h175q20 0 20 -20v-36q0 -20 -20 -20h-175z" />
    <glyph glyph-name="uni0491" unicode="&#x491;" horiz-adv-x="409" 
d="M389 494q0 -20 -20 -20h-175q-22 0 -30 -8q-8 -7 -8 -30v-416q0 -20 -20 -20h-48q-20 0 -20 20v416q0 74 46 100q26 14 80 14h107v62q0 20 20 20h48q20 0 20 -20v-118z" />
    <glyph glyph-name="uni0434" unicode="&#x434;" horiz-adv-x="602" 
d="M557 76q20 0 20 -19v-146q0 -20 -20 -20h-47q-20 0 -20 20v89h-378v-89q0 -20 -20 -20h-47q-20 0 -20 20v146q0 19 20 19h33l116 405q21 76 102 76q80 0 101 -75l114 -406h46zM171 76h249l-105 384q-5 18 -19 18q-15 0 -20 -18z" />
    <glyph glyph-name="uni0435" unicode="&#x435;" horiz-adv-x="544" 
d="M492 269q0 -22 -19 -22h-335v-14q0 -87 35 -126q33 -37 104 -37q106 0 178 11q21 4 21 -14v-34q0 -19 -20 -23q-88 -17 -179 -17q-99 0 -157 50q-70 61 -70 190v90q0 109 57 171q59 63 165 63q107 0 165 -64q55 -61 55 -170v-54zM403 323q0 157 -131 157
q-134 0 -134 -157v-9h265v9z" />
    <glyph glyph-name="uni0436" unicode="&#x436;" horiz-adv-x="768" 
d="M722 0h-72q-13 0 -23 13l-199 246v-239q0 -20 -20 -20h-48q-20 0 -20 20v239l-199 -246q-10 -13 -23 -13h-72q-11 0 -11 13q0 6 3 9l222 268l-220 238q-5 5 -5 11q0 11 15 11h70q12 0 20 -9l200 -225v214q0 20 20 20h48q20 0 20 -20v-214l200 225q8 9 20 9h70
q15 0 15 -11q0 -6 -5 -11l-220 -238l222 -268q3 -3 3 -9q0 -13 -11 -13z" />
    <glyph glyph-name="uni0437" unicode="&#x437;" horiz-adv-x="506" 
d="M446 159q0 -82 -63 -126q-58 -40 -157 -40q-79 0 -146 13q-20 5 -20 18v35q0 19 21 17q77 -9 145 -9q69 0 99 21t30 71v9q0 83 -97 83h-156q-19 0 -19 17v34q0 17 19 17h156q97 0 97 82v8q0 42 -29 58q-28 16 -101 16q-43 0 -144 -9q-21 -2 -21 17v35q0 14 20 18
q67 13 146 13q220 0 220 -148v-8q0 -78 -75 -116q75 -36 75 -117v-9z" />
    <glyph glyph-name="uni0438" unicode="&#x438;" horiz-adv-x="577" 
d="M68 531q0 19 18 19h52q18 0 18 -19v-392q0 -7 3 -1l233 392q12 20 41 20h52q24 0 24 -28v-502q0 -20 -18 -20h-52q-18 0 -18 19v390q0 7 -4 1l-232 -394q-9 -16 -32 -16h-56q-29 0 -29 29v502z" />
    <glyph glyph-name="uni0439" unicode="&#x439;" horiz-adv-x="577" 
d="M391 657q-45 -36 -108 -36t-108 36q-50 39 -55 105q-2 17 11 17h37q14 0 15 -16q4 -38 35 -60q27 -20 65 -20t65 20q31 22 35 60q1 16 15 16h37q13 0 11 -17q-5 -66 -55 -105zM68 29q0 -29 29 -29h56q23 0 32 16l232 394q4 6 4 -1v-390q0 -19 18 -19h52q18 0 18 20v502
q0 28 -24 28h-52q-29 0 -41 -20l-233 -392q-3 -6 -3 1v392q0 19 -18 19h-52q-18 0 -18 -19v-502z" />
    <glyph glyph-name="uni043A" unicode="&#x43a;" horiz-adv-x="496" 
d="M450 0h-72q-13 0 -23 13l-199 246v-239q0 -20 -20 -20h-48q-20 0 -20 20v510q0 20 20 20h48q20 0 20 -20v-214l200 225q8 9 20 9h70q15 0 15 -11q0 -6 -5 -11l-220 -238l222 -268q3 -3 3 -9q0 -13 -11 -13z" />
    <glyph glyph-name="uni043B" unicode="&#x43b;" horiz-adv-x="538" 
d="M289 460q-5 18 -19 18q-15 0 -20 -18l-121 -445q-4 -15 -18 -15h-59q-17 0 -17 16q0 5 1 7l132 458q21 76 102 76q80 0 101 -75l131 -459q1 -2 1 -7q0 -16 -17 -16h-59q-13 0 -17 15z" />
    <glyph glyph-name="uni043C" unicode="&#x43c;" horiz-adv-x="663" 
d="M595 20q0 -20 -20 -20h-46q-20 0 -20 20v421l-115 -210q-13 -24 -43 -24h-39q-29 0 -43 24l-115 210v-421q0 -20 -20 -20h-46q-20 0 -20 20v510q0 20 20 20h65q25 0 32 -15l141 -256q3 -6 5 -6q3 0 6 6l141 256q8 15 32 15h65q20 0 20 -20v-510z" />
    <glyph glyph-name="uni043D" unicode="&#x43d;" horiz-adv-x="577" 
d="M509 20q0 -20 -20 -20h-48q-20 0 -20 20v223h-265v-223q0 -20 -20 -20h-48q-20 0 -20 20v510q0 20 20 20h48q20 0 20 -20v-212h265v212q0 20 20 20h48q20 0 20 -20v-510z" />
    <glyph glyph-name="uni043E" unicode="&#x43e;" horiz-adv-x="545" 
d="M495 237q0 -113 -56 -177q-59 -67 -167 -67t-166 67q-56 64 -56 177v76q0 113 56 177q58 67 166 67t167 -67q56 -64 56 -177v-76zM407 313q0 167 -135 167q-134 0 -134 -167v-76q0 -167 134 -167q135 0 135 167v76z" />
    <glyph glyph-name="uni043F" unicode="&#x43f;" horiz-adv-x="577" 
d="M509 20q0 -20 -20 -20h-48q-20 0 -20 20v416q0 23 -8 30q-7 8 -30 8h-189q-22 0 -30 -8q-8 -7 -8 -30v-416q0 -20 -20 -20h-48q-20 0 -20 20v416q0 74 46 100q26 14 80 14h189q55 0 80 -14q46 -26 46 -100v-416z" />
    <glyph glyph-name="uni0440" unicode="&#x440;" horiz-adv-x="541" 
d="M491 238q0 -245 -218 -245q-56 0 -117 11v-181q0 -19 -19 -19h-51q-18 0 -18 19v688q0 18 21 23q94 23 184 23q109 0 165 -67q53 -64 53 -180v-72zM403 310q0 173 -130 173q-61 0 -117 -10v-396q55 -10 117 -10q130 0 130 171v72z" />
    <glyph glyph-name="uni0441" unicode="&#x441;" horiz-adv-x="452" 
d="M408 26q0 -18 -20 -22q-60 -11 -125 -11q-101 0 -157 66q-56 65 -56 177v78q0 112 55 177q57 66 158 66q65 0 125 -11q20 -4 20 -22v-36q0 -17 -21 -15q-62 7 -124 7q-125 0 -125 -166v-78q0 -166 125 -166q62 0 124 7q21 2 21 -15v-36z" />
    <glyph glyph-name="uni0442" unicode="&#x442;" horiz-adv-x="528" 
d="M493 497q0 -20 -20 -20h-165v-457q0 -20 -20 -20h-48q-20 0 -20 20v457h-165q-20 0 -20 20v33q0 20 20 20h418q20 0 20 -20v-33z" />
    <glyph glyph-name="uni0443" unicode="&#x443;" horiz-adv-x="534" 
d="M328 -50q-24 -84 -60 -114q-39 -34 -123 -34q-46 0 -84 9q-21 5 -21 16v37q0 18 22 16q66 -6 89 -6q44 0 65 16q22 18 34 69l10 41h-14q-54 0 -74 69l-133 457q-7 24 17 24h55q13 0 17 -16l118 -434q6 -22 19 -22h16l122 457q4 15 19 15h56q22 0 15 -24z" />
    <glyph glyph-name="uni0444" unicode="&#x444;" horiz-adv-x="830" 
d="M459 552q43 5 93 5q228 0 228 -247v-72q0 -245 -218 -245q-33 0 -103 8v-178q0 -19 -19 -19h-51q-18 0 -18 19v178q-72 -8 -103 -8q-218 0 -218 245v72q0 247 228 247q51 0 93 -5v180q0 20 20 20h48q20 0 20 -20v-180zM459 478v-404q60 -7 103 -7q130 0 130 171v72
q0 85 -29 126q-33 47 -109 47q-52 0 -95 -5zM371 74v404q-45 5 -95 5q-76 0 -109 -47q-29 -41 -29 -126v-72q0 -171 130 -171q42 0 103 7z" />
    <glyph glyph-name="uni0445" unicode="&#x445;" horiz-adv-x="547" 
d="M508 23q6 -8 4 -15q-2 -8 -13 -8h-69q-9 0 -14 8l-143 209l-143 -207q-7 -10 -17 -10h-60q-23 0 -7 23l180 257l-170 245q-7 11 -4 18q4 7 14 7h65q11 0 20 -14l127 -188l128 188q10 14 21 14h58q10 0 12 -8q3 -7 -4 -17l-168 -239z" />
    <glyph glyph-name="uni0446" unicode="&#x446;" horiz-adv-x="584" 
d="M421 530q0 20 20 20h48q20 0 20 -20v-417q0 -20 -4 -37h39q20 0 20 -19v-146q0 -20 -20 -20h-47q-20 0 -20 20v89h-283q-54 0 -80 14q-46 26 -46 100v416q0 20 20 20h48q20 0 20 -20v-416q0 -22 8 -30t30 -8h189q23 0 30 8q8 8 8 30v416z" />
    <glyph glyph-name="uni0447" unicode="&#x447;" horiz-adv-x="545" 
d="M477 20q0 -20 -20 -20h-48q-20 0 -20 20v205q-76 -13 -146 -13q-193 0 -193 160v158q0 20 20 20h48q20 0 20 -20v-158q0 -52 27 -71q25 -18 96 -18q66 0 128 11v236q0 20 20 20h48q20 0 20 -20v-510z" />
    <glyph glyph-name="uni0448" unicode="&#x448;" horiz-adv-x="810" 
d="M742 114q0 -74 -46 -100q-25 -14 -80 -14h-422q-54 0 -80 14q-46 26 -46 100v416q0 20 20 20h48q20 0 20 -20v-416q0 -22 8 -30t30 -8h167v454q0 20 20 20h48q20 0 20 -20v-454h167q23 0 30 8q8 8 8 30v416q0 20 20 20h48q20 0 20 -20v-416z" />
    <glyph glyph-name="uni0449" unicode="&#x449;" horiz-adv-x="822" 
d="M742 113q0 -25 -4 -37h39q20 0 20 -19v-146q0 -20 -20 -20h-47q-20 0 -20 20v89h-516q-54 0 -80 14q-46 26 -46 100v416q0 20 20 20h48q20 0 20 -20v-416q0 -22 8 -30t30 -8h167v454q0 20 20 20h48q20 0 20 -20v-454h167q23 0 30 8q8 8 8 30v416q0 20 20 20h48
q20 0 20 -20v-417z" />
    <glyph glyph-name="uni044A" unicode="&#x44a;" horiz-adv-x="595" 
d="M555 161q0 -168 -253 -168q-103 0 -153 6q-29 4 -29 28v447h-85q-20 0 -20 20v36q0 20 20 20h153q20 0 20 -20v-195q58 2 94 2q253 0 253 -168v-8zM466 169q0 92 -167 92l-91 -3v-186l91 -3q167 0 167 92v8z" />
    <glyph glyph-name="uni044B" unicode="&#x44b;" horiz-adv-x="747" 
d="M669 20q0 -20 -20 -20h-48q-20 0 -20 20v510q0 20 20 20h48q20 0 20 -20v-510zM503 161q0 -168 -253 -168q-103 0 -153 6q-29 4 -29 28v503q0 20 20 20h48q20 0 20 -20v-195q58 2 94 2q253 0 253 -168v-8zM414 169q0 92 -167 92l-91 -3v-186l91 -3q167 0 167 92v8z" />
    <glyph glyph-name="uni044C" unicode="&#x44c;" horiz-adv-x="543" 
d="M503 161q0 -168 -253 -168q-103 0 -153 6q-29 4 -29 28v503q0 20 20 20h48q20 0 20 -20v-195q58 2 94 2q253 0 253 -168v-8zM414 169q0 92 -167 92l-91 -3v-186l91 -3q167 0 167 92v8z" />
    <glyph glyph-name="uni044D" unicode="&#x44d;" horiz-adv-x="452" 
d="M44 62q0 17 21 15q79 -7 117 -7q132 0 132 166v6h-207q-20 0 -20 20v35q0 20 20 20h207q-1 163 -132 163q-55 0 -117 -7q-21 -2 -21 15v36q0 18 20 22q61 11 125 11q105 0 161 -66q52 -63 52 -177v-78q0 -113 -53 -177q-56 -66 -160 -66q-64 0 -125 11q-20 4 -20 22v36z
" />
    <glyph glyph-name="uni044E" unicode="&#x44e;" horiz-adv-x="772" 
d="M722 237q0 -113 -56 -177q-59 -67 -167 -67t-166 67q-56 64 -56 177v7h-121v-224q0 -20 -20 -20h-48q-20 0 -20 20v510q0 20 20 20h48q20 0 20 -20v-213h121q1 111 57 174q58 66 165 66q108 0 167 -67q56 -64 56 -177v-76zM634 313q0 167 -135 167q-134 0 -134 -167v-76
q0 -167 134 -167q135 0 135 167v76z" />
    <glyph glyph-name="uni044F" unicode="&#x44f;" horiz-adv-x="539" 
d="M471 20q0 -20 -20 -20h-48q-20 0 -20 20v205l-92 -2l-149 -211q-9 -12 -26 -12h-55q-11 0 -15 9q-4 8 2 15l151 209q-131 29 -131 156v5q0 163 243 163q80 0 135 -6q25 -3 25 -21v-510zM383 483q-22 2 -72 2q-82 0 -118 -20q-39 -21 -39 -71v-5q0 -54 39 -75
q36 -20 118 -20l72 2v187z" />
    <glyph glyph-name="uni0451" unicode="&#x451;" horiz-adv-x="544" 
d="M403 660q0 -19 -20 -19h-39q-20 0 -20 19v81q0 20 20 20h39q20 0 20 -20v-81zM228 660q0 -19 -20 -19h-39q-20 0 -20 19v81q0 20 20 20h39q20 0 20 -20v-81zM492 269q0 -22 -19 -22h-335v-14q0 -87 35 -126q33 -37 104 -37q106 0 178 11q21 4 21 -14v-34q0 -19 -20 -23
q-88 -17 -179 -17q-99 0 -157 50q-70 61 -70 190v90q0 109 57 171q59 63 165 63q107 0 165 -64q55 -61 55 -170v-54zM403 323q0 157 -131 157q-134 0 -134 -157v-9h265v9z" />
    <glyph glyph-name="uni0452" unicode="&#x452;" horiz-adv-x="557" 
d="M489 24q0 -110 -23 -152q-39 -70 -142 -70q-8 0 -54 4q-20 2 -20 20v30q0 21 20 20l44 -2q60 0 75 36q12 31 12 114v325q0 131 -107 131q-76 0 -138 -28v-432q0 -20 -20 -20h-49q-19 0 -19 20v601h-55q-20 0 -20 20v22q0 20 20 20h55v49q0 20 19 20h50q19 0 19 -20v-49
h133q20 0 20 -20v-22q0 -20 -20 -20h-133v-95q71 31 153 31q180 0 180 -208v-325z" />
    <glyph glyph-name="uni0453" unicode="&#x453;" horiz-adv-x="409" 
d="M254 638q-13 -15 -23 -15h-54q-18 0 -5 17l98 124q12 15 24 15h66q20 0 7 -15zM194 474q-22 0 -30 -8q-8 -7 -8 -30v-416q0 -20 -20 -20h-48q-20 0 -20 20v416q0 74 46 100q26 14 80 14h175q20 0 20 -20v-36q0 -20 -20 -20h-175z" />
    <glyph glyph-name="uni0454" unicode="&#x454;" horiz-adv-x="452" 
d="M408 26q0 -18 -20 -22q-60 -11 -125 -11q-104 0 -160 66q-53 64 -53 177v78q0 114 53 177q55 66 160 66q65 0 125 -11q20 -4 20 -22v-36q0 -17 -21 -15q-62 7 -117 7q-131 0 -132 -163h207q20 0 20 -20v-35q0 -20 -20 -20h-207v-6q0 -166 132 -166q55 0 117 7
q21 2 21 -15v-36z" />
    <glyph glyph-name="uni0455" unicode="&#x455;" horiz-adv-x="466" 
d="M229 -7q-97 0 -158 15q-21 5 -21 20v35q0 19 22 15q88 -11 157 -11q99 0 99 71q0 38 -75 83l-101 60q-102 62 -102 143q0 133 181 133q80 0 156 -13q19 -3 19 -20v-33q0 -19 -20 -17q-93 8 -155 8q-48 0 -67 -10q-26 -13 -26 -48t69 -76l99 -59q110 -65 110 -151
q0 -145 -187 -145z" />
    <glyph glyph-name="uni0456" unicode="&#x456;" horiz-adv-x="247" 
d="M169 658q0 -20 -20 -20h-51q-20 0 -20 20v80q0 20 20 20h51q20 0 20 -20v-80zM167 20q0 -20 -20 -20h-48q-20 0 -20 20v510q0 20 20 20h48q20 0 20 -20v-510z" />
    <glyph glyph-name="uni0457" unicode="&#x457;" horiz-adv-x="247" 
d="M250 660q0 -19 -20 -19h-39q-20 0 -20 19v81q0 20 20 20h39q20 0 20 -20v-81zM75 660q0 -19 -20 -19h-39q-20 0 -20 19v81q0 20 20 20h39q20 0 20 -20v-81zM167 20q0 -20 -20 -20h-48q-20 0 -20 20v510q0 20 20 20h48q20 0 20 -20v-510z" />
    <glyph glyph-name="uni0458" unicode="&#x458;" horiz-adv-x="247" 
d="M169 657q0 -19 -20 -19h-51q-20 0 -20 19v81q0 20 20 20h51q20 0 20 -20v-81zM167 -64q0 -75 -32 -105q-29 -28 -93 -28q-27 0 -54 4q-18 3 -18 16v37q0 14 21 14h41q28 0 38 12q9 12 9 50v594q0 20 18 20h52q18 0 18 -20v-594z" />
    <glyph glyph-name="uni0459" unicode="&#x459;" horiz-adv-x="817" 
d="M688 169q0 92 -167 92l-91 -3v-186l91 -3q167 0 167 92v8zM410 550q20 0 20 -20v-195q58 2 94 2q253 0 253 -168v-8q0 -168 -253 -168q-83 0 -162 7q-20 2 -20 20v451h-79q-15 0 -20 -18l-119 -438q-4 -15 -18 -15h-59q-17 0 -17 16q0 5 1 7l130 451q21 76 102 76h147z
" />
    <glyph glyph-name="uni045A" unicode="&#x45a;" horiz-adv-x="875" 
d="M835 161q0 -168 -253 -168q-103 0 -153 6q-29 4 -29 28v217h-244v-224q0 -20 -20 -20h-48q-20 0 -20 20v510q0 20 20 20h48q20 0 20 -20v-213h244v213q0 20 20 20h48q20 0 20 -20v-195q58 2 94 2q253 0 253 -168v-8zM746 169q0 92 -167 92l-91 -3v-186l91 -3
q167 0 167 92v8z" />
    <glyph glyph-name="uni045B" unicode="&#x45b;" horiz-adv-x="557" 
d="M489 20q0 -20 -20 -20h-48q-20 0 -20 20v329q0 131 -107 131q-76 0 -138 -28v-432q0 -20 -20 -20h-49q-19 0 -19 20v601h-55q-20 0 -20 20v22q0 20 20 20h55v49q0 20 19 20h50q19 0 19 -20v-49h133q20 0 20 -20v-22q0 -20 -20 -20h-133v-95q71 31 153 31q180 0 180 -208
v-329z" />
    <glyph glyph-name="uni045C" unicode="&#x45c;" horiz-adv-x="496" 
d="M274 638q-13 -15 -23 -15h-54q-18 0 -5 17l98 124q12 15 24 15h66q20 0 7 -15zM450 0h-72q-13 0 -23 13l-199 246v-239q0 -20 -20 -20h-48q-20 0 -20 20v510q0 20 20 20h48q20 0 20 -20v-214l200 225q8 9 20 9h70q15 0 15 -11q0 -6 -5 -11l-220 -238l222 -268q3 -3 3 -9
q0 -13 -11 -13z" />
    <glyph glyph-name="uni045E" unicode="&#x45e;" horiz-adv-x="534" 
d="M374 657q-45 -36 -108 -36t-108 36q-50 39 -55 105q-2 17 11 17h37q14 0 15 -16q4 -38 35 -60q27 -20 65 -20t65 20q31 22 35 60q1 16 15 16h37q13 0 11 -17q-5 -66 -55 -105zM328 -50q-24 -84 -60 -114q-39 -34 -123 -34q-46 0 -84 9q-21 5 -21 16v37q0 18 22 16
q66 -6 89 -6q44 0 65 16q22 18 34 69l10 41h-14q-54 0 -74 69l-133 457q-7 24 17 24h55q13 0 17 -16l118 -434q6 -22 19 -22h16l122 457q4 15 19 15h56q22 0 15 -24z" />
    <glyph glyph-name="uni045F" unicode="&#x45f;" horiz-adv-x="577" 
d="M509 114q0 -74 -46 -100q-25 -14 -80 -14h-51v-89q0 -20 -20 -20h-47q-20 0 -20 20v89h-51q-54 0 -80 14q-46 26 -46 100v416q0 20 20 20h48q20 0 20 -20v-416q0 -22 8 -30t30 -8h189q23 0 30 8q8 8 8 30v416q0 20 20 20h48q20 0 20 -20v-416z" />
    <glyph glyph-name="franc" unicode="&#x20a3;" horiz-adv-x="551" 
d="M496 680q0 -12 -11 -12h-193q-76 0 -101 -23q-22 -21 -22 -81v-139h307q20 0 20 -20v-38q0 -20 -20 -20h-307v-95h118q20 0 20 -20v-38q0 -20 -20 -20h-118v-154q0 -20 -20 -20h-51q-20 0 -20 20v154h-58q-20 0 -20 20v38q0 20 20 20h58v312q0 186 213 186q132 0 195 -6
q10 -2 10 -14v-50z" />
    <glyph glyph-name="lira" unicode="&#x20a4;" 
d="M231 217v-22q0 -55 -35 -119h319q20 0 20 -15v-44q0 -17 -20 -17h-399q-17 0 -17 15v39q0 6 10 23q31 53 31 118v22h-52q-18 0 -18 18v42q0 18 20 18h50v72h-52q-18 0 -18 18v42q0 18 20 18h50v45q0 130 47 188q51 64 174 64q77 0 155 -13q19 -4 19 -17v-41
q0 -17 -15 -17h-5q-97 11 -154 11q-77 0 -104 -37q-26 -36 -26 -138v-45h215q19 0 19 -18v-42q0 -18 -20 -18h-214v-72h215q19 0 19 -18v-42q0 -18 -20 -18h-214z" />
    <glyph glyph-name="peseta" unicode="&#x20a7;" horiz-adv-x="1444" 
d="M548 520q0 -224 -280 -224q-35 0 -100 5v-281q0 -20 -18 -20h-54q-18 0 -18 20v697q0 22 24 25q69 8 166 8q280 0 280 -217v-13zM457 533q0 75 -46 108q-45 32 -143 32q-52 0 -100 -4v-293l100 -4q102 0 146 35q43 34 43 113v13zM953 15q0 -14 -18 -17q-33 -5 -65 -5
q-73 0 -102 26q-34 29 -34 108v349l-97 11q-19 2 -19 18v27q0 18 19 18h97v98q0 17 18 20l55 8q15 0 15 -17v-109h108q20 0 20 -20v-34q0 -20 -20 -20h-108v-349q0 -40 12 -52q10 -11 42 -11h56q21 0 21 -14v-35zM1207 -7q-97 0 -158 15q-21 5 -21 20v35q0 15 18 15h4
q88 -11 157 -11q99 0 99 71q0 38 -75 83l-101 60q-102 62 -102 143q0 133 181 133q80 0 156 -13q19 -3 19 -20v-33q0 -17 -17 -17h-3q-93 8 -155 8q-48 0 -67 -10q-26 -13 -26 -48t69 -76l99 -59q110 -65 110 -151q0 -145 -187 -145z" />
    <glyph glyph-name="Euro" unicode="&#x20ac;" 
d="M554 26q0 -16 -20 -20q-68 -13 -150 -13q-105 0 -178 57q-91 71 -101 215h-33q-20 0 -20 20v28q0 20 20 20h32v81h-32q-20 0 -20 20v28q0 20 20 20h33q10 143 102 213q72 55 177 55q51 0 152 -16q16 -2 16 -13v-51q0 -11 -12 -11h-3q-108 9 -152 9q-171 0 -188 -186h290
q17 0 17 -16l-8 -32q-5 -20 -20 -20h-281v-81h257q15 0 15 -15l-8 -33q-5 -20 -20 -20h-243q8 -99 65 -148q48 -42 124 -42q53 0 149 8h4q16 0 16 -16v-41z" />
    <glyph glyph-name="uni2113" unicode="&#x2113;" horiz-adv-x="450" 
d="M415 66q8 -14 -3 -24q-58 -53 -146 -53q-137 0 -137 165v107l-62 -51q-15 -13 -24 0l-11 17q-8 13 2 22l95 80v273q0 181 144 181q75 0 113 -39q33 -34 33 -90q0 -152 -201 -333v-163q0 -94 69 -94q41 0 89 31q16 11 26 -2zM290 733q-42 0 -58 -32q-14 -28 -14 -99v-212
q144 147 144 264q0 79 -72 79z" />
    <glyph glyph-name="uni2116" unicode="&#x2116;" horiz-adv-x="1172" 
d="M1094 407q0 -98 -49 -154q-51 -59 -145 -59t-145 59q-49 56 -49 154v65q0 98 49 155q51 59 145 59t145 -59q49 -57 49 -155v-65zM1094 85q0 -20 -20 -20h-348q-20 0 -20 20v34q0 20 20 20h348q20 0 20 -20v-34zM602 29q0 -29 -29 -29h-62q-24 0 -32 16l-313 593v-590
q0 -19 -18 -19h-52q-18 0 -18 12v703q0 28 29 28h55q30 0 41 -20l310 -590v591q0 19 18 19h53q18 0 18 -19v-695zM1008 472q0 139 -108 139t-108 -139v-65q0 -139 108 -139t108 139v65z" />
    <glyph glyph-name="estimated" unicode="&#x212e;" horiz-adv-x="606" 
d="M148 282v-193q66 -63 152 -63q126 0 210 127l31 -19q-91 -141 -241 -141q-119 0 -197 86q-74 83 -74 204q0 123 73 205q77 85 202 85q124 0 200 -87q73 -82 73 -204h-429zM457 478q-68 62 -153 62q-96 0 -156 -62v-163h309v163z" />
    <glyph glyph-name="partialdiff" unicode="&#x2202;" horiz-adv-x="560" 
d="M498 242q-46 -252 -262 -252q-196 0 -196 191q0 40 13 121q40 238 255 238q84 0 128 -48l-3 14q-4 100 -41 151q-50 68 -166 68q-52 0 -100 -8q-18 -3 -17 10l4 29q1 16 17 20q49 10 107 10q283 0 283 -312q0 -102 -22 -232zM308 468q-138 0 -165 -175q-13 -89 -13 -113
q0 -119 113 -119q135 0 164 176q14 82 14 118q0 113 -113 113z" />
    <glyph glyph-name="product" unicode="&#x220f;" horiz-adv-x="641" 
d="M620 671q0 -10 -11 -10h-72v-718q0 -18 -17 -18h-56q-17 0 -17 18v718h-252v-718q0 -18 -17 -18h-56q-17 0 -17 18v718h-73q-11 0 -11 10v61q0 11 11 11h577q11 0 11 -11v-61z" />
    <glyph glyph-name="summation" unicode="&#x2211;" horiz-adv-x="517" 
d="M462 -59q0 -16 -14 -16h-376q-17 0 -17 20v46q0 14 6 24l191 307q3 5 3 12t-3 12l-191 307q-6 10 -6 24v46q0 20 17 20h376q14 0 14 -16v-48q0 -17 -14 -17h-278q-8 0 -3 -9l177 -285q6 -9 6 -20v-28q0 -11 -6 -20l-177 -285q-5 -9 3 -9h278q14 0 14 -17v-48z" />
    <glyph glyph-name="uni2219" unicode="&#x2219;" horiz-adv-x="214" 
d="M150 345q0 -20 -19 -20h-48q-19 0 -19 20v93q0 19 19 19h48q19 0 19 -19v-93z" />
    <glyph glyph-name="radical" unicode="&#x221a;" horiz-adv-x="730" 
d="M409 -59q-4 -16 -25 -16h-74q-14 0 -20 18l-138 452q-4 11 -12 11h-97q-11 0 -11 12v47q0 14 11 14h148q15 0 20 -15l139 -472l262 866q5 15 17 15h55q15 0 10 -14z" />
    <glyph glyph-name="infinity" unicode="&#x221e;" horiz-adv-x="614" 
d="M574 364q0 -217 -154 -217h-6q-77 0 -124 52q-35 -54 -97 -54h-6q-147 0 -147 218v25q0 218 153 218h7q72 0 122 -53q35 54 100 54h6q146 0 146 -218v-25zM502 389q0 75 -11 108q-17 48 -63 48h-6q-36 0 -53 -36q-15 -34 -29 -134q-14 -92 -23 -119q42 -48 97 -48h6
q82 0 82 156v25zM199 544h-5q-81 0 -81 -156v-25q0 -75 11 -108q17 -48 63 -48h6q34 0 52 37q16 36 30 137q14 96 19 112q-43 51 -95 51z" />
    <glyph glyph-name="integral" unicode="&#x222b;" horiz-adv-x="451" 
d="M413 700q0 -10 -11 -9q-38 2 -76 2q-39 0 -49 -17q-8 -14 -8 -69v-654q0 -78 -21 -111q-29 -45 -111 -45q-49 0 -89 10q-10 1 -10 13v40q0 10 11 9q38 -2 76 -2q39 0 49 17q8 14 8 69v654q0 78 21 111q29 45 111 45q49 0 89 -10q10 -1 10 -13v-40z" />
    <glyph glyph-name="approxequal" unicode="&#x2248;" 
d="M481 542q0 -105 -89 -105q-42 0 -78 28l-52 42q-28 22 -44 22q-28 0 -28 -46v-21q0 -17 -17 -17h-31q-16 0 -16 17v21q0 109 89 109q35 0 80 -35l57 -45q18 -14 38 -14q27 0 27 44v23q0 17 17 17h31q16 0 16 -17v-23zM481 302q0 -105 -89 -105q-42 0 -78 28l-52 42
q-28 22 -44 22q-28 0 -28 -46v-21q0 -17 -17 -17h-31q-16 0 -16 17v21q0 109 89 109q35 0 80 -35l57 -45q18 -14 38 -14q27 0 27 44v23q0 17 17 17h31q16 0 16 -17v-23z" />
    <glyph glyph-name="notequal" unicode="&#x2260;" 
d="M515 261q0 -16 -20 -16h-203l-77 -226q-6 -19 -25 -19h-37q-19 0 -13 19l77 226h-107q-20 0 -20 16v40q0 16 20 16h132l51 149h-183q-20 0 -20 16v40q0 16 20 16h208l66 192q6 19 25 19h37q19 0 13 -19l-66 -192h102q20 0 20 -16v-40q0 -16 -20 -16h-127l-51 -149h178
q20 0 20 -16v-40z" />
    <glyph glyph-name="lessequal" unicode="&#x2264;" horiz-adv-x="525" 
d="M392 152h-69q-13 0 -24 12l-201 201q-13 10 -13 33q0 22 13 32l201 201q11 12 24 12h69q13 0 13 -11q0 -8 -8 -15l-220 -219l220 -220q8 -7 8 -15q0 -11 -13 -11zM490 16q0 -16 -20 -16h-415q-20 0 -20 16v33q0 16 20 16h415q20 0 20 -16v-33z" />
    <glyph glyph-name="greaterequal" unicode="&#x2265;" horiz-adv-x="525" 
d="M128 178l220 220l-220 219q-8 7 -8 15q0 11 13 11h69q13 0 24 -12l201 -201q13 -10 13 -32q0 -23 -13 -33l-201 -201q-11 -12 -24 -12h-69q-13 0 -13 11q0 8 8 15zM35 49q0 16 20 16h415q20 0 20 -16v-33q0 -16 -20 -16h-415q-20 0 -20 16v33z" />
    <glyph glyph-name="lozenge" unicode="&#x25ca;" horiz-adv-x="517" 
d="M455 310l-154 -190q-23 -29 -42 -29q-20 0 -43 29l-154 190q-22 29 -22 50q0 23 22 51l156 195q18 22 41 22q24 0 40 -22l156 -195q22 -28 22 -51t-22 -50zM384 384l-106 135q-10 13 -19 13q-8 0 -20 -13l-106 -135q-10 -14 -10 -25q0 -12 12 -27l103 -129q15 -16 21 -16
t21 16l103 129q12 17 12 27q0 9 -11 25z" />
    <glyph glyph-name="uni00A0" unicode="&#xa0;" horiz-adv-x="247" 
 />
    <glyph glyph-name="uni00AD" unicode="&#xad;" horiz-adv-x="333" 
d="M285 273q0 -17 -19 -17h-199q-19 0 -19 17v39q0 18 19 18h199q19 0 19 -18v-39z" />
    <glyph glyph-name="uni02C9" unicode="&#x2c9;" horiz-adv-x="373" 
d="M351 692q0 -17 -20 -17h-288q-20 0 -20 17v34q0 17 20 17h288q20 0 20 -17v-34z" />
    <glyph glyph-name="zero.fitted" unicode="&#xf639;" 
d="M548 304q0 -311 -245 -311q-246 0 -246 311v135q0 311 246 311q245 0 245 -311v-135zM457 439q0 234 -154 234t-154 -234v-135q0 -234 154 -234t154 234v135z" />
    <glyph glyph-name="one.fitted" unicode="&#xf6dc;" horiz-adv-x="409" 
d="M283 20q0 -20 -18 -20h-55q-18 0 -18 20v629l-129 -56q-7 -3 -13 -3q-9 0 -9 11v51q0 7 10 13l151 72q12 6 21 6h41q19 0 19 -19v-704z" />
    <glyph glyph-name="two.fitted" unicode="&#xf63a;" 
d="M396 378l-96 -65q-82 -55 -112 -102q-28 -44 -28 -111v-21h337q20 0 20 -17v-44q0 -18 -20 -18h-397q-20 0 -20 19v81q0 161 153 263l101 68q63 43 83 69q20 27 20 71q0 54 -34 79q-36 24 -116 24q-72 0 -177 -15h-4q-16 0 -16 18v35q0 14 19 18q78 20 178 20
q239 0 239 -179q0 -105 -130 -193z" />
    <glyph glyph-name="three.fitted" unicode="&#xf63b;" 
d="M521 207q0 -108 -70 -163q-64 -51 -179 -51q-82 0 -169 20q-19 4 -19 19v34q0 17 17 17h3q105 -14 168 -14q82 0 119 33t37 105v21q0 48 -24 81q-31 41 -93 41h-182q-19 0 -19 18v35q0 19 19 19h182q117 0 117 119v14q0 62 -36 90q-36 29 -120 29q-46 0 -168 -15h-3
q-17 0 -17 17v35q0 15 19 19q96 20 169 20q249 0 249 -195v-14q0 -108 -95 -156q95 -47 95 -157v-21z" />
    <glyph glyph-name="four.fitted" unicode="&#xf63c;" 
d="M567 216q0 -18 -19 -18h-87v-178q0 -20 -17 -20h-58q-17 0 -17 20v178h-289q-41 0 -41 39v38q0 21 12 37l296 415q10 16 29 16h59q26 0 26 -22v-447h87q19 0 19 -18v-40zM370 616q0 6 -4 6h-1q-4 0 -8 -6l-231 -328q-3 -4 -3 -8q0 -6 8 -6h239v342z" />
    <glyph glyph-name="five.fitted" unicode="&#xf63d;" 
d="M528 226q0 -111 -67 -172t-188 -61q-101 0 -176 18q-19 5 -19 20v37q0 15 15 15h5q80 -14 175 -14q163 0 163 157v15q0 74 -49 105q-48 29 -160 29h-120q-16 0 -16 17l28 334q2 17 20 17h344q20 0 20 -17v-44q0 -16 -20 -16h-287l-16 -216h47q148 0 220 -44
q81 -51 81 -165v-15z" />
    <glyph glyph-name="six.fitted" unicode="&#xf63e;" 
d="M546 246q0 -121 -60 -186q-63 -67 -184 -67q-242 0 -242 284v175q0 157 66 229q64 69 195 69q95 0 172 -17q23 -6 23 -19v-39q0 -18 -18 -18l-6 1q-82 16 -171 16q-106 0 -143 -62q-28 -46 -28 -160v-11q91 20 151 20q245 0 245 -209v-6zM456 252q0 138 -155 138
q-79 0 -151 -18v-95q0 -117 40 -166q35 -44 112 -44q154 0 154 179v6z" />
    <glyph glyph-name="seven.fitted" unicode="&#xf63f;" horiz-adv-x="541" 
d="M487 628l-288 -613q-7 -15 -22 -15h-60q-15 0 -15 15q0 5 3 11l302 628q1 1 1 4q0 7 -7 7h-341q-20 0 -20 17v42q0 19 20 19h365q75 0 75 -63q0 -24 -13 -52z" />
    <glyph glyph-name="eight.fitted" unicode="&#xf640;" 
d="M551 207q0 -105 -72 -162q-65 -52 -171 -52h-10q-106 0 -171 52q-72 57 -72 162v19q0 108 97 162q-95 48 -95 156v9q0 99 69 150q63 47 172 47h10q109 0 172 -47q69 -51 69 -150v-9q0 -108 -95 -156q97 -54 97 -162v-19zM461 553q0 123 -153 123h-10q-153 0 -153 -123v-9
q0 -51 29 -83q33 -37 98 -37h62q65 0 98 37q29 32 29 83v9zM460 226q0 50 -28 84q-35 42 -98 42h-62q-63 0 -97 -42q-29 -34 -29 -84v-19q0 -138 152 -138h10q152 0 152 138v19z" />
    <glyph glyph-name="nine.fitted" unicode="&#xf641;" 
d="M537 291q0 -157 -66 -229q-64 -69 -195 -69q-95 0 -172 17q-24 6 -24 19v39q0 18 18 18l6 -1q82 -16 171 -16q107 0 144 62q28 46 28 160v11q-93 -20 -151 -20q-246 0 -246 209v6q0 121 61 186q63 67 183 67q243 0 243 -284v-175zM447 466q0 117 -40 166q-35 44 -112 44
q-155 0 -155 -179v-6q0 -138 155 -138q79 0 151 18z" />
    <glyph glyph-name="zero.taboldstyle" unicode="&#xf643;" 
d="M548 269q0 -276 -245 -276q-246 0 -246 276v15q0 276 246 276q245 0 245 -276v-15zM457 284q0 199 -154 199t-154 -199v-15q0 -199 154 -199t154 199v15z" />
    <glyph glyph-name="one.taboldstyle" unicode="&#xf644;" 
d="M90 0q-20 0 -20 18v44q0 17 20 17h159v376l-157 -66q-22 -8 -22 8v51q0 7 10 13l179 82q12 6 21 6h41q19 0 19 -19v-451h160q20 0 20 -17v-44q0 -18 -20 -18h-410z" />
    <glyph glyph-name="two.taboldstyle" unicode="&#xf645;" 
d="M337 196q-102 -38 -133 -62q-24 -18 -34 -55h327q20 0 20 -17v-44q0 -18 -20 -18h-397q-20 0 -20 19v38q0 84 58 131q34 27 154 79q94 40 115 57q30 24 30 71q0 52 -34 72q-32 17 -116 17q-72 0 -177 -15h-4q-16 0 -16 18v35q0 14 19 18q78 20 178 20q125 0 180 -36
q59 -39 59 -129q0 -128 -189 -199z" />
    <glyph glyph-name="three.taboldstyle" unicode="&#xf646;" 
d="M521 17q0 -108 -70 -163q-64 -51 -179 -51q-82 0 -169 20q-19 4 -19 19v34q0 17 17 17h3q105 -14 168 -14q82 0 119 33t37 105v21q0 48 -24 81q-31 41 -93 41h-182q-19 0 -19 18v35q0 19 19 19h182q117 0 117 119v14q0 62 -36 90q-36 29 -120 29q-46 0 -168 -15h-3
q-17 0 -17 17v35q0 15 19 19q96 20 169 20q249 0 249 -195v-14q0 -108 -95 -156q95 -47 95 -157v-21z" />
    <glyph glyph-name="four.taboldstyle" unicode="&#xf647;" 
d="M567 22q0 -18 -19 -18h-87v-178q0 -20 -17 -20h-58q-17 0 -17 20v178h-289q-41 0 -41 39v38q0 21 12 37l296 415q10 16 29 16h59q26 0 26 -22v-447h87q19 0 19 -18v-40zM370 422q0 6 -4 6h-1q-4 0 -8 -6l-231 -328q-3 -4 -3 -8q0 -6 8 -6h239v342z" />
    <glyph glyph-name="five.taboldstyle" unicode="&#xf648;" 
d="M528 33q0 -111 -67 -172t-188 -61q-101 0 -176 18q-19 5 -19 20v37q0 15 15 15h5q80 -14 175 -14q163 0 163 157v15q0 74 -49 105q-48 29 -160 29h-120q-16 0 -16 17l28 334q2 17 20 17h344q20 0 20 -17v-44q0 -16 -20 -16h-287l-16 -216h47q148 0 220 -44
q81 -51 81 -165v-15z" />
    <glyph glyph-name="six.taboldstyle" unicode="&#xf649;" 
d="M546 246q0 -121 -60 -186q-63 -67 -184 -67q-242 0 -242 284v175q0 157 66 229q64 69 195 69q95 0 172 -17q23 -6 23 -19v-39q0 -18 -18 -18l-6 1q-82 16 -171 16q-106 0 -143 -62q-28 -46 -28 -160v-11q91 20 151 20q245 0 245 -209v-6zM456 252q0 138 -155 138
q-79 0 -151 -18v-95q0 -117 40 -166q35 -44 112 -44q154 0 154 179v6z" />
    <glyph glyph-name="seven.taboldstyle" unicode="&#xf64a;" 
d="M520 434l-288 -613q-7 -15 -22 -15h-60q-15 0 -15 15q0 5 3 11l302 628q1 1 1 4q0 7 -7 7h-341q-20 0 -20 17v42q0 19 20 19h365q75 0 75 -63q0 -24 -13 -52z" />
    <glyph glyph-name="eight.taboldstyle" unicode="&#xf64b;" 
d="M551 207q0 -105 -72 -162q-65 -52 -171 -52h-10q-106 0 -171 52q-72 57 -72 162v19q0 108 97 162q-95 48 -95 156v9q0 99 69 150q63 47 172 47h10q109 0 172 -47q69 -51 69 -150v-9q0 -108 -95 -156q97 -54 97 -162v-19zM461 553q0 123 -153 123h-10q-153 0 -153 -123v-9
q0 -51 29 -83q33 -37 98 -37h62q65 0 98 37q29 32 29 83v9zM460 226q0 50 -28 84q-35 42 -98 42h-62q-63 0 -97 -42q-29 -34 -29 -84v-19q0 -138 152 -138h10q152 0 152 138v19z" />
    <glyph glyph-name="nine.taboldstyle" unicode="&#xf64c;" 
d="M537 101q0 -157 -66 -229q-64 -69 -195 -69q-95 0 -172 17q-24 6 -24 19v39q0 18 18 18l6 -1q82 -16 171 -16q107 0 144 62q28 46 28 160v11q-93 -20 -151 -20q-246 0 -246 209v6q0 121 61 186q63 67 183 67q243 0 243 -284v-175zM447 276q0 117 -40 166q-35 44 -112 44
q-155 0 -155 -179v-6q0 -138 155 -138q79 0 151 18z" />
    <glyph glyph-name="zero.denominator" unicode="&#xf655;" horiz-adv-x="333" 
d="M306 171q0 -175 -139 -175q-141 0 -141 175v72q0 176 141 176q139 0 139 -176v-72zM241 243q0 119 -74 119q-75 0 -75 -119v-72q0 -117 75 -117q74 0 74 117v72z" />
    <glyph glyph-name="one.denominator" unicode="&#xf656;" horiz-adv-x="333" 
d="M111 318q-17 -6 -17 13v28q0 10 10 13l80 38q12 6 32 6h6q17 0 17 -19v-378q0 -19 -17 -19h-30q-17 0 -17 19v326z" />
    <glyph glyph-name="two.denominator" unicode="&#xf657;" horiz-adv-x="333" 
d="M222 204q-39 -25 -52 -35q-72 -48 -72 -107v-4h173q18 0 18 -17v-23q0 -18 -18 -18h-214q-18 0 -18 18v44q0 91 86 148l54 36q52 38 52 69q0 48 -73 48q-38 0 -97 -9q-16 0 -16 18v19q0 13 15 18q40 10 98 10q136 0 136 -104q0 -58 -72 -111z" />
    <glyph glyph-name="three.denominator" unicode="&#xf658;" horiz-adv-x="333" 
d="M292 119q0 -123 -142 -123q-38 0 -93 11q-16 4 -16 18v18q0 18 19 18q53 -8 90 -8q76 0 76 66v11q0 59 -55 59h-98q-17 0 -17 16v20q0 17 17 17h98q55 0 55 57v7q0 57 -76 57q-20 0 -80 -8l-12 -1q-17 0 -17 18v18q0 13 15 19q50 10 94 10q142 0 142 -113v-7
q0 -56 -43 -84q43 -27 43 -85v-11z" />
    <glyph glyph-name="four.denominator" unicode="&#xf659;" horiz-adv-x="333" 
d="M317 124q0 -17 -19 -17h-38v-88q0 -19 -18 -19h-31q-17 0 -17 19v88h-147q-31 0 -31 28v20q0 15 8 26l162 224q6 11 20 11h31q23 0 23 -20v-233h38q19 0 19 -17v-22zM195 325l-113 -162h113v162z" />
    <glyph glyph-name="five.denominator" unicode="&#xf65a;" horiz-adv-x="333" 
d="M295 129q0 -63 -38 -98t-107 -35q-57 0 -96 10q-16 5 -16 18v20q0 17 19 17q47 -8 93 -8q81 0 81 76v9q0 35 -25 50q-24 13 -80 13h-65q-16 0 -16 19l14 179q3 17 19 17h186q18 0 18 -18v-24q0 -16 -18 -16h-148l-7 -100h17q169 0 169 -120v-9z" />
    <glyph glyph-name="six.denominator" unicode="&#xf65b;" horiz-adv-x="333" 
d="M305 140q0 -144 -139 -144q-138 0 -138 160v95q0 168 149 168q54 0 94 -9q18 -4 18 -18v-21q0 -13 -8 -15q-3 -1 -23 1q-63 6 -81 6q-52 0 -70 -30q-14 -23 -14 -78q34 9 73 9q139 0 139 -120v-4zM241 144q0 66 -75 66q-43 0 -73 -8v-46q0 -104 73 -104q75 0 75 88v4z
" />
    <glyph glyph-name="seven.denominator" unicode="&#xf65c;" horiz-adv-x="333" 
d="M231 358h-177q-19 0 -19 16v23q0 19 19 19h205q39 0 39 -36q0 -21 -8 -38l-156 -333q-4 -9 -17 -9h-36q-21 0 -10 24z" />
    <glyph glyph-name="eight.denominator" unicode="&#xf65d;" horiz-adv-x="333" 
d="M308 119q0 -60 -41 -93q-38 -30 -98 -30h-5q-60 0 -98 30q-41 34 -41 93v10q0 55 45 87q-44 33 -44 84v5q0 114 138 114h5q138 0 138 -114v-5q0 -53 -44 -84q45 -31 45 -87v-10zM243 129q0 61 -59 61h-34q-30 0 -46 -20q-14 -17 -14 -41v-10q0 -66 74 -66h5q74 0 74 66
v10zM244 305q0 59 -75 59h-5q-74 0 -74 -59v-5q0 -57 60 -57h34q60 0 60 57v5z" />
    <glyph glyph-name="nine.denominator" unicode="&#xf65e;" horiz-adv-x="333" 
d="M29 276q0 144 139 144q138 0 138 -160v-95q0 -168 -149 -168q-54 0 -94 9q-18 4 -18 18v21q0 13 8 15q3 1 23 -1q63 -6 81 -6q52 0 70 30q14 23 14 78q-34 -9 -73 -9q-139 0 -139 120v4zM93 272q0 -66 75 -66q43 0 73 8v46q0 104 -73 104q-75 0 -75 -88v-4z" />
    <glyph glyph-name="zero.numerator" unicode="&#xf661;" horiz-adv-x="333" 
d="M306 498q0 -175 -139 -175q-141 0 -141 175v72q0 176 141 176q139 0 139 -176v-72zM241 570q0 119 -74 119q-75 0 -75 -119v-72q0 -117 75 -117q74 0 74 117v72z" />
    <glyph glyph-name="one.numerator" unicode="&#xf662;" horiz-adv-x="333" 
d="M82 645q-17 -6 -17 13v28q0 10 10 13l80 38q12 6 32 6h6q17 0 17 -19v-378q0 -19 -17 -19h-30q-17 0 -17 19v326z" />
    <glyph glyph-name="two.numerator" unicode="&#xf663;" horiz-adv-x="333" 
d="M222 531q-39 -25 -52 -35q-72 -48 -72 -107v-4h173q18 0 18 -17v-23q0 -18 -18 -18h-214q-18 0 -18 18v44q0 91 86 148l54 36q52 38 52 69q0 48 -73 48q-38 0 -97 -9q-16 0 -16 18v19q0 13 15 18q40 10 98 10q136 0 136 -104q0 -58 -72 -111z" />
    <glyph glyph-name="three.numerator" unicode="&#xf664;" horiz-adv-x="333" 
d="M292 446q0 -123 -142 -123q-38 0 -93 11q-16 4 -16 18v18q0 18 19 18q53 -8 90 -8q76 0 76 66v11q0 59 -55 59h-98q-17 0 -17 16v20q0 17 17 17h98q55 0 55 57v7q0 57 -76 57q-20 0 -80 -8l-12 -1q-17 0 -17 18v18q0 13 15 19q50 10 94 10q142 0 142 -113v-7
q0 -56 -43 -84q43 -27 43 -85v-11z" />
    <glyph glyph-name="four.numerator" unicode="&#xf665;" horiz-adv-x="333" 
d="M317 451q0 -17 -19 -17h-38v-88q0 -19 -18 -19h-31q-17 0 -17 19v88h-147q-31 0 -31 28v20q0 15 8 26l162 224q6 11 20 11h31q23 0 23 -20v-233h38q19 0 19 -17v-22zM195 652l-113 -162h113v162z" />
    <glyph glyph-name="five.numerator" unicode="&#xf666;" horiz-adv-x="333" 
d="M295 456q0 -63 -38 -98t-107 -35q-57 0 -96 10q-16 5 -16 18v20q0 17 19 17q47 -8 93 -8q81 0 81 76v9q0 35 -25 50q-24 13 -80 13h-65q-16 0 -16 19l14 179q3 17 19 17h186q18 0 18 -18v-24q0 -16 -18 -16h-148l-7 -100h17q169 0 169 -120v-9z" />
    <glyph glyph-name="six.numerator" unicode="&#xf667;" horiz-adv-x="333" 
d="M305 467q0 -144 -139 -144q-138 0 -138 160v95q0 168 149 168q54 0 94 -9q18 -4 18 -18v-21q0 -13 -8 -15q-3 -1 -23 1q-63 6 -81 6q-52 0 -70 -30q-14 -23 -14 -78q34 9 73 9q139 0 139 -120v-4zM241 471q0 66 -75 66q-43 0 -73 -8v-46q0 -104 73 -104q75 0 75 88v4z
" />
    <glyph glyph-name="seven.numerator" unicode="&#xf668;" horiz-adv-x="333" 
d="M231 685h-177q-19 0 -19 16v23q0 19 19 19h205q39 0 39 -36q0 -21 -8 -38l-156 -333q-4 -9 -17 -9h-36q-21 0 -10 24z" />
    <glyph glyph-name="eight.numerator" unicode="&#xf669;" horiz-adv-x="333" 
d="M308 446q0 -60 -41 -93q-38 -30 -98 -30h-5q-60 0 -98 30q-41 34 -41 93v10q0 55 45 87q-44 33 -44 84v5q0 114 138 114h5q138 0 138 -114v-5q0 -53 -44 -84q45 -31 45 -87v-10zM243 456q0 61 -59 61h-34q-30 0 -46 -20q-14 -17 -14 -41v-10q0 -66 74 -66h5q74 0 74 66
v10zM244 632q0 59 -75 59h-5q-74 0 -74 -59v-5q0 -57 60 -57h34q60 0 60 57v5z" />
    <glyph glyph-name="nine.numerator" unicode="&#xf66a;" horiz-adv-x="333" 
d="M29 603q0 144 139 144q138 0 138 -160v-95q0 -168 -149 -168q-54 0 -94 9q-18 4 -18 18v21q0 13 8 15q3 1 23 -1q63 -6 81 -6q52 0 70 30q14 23 14 78q-34 -9 -73 -9q-139 0 -139 120v4zM93 599q0 -66 75 -66q43 0 73 8v46q0 104 -73 104q-75 0 -75 -88v-4z" />
    <glyph glyph-name="j.dotless" unicode="&#xe008;" horiz-adv-x="247" 
d="M167 -64q0 -75 -32 -105q-29 -28 -93 -28q-27 0 -54 4q-18 3 -18 16v37q0 14 21 14h41q28 0 38 12q9 12 9 50v594q0 20 18 20h52q18 0 18 -20v-594z" />
    <glyph glyph-name="uni2215" unicode="&#x2215;" horiz-adv-x="255" 
d="M370 743q17 0 6 -19l-418 -708q-11 -20 -22 -20h-47q-20 0 -8 20l421 713q9 14 20 14h48z" />
    <glyph glyph-name="uni021A" unicode="&#x21a;" horiz-adv-x="590" 
d="M333 -49q11 0 11 -11l-1 -8l-54 -109q-9 -19 -24 -19h-41q-9 0 -9 8q0 4 1 8l28 112q4 19 20 19h69zM555 681q0 -16 -19 -16h-195v-645q0 -20 -18 -20h-55q-18 0 -18 20v645h-195q-20 0 -20 16v44q0 18 20 18h481q19 0 19 -18v-44z" />
    <glyph glyph-name="uni021B" unicode="&#x21b;" horiz-adv-x="385" 
d="M246 -49q11 0 11 -11l-1 -8l-54 -109q-9 -19 -24 -19h-41q-9 0 -9 8q0 4 1 8l28 112q4 19 20 19h69zM360 15q0 -14 -18 -17q-33 -5 -65 -5q-73 0 -102 26q-34 29 -34 108v349l-97 11q-19 2 -19 18v27q0 18 19 18h97v98q0 17 18 20l55 8q15 0 15 -17v-109h108q20 0 20 -20
v-34q0 -20 -20 -20h-108v-349q0 -40 12 -52q10 -11 42 -11h56q21 0 21 -14v-35z" />
    <glyph glyph-name="uni03A9" unicode="&#x3a9;" horiz-adv-x="592" 
d="M556 21q0 -21 -23 -21h-181q-21 0 -21 21v113q0 20 14 25q125 44 125 214v88q0 213 -174 213t-174 -213v-88q0 -170 125 -214q14 -5 14 -25v-113q0 -21 -21 -21h-181q-23 0 -23 21v34q0 20 23 20h121v37q-148 63 -148 261v88q0 140 69 217q70 77 195 77t195 -77
q69 -77 69 -217v-88q0 -198 -148 -261v-37h121q23 0 23 -20v-34z" />
    <glyph glyph-name="uni04E8" unicode="&#x4e8;" horiz-adv-x="661" 
d="M601 307q0 -160 -76 -240q-70 -74 -194 -74t-194 74q-77 81 -77 240v129q0 159 77 240q70 74 194 74t194 -74q76 -80 76 -240v-129zM509 419v17q0 232 -178 232q-179 0 -179 -232v-17h357zM152 354v-47q0 -232 179 -232q178 0 178 232v47h-357z" />
    <glyph glyph-name="uni04E9" unicode="&#x4e9;" horiz-adv-x="545" 
d="M495 237q0 -113 -56 -177q-59 -67 -167 -67t-166 67q-56 64 -56 177v76q0 113 56 177q58 67 166 67t167 -67q56 -64 56 -177v-76zM138 250v-13q0 -167 134 -167q135 0 135 167v13h-269zM407 316q-1 164 -135 164q-133 0 -134 -164h269z" />
    <glyph glyph-name="uni04D8" unicode="&#x4d8;" horiz-adv-x="544" 
d="M-10 376q0 29 24 29h450v19q-10 132 -57.5 179.5t-146.5 55.5q-133 0 -224 -23q-26 -5 -26 19v35q0 25 25 30q111 23 225 23q124 0 197 -66q88 -82 88 -253v-120q0 -145 -72 -227q-74 -84 -207 -84q-134 0 -207 85q-69 81 -69 226v72zM72 314q-6 -237 194 -239
q199 14 199 239v12h-393v-12z" />
    <glyph glyph-name="uni04D9" unicode="&#x4d9;" horiz-adv-x="544" 
d="M50 281q0 22 19 22h335v14q0 87 -35 126q-33 37 -104 37q-106 0 -178 -11q-21 -4 -21 14v34q0 19 20 23q88 17 179 17q99 0 157 -50q70 -61 70 -190v-90q0 -109 -57 -171q-59 -63 -165 -63q-107 0 -165 64q-55 61 -55 170v54zM139 227q0 -157 131 -157q134 0 134 157v9
h-265v-9z" />
    <glyph glyph-name="uni04A2" unicode="&#x4a2;" horiz-adv-x="680" 
d="M602 20q0 -20 -20 -20h-51q-20 0 -20 20v332h-342v-332q0 -20 -20 -20h-51q-20 0 -20 20v703q0 20 20 20h51q20 0 20 -20v-290h342v290q0 20 20 20h51q20 0 20 -20v-703zM535 1l3 81h111q18 0 18 -19v-162q0 -20 -18 -20h-55q-18 0 -18 20v100h-41z" />
    <glyph glyph-name="uni04A3" unicode="&#x4a3;" horiz-adv-x="577" 
d="M509 20q0 -20 -20 -20h-48q-20 0 -20 20v223h-265v-223q0 -20 -20 -20h-48q-20 0 -20 20v510q0 20 20 20h48q20 0 20 -20v-212h265v212q0 20 20 20h48q20 0 20 -20v-510zM437 83h121q20 0 20 -19v-146q0 -20 -20 -20h-47q-20 0 -20 20v89h-60z" />
    <glyph glyph-name="uni0492" unicode="&#x492;" horiz-adv-x="536" 
d="M496 680q0 -12 -11 -12h-193q-76 0 -101 -23q-22 -21 -22 -81v-544q0 -20 -20 -20h-51q-20 0 -20 20v544q0 186 213 186q132 0 195 -6q10 -2 10 -14v-50zM401 446q0 -17 -15 -17h-376q-15 0 -15 17v39q0 18 15 18h376q15 0 15 -18v-39z" />
    <glyph glyph-name="uni0493" unicode="&#x493;" horiz-adv-x="409" 
d="M193 474q-22 0 -30 -8q-8 -7 -8 -30v-416q0 -20 -20 -20h-48q-20 0 -20 20v416q0 74 46 100q26 14 80 14h175q20 0 20 -20v-36q0 -20 -20 -20h-175zM301 297q0 -17 -12 -17h-278q-11 0 -11 17v39q0 18 11 18h278q12 0 12 -18v-39z" />
    <glyph glyph-name="uni04AE" unicode="&#x4ae;" horiz-adv-x="583" 
d="M546 718l-155 -348q-24 -52 -54 -66v-284q0 -20 -18 -20h-55q-18 0 -18 20v284q-29 11 -54 66l-154 348q-3 6 -3 11q0 14 17 14h61q12 0 18 -14l138 -324q11 -26 23 -26t23 26l139 324q6 14 17 14h61q17 0 17 -14q0 -5 -3 -11z" />
    <glyph glyph-name="uni04AF" unicode="&#x4af;" horiz-adv-x="583" 
d="M566 525l-175 -454q-24 -52 -54 -66v-185q0 -20 -18 -20h-55q-18 0 -18 20v185q-29 11 -54 66l-174 454q-3 6 -3 11q0 14 17 14h61q12 0 18 -14l158 -430q11 -26 23 -26t23 26l159 430q6 14 17 14h61q17 0 17 -14q0 -5 -3 -11z" />
    </font>
</defs>
</svg>
